<?xml version="1.0" encoding="utf-8"?>
<!-- Generator: Adobe Illustrator 16.2.0, SVG Export Plug-In . SVG Version: 6.00 Build 0)  -->
<!DOCTYPE svg PUBLIC "-//W3C//DTD SVG 1.1 Tiny//EN" "http://www.w3.org/Graphics/SVG/1.1/DTD/svg11-tiny.dtd">
<svg version="1.1" baseProfile="tiny" xmlns="http://www.w3.org/2000/svg" xmlns:xlink="http://www.w3.org/1999/xlink" x="0px"
	 y="0px" width="80px" height="40px" viewBox="0 0 80 40" xml:space="preserve">
<g id="Layer_2" display="none">
	<rect x="-15" y="-10" display="inline" fill-rule="evenodd" fill="#E21414" width="111" height="60"/>
</g>
<g id="Layer_1">
	<g>
		<path fill-rule="evenodd" fill="#FFFFFF" d="M33.546,0.588c-4.374,11.425-4.374,11.425-4.374,11.425c3.888,0,3.888,0,3.888,0
			c1.093-2.552,2.672-6.685,2.672-6.685c26.48,10.332,26.48,10.332,26.48,10.332c-6.438,16.773-6.438,16.773-6.438,16.773
			c0,4.012,0,4.012,0,4.012c2.187,0.729,2.187,0.729,2.187,0.729c9.11-23.701,9.11-23.701,9.11-23.701L33.546,0.588L33.546,0.588
			L33.546,0.588z"/>
		<path fill-rule="evenodd" fill="#FFFFFF" d="M18,40h36V14H18l0,0 M50,36H22V18h28V36L50,36L50,36z"/>
		<path fill-rule="evenodd" fill="#FFFFFF" d="M24.682,37.94c0-6.086,0.975-10.954,6.578-10.954c5.482,0,6.457,4.868,6.457,10.954
			H24.682L24.682,37.94L24.682,37.94z"/>
		<path fill-rule="evenodd" fill="#FFFFFF" d="M37.388,28.786c1.346,2.184,1.712,5.096,1.712,7.401c0.734,0,4.77,0,5.627,0
			c-0.123-5.581-1.713-7.887-5.138-7.887C38.733,28.301,38,28.422,37.388,28.786L37.388,28.786z"/>
		<path fill-rule="evenodd" fill="#FFFFFF" d="M27.311,22.441c0-2.149,1.741-3.889,3.889-3.889c2.147,0,3.888,1.74,3.888,3.889
			c0,2.147-1.741,3.888-3.888,3.888C29.051,26.329,27.311,24.589,27.311,22.441L27.311,22.441z"/>
		<path fill-rule="evenodd" fill="#FFFFFF" d="M36.621,24.412c0-1.603,1.324-2.902,2.958-2.902s2.958,1.3,2.958,2.902
			c0,1.604-1.324,2.903-2.958,2.903S36.621,26.016,36.621,24.412L36.621,24.412z"/>
	</g>
</g>
</svg>
