<?xml version="1.0" encoding="utf-8"?>
<!-- Generator: Adobe Illustrator 16.0.0, SVG Export Plug-In . SVG Version: 6.00 Build 0)  -->
<!DOCTYPE svg PUBLIC "-//W3C//DTD SVG 1.1//EN" "http://www.w3.org/Graphics/SVG/1.1/DTD/svg11.dtd" [
	<!ENTITY ns_flows "http://ns.adobe.com/Flows/1.0/">
	<!ENTITY ns_extend "http://ns.adobe.com/Extensibility/1.0/">
	<!ENTITY ns_ai "http://ns.adobe.com/AdobeIllustrator/10.0/">
	<!ENTITY ns_graphs "http://ns.adobe.com/Graphs/1.0/">
]>
<svg version="1.1" id="audio_x5F_headphones_x5F_36w_x5F_rev" xmlns:x="&ns_extend;" xmlns:i="&ns_ai;" xmlns:graph="&ns_graphs;"
	 xmlns="http://www.w3.org/2000/svg" xmlns:xlink="http://www.w3.org/1999/xlink" xmlns:a="http://ns.adobe.com/AdobeSVGViewerExtensions/3.0/"
	 x="0px" y="0px" width="80px" height="40px" viewBox="0 0 80 40" enable-background="new 0 0 80 40" xml:space="preserve">
<path id="bottomright" fill="#FFFFFF" d="M56.374,22.427c0.03,0.506,0.042,1.018,0.042,1.53c0,3.986-0.752,7.907-2.186,11.346
	c-0.156,0.379,0.023,0.819,0.403,0.976c0.097,0.042,0.192,0.061,0.289,0.061c0.295,0,0.572-0.175,0.692-0.458
	c1.506-3.619,2.301-7.744,2.301-11.924c0-0.5-0.019-1-0.036-1.5L56.374,22.427z"/>
<path id="bottomleft" fill="#FFFFFF" d="M22.229,22.65c-0.018,0.434-0.03,0.867-0.03,1.307c0,4.174,0.795,8.293,2.294,11.906
	c0.12,0.289,0.403,0.463,0.692,0.463c0.096,0,0.193-0.023,0.289-0.06c0.379-0.157,0.56-0.597,0.403-0.981
	c-1.427-3.427-2.18-7.348-2.18-11.328c0-0.506,0.018-1.006,0.042-1.505L22.229,22.65z"/>
<path id="top_1_" fill="#FFFFFF" stroke="#FFFFFF" stroke-width="1.25" stroke-miterlimit="10" d="M57.88,22.458
	c0.325-0.217,0.554-0.578,0.578-1.006c0.03-0.409,0.042-0.825,0.042-1.24c0-10.34-8.299-18.753-18.5-18.753
	c-10.202,0-18.5,8.413-18.5,18.753c0,0.373,0.012,0.958,0.036,1.361c0.03,0.47,0.307,0.867,0.692,1.078l1.512-0.199
	c0.271-0.259,0.434-0.632,0.41-1.042c-0.018-0.331-0.03-0.855-0.03-1.198c0-8.895,7.124-16.133,15.88-16.133
	c8.756,0,15.881,7.238,15.881,16.133c0,0.355-0.013,0.716-0.037,1.072c-0.029,0.464,0.188,0.885,0.53,1.144L57.88,22.458z"/>
<path id="earright" fill="#FFFFFF" d="M54.033,28.918c0-1.846-0.375-3.609-1.049-5.215c-0.07-0.258-0.182-0.504-0.328-0.727
	c0-0.006-0.006-0.006-0.006-0.012l0,0c-0.457-0.674-1.23-1.119-2.104-1.119c-0.967,0-1.805,0.539-2.232,1.33
	c-0.129,0.199-0.27,0.439-0.293,0.674c-0.076,1.002-0.99,9.059-1.377,10.863c-0.041,0.193-0.064,0.41-0.07,0.645
	c-0.012,0.105-0.023,0.211-0.023,0.316c0,1.4,1.137,2.537,2.537,2.537c0.885,0,1.588-0.346,2.033-0.926l0.006-0.006
	C52.943,34.988,54.033,32.082,54.033,28.918z"/>
<path id="earleft" fill="#FFFFFF" d="M26.148,28.918c0-1.846,0.375-3.609,1.049-5.215c0.07-0.258,0.182-0.504,0.328-0.727
	c0.006-0.006,0.006-0.006,0.012-0.012l0,0c0.451-0.674,1.225-1.119,2.104-1.119c0.961,0,1.799,0.539,2.227,1.33
	c0.135,0.199,0.275,0.439,0.293,0.674c0.082,1.002,0.99,9.059,1.377,10.863c0.047,0.193,0.064,0.41,0.07,0.645
	c0.012,0.105,0.023,0.211,0.023,0.316c0,1.4-1.137,2.537-2.537,2.537c-0.885,0-1.588-0.346-2.027-0.926l-0.006-0.006
	C27.238,34.988,26.148,32.082,26.148,28.918z"/>
</svg>
