<?xml version="1.0" encoding="utf-8"?>
<!-- Generator: Adobe Illustrator 16.2.0, SVG Export Plug-In . SVG Version: 6.00 Build 0)  -->
<!DOCTYPE svg PUBLIC "-//W3C//DTD SVG 1.1 Tiny//EN" "http://www.w3.org/Graphics/SVG/1.1/DTD/svg11-tiny.dtd">
<svg version="1.1" baseProfile="tiny" id="Layer_1" xmlns="http://www.w3.org/2000/svg" xmlns:xlink="http://www.w3.org/1999/xlink"
	 x="0px" y="0px" width="80px" height="40px" viewBox="0 0 80 40" xml:space="preserve">
<path fill="#FFFFFF" d="M32.017,32.319c0,1.324-0.407,2.423-1.221,3.296c-0.815,0.873-1.843,1.309-3.085,1.309
	c-0.914,0-1.644-0.242-2.189-0.729c-0.545-0.487-0.817-1.111-0.817-1.872c0-1.043,0.296-1.773,0.888-2.189
	c0.591-0.416,1.473-0.699,2.645-0.852l3.779-0.528V32.319z M35.955,27.89c0-4.478-2.273-6.716-6.82-6.716
	c-2.485,0-4.676,0.563-6.575,1.688v3.568c1.723-1.478,3.657-2.216,5.801-2.216c2.438,0,3.656,1.283,3.656,3.851l-5.343,0.756
	c-3.914,0.562-5.871,2.543-5.871,5.94c0,1.582,0.501,2.854,1.503,3.815c1.002,0.96,2.387,1.441,4.157,1.441
	c2.402,0,4.224-1.078,5.467-3.234H32v2.813h3.955V27.89z"/>
<path fill="#FFFFFF" d="M51.302,22.438c-0.171,0-0.623,0-0.732-0.362c-0.11-0.364,0.267-0.614,0.427-0.721l0.034-0.022l0.037-0.014
	c2.365-0.92,4.059-1.879,5.029-2.85c1.135-1.135,1.711-2.341,1.711-3.581c0-1.189-0.36-2.129-1.104-2.873
	c-0.836-0.835-2.232-1.305-4.154-1.399c-0.461,1.027-1.044,2.151-1.736,3.345c-0.695,1.201-1.488,2.3-2.36,3.269
	c0.215,0.267,0.451,0.553,0.707,0.859c0.401,0.506,0.342,1.04-0.154,1.436c-0.222,0.15-0.427,0.217-0.636,0.217
	c-0.392,0-0.764-0.232-1.105-0.688c-0.095-0.127-0.183-0.247-0.264-0.36c-0.79,0.754-1.589,1.381-2.38,1.869
	c-0.836,0.513-1.688,0.772-2.534,0.772c-0.106,0-0.212-0.004-0.318-0.012c-1.07-0.106-2.377-0.727-2.564-3.069
	c-0.144-1.864,0.712-3.666,2.545-5.358c0.785-0.719,1.73-1.381,2.814-1.972c0.013-0.936,0.1-2.279,0.26-3.999
	c-0.786,0.104-1.555,0.186-2.289,0.241c-0.104,0.012-0.215,0.018-0.323,0.018c-0.567,0-1.033-0.178-1.383-0.53
	c-0.585-0.583-0.958-1.185-1.108-1.79l-0.02-0.079l0.016-0.081c0.099-0.504,0.379-0.579,0.537-0.579c0.28,0,0.465,0.246,0.525,0.327
	c0.38,0.745,0.917,1.066,1.727,1.066c0.991,0,1.832-0.052,2.505-0.153c0.178-1.227,0.299-2.384,0.362-3.443
	c0.019-0.175,0.063-0.588-0.989-0.823c-0.336-0.013-0.462-0.175-0.507-0.312c-0.109-0.328,0.209-0.566,0.329-0.656l0.099-0.074
	h0.123c0.995,0,1.868,0.183,2.592,0.545c0.532,0.266,0.84,0.597,0.915,0.984C48,1.935,47.877,2.294,47.568,2.656
	c-0.215,0.448-0.433,1.234-0.651,2.342c1.538-0.374,2.659-0.849,3.339-1.416l0.118-0.098l0.153,0.014
	c1.067,0.098,1.408,0.246,1.586,0.363c0.405,0.255,0.466,0.539,0.441,0.731c-0.046,0.385-0.416,0.666-1.237,0.94
	c-1.231,0.454-2.798,0.821-4.648,1.089c-0.245,1.546-0.393,2.747-0.44,3.584c1.46-0.521,2.891-0.859,4.262-1.008
	c-0.096-0.196-0.373-0.416-1.156-0.515l-0.063-0.008l-0.056-0.027c-0.329-0.164-0.391-0.378-0.385-0.529
	c0.014-0.35,0.389-0.501,0.513-0.55l0.078-0.032l0.084,0.006c1.556,0.101,2.549,0.422,3.037,0.981
	c0.168,0.192,0.275,0.409,0.321,0.648c2.538,0.111,4.379,0.721,5.475,1.815c1.078,1.079,1.625,2.392,1.625,3.902
	c0,1.511-0.649,2.926-1.929,4.205c-1.525,1.525-3.762,2.647-6.647,3.335l-0.043,0.01H51.302z M44.596,12.593
	c-0.69,0.449-1.301,0.963-1.817,1.533c-1.076,1.202-1.623,2.548-1.623,3.998c0,1.683,0.657,1.737,0.874,1.755
	c0.062,0.006,0.118,0.009,0.176,0.009c0.544,0,1.187-0.254,1.909-0.753c0.711-0.474,1.372-1.032,1.974-1.665
	C45.238,16.025,44.737,14.388,44.596,12.593 M46.234,11.769c0.186,1.775,0.602,3.188,1.239,4.211
	c0.609-0.82,1.173-1.719,1.682-2.679c0.429-0.858,0.798-1.733,1.101-2.605C48.473,10.986,47.124,11.347,46.234,11.769"/>
<path fill="#FFFFFF" d="M50.796,10.237c-0.338,1.079-0.776,2.159-1.313,3.236c-0.607,1.147-1.282,2.192-2.023,3.135
	c-0.877-1.146-1.415-2.831-1.618-5.056C46.853,11.013,48.504,10.575,50.796,10.237 M44.931,11.956
	c0.067,2.091,0.607,3.944,1.618,5.562c-0.674,0.743-1.416,1.382-2.224,1.921c-0.877,0.607-1.653,0.876-2.326,0.809
	c-0.809-0.066-1.214-0.774-1.214-2.123c0-1.55,0.572-2.966,1.719-4.247C43.178,13.137,43.986,12.497,44.931,11.956 M47.257,2.451
	c0.539-0.607,0.404-1.112-0.404-1.517c-0.675-0.336-1.483-0.505-2.427-0.505c-0.271,0.202-0.271,0.303,0,0.303
	c0.943,0.202,1.381,0.607,1.314,1.213c-0.068,1.147-0.202,2.394-0.404,3.742c-0.743,0.136-1.686,0.202-2.832,0.202
	c-0.944,0-1.618-0.404-2.021-1.213c-0.202-0.269-0.339-0.236-0.405,0.101c0.135,0.54,0.471,1.079,1.012,1.618
	c0.336,0.338,0.81,0.472,1.415,0.404c0.876-0.066,1.786-0.167,2.731-0.303c-0.203,2.09-0.305,3.64-0.305,4.651
	c-1.146,0.607-2.123,1.282-2.932,2.023c-1.754,1.618-2.563,3.304-2.427,5.056c0.134,1.686,0.875,2.594,2.224,2.73
	c0.876,0.065,1.753-0.169,2.63-0.708c0.875-0.539,1.752-1.246,2.629-2.123c0.135,0.202,0.304,0.439,0.505,0.708
	c0.405,0.54,0.81,0.674,1.215,0.404c0.336-0.269,0.369-0.572,0.101-0.91c-0.338-0.405-0.641-0.774-0.91-1.112
	c0.943-1.012,1.785-2.157,2.528-3.438c0.741-1.28,1.348-2.461,1.82-3.54c2.156,0.068,3.706,0.574,4.651,1.517
	c0.81,0.809,1.213,1.855,1.213,3.135c0,1.349-0.606,2.629-1.819,3.842c-1.012,1.012-2.73,1.99-5.157,2.933
	c-0.405,0.269-0.372,0.403,0.101,0.403c2.831-0.674,4.988-1.752,6.473-3.234c1.213-1.214,1.819-2.528,1.819-3.944
	s-0.506-2.629-1.517-3.64c-1.079-1.078-2.934-1.652-5.563-1.72c0.067-0.943-0.943-1.482-3.032-1.617
	c-0.339,0.135-0.372,0.27-0.102,0.404c1.077,0.136,1.583,0.54,1.517,1.213c-1.618,0.136-3.304,0.541-5.057,1.214
	c0-0.875,0.168-2.359,0.506-4.449c1.954-0.269,3.572-0.64,4.854-1.113c1.011-0.336,1.246-0.673,0.708-1.011
	c-0.203-0.134-0.675-0.235-1.416-0.303c-0.81,0.674-2.158,1.213-4.045,1.618C46.717,4.003,46.987,2.991,47.257,2.451"/>
<path fill="#FFFFFF" d="M39.555,8.847c0,0-6.662-5.088-13.789-0.294c-0.011,0.007-0.019,0.014-0.03,0.021l-4.653-4.652v14h14
	l-4.412-4.413C31.061,12.065,32.924,10.096,39.555,8.847"/>
<path fill="#FFFFFF" d="M56.222,26h-14l4.412,4.412c-0.39,1.444-2.252,3.413-8.884,4.663c0,0,6.662,5.087,13.789,0.293
	c0.011-0.007,0.019-0.015,0.03-0.021L56.222,40V26z"/>
<rect fill="none" width="80" height="40"/>
</svg>
