<?xml version="1.0" encoding="utf-8"?>
<!-- Generator: Adobe Illustrator 16.2.0, SVG Export Plug-In . SVG Version: 6.00 Build 0)  -->
<!DOCTYPE svg PUBLIC "-//W3C//DTD SVG 1.1 Tiny//EN" "http://www.w3.org/Graphics/SVG/1.1/DTD/svg11-tiny.dtd">
<svg version="1.1" baseProfile="tiny" xmlns="http://www.w3.org/2000/svg" xmlns:xlink="http://www.w3.org/1999/xlink" x="0px"
	 y="0px" width="80px" height="40px" viewBox="0 0 80 40" xml:space="preserve">
<g id="Layer_2" display="none">
	<rect x="-1.709" y="-1.798" display="inline" fill="#C52127" width="85.616" height="46.38"/>
</g>
<g id="Layer_1">
	<path id="search_1_" fill="#FFFFFF" d="M72.03,25.236c-0.927-1.533-2.395-2.613-4.133-3.041C67.369,22.065,66.828,22,66.289,22
		c-3.089,0-5.763,2.099-6.505,5.104c-0.432,1.757-0.123,3.525,0.724,4.977c-0.005,0.004-0.009,0.008-0.013,0.012l-5.05,5.098
		c-0.642,0.647-0.636,1.691,0.011,2.332C55.778,39.84,56.197,40,56.616,40c0.426,0,0.85-0.164,1.171-0.489l5.026-5.073
		c0.568,0.346,1.197,0.613,1.877,0.781c0.526,0.129,1.066,0.195,1.605,0.195c3.092,0,5.768-2.1,6.507-5.104
		C73.231,28.571,72.958,26.77,72.03,25.236z M70.81,29.819c-0.514,2.085-2.37,3.54-4.514,3.54c-0.373,0-0.749-0.045-1.114-0.135
		c-2.488-0.615-4.015-3.141-3.403-5.63c0.514-2.085,2.369-3.541,4.511-3.541c0.373,0,0.748,0.046,1.117,0.136
		c1.206,0.297,2.223,1.046,2.867,2.109C70.916,27.362,71.106,28.612,70.81,29.819z"/>
	<g>
		<g>
			<rect x="20" y="14.999" fill="none" width="18" height="16.002"/>
			<rect x="20" y="7" fill="none" width="36" height="4"/>
			<rect x="42" y="28" fill="none" width="14" height="3"/>
			<rect x="42" y="15" fill="none" width="11" height="3"/>
			<rect x="42" y="21" fill="none" width="14" height="4"/>
			<path fill="#FFFFFF" d="M60.032,0.99c0.003-0.005-0.001-0.009-0.009-0.014c-0.005-0.007-0.009-0.01-0.014-0.008
				C59.985,0.959,59.96,0.96,60,1C60.041,1.041,60.042,1.015,60.032,0.99z"/>
			<path fill="#FFFFFF" d="M57.213,31.78c-0.648-1.592-0.78-3.343-0.365-5.034c0.48-1.944,1.625-3.572,3.152-4.681V1H16.458
				c-0.12,0-0.238,0.048-0.324,0.133C16.049,1.219,16,1.335,16,1.455v35.502l36.309,0.035c0.149-0.312,0.341-0.605,0.592-0.858
				L57.213,31.78z M56,25H42v-4h14V25z M42,18v-3h11v3H42z M20,7h36v4H20V7z M38,31.002L20,31V15h18V31.002z M42,28h14v3H42V28z"/>
			<path fill="#FFFFFF" d="M15.968,36.968c-0.002,0.004,0.001,0.008,0.009,0.014c0.005,0.007,0.009,0.01,0.014,0.008
				c0.024,0.01,0.051,0.009,0.01-0.032C15.959,36.917,15.959,36.942,15.968,36.968z"/>
			<path fill="#FFFFFF" d="M64,3.455c0-0.12-0.048-0.236-0.133-0.322C63.781,3.048,63.665,3,63.545,3h-1.534v18C62,19,64,20,64,19
				V3.455z"/>
		</g>
	</g>
</g>
</svg>
