<?xml version="1.0" encoding="utf-8"?>
<!-- Generator: Adobe Illustrator 16.2.0, SVG Export Plug-In . SVG Version: 6.00 Build 0)  -->
<!DOCTYPE svg PUBLIC "-//W3C//DTD SVG 1.1//EN" "http://www.w3.org/Graphics/SVG/1.1/DTD/svg11.dtd" [
	<!ENTITY ns_flows "http://ns.adobe.com/Flows/1.0/">
	<!ENTITY ns_extend "http://ns.adobe.com/Extensibility/1.0/">
	<!ENTITY ns_ai "http://ns.adobe.com/AdobeIllustrator/10.0/">
	<!ENTITY ns_graphs "http://ns.adobe.com/Graphs/1.0/">
]>
<svg version="1.1" xmlns:x="&ns_extend;" xmlns:i="&ns_ai;" xmlns:graph="&ns_graphs;"
	 xmlns="http://www.w3.org/2000/svg" xmlns:xlink="http://www.w3.org/1999/xlink" xmlns:a="http://ns.adobe.com/AdobeSVGViewerExtensions/3.0/"
	 x="0px" y="0px" width="80px" height="40px" viewBox="0 0 80 40" enable-background="new 0 0 80 40" xml:space="preserve">
<g id="Layer_2" display="none">
	<rect x="-6" y="-6" display="inline" fill="#E20E0E" width="96" height="55"/>
</g>
<g id="ImageSearch" display="none">
	<rect x="38.8" y="28" display="inline" fill-rule="evenodd" clip-rule="evenodd" fill="none" width="36" height="14"/>
	<text transform="matrix(1 0 0 1 38.8003 36.1426)" fill="#FFFFFF" font-family="'SegoeUI'" font-size="11">Images</text>
	<g display="inline">
		<path fill="#FFFFFF" d="M40,20h11V9H40V20z M40.786,9.786h9.428v5.546L49,13.551l-2.448,2.363l-3.916-3.641l-1.85,2.227V9.786z
			 M40.786,16.071l1.887-1.833l3.897,3.624l2.304-2.225l1.34,1.697v1.879h-9.428V16.071z"/>
		<circle fill="#FFFFFF" cx="46.578" cy="11.644" r="1.393"/>
	</g>
	<g display="inline">
		<g>
			<path fill="#FFFFFF" d="M23.789,40c-0.965,0-1.928-0.367-2.668-1.103c-1.486-1.477-1.496-3.886-0.023-5.378l11.771-11.922
				C34.344,20.106,36.516,20.523,38,22c1.486,1.478,1.725,3.457,0.252,4.951L26.48,38.873C25.74,39.623,24.764,40,23.789,40
				L23.789,40z"/>
		</g>
		<g>
			<path fill="#FFFFFF" d="M45.151,29.808c-1.193,0-2.389-0.146-3.556-0.434c-7.945-1.97-12.818-10.057-10.867-18.028
				C32.369,4.664,38.293,0,45.136,0c1.194,0,2.391,0.146,3.56,0.436c3.854,0.953,7.104,3.353,9.156,6.759
				c2.053,3.405,2.66,7.409,1.711,11.274C57.924,25.145,51.997,29.808,45.151,29.808L45.151,29.808z M45.136,4.563
				c-4.745,0-8.854,3.237-9.993,7.872c-1.354,5.531,2.028,11.143,7.541,12.509c0.809,0.199,1.64,0.302,2.468,0.302
				c4.749,0,8.859-3.235,9.997-7.867c0.658-2.684,0.238-5.461-1.187-7.824c-1.425-2.361-3.681-4.029-6.354-4.688
				C46.796,4.664,45.964,4.563,45.136,4.563L45.136,4.563z"/>
		</g>
	</g>
</g>
<g id="VideoSearch" display="none">
	<path id="arrowCircle" display="inline" fill="#FFFFFF" d="M44.767,19.951c-3.009-0.404-5.122-3.174-4.717-6.183
		c0.404-3.011,3.171-5.123,6.182-4.719c3.011,0.404,5.122,3.172,4.719,6.184C50.544,18.243,47.777,20.357,44.767,19.951z
		 M43.76,10.904v7.194l4.742-3.612L43.76,10.904z"/>
	<g display="inline">
		<g>
			<path fill="#FFFFFF" d="M23.789,40c-0.965,0-1.928-0.367-2.668-1.103c-1.486-1.477-1.496-3.886-0.023-5.378l11.771-11.922
				C34.344,20.106,36.516,20.523,38,22c1.486,1.478,1.725,3.457,0.252,4.951L26.48,38.873C25.74,39.623,24.764,40,23.789,40
				L23.789,40z"/>
		</g>
		<g>
			<path fill="#FFFFFF" d="M45.151,29.808c-1.193,0-2.389-0.146-3.556-0.434c-7.945-1.97-12.818-10.057-10.867-18.028
				C32.369,4.664,38.293,0,45.136,0c1.194,0,2.391,0.146,3.56,0.436c3.854,0.953,7.104,3.353,9.156,6.759
				c2.053,3.405,2.66,7.409,1.711,11.274C57.924,25.145,51.997,29.808,45.151,29.808L45.151,29.808z M45.136,4.563
				c-4.745,0-8.854,3.237-9.993,7.872c-1.354,5.531,2.028,11.143,7.541,12.509c0.809,0.199,1.64,0.302,2.468,0.302
				c4.749,0,8.859-3.235,9.997-7.867c0.658-2.684,0.238-5.461-1.187-7.824c-1.425-2.361-3.681-4.029-6.354-4.688
				C46.796,4.664,45.964,4.563,45.136,4.563L45.136,4.563z"/>
		</g>
	</g>
</g>
<g id="Search">
	<path fill="none" d="M70.339,34.8l3.115-3.008L75,34.059V27H63v6l2.355-2.834L70.339,34.8z M70.373,27.591
		c0.979,0,1.773,0.796,1.773,1.773c0,0.979-0.795,1.774-1.773,1.774c-0.977,0-1.773-0.796-1.773-1.774
		C68.6,28.387,69.396,27.591,70.373,27.591z"/>
	<polygon fill="none" points="43,36.607 41.296,34.447 38.362,37.279 33.401,32.667 31,35 31,39 43,39 	"/>
	<polygon fill="none" points="75,36.607 73.296,34.447 70.361,37.279 65.4,32.667 63,35 63,39 75,39 	"/>
	<polygon fill="none" points="59,36.607 57.296,34.447 54.361,37.279 49.4,32.667 47,35 47,39 59,39 	"/>
	<path fill="none" d="M54.339,34.8l3.115-3.008L59,34.059V27H47v6l2.355-2.834L54.339,34.8z M54.373,27.591
		c0.979,0,1.773,0.796,1.773,1.773c0,0.979-0.795,1.774-1.773,1.774c-0.977,0-1.773-0.796-1.773-1.774
		C52.6,28.387,53.396,27.591,54.373,27.591z"/>
	<g>
		<g>
			<path fill="#FFFFFF" d="M23.789,40c-0.965,0-1.928-0.367-2.668-1.103c-1.486-1.477-1.496-3.886-0.023-5.378l11.771-11.922
				C34.344,20.106,36.516,20.523,38,22c1.486,1.478,1.725,3.457,0.252,4.951L26.48,38.873C25.74,39.623,24.764,40,23.789,40
				L23.789,40z"/>
		</g>
		<g>
			<path fill="#FFFFFF" d="M45.151,29.808c-1.193,0-2.389-0.146-3.556-0.434c-7.945-1.97-12.818-10.057-10.867-18.028
				C32.369,4.664,38.293,0,45.136,0c1.194,0,2.391,0.146,3.56,0.436c3.854,0.953,7.104,3.353,9.156,6.759
				c2.053,3.405,2.66,7.409,1.711,11.274C57.924,25.145,51.997,29.808,45.151,29.808L45.151,29.808z M45.136,4.563
				c-4.745,0-8.854,3.237-9.993,7.872c-1.354,5.531,2.028,11.143,7.541,12.509c0.809,0.199,1.64,0.302,2.468,0.302
				c4.749,0,8.859-3.235,9.997-7.867c0.658-2.684,0.238-5.461-1.187-7.824c-1.425-2.361-3.681-4.029-6.354-4.688
				C46.796,4.664,45.964,4.563,45.136,4.563L45.136,4.563z"/>
		</g>
	</g>
</g>
</svg>
