<?xml version="1.0" encoding="utf-8"?>
<!-- Generator: Adobe Illustrator 17.0.0, SVG Export Plug-In . SVG Version: 6.00 Build 0)  -->
<!DOCTYPE svg PUBLIC "-//W3C//DTD SVG 1.1//EN" "http://www.w3.org/Graphics/SVG/1.1/DTD/svg11.dtd">
<svg version="1.1" id="Layer_1" xmlns="http://www.w3.org/2000/svg" xmlns:xlink="http://www.w3.org/1999/xlink" x="0px" y="0px"
	 width="80px" height="40px" viewBox="0 0 80 40" enable-background="new 0 0 80 40" xml:space="preserve">
<path fill="#FFFFFF" d="M55,40H25V0h30V40z M26,39h28V1H26V39z"/>
<rect x="29" y="33" fill="#FFFFFF" width="22" height="3"/>
<path fill="#FFFFFF" d="M29,4v27h22V4H29z M40.825,24.815c-0.258,0.229-0.551,0.343-0.879,0.343c-0.334,0-0.63-0.114-0.888-0.343
	c-0.246-0.223-0.369-0.498-0.369-0.826c0-0.334,0.123-0.609,0.369-0.826c0.252-0.234,0.548-0.352,0.888-0.352
	c0.334,0,0.627,0.117,0.879,0.352c0.246,0.217,0.369,0.492,0.369,0.826C41.194,24.317,41.071,24.593,40.825,24.815z M43.383,16.264
	c-0.152,0.352-0.345,0.675-0.576,0.971s-0.48,0.558-0.746,0.787c-0.268,0.229-0.517,0.457-0.748,0.686s-0.423,0.466-0.575,0.712
	s-0.229,0.519-0.229,0.817c0,0.252,0.032,0.48,0.097,0.686s0.129,0.378,0.193,0.519h-1.854c-0.053-0.146-0.1-0.337-0.141-0.571
	s-0.062-0.466-0.062-0.694c0-0.357,0.071-0.681,0.215-0.971s0.322-0.561,0.537-0.813c0.213-0.252,0.444-0.495,0.693-0.729
	s0.48-0.463,0.695-0.686c0.213-0.223,0.392-0.457,0.535-0.703s0.216-0.516,0.216-0.809c0-0.264-0.053-0.494-0.158-0.69
	s-0.251-0.36-0.435-0.492c-0.186-0.132-0.396-0.23-0.633-0.294c-0.238-0.064-0.491-0.097-0.761-0.097
	c-0.873,0-1.705,0.39-2.496,1.169v-2.03c0.961-0.563,1.957-0.844,2.988-0.844c0.475,0,0.923,0.062,1.345,0.185
	s0.791,0.305,1.107,0.545s0.565,0.539,0.747,0.896s0.272,0.773,0.272,1.248C43.611,15.511,43.535,15.912,43.383,16.264z"/>
</svg>
