<?xml version="1.0" encoding="utf-8"?>
<!-- Generator: Adobe Illustrator 17.0.0, SVG Export Plug-In . SVG Version: 6.00 Build 0)  -->
<!DOCTYPE svg PUBLIC "-//W3C//DTD SVG 1.1//EN" "http://www.w3.org/Graphics/SVG/1.1/DTD/svg11.dtd">
<svg version="1.1" id="Layer_1" xmlns="http://www.w3.org/2000/svg" xmlns:xlink="http://www.w3.org/1999/xlink" x="0px" y="0px"
	 width="80px" height="40px" viewBox="0 0 80 40" enable-background="new 0 0 80 40" xml:space="preserve">
<path fill="#FFFFFF" d="M80,40H0V0h80V40z M1,39h78V1H1V39z"/>
<path fill="#FFFFFF" d="M4,4v32h22V4H4z M15.658,25.491c-0.258,0.229-0.551,0.343-0.879,0.343c-0.334,0-0.63-0.114-0.888-0.343
	c-0.246-0.223-0.369-0.498-0.369-0.826c0-0.334,0.123-0.609,0.369-0.826c0.252-0.234,0.548-0.352,0.888-0.352
	c0.334,0,0.627,0.117,0.879,0.352c0.246,0.217,0.369,0.492,0.369,0.826C16.027,24.993,15.904,25.269,15.658,25.491z M18.216,16.939
	c-0.152,0.352-0.345,0.675-0.576,0.971s-0.48,0.558-0.746,0.787c-0.268,0.229-0.517,0.457-0.748,0.686s-0.423,0.466-0.575,0.712
	s-0.229,0.519-0.229,0.817c0,0.252,0.032,0.48,0.097,0.686s0.129,0.378,0.193,0.519h-1.854c-0.053-0.146-0.1-0.337-0.141-0.571
	s-0.062-0.466-0.062-0.694c0-0.357,0.071-0.681,0.215-0.971c0.144-0.29,0.322-0.561,0.537-0.813
	c0.213-0.252,0.444-0.495,0.693-0.729s0.48-0.463,0.695-0.686c0.213-0.223,0.392-0.457,0.535-0.703s0.216-0.516,0.216-0.809
	c0-0.264-0.053-0.494-0.158-0.69s-0.251-0.36-0.435-0.492c-0.186-0.132-0.396-0.23-0.633-0.294
	c-0.238-0.064-0.491-0.097-0.761-0.097c-0.873,0-1.705,0.39-2.496,1.169v-2.03c0.961-0.563,1.957-0.844,2.988-0.844
	c0.475,0,0.923,0.062,1.345,0.185s0.791,0.305,1.107,0.545s0.565,0.539,0.747,0.896s0.272,0.773,0.272,1.248
	C18.444,16.187,18.368,16.588,18.216,16.939z"/>
<path fill="#FFFFFF" d="M29,4v32h22V4H29z M40.658,25.491c-0.258,0.229-0.551,0.343-0.879,0.343c-0.334,0-0.63-0.114-0.888-0.343
	c-0.246-0.223-0.369-0.498-0.369-0.826c0-0.334,0.123-0.609,0.369-0.826c0.252-0.234,0.548-0.352,0.888-0.352
	c0.334,0,0.627,0.117,0.879,0.352c0.246,0.217,0.369,0.492,0.369,0.826C41.027,24.993,40.904,25.269,40.658,25.491z M43.216,16.939
	c-0.152,0.352-0.345,0.675-0.576,0.971s-0.48,0.558-0.746,0.787c-0.268,0.229-0.517,0.457-0.748,0.686s-0.423,0.466-0.575,0.712
	s-0.229,0.519-0.229,0.817c0,0.252,0.032,0.48,0.097,0.686s0.129,0.378,0.193,0.519h-1.854c-0.053-0.146-0.1-0.337-0.141-0.571
	s-0.062-0.466-0.062-0.694c0-0.357,0.071-0.681,0.215-0.971c0.144-0.29,0.322-0.561,0.537-0.813
	c0.213-0.252,0.444-0.495,0.693-0.729s0.48-0.463,0.695-0.686c0.213-0.223,0.392-0.457,0.535-0.703s0.216-0.516,0.216-0.809
	c0-0.264-0.053-0.494-0.158-0.69s-0.251-0.36-0.435-0.492c-0.186-0.132-0.396-0.23-0.633-0.294
	c-0.238-0.064-0.491-0.097-0.761-0.097c-0.873,0-1.705,0.39-2.496,1.169v-2.03c0.961-0.563,1.957-0.844,2.988-0.844
	c0.475,0,0.923,0.062,1.345,0.185s0.791,0.305,1.107,0.545s0.565,0.539,0.747,0.896s0.272,0.773,0.272,1.248
	C43.444,16.187,43.368,16.588,43.216,16.939z"/>
<path fill="#FFFFFF" d="M54,4v32h22V4H54z M65.658,25.491c-0.258,0.229-0.551,0.343-0.879,0.343c-0.334,0-0.63-0.114-0.888-0.343
	c-0.246-0.223-0.369-0.498-0.369-0.826c0-0.334,0.123-0.609,0.369-0.826c0.252-0.234,0.548-0.352,0.888-0.352
	c0.334,0,0.627,0.117,0.879,0.352c0.246,0.217,0.369,0.492,0.369,0.826C66.027,24.993,65.904,25.269,65.658,25.491z M68.216,16.939
	c-0.152,0.352-0.345,0.675-0.576,0.971s-0.48,0.558-0.746,0.787c-0.268,0.229-0.517,0.457-0.748,0.686s-0.423,0.466-0.575,0.712
	s-0.229,0.519-0.229,0.817c0,0.252,0.032,0.48,0.097,0.686s0.129,0.378,0.193,0.519h-1.854c-0.053-0.146-0.1-0.337-0.141-0.571
	s-0.062-0.466-0.062-0.694c0-0.357,0.071-0.681,0.215-0.971c0.144-0.29,0.322-0.561,0.537-0.813
	c0.213-0.252,0.444-0.495,0.693-0.729s0.48-0.463,0.695-0.686c0.213-0.223,0.392-0.457,0.535-0.703s0.216-0.516,0.216-0.809
	c0-0.264-0.053-0.494-0.158-0.69s-0.251-0.36-0.435-0.492c-0.186-0.132-0.396-0.23-0.633-0.294
	c-0.238-0.064-0.491-0.097-0.761-0.097c-0.873,0-1.705,0.39-2.496,1.169v-2.03c0.961-0.563,1.957-0.844,2.988-0.844
	c0.475,0,0.923,0.062,1.345,0.185s0.791,0.305,1.107,0.545s0.565,0.539,0.747,0.896s0.272,0.773,0.272,1.248
	C68.444,16.187,68.368,16.588,68.216,16.939z"/>
</svg>
