<?xml version="1.0" encoding="utf-8"?>
<!-- Generator: Adobe Illustrator 16.2.0, SVG Export Plug-In . SVG Version: 6.00 Build 0)  -->
<!DOCTYPE svg PUBLIC "-//W3C//DTD SVG 1.0//EN" "http://www.w3.org/TR/2001/REC-SVG-20010904/DTD/svg10.dtd">
<svg version="1.0" id="Layer_1" xmlns="http://www.w3.org/2000/svg" xmlns:xlink="http://www.w3.org/1999/xlink" x="0px" y="0px"
	 width="80px" height="40px" viewBox="0 0 80 40" enable-background="new 0 0 80 40" xml:space="preserve">
<path fill="#FFFFFF" d="M39.578,24.161c0.509-0.088,0.878-0.549,0.842-1.075c-0.033-0.462-0.367-0.831-0.798-0.926"/>
<path fill="#FFFFFF" d="M47.333,14.573l-0.095,0.115h-0.002l-0.003-0.005c-0.294,0.357-0.565,0.726-0.762,1.056
	c-0.137,0.213-0.268,0.432-0.394,0.651l-1.747,3.528l0.003,0.002l-0.093,0.178l-0.192,0.392c-0.383,0.772-0.792,1.543-1.25,2.18
	c-1.023,1.121-2.177,1.667-3.662,1.667c-0.105,0-0.211-0.005-0.32-0.008c-0.894-0.038-1.661-0.249-2.341-0.652
	c-0.073-0.044-0.144-0.088-0.212-0.133c-0.556-0.369-0.98-0.842-1.301-1.435c-0.362-0.67-0.521-1.354-0.498-2.081l0.001-0.052
	c0.049-1.156,0.491-2.055,1.38-2.833c0.215-0.184,0.44-0.341,0.677-0.482c0.033-0.019,0.066-0.039,0.1-0.056
	c0.661-0.358,1.413-0.537,2.273-0.537l0.269,0.007c1.368,0.053,2.422,0.479,3.263,1.313l2.641-4.737
	c-0.631-0.423-1.345-0.785-2.13-1.081l-0.091-0.034c-0.094-0.035-0.189-0.068-0.283-0.099c-0.836-0.278-1.712-0.451-2.614-0.528
	c-0.022-0.003-0.047-0.005-0.07-0.007c-0.138-0.011-0.28-0.058-0.418-0.065c-0.15-0.005-0.302-0.04-0.451-0.04h-0.084
	c-1.662,0-3.204,0.376-4.613,1.049c-1.577,0.76-2.859,1.885-3.807,3.312c-0.946,1.427-1.463,3.02-1.537,4.719
	c-0.007,0.147-0.011,0.293-0.011,0.437c-0.001,2.378,0.867,4.471,2.59,6.227c1.801,1.841,4.142,2.835,6.953,2.952
	c0.18,0.009,0.359,0.014,0.536,0.014c1.591,0,3.062-0.285,4.382-0.848c0.329-0.14,0.65-0.306,0.977-0.49
	c0.176-0.103,0.346-0.212,0.513-0.329l0.124-0.083l0.207-0.144c0.25-0.178,0.482-0.373,0.712-0.577l0.079-0.077
	c0.135-0.125,0.268-0.255,0.393-0.388l0.474-0.536l0.18-0.225l0.084-0.121l0.087-0.122c0.703-1.181,2.994-5.475,2.994-5.475v-0.009
	l0.133-0.262l0.114-0.205c0.204-0.374,0.375-0.68,0.548-0.969"/>
</svg>
