<?xml version="1.0" encoding="utf-8"?>
<!-- Generator: Adobe Illustrator 16.2.0, SVG Export Plug-In . SVG Version: 6.00 Build 0)  -->
<!DOCTYPE svg PUBLIC "-//W3C//DTD SVG 1.0//EN" "http://www.w3.org/TR/2001/REC-SVG-20010904/DTD/svg10.dtd">
<svg version="1.0" id="Layer_1" xmlns="http://www.w3.org/2000/svg" xmlns:xlink="http://www.w3.org/1999/xlink" x="0px" y="0px"
	 width="52px" height="52px" viewBox="0 0 52 52" enable-background="new 0 0 52 52" xml:space="preserve">
<g>
	<polygon fill="#FFFFFF" points="29.777,23.839 22.404,16.884 28.4,16.884 38.264,26.19 28.443,35.454 22.449,35.454 29.777,28.54 
		13.15,28.54 13.15,23.839 	"/>
	<g>
		<path fill="#FFFFFF" d="M26.027,5.169c11.579,0,21,9.42,21,21c0,11.579-9.421,21-21,21c-11.58,0-21-9.421-21-21
			C5.027,14.589,14.448,5.169,26.027,5.169 M26.027,2.169c-13.254,0-24,10.744-24,24c0,13.254,10.746,24,24,24s24-10.746,24-24
			C50.027,12.913,39.281,2.169,26.027,2.169L26.027,2.169z"/>
	</g>
</g>
</svg>