<?xml version="1.0" encoding="utf-8"?>
<!-- Generator: Adobe Illustrator 16.2.0, SVG Export Plug-In . SVG Version: 6.00 Build 0)  -->
<!DOCTYPE svg PUBLIC "-//W3C//DTD SVG 1.1 Tiny//EN" "http://www.w3.org/Graphics/SVG/1.1/DTD/svg11-tiny.dtd">
<svg version="1.1" baseProfile="tiny" xmlns="http://www.w3.org/2000/svg" xmlns:xlink="http://www.w3.org/1999/xlink" x="0px"
	 y="0px" width="80px" height="40px" viewBox="0 0 80 40" xml:space="preserve">
<g id="Layer_2" display="none">
	<rect x="-15" y="-10" display="inline" fill-rule="evenodd" fill="#E21414" width="111" height="60"/>
</g>
<g id="Layer_1">
	<g>
		<path fill-rule="evenodd" fill="#FFFFFF" d="M20.844,39.969c0-11.927,1.911-21.468,12.894-21.468
			c10.745,0,12.656,9.542,12.656,21.468H20.844L20.844,39.969L20.844,39.969z"/>
		<path fill-rule="evenodd" fill="#FFFFFF" d="M45.749,22.028c2.637,4.28,3.356,9.987,3.356,14.506c1.438,0,9.35,0,11.029,0
			c-0.242-10.938-3.357-15.457-10.07-15.457C48.386,21.077,46.946,21.314,45.749,22.028L45.749,22.028z"/>
		<path fill-rule="evenodd" fill="#FFFFFF" d="M25.997,9.591c0-4.21,3.413-7.622,7.623-7.622c4.208,0,7.621,3.412,7.621,7.622
			c0,4.209-3.413,7.621-7.621,7.621C29.409,17.212,25.997,13.8,25.997,9.591L25.997,9.591z"/>
		<path fill-rule="evenodd" fill="#FFFFFF" d="M44.246,13.455c0-3.142,2.596-5.689,5.797-5.689s5.796,2.548,5.796,5.689
			c0,3.143-2.595,5.69-5.796,5.69S44.246,16.597,44.246,13.455L44.246,13.455z"/>
	</g>
</g>
</svg>
