<?xml version="1.0" encoding="utf-8"?>
<!-- Generator: Adobe Illustrator 16.2.0, SVG Export Plug-In . SVG Version: 6.00 Build 0)  -->
<!DOCTYPE svg PUBLIC "-//W3C//DTD SVG 1.1//EN" "http://www.w3.org/Graphics/SVG/1.1/DTD/svg11.dtd">
<svg version="1.1" id="_x3C_HTML_x3E_" xmlns="http://www.w3.org/2000/svg" xmlns:xlink="http://www.w3.org/1999/xlink" x="0px"
	 y="0px" width="80px" height="40px" viewBox="-29.5 -12.5 80 40" enable-background="new -29.5 -12.5 80 40" xml:space="preserve">
<g>
	<path fill="#FFFFFF" d="M-11.929,12.68L-19.5,9.09V8.203l7.571-3.9v1.59l-5.537,2.711v0.033l5.537,2.46V12.68z"/>
	<path fill="#FFFFFF" d="M0.267,13.5h-2.026V8.295h-5.723V13.5H-9.5v-12h2.018v5.046h5.723V1.5h2.026V13.5z"/>
	<path fill="#FFFFFF" d="M9.765,3.19H6.271V13.5H4.254V3.19H0.769V1.5h8.996V3.19z"/>
	<path fill="#FFFFFF" d="M23.302,13.5h-2.003V5.734c0-0.636,0.04-1.414,0.121-2.334h-0.034c-0.127,0.525-0.237,0.901-0.332,1.129
		l-3.63,8.971h-1.39l-3.638-8.904c-0.102-0.261-0.209-0.66-0.322-1.196h-0.033c0.045,0.479,0.067,1.264,0.067,2.352V13.5h-1.865v-12
		h2.84l3.196,7.991c0.243,0.613,0.4,1.072,0.475,1.373h0.042c0.21-0.63,0.38-1.1,0.509-1.405L20.562,1.5h2.74V13.5z"/>
	<path fill="#FFFFFF" d="M31.721,13.5h-6.731v-12h2.019v10.318h4.713V13.5z"/>
	<path fill="#FFFFFF" d="M40.5,9.04l-7.571,3.59v-1.582l5.545-2.436v-0.05l-5.545-2.711v-1.59L40.5,8.152V9.04z"/>
</g>
</svg>
