<?xml version="1.0" encoding="utf-8"?>
<!-- Generator: Adobe Illustrator 16.0.0, SVG Export Plug-In . SVG Version: 6.00 Build 0)  -->
<!DOCTYPE svg PUBLIC "-//W3C//DTD SVG 1.1//EN" "http://www.w3.org/Graphics/SVG/1.1/DTD/svg11.dtd" [
	<!ENTITY ns_flows "http://ns.adobe.com/Flows/1.0/">
	<!ENTITY ns_extend "http://ns.adobe.com/Extensibility/1.0/">
	<!ENTITY ns_ai "http://ns.adobe.com/AdobeIllustrator/10.0/">
	<!ENTITY ns_graphs "http://ns.adobe.com/Graphs/1.0/">
]>
<svg version="1.1" id="image_x5F_40x40_compound" xmlns:x="&ns_extend;" xmlns:i="&ns_ai;" xmlns:graph="&ns_graphs;"
	 xmlns="http://www.w3.org/2000/svg" xmlns:xlink="http://www.w3.org/1999/xlink" xmlns:a="http://ns.adobe.com/AdobeSVGViewerExtensions/3.0/"
	 x="0px" y="0px" width="80px" height="40px" viewBox="0 0 80 40" enable-background="new 0 0 80 40" xml:space="preserve">
<g id="border_x5F_4px_1_">
	<path fill="#FFFFFF" d="M58,2v36H22V2H58 M60,0H20v40h40V0L60,0z"/>
</g>
<polygon id="bottom" fill="#FFFFFF" points="43.026,30.029 32.003,19.778 26,25.781 26,34 54,34 54,29.203 49.546,23.735 "/>
<path id="top" fill="#FFFFFF" d="M42.975,24.52l6.923-6.684L54,22.87V6H26v14.125l5.902-5.903L42.975,24.52z M43.051,8.5
	c2.175,0,3.942,1.768,3.942,3.94c0,2.175-1.768,3.942-3.942,3.942c-2.171,0-3.939-1.767-3.939-3.942
	C39.112,10.268,40.879,8.5,43.051,8.5z"/>
</svg>
