<?xml version="1.0" encoding="utf-8"?>
<!-- Generator: Adobe Illustrator 17.0.0, SVG Export Plug-In . SVG Version: 6.00 Build 0)  -->
<!DOCTYPE svg PUBLIC "-//W3C//DTD SVG 1.1//EN" "http://www.w3.org/Graphics/SVG/1.1/DTD/svg11.dtd">
<svg version="1.1" id="Layer_1" xmlns="http://www.w3.org/2000/svg" xmlns:xlink="http://www.w3.org/1999/xlink" x="0px" y="0px"
	 width="80px" height="40px" viewBox="0 0 80 40" enable-background="new 0 0 80 40" xml:space="preserve">
<path fill="#FFFFFF" d="M80,40H0V0h80V40z M1,39h78V1H1V39z"/>
<g>
	<path fill="#FFFFFF" d="M16.961,12.674c1.398,0,2.534-1.136,2.534-2.534c0-1.396-1.136-2.533-2.534-2.533
		c-1.396,0-2.532,1.137-2.532,2.533C14.429,11.538,15.565,12.674,16.961,12.674z"/>
	<path fill="#FFFFFF" d="M4,4v32h22V4H4z M21,30H6v-1h15V30z M22,28H6v-1h16V28z M24,24H6v-5.283l3.859-3.859l7.086,6.59
		l4.191-4.046L24,20.916V24z M24,16.845l-2.637-3.236l-4.45,4.297l-7.118-6.62L6,15.08V6h18V16.845z"/>
</g>
<g>
	<path fill="#FFFFFF" d="M41.961,12.674c1.398,0,2.534-1.136,2.534-2.534c0-1.396-1.136-2.533-2.534-2.533
		c-1.396,0-2.532,1.137-2.532,2.533C39.429,11.538,40.565,12.674,41.961,12.674z"/>
	<path fill="#FFFFFF" d="M29,4v32h22V4H29z M46,30H31v-1h15V30z M47,28H31v-1h16V28z M49,24H31v-5.283l3.859-3.859l7.086,6.59
		l4.191-4.046L49,20.916V24z M49,16.845l-2.637-3.236l-4.45,4.297l-7.118-6.62L31,15.08V6h18V16.845z"/>
</g>
<g>
	<path fill="#FFFFFF" d="M66.961,12.674c1.398,0,2.534-1.136,2.534-2.534c0-1.396-1.136-2.533-2.534-2.533
		c-1.396,0-2.532,1.137-2.532,2.533C64.429,11.538,65.565,12.674,66.961,12.674z"/>
	<path fill="#FFFFFF" d="M54,4v32h22V4H54z M71,30H56v-1h15V30z M72,28H56v-1h16V28z M74,24H56v-5.283l3.859-3.859l7.086,6.59
		l4.191-4.046L74,20.916V24z M74,16.845l-2.637-3.236l-4.45,4.297l-7.118-6.62L56,15.08V6h18V16.845z"/>
</g>
</svg>
