<?xml version="1.0" encoding="utf-8"?>
<!-- Generator: Adobe Illustrator 17.0.0, SVG Export Plug-In . SVG Version: 6.00 Build 0)  -->
<!DOCTYPE svg PUBLIC "-//W3C//DTD SVG 1.1//EN" "http://www.w3.org/Graphics/SVG/1.1/DTD/svg11.dtd">
<svg version="1.1" id="Layer_1" xmlns="http://www.w3.org/2000/svg" xmlns:xlink="http://www.w3.org/1999/xlink" x="0px" y="0px"
	 width="80px" height="40px" viewBox="0 0 80 40" enable-background="new 0 0 80 40" xml:space="preserve">
<path fill="#FFFFFF" d="M80,40H0V0h80V40z M1,39h78V1H1V39z"/>
<g>
	<path fill="#FFFFFF" d="M18.679,14.666c1.553,0,2.816-1.262,2.816-2.816c0-1.551-1.263-2.814-2.816-2.814
		c-1.551,0-2.814,1.263-2.814,2.814C15.866,13.403,17.128,14.666,18.679,14.666z"/>
	<path fill="#FFFFFF" d="M4,4v32h22V4H4z M25,35H5V21.38l5.038-4.288l8.624,7.322l3.907-4.496L25,23.824V35z M25,19.3l-2.18-3.595
		l-4.195,4.774l-8.659-7.356L5,17.339V5h20V19.3z"/>
</g>
<g>
	<path fill="#FFFFFF" d="M43.679,14.666c1.553,0,2.816-1.262,2.816-2.816c0-1.551-1.263-2.814-2.816-2.814
		c-1.551,0-2.814,1.263-2.814,2.814C40.866,13.403,42.128,14.666,43.679,14.666z"/>
	<path fill="#FFFFFF" d="M29,4v32h22V4H29z M50,35H30V21.38l5.038-4.288l8.624,7.322l3.907-4.496L50,23.824V35z M50,19.3
		l-2.18-3.595l-4.195,4.774l-8.659-7.356L30,17.339V5h20V19.3z"/>
</g>
<g>
	<path fill="#FFFFFF" d="M68.679,14.666c1.553,0,2.816-1.262,2.816-2.816c0-1.551-1.263-2.814-2.816-2.814
		c-1.551,0-2.814,1.263-2.814,2.814C65.866,13.403,67.128,14.666,68.679,14.666z"/>
	<path fill="#FFFFFF" d="M54,4v32h22V4H54z M75,35H55V21.38l5.038-4.288l8.624,7.322l3.907-4.496L75,23.824V35z M75,19.3
		l-2.18-3.595l-4.195,4.774l-8.659-7.356L55,17.339V5h20V19.3z"/>
</g>
</svg>
