<?xml version="1.0" encoding="utf-8"?>
<!-- Generator: Adobe Illustrator 17.0.0, SVG Export Plug-In . SVG Version: 6.00 Build 0)  -->
<!DOCTYPE svg PUBLIC "-//W3C//DTD SVG 1.1//EN" "http://www.w3.org/Graphics/SVG/1.1/DTD/svg11.dtd">
<svg version="1.1" id="Layer_1" xmlns="http://www.w3.org/2000/svg" xmlns:xlink="http://www.w3.org/1999/xlink" x="0px" y="0px"
	 width="80px" height="40px" viewBox="0 0 80 40" enable-background="new 0 0 80 40" xml:space="preserve">
<path fill="#FFFFFF" d="M55,40H25V0h30V40z M26,39h28V1H26V39z"/>
<g>
	<path fill="#FFFFFF" d="M43.679,12.666c1.553,0,2.816-1.262,2.816-2.816c0-1.551-1.263-2.814-2.816-2.814
		c-1.551,0-2.814,1.263-2.814,2.814C40.866,11.403,42.128,12.666,43.679,12.666z"/>
	<path fill="#FFFFFF" d="M29,4v23h22V4H29z M50,26H30v-6.62l5.038-4.288l8.624,7.322l3.907-4.496L50,21.824V26z M50,17.3
		l-2.18-3.595l-4.195,4.774l-8.659-7.356L30,15.339V5h20V17.3z"/>
</g>
<g>
	<path fill="#FFFFFF" d="M43.679,32.036c-1.551,0-2.814,1.263-2.814,2.814c0,0.411,0.093,0.798,0.251,1.15h5.127
		c0.158-0.352,0.251-0.74,0.251-1.15C46.495,33.299,45.233,32.036,43.679,32.036z"/>
	<polygon fill="#FFFFFF" points="29,29 29,36 30,36 30,30 50,30 50,36 51,36 51,29 	"/>
</g>
</svg>
