<?xml version="1.0" encoding="utf-8"?>
<!-- Generator: Adobe Illustrator 17.0.0, SVG Export Plug-In . SVG Version: 6.00 Build 0)  -->
<!DOCTYPE svg PUBLIC "-//W3C//DTD SVG 1.1//EN" "http://www.w3.org/Graphics/SVG/1.1/DTD/svg11.dtd">
<svg version="1.1" id="Layer_1" xmlns="http://www.w3.org/2000/svg" xmlns:xlink="http://www.w3.org/1999/xlink" x="0px" y="0px"
	 width="80px" height="40px" viewBox="0 0 80 40" enable-background="new 0 0 80 40" xml:space="preserve">
<path fill="#FFFFFF" d="M55,40H25V0h30V40z M26,39h28V1H26V39z"/>
<g>
	<path fill="#FFFFFF" d="M41.961,12.674c1.398,0,2.534-1.136,2.534-2.534c0-1.396-1.136-2.533-2.534-2.533
		c-1.396,0-2.532,1.137-2.532,2.533C39.429,11.538,40.565,12.674,41.961,12.674z"/>
	<path fill="#FFFFFF" d="M29,4v23h22V4H29z M46,25H31v-1h15V25z M49,22H31v-4.283l3.859-3.859l7.086,6.59l4.191-4.046L49,19.916V22z
		 M49,15.845l-2.637-3.236l-4.45,4.297l-7.118-6.62L31,14.08V6h18V15.845z"/>
</g>
<g>
	<path fill="#FFFFFF" d="M41.961,32.607c-1.396,0-2.532,1.137-2.532,2.533c0,0.303,0.062,0.59,0.16,0.86h4.746
		c0.098-0.27,0.16-0.557,0.16-0.86C44.496,33.744,43.359,32.607,41.961,32.607z"/>
	<polygon fill="#FFFFFF" points="29,29 29,36 31,36 31,31 49,31 49,36 51,36 51,29 	"/>
</g>
</svg>
