<?xml version="1.0" encoding="utf-8"?>
<!-- Generator: Adobe Illustrator 17.0.0, SVG Export Plug-In . SVG Version: 6.00 Build 0)  -->
<!DOCTYPE svg PUBLIC "-//W3C//DTD SVG 1.1//EN" "http://www.w3.org/Graphics/SVG/1.1/DTD/svg11.dtd">
<svg version="1.1" id="Layer_1" xmlns="http://www.w3.org/2000/svg" xmlns:xlink="http://www.w3.org/1999/xlink" x="0px" y="0px"
	 width="80px" height="40px" viewBox="0 0 80 40" enable-background="new 0 0 80 40" xml:space="preserve">
<rect id="border_2_" x="25.5" y="0.5" fill="none" stroke="#FFFFFF" stroke-miterlimit="10" width="29" height="39"/>
<g>
	<path fill="#FFFFFF" d="M42.166,11.369c1.104,0,2.001-0.897,2.001-2.001c0-1.102-0.897-2-2.001-2c-1.102,0-1.999,0.897-1.999,2
		C40.167,10.472,41.064,11.369,42.166,11.369z"/>
	<path fill="#FFFFFF" d="M29,4v27h22V4H29z M31,23h14v2H31V23z M46,29H31v-1h15V29z M47,27H31v-1h16V27z M49,21H31v-5.117
		l3.942-3.859l7.17,6.59l4.108-4.046L49,18.083V21z M49,14.011l-2.554-3.236l-4.367,4.297l-7.201-6.62L31,12.247V6h18V14.011z"/>
</g>
<polygon fill="#FFFFFF" points="29,33 29,36 31,36 31,35 49,35 49,36 51,36 51,33 "/>
</svg>
