<?xml version="1.0" encoding="utf-8"?>
<!-- Generator: Adobe Illustrator 17.0.0, SVG Export Plug-In . SVG Version: 6.00 Build 0)  -->
<!DOCTYPE svg PUBLIC "-//W3C//DTD SVG 1.1//EN" "http://www.w3.org/Graphics/SVG/1.1/DTD/svg11.dtd">
<svg version="1.1" id="Layer_1" xmlns="http://www.w3.org/2000/svg" xmlns:xlink="http://www.w3.org/1999/xlink" x="0px" y="0px"
	 width="80px" height="40px" viewBox="0 0 80 40" enable-background="new 0 0 80 40" xml:space="preserve">
<path fill="#FFFFFF" d="M80,40H0V0h80V40z M1,39h78V1H1V39z"/>
<g>
	<path fill="#FFFFFF" d="M4,4v32h22V4H4z M6,25h14v3H6V25z M21,33H6v-1h15V33z M22,31H6v-1h16V31z M24,23H6v-4.617l3.859-3.859
		l7.086,6.59l4.191-4.046L24,20.583V23z M24,16.511l-2.637-3.236l-4.45,4.297l-7.118-6.62L6,14.746V6h18V16.511z"/>
	<path fill="#FFFFFF" d="M16.961,12.34c1.398,0,2.534-1.136,2.534-2.534c0-1.396-1.136-2.533-2.534-2.533
		c-1.396,0-2.532,1.137-2.532,2.533C14.429,11.204,15.565,12.34,16.961,12.34z"/>
</g>
<g>
	<path fill="#FFFFFF" d="M29,4v32h22V4H29z M31,25h14v3H31V25z M46,33H31v-1h15V33z M47,31H31v-1h16V31z M49,23H31v-4.617
		l3.859-3.859l7.086,6.59l4.191-4.046L49,20.583V23z M49,16.511l-2.637-3.236l-4.45,4.297l-7.118-6.62L31,14.746V6h18V16.511z"/>
	<path fill="#FFFFFF" d="M41.961,12.34c1.398,0,2.534-1.136,2.534-2.534c0-1.396-1.136-2.533-2.534-2.533
		c-1.396,0-2.532,1.137-2.532,2.533C39.429,11.204,40.565,12.34,41.961,12.34z"/>
</g>
<g>
	<path fill="#FFFFFF" d="M54,4v32h22V4H54z M56,25h14v3H56V25z M71,33H56v-1h15V33z M72,31H56v-1h16V31z M74,23H56v-4.617
		l3.859-3.859l7.086,6.59l4.191-4.046L74,20.583V23z M74,16.511l-2.637-3.236l-4.45,4.297l-7.118-6.62L56,14.746V6h18V16.511z"/>
	<path fill="#FFFFFF" d="M66.961,12.34c1.398,0,2.534-1.136,2.534-2.534c0-1.396-1.136-2.533-2.534-2.533
		c-1.396,0-2.532,1.137-2.532,2.533C64.429,11.204,65.565,12.34,66.961,12.34z"/>
</g>
</svg>
