<?xml version="1.0" encoding="utf-8"?>
<!-- Generator: Adobe Illustrator 16.0.0, SVG Export Plug-In . SVG Version: 6.00 Build 0)  -->
<!DOCTYPE svg PUBLIC "-//W3C//DTD SVG 1.1//EN" "http://www.w3.org/Graphics/SVG/1.1/DTD/svg11.dtd" [
	<!ENTITY ns_flows "http://ns.adobe.com/Flows/1.0/">
	<!ENTITY ns_extend "http://ns.adobe.com/Extensibility/1.0/">
	<!ENTITY ns_ai "http://ns.adobe.com/AdobeIllustrator/10.0/">
	<!ENTITY ns_graphs "http://ns.adobe.com/Graphs/1.0/">
]>
<svg version="1.1" id="mic" xmlns:x="&ns_extend;" xmlns:i="&ns_ai;" xmlns:graph="&ns_graphs;"
	 xmlns="http://www.w3.org/2000/svg" xmlns:xlink="http://www.w3.org/1999/xlink" xmlns:a="http://ns.adobe.com/AdobeSVGViewerExtensions/3.0/"
	 x="0px" y="0px" width="80px" height="40px" viewBox="0 0 80 40" enable-background="new 0 0 80 40" xml:space="preserve">
<g>
	<g>
		<path fill-rule="evenodd" clip-rule="evenodd" fill="#FFFFFF" d="M35.638,6.586c0-2.343,2.37-4.621,4.808-4.621h1.334
			c2.439,0,4.809,2.278,4.809,4.621v13.651c0,2.344-2.369,4.623-4.809,4.623h-1.334c-2.438,0-4.808-2.279-4.808-4.623V6.586z"/>
	</g>
	<g>
		<rect x="39.37" y="27.016" fill-rule="evenodd" clip-rule="evenodd" fill="#FFFFFF" width="3.484" height="7.465"/>
		<rect x="33.647" y="34.48" fill-rule="evenodd" clip-rule="evenodd" fill="#FFFFFF" width="14.931" height="3.484"/>
	</g>
	<g>
		<defs>
			<rect id="SVGID_1_" x="22.849" y="17.527" width="34.019" height="16.792"/>
		</defs>
		<clipPath id="SVGID_2_">
			<use xlink:href="#SVGID_1_"  overflow="visible"/>
		</clipPath>
		
			<path clip-path="url(#SVGID_2_)" fill-rule="evenodd" clip-rule="evenodd" fill="none" stroke="#FFFFFF" stroke-width="3.6" stroke-miterlimit="10" d="
			M51.013,17.805c0,5.467-4.431,9.9-9.9,9.9c-5.469,0-9.9-4.433-9.9-9.9c0-5.471,4.431-9.9,9.9-9.9
			C46.582,7.904,51.013,12.334,51.013,17.805z"/>
	</g>
</g>
</svg>
