<?xml version="1.0" encoding="utf-8"?>
<!-- Generator: Adobe Illustrator 16.2.0, SVG Export Plug-In . SVG Version: 6.00 Build 0)  -->
<!DOCTYPE svg PUBLIC "-//W3C//DTD SVG 1.1//EN" "http://www.w3.org/Graphics/SVG/1.1/DTD/svg11.dtd" [
	<!ENTITY ns_flows "http://ns.adobe.com/Flows/1.0/">
	<!ENTITY ns_extend "http://ns.adobe.com/Extensibility/1.0/">
	<!ENTITY ns_ai "http://ns.adobe.com/AdobeIllustrator/10.0/">
	<!ENTITY ns_graphs "http://ns.adobe.com/Graphs/1.0/">
]>
<svg version="1.1" id="Layer_1" xmlns:x="&ns_extend;" xmlns:i="&ns_ai;" xmlns:graph="&ns_graphs;"
	 xmlns="http://www.w3.org/2000/svg" xmlns:xlink="http://www.w3.org/1999/xlink" xmlns:a="http://ns.adobe.com/AdobeSVGViewerExtensions/3.0/"
	 x="0px" y="0px" width="80px" height="40px" viewBox="0 0 80 40" enable-background="new 0 0 80 40" xml:space="preserve">
<g>
	<path fill="#FFFFFF" d="M60.498,30.251c-0.165-0.058-0.316-0.104-0.446-0.131c-0.139-0.028-0.268-0.043-0.389-0.043
		c-0.256,0-0.467,0.052-0.631,0.157c-0.166,0.105-0.314,0.215-0.445,0.33l-0.093,0.076c-0.503,0.428-0.991,0.745-1.474,0.953
		c-0.48,0.207-0.965,0.311-1.447,0.311c-0.484,0-0.965-0.104-1.445-0.311c-0.477-0.208-0.97-0.525-1.476-0.953l-0.095-0.086
		c-0.068-0.055-0.138-0.113-0.208-0.17c-0.073-0.057-0.149-0.109-0.235-0.154c-0.085-0.045-0.18-0.082-0.281-0.11
		c-0.104-0.028-0.217-0.043-0.342-0.043c-0.121,0-0.252,0.015-0.395,0.043c-0.141,0.028-0.303,0.076-0.481,0.142
		s-0.386,0.15-0.62,0.25c-0.232,0.104-0.497,0.227-0.793,0.367c-0.32,0.156-0.588,0.33-0.807,0.527
		c-0.221,0.195-0.406,0.423-0.559,0.678c-0.156,0.256-0.284,0.546-0.385,0.867c-0.104,0.322-0.201,0.683-0.292,1.08
		c-0.05,0.234-0.103,0.514-0.153,0.842s-0.104,0.68-0.153,1.055s-0.101,0.766-0.146,1.166s-0.087,0.789-0.125,1.165
		c-0.035,0.376-0.068,0.729-0.097,1.06c-0.03,0.331-0.05,0.613-0.06,0.844h10.982v-1.283C56.688,34.986,59.009,32.916,60.498,30.251
		z"/>
	<path fill="#FFFFFF" d="M55.282,29.162c-0.513,0-1-0.096-1.465-0.289s-0.883-0.463-1.26-0.808
		c-0.375-0.345-0.693-0.753-0.951-1.226c-0.26-0.473-0.439-0.99-0.543-1.554c-0.053-0.292-0.077-0.583-0.077-0.88
		c0-0.5,0.073-0.986,0.218-1.457c0.145-0.469,0.355-0.9,0.629-1.293c0.307-0.432,0.672-0.786,1.098-1.063
		c0.422-0.274,0.886-0.46,1.387-0.55c0.103-0.018,0.207-0.029,0.313-0.034C54.735,20.003,54.842,20,54.95,20
		c0.513,0,1,0.097,1.465,0.29c0.463,0.193,0.882,0.463,1.254,0.808c0.374,0.344,0.689,0.752,0.947,1.225
		c0.262,0.473,0.441,0.988,0.545,1.547c0.05,0.301,0.075,0.603,0.075,0.904c0,0.5-0.069,0.982-0.208,1.443
		c-0.141,0.462-0.348,0.889-0.619,1.281c-0.309,0.438-0.675,0.795-1.098,1.068c-0.424,0.271-0.889,0.455-1.389,0.545
		C55.718,29.146,55.503,29.162,55.282,29.162z"/>
	<polygon fill="#FFFFFF" points="66.573,37.25 63.823,37.25 63.823,40 61.986,40 61.986,37.25 59.236,37.25 59.236,35.412 
		61.986,35.412 61.986,32.662 63.823,32.662 63.823,35.412 66.573,35.412 	"/>
	<rect x="21" y="21" fill="#FFFFFF" width="3" height="3"/>
	<rect x="21" y="29" fill="#FFFFFF" width="3" height="3"/>
	<rect x="21" y="13" fill="#FFFFFF" width="3" height="3"/>
	<rect x="42" y="21" fill="#FFFFFF" width="3" height="3"/>
	<rect x="31" y="21" fill="#FFFFFF" width="4" height="3"/>
	<rect x="31" y="29" fill="#FFFFFF" width="4" height="3"/>
	<rect x="31" y="13" fill="#FFFFFF" width="4" height="3"/>
	<rect x="42" y="13" fill="#FFFFFF" width="3" height="3"/>
	<rect x="13" fill="#FFFFFF" width="3" height="40"/>
	<polygon fill="#FFFFFF" points="44.427,40 16,40 16,37 41.427,37 	"/>
	<rect x="16" fill="#FFFFFF" width="37" height="3"/>
	<polygon fill="#FFFFFF" points="53,16 50,19 50,3 53,3 	"/>
	<rect x="16" y="5" fill="#FFFFFF" width="34" height="3"/>
</g>
</svg>
