<?xml version="1.0" encoding="utf-8"?>
<!-- Generator: Adobe Illustrator 16.2.0, SVG Export Plug-In . SVG Version: 6.00 Build 0)  -->
<!DOCTYPE svg PUBLIC "-//W3C//DTD SVG 1.1//EN" "http://www.w3.org/Graphics/SVG/1.1/DTD/svg11.dtd" [
	<!ENTITY ns_flows "http://ns.adobe.com/Flows/1.0/">
	<!ENTITY ns_extend "http://ns.adobe.com/Extensibility/1.0/">
	<!ENTITY ns_ai "http://ns.adobe.com/AdobeIllustrator/10.0/">
	<!ENTITY ns_graphs "http://ns.adobe.com/Graphs/1.0/">
]>
<svg version="1.1" id="Layer_1" xmlns:x="&ns_extend;" xmlns:i="&ns_ai;" xmlns:graph="&ns_graphs;"
	 xmlns="http://www.w3.org/2000/svg" xmlns:xlink="http://www.w3.org/1999/xlink" xmlns:a="http://ns.adobe.com/AdobeSVGViewerExtensions/3.0/"
	 x="0px" y="0px" width="80px" height="40px" viewBox="0 0 80 40" enable-background="new 0 0 80 40" xml:space="preserve">
<g>
	<path fill="#FFFFFF" d="M11.595,40c0.061-0.865,0.133-1.742,0.216-2.631s0.175-1.754,0.273-2.597s0.201-1.621,0.308-2.335
		s0.197-1.321,0.273-1.822c0.167-0.835,0.33-1.534,0.49-2.096c0.159-0.563,0.334-1.021,0.524-1.378
		c0.189-0.357,0.406-0.646,0.649-0.866c0.243-0.22,0.532-0.421,0.866-0.604c0.516-0.288,0.957-0.527,1.321-0.718
		c0.364-0.189,0.679-0.345,0.945-0.467c0.266-0.121,0.478-0.205,0.638-0.25c0.16-0.046,0.277-0.076,0.353-0.092
		c1.61,1.61,3.136,2.768,4.579,3.474c1.443,0.707,2.893,1.06,4.351,1.06c1.428,0,2.863-0.35,4.306-1.048
		c1.442-0.698,2.969-1.853,4.579-3.462c0.182,0.03,0.508,0.147,0.979,0.353c0.471,0.205,1.23,0.611,2.278,1.219
		c0.334,0.197,0.63,0.398,0.888,0.604s0.482,0.486,0.672,0.843c0.189,0.357,0.365,0.813,0.523,1.367
		c0.16,0.554,0.316,1.241,0.468,2.062c0.091,0.501,0.187,1.108,0.284,1.822c0.1,0.714,0.197,1.492,0.297,2.335
		c0.098,0.843,0.189,1.708,0.273,2.597c0.083,0.889,0.162,1.766,0.238,2.631H11.595z M34.738,14.738c0,1.169-0.19,2.263-0.569,3.28
		c-0.38,1.018-0.908,1.91-1.583,2.676c-0.676,0.768-1.458,1.375-2.346,1.822c-0.888,0.448-1.841,0.673-2.859,0.673
		c-1.032,0-1.993-0.225-2.881-0.673c-0.888-0.447-1.667-1.055-2.335-1.822c-0.668-0.767-1.196-1.658-1.583-2.676
		C20.194,17.001,20,15.907,20,14.738c0-1.169,0.194-2.263,0.581-3.28c0.387-1.018,0.915-1.91,1.583-2.677
		c0.668-0.767,1.447-1.371,2.335-1.811S26.348,6.31,27.38,6.31c1.018,0,1.971,0.22,2.859,0.661c0.889,0.44,1.67,1.044,2.346,1.811
		c0.676,0.767,1.204,1.659,1.583,2.677C34.548,12.475,34.738,13.569,34.738,14.738z M41.595,22.05
		c-0.547-0.318-1.033-0.584-1.458-0.797s-0.797-0.388-1.116-0.524c0.167-0.349,0.372-0.622,0.615-0.819s0.516-0.388,0.82-0.569
		c1.033-0.578,1.789-0.969,2.267-1.173c0.479-0.205,0.809-0.331,0.99-0.376c1.609,1.61,3.137,2.779,4.579,3.508
		c1.442,0.729,2.885,1.093,4.328,1.093c1.549,0,3.082-0.391,4.601-1.173c1.52-0.782,2.962-1.902,4.328-3.36
		c0.167,0.03,0.482,0.144,0.945,0.342c0.464,0.197,1.234,0.6,2.313,1.208c0.334,0.182,0.622,0.383,0.865,0.604
		c0.243,0.22,0.464,0.509,0.661,0.865s0.376,0.809,0.535,1.355s0.315,1.237,0.467,2.073c0.076,0.501,0.163,1.108,0.262,1.822
		c0.099,0.713,0.201,1.491,0.308,2.335c0.106,0.843,0.201,1.712,0.285,2.607c0.083,0.896,0.155,1.777,0.216,2.643H46.742
		c-0.09-0.759-0.182-1.473-0.273-2.142c-0.09-0.668-0.189-1.252-0.295-1.754c-0.197-0.986-0.402-1.863-0.615-2.631
		c-0.213-0.767-0.49-1.461-0.832-2.084s-0.763-1.181-1.264-1.674C42.961,22.935,42.339,22.476,41.595,22.05z M60,8.428
		c0,1.154-0.193,2.244-0.581,3.269c-0.387,1.025-0.915,1.921-1.583,2.688c-0.668,0.767-1.446,1.367-2.335,1.8
		c-0.888,0.433-1.849,0.649-2.881,0.649c-1.018,0-1.971-0.216-2.859-0.649c-0.888-0.433-1.671-1.033-2.347-1.8
		c-0.676-0.767-1.203-1.663-1.582-2.688c-0.38-1.025-0.57-2.115-0.57-3.269c0-1.169,0.19-2.259,0.57-3.269
		c0.379-1.01,0.906-1.898,1.582-2.666c0.676-0.767,1.459-1.374,2.347-1.822C50.649,0.224,51.603,0,52.62,0
		c1.032,0,1.993,0.224,2.881,0.672c0.889,0.448,1.667,1.056,2.335,1.822c0.668,0.767,1.196,1.655,1.583,2.666
		C59.807,6.169,60,7.259,60,8.428z"/>
</g>
</svg>
