<?xml version="1.0" encoding="utf-8"?>
<!-- Generator: Adobe Illustrator 16.2.0, SVG Export Plug-In . SVG Version: 6.00 Build 0)  -->
<!DOCTYPE svg PUBLIC "-//W3C//DTD SVG 1.1//EN" "http://www.w3.org/Graphics/SVG/1.1/DTD/svg11.dtd" [
	<!ENTITY ns_flows "http://ns.adobe.com/Flows/1.0/">
	<!ENTITY ns_extend "http://ns.adobe.com/Extensibility/1.0/">
	<!ENTITY ns_ai "http://ns.adobe.com/AdobeIllustrator/10.0/">
	<!ENTITY ns_graphs "http://ns.adobe.com/Graphs/1.0/">
]>
<svg version="1.1" xmlns:x="&ns_extend;" xmlns:i="&ns_ai;" xmlns:graph="&ns_graphs;"
	 xmlns="http://www.w3.org/2000/svg" xmlns:xlink="http://www.w3.org/1999/xlink" xmlns:a="http://ns.adobe.com/AdobeSVGViewerExtensions/3.0/"
	 x="0px" y="0px" width="80px" height="40px" viewBox="0 0 80 40" enable-background="new 0 0 80 40" xml:space="preserve">
<g id="Layer_1">
	<path fill="#FFFFFF" d="M24.682,9.993H3.26c-0.427,0-0.824-0.063-1.191-0.191C1.702,9.673,1.381,9.498,1.108,9.276
		C0.834,9.054,0.617,8.789,0.455,8.482C0.292,8.174,0.211,7.85,0.211,7.508c0-0.341,0.081-0.666,0.244-0.974
		c0.162-0.307,0.38-0.576,0.653-0.807s0.594-0.41,0.961-0.539C2.436,5.061,2.833,4.997,3.26,4.997h21.422
		c0.41,0,0.8,0.064,1.167,0.191c0.368,0.128,0.688,0.308,0.961,0.539s0.491,0.5,0.653,0.807c0.162,0.308,0.243,0.633,0.243,0.974
		c0,0.342-0.081,0.667-0.243,0.974c-0.162,0.307-0.379,0.572-0.653,0.794c-0.273,0.222-0.594,0.397-0.961,0.526
		C25.482,9.93,25.092,9.993,24.682,9.993z"/>
	<path fill="#FFFFFF" d="M27.706,22.524H10.743c-0.427,0-0.824-0.068-1.191-0.205c-0.368-0.137-0.688-0.321-0.961-0.551
		c-0.273-0.23-0.491-0.496-0.654-0.795c-0.161-0.299-0.243-0.619-0.243-0.961c0-0.342,0.082-0.667,0.243-0.974
		c0.163-0.307,0.381-0.576,0.654-0.807c0.273-0.231,0.593-0.41,0.961-0.539c0.367-0.128,0.764-0.192,1.191-0.192h16.963
		c0.41,0,0.799,0.064,1.167,0.192c0.367,0.129,0.687,0.308,0.96,0.539s0.491,0.5,0.653,0.807s0.243,0.631,0.243,0.974
		c0,0.342-0.081,0.662-0.243,0.961s-0.38,0.564-0.653,0.795c-0.273,0.229-0.593,0.414-0.96,0.551
		C28.505,22.456,28.116,22.524,27.706,22.524z"/>
	<path fill="#FFFFFF" d="M32.063,35.003H18.148c-0.428,0-0.824-0.063-1.191-0.193c-0.369-0.127-0.689-0.306-0.961-0.537
		c-0.274-0.23-0.492-0.499-0.654-0.807c-0.162-0.307-0.243-0.633-0.243-0.974s0.081-0.661,0.243-0.961s0.379-0.563,0.654-0.794
		c0.272-0.232,0.592-0.41,0.961-0.539c0.367-0.128,0.764-0.192,1.191-0.192h13.914c0.427,0,0.824,0.064,1.191,0.192
		c0.367,0.129,0.688,0.307,0.961,0.539c0.273,0.23,0.491,0.494,0.654,0.794c0.161,0.3,0.243,0.62,0.243,0.961
		s-0.082,0.667-0.243,0.974c-0.163,0.308-0.38,0.576-0.654,0.807c-0.273,0.231-0.594,0.41-0.961,0.537
		C32.887,34.94,32.489,35.003,32.063,35.003z"/>
	<rect x="7" y="17" fill="#FFFFFF" width="24" height="6"/>
	<rect x="15" y="30" fill="#FFFFFF" width="21" height="6"/>
	<rect y="4" fill="#FFFFFF" width="28" height="6"/>
</g>
<g id="Layer_2">
	<path fill="#FFFFFF" d="M40.158,40h58.184V0H40.158V40z M90.518,3.637L69.25,17.816L47.982,3.637H90.518z M43.795,5.215
		L69.25,22.184L94.705,5.215v31.149h-50.91V5.215z"/>
</g>
</svg>
