<?xml version="1.0" encoding="utf-8"?>
<!-- Generator: Adobe Illustrator 16.2.0, SVG Export Plug-In . SVG Version: 6.00 Build 0)  -->
<!DOCTYPE svg PUBLIC "-//W3C//DTD SVG 1.1//EN" "http://www.w3.org/Graphics/SVG/1.1/DTD/svg11.dtd" [
	<!ENTITY ns_flows "http://ns.adobe.com/Flows/1.0/">
	<!ENTITY ns_extend "http://ns.adobe.com/Extensibility/1.0/">
	<!ENTITY ns_ai "http://ns.adobe.com/AdobeIllustrator/10.0/">
	<!ENTITY ns_graphs "http://ns.adobe.com/Graphs/1.0/">
]>
<svg version="1.1" id="Layer_1" xmlns:x="&ns_extend;" xmlns:i="&ns_ai;" xmlns:graph="&ns_graphs;"
	 xmlns="http://www.w3.org/2000/svg" xmlns:xlink="http://www.w3.org/1999/xlink" xmlns:a="http://ns.adobe.com/AdobeSVGViewerExtensions/3.0/"
	 x="0px" y="0px" width="40px" height="40px" viewBox="0 0 40 40" enable-background="new 0 0 40 40" xml:space="preserve">
<g>
	<path fill="#FFFFFF" d="M19.086,0C8.883,0.446,0.668,8.519,0,18.655h19.086V0"/>
	<path fill="#FFFFFF" d="M18.167,21.322H0c0.345,5.233,2.7,9.915,6.305,13.283L18.167,21.322"/>
	<path fill="#FFFFFF" d="M21.756,0.061v21.215l0.018,0.017l-0.018,0.02v0.011h-0.011L8.374,36.295
		C11.648,38.626,15.649,40,19.976,40C31.034,40,40,31.041,40,19.989C40,9.537,31.98,0.961,21.756,0.061"/>
	<polygon fill="#FFFFFF" points="21.756,21.322 21.756,21.312 21.745,21.322 	"/>
	<polygon fill="#FFFFFF" points="21.772,21.292 21.755,21.276 21.755,21.312 	"/>
</g>
</svg>
