<?xml version="1.0" encoding="utf-8"?>
<!-- Generator: Adobe Illustrator 16.2.0, SVG Export Plug-In . SVG Version: 6.00 Build 0)  -->
<!DOCTYPE svg PUBLIC "-//W3C//DTD SVG 1.0//EN" "http://www.w3.org/TR/2001/REC-SVG-20010904/DTD/svg10.dtd">
<svg version="1.0" id="Layer_1" xmlns="http://www.w3.org/2000/svg" xmlns:xlink="http://www.w3.org/1999/xlink" x="0px" y="0px"
	 width="80px" height="40px" viewBox="0 0 80 40" enable-background="new 0 0 80 40" xml:space="preserve">
<rect display="none" fill="#FF4A12" width="80" height="40"/>
<g>
	<defs>
		<rect id="SVGID_1_" width="80" height="40"/>
	</defs>
	<clipPath id="SVGID_2_">
		<use xlink:href="#SVGID_1_"  overflow="visible"/>
	</clipPath>
	<path clip-path="url(#SVGID_2_)" fill="#FFFFFF" d="M54.034,36.646c0.009,0.025,0.017,0.048,0.025,0.074
		C54.06,36.721,54.068,36.704,54.034,36.646"/>
	<path clip-path="url(#SVGID_2_)" fill="#FFFFFF" d="M59.417,6H35.583C33.195,6,31,7.278,31,9.667v13.75
		C31,25.805,33.518,28,35.907,28H42c10.445,6.83,11.851,8.339,12.034,8.646C51.194,28.599,51.193,28,51.193,28h8.6
		C61.704,28,64,26.688,64,24.299V9.667C64,7.278,61.328,6,59.417,6"/>
	<path clip-path="url(#SVGID_2_)" fill="#FFFFFF" d="M22.82,10.734H11.054c-0.234,0-0.453-0.035-0.656-0.105
		c-0.203-0.071-0.379-0.165-0.527-0.282C9.722,10.23,9.605,10.085,9.52,9.915C9.433,9.742,9.39,9.563,9.39,9.375
		c0-0.188,0.043-0.364,0.129-0.528c0.086-0.164,0.203-0.312,0.352-0.445c0.148-0.133,0.324-0.234,0.527-0.305
		c0.203-0.07,0.422-0.105,0.656-0.105H22.82c0.219,0,0.43,0.035,0.633,0.105c0.203,0.071,0.379,0.172,0.527,0.305
		c0.149,0.133,0.266,0.281,0.352,0.445c0.086,0.164,0.129,0.34,0.129,0.528c0,0.187-0.043,0.367-0.129,0.539
		c-0.086,0.171-0.203,0.316-0.352,0.433c-0.148,0.117-0.324,0.211-0.527,0.282C23.25,10.699,23.039,10.734,22.82,10.734"/>
	<path clip-path="url(#SVGID_2_)" fill="#FFFFFF" d="M24.461,17.625h-9.305c-0.234,0-0.453-0.039-0.656-0.117
		c-0.203-0.078-0.379-0.18-0.527-0.305c-0.149-0.125-0.266-0.269-0.352-0.433c-0.086-0.165-0.129-0.34-0.129-0.528
		c0-0.187,0.043-0.367,0.129-0.539c0.086-0.172,0.203-0.32,0.352-0.445c0.148-0.125,0.324-0.223,0.527-0.293
		c0.203-0.07,0.422-0.106,0.656-0.106h9.305c0.234,0,0.453,0.036,0.656,0.106c0.203,0.07,0.379,0.168,0.528,0.293
		c0.148,0.125,0.265,0.273,0.351,0.445c0.086,0.172,0.129,0.352,0.129,0.539c0,0.188-0.043,0.363-0.129,0.528
		c-0.086,0.164-0.203,0.308-0.351,0.433c-0.149,0.125-0.325,0.227-0.528,0.305C24.914,17.586,24.695,17.625,24.461,17.625"/>
	<path clip-path="url(#SVGID_2_)" fill="#FFFFFF" d="M26.852,24.469h-7.617c-0.235,0-0.453-0.035-0.657-0.104
		c-0.203-0.071-0.378-0.169-0.527-0.294c-0.148-0.125-0.269-0.273-0.363-0.445c-0.094-0.172-0.141-0.352-0.141-0.539
		s0.047-0.363,0.141-0.527c0.094-0.164,0.215-0.309,0.363-0.434c0.149-0.125,0.324-0.223,0.527-0.293
		c0.204-0.07,0.422-0.105,0.657-0.105h7.617c0.234,0,0.453,0.035,0.656,0.105c0.203,0.07,0.379,0.168,0.528,0.293
		c0.148,0.125,0.269,0.27,0.363,0.434c0.094,0.164,0.14,0.34,0.14,0.527s-0.046,0.367-0.14,0.539
		c-0.094,0.172-0.215,0.32-0.363,0.445c-0.149,0.125-0.325,0.223-0.528,0.294C27.305,24.434,27.085,24.469,26.852,24.469"/>
</g>
</svg>
