<?xml version="1.0" encoding="utf-8"?>
<!-- Generator: Adobe Illustrator 16.0.0, SVG Export Plug-In . SVG Version: 6.00 Build 0)  -->
<!DOCTYPE svg PUBLIC "-//W3C//DTD SVG 1.1//EN" "http://www.w3.org/Graphics/SVG/1.1/DTD/svg11.dtd" [
	<!ENTITY ns_flows "http://ns.adobe.com/Flows/1.0/">
	<!ENTITY ns_extend "http://ns.adobe.com/Extensibility/1.0/">
	<!ENTITY ns_ai "http://ns.adobe.com/AdobeIllustrator/10.0/">
	<!ENTITY ns_graphs "http://ns.adobe.com/Graphs/1.0/">
]>
<svg version="1.1" id="ratingicon" xmlns:x="&ns_extend;" xmlns:i="&ns_ai;" xmlns:graph="&ns_graphs;"
	 xmlns="http://www.w3.org/2000/svg" xmlns:xlink="http://www.w3.org/1999/xlink" xmlns:a="http://ns.adobe.com/AdobeSVGViewerExtensions/3.0/"
	 x="0px" y="0px" width="80px" height="40px" viewBox="0 0 80 40" enable-background="new 0 0 80 40" xml:space="preserve">
<polygon id="starleft_1_" fill="#FFFFFF" points="16.49,21.804 23.64,17 14.846,17 12.07,8.594 9.294,17 0.5,17 7.651,21.804 
	4.92,30.019 12.07,24.725 19.221,30.063 "/>
<polygon id="starmid_1_" fill="#FFFFFF" points="43.671,21.804 50.82,17 42.027,17 39.249,8.594 36.474,17 27.68,17 34.83,21.804 
	32.098,30.019 39.25,24.725 46.403,30.063 "/>
<polygon id="starright_1_" fill="none" stroke="#FFFFFF" stroke-miterlimit="10" points="70.851,22.053 78,17.5 69.205,17.5 
	66.43,9.093 63.652,17.5 54.861,17.5 62.012,22.053 59.281,30.144 66.43,24.785 73.582,30.22 "/>
</svg>
