<?xml version="1.0" encoding="utf-8"?>
<!-- Generator: Adobe Illustrator 16.2.0, SVG Export Plug-In . SVG Version: 6.00 Build 0)  -->
<!DOCTYPE svg PUBLIC "-//W3C//DTD SVG 1.0//EN" "http://www.w3.org/TR/2001/REC-SVG-20010904/DTD/svg10.dtd">
<svg version="1.0" id="Layer_1" xmlns="http://www.w3.org/2000/svg" xmlns:xlink="http://www.w3.org/1999/xlink" x="0px" y="0px"
	 width="80px" height="40px" viewBox="0 0 80 40" enable-background="new 0 0 80 40" xml:space="preserve">
<path id="search" fill="#FFFFFF" d="M56.987,7.833c-1.957-3.237-5.057-5.516-8.727-6.419C47.146,1.139,46.005,1,44.866,1
	c-6.521,0-12.168,4.43-13.733,10.776c-0.911,3.708-0.26,7.44,1.527,10.506c-0.008,0.009-0.018,0.016-0.026,0.024L21.973,33.068
	c-1.353,1.366-1.342,3.57,0.024,4.923C22.676,38.664,23.561,39,24.447,39c0.896,0,1.792-0.345,2.473-1.031l10.609-10.711
	c1.199,0.73,2.527,1.294,3.961,1.647c1.112,0.273,2.252,0.413,3.389,0.413c6.527,0,12.177-4.431,13.738-10.773
	C59.522,14.874,58.943,11.069,56.987,7.833z M54.408,17.508c-1.084,4.401-5.003,7.474-9.529,7.474c-0.787,0-1.58-0.097-2.352-0.286
	c-5.252-1.297-8.476-6.63-7.185-11.884c1.086-4.403,5.002-7.477,9.524-7.477c0.788,0,1.583,0.096,2.358,0.288
	c2.546,0.626,4.695,2.208,6.053,4.452C54.634,12.321,55.036,14.96,54.408,17.508z"/>
</svg>
