<?xml version="1.0" encoding="utf-8"?>
<!-- Generator: Adobe Illustrator 16.2.0, SVG Export Plug-In . SVG Version: 6.00 Build 0)  -->
<!DOCTYPE svg PUBLIC "-//W3C//DTD SVG 1.1//EN" "http://www.w3.org/Graphics/SVG/1.1/DTD/svg11.dtd" [
	<!ENTITY ns_flows "http://ns.adobe.com/Flows/1.0/">
	<!ENTITY ns_extend "http://ns.adobe.com/Extensibility/1.0/">
	<!ENTITY ns_ai "http://ns.adobe.com/AdobeIllustrator/10.0/">
	<!ENTITY ns_graphs "http://ns.adobe.com/Graphs/1.0/">
]>
<svg version="1.1" id="sharepoint2" xmlns:x="&ns_extend;" xmlns:i="&ns_ai;" xmlns:graph="&ns_graphs;"
	 xmlns="http://www.w3.org/2000/svg" xmlns:xlink="http://www.w3.org/1999/xlink" xmlns:a="http://ns.adobe.com/AdobeSVGViewerExtensions/3.0/"
	 x="0px" y="0px" width="80px" height="40px" viewBox="0 0 80 40" enable-background="new 0 0 80 40" xml:space="preserve">
<path fill="#FFFFFF" d="M62.798,19.302c0-2.065-1.647-3.735-3.699-3.791c-1.002-1.996-2.658-3.592-4.688-4.484
	c-0.157-1.954-1.771-3.493-3.766-3.493c-0.694,0-1.339,0.202-1.9,0.526v6.548c0.562,0.327,1.206,0.527,1.9,0.527
	c1.556,0,2.885-0.936,3.473-2.273c1.335,0.684,2.441,1.738,3.201,3.045c-1.255,0.622-2.122,1.901-2.122,3.395
	c0,1.691,1.115,3.111,2.643,3.603c-0.721,1.813-2.091,3.272-3.808,4.121c-0.583-1.28-1.822-2.173-3.271-2.173
	c-0.665,0-1.281,0.201-1.817,0.526v2.252c-0.003,0-0.005-0.001-0.009-0.001v1.808c0.004,0,0.006,0,0.009,0.001v2.488
	c0.536,0.327,1.152,0.528,1.817,0.528c1.953,0,3.525-1.611,3.615-3.624c2.467-1.074,4.39-3.185,5.258-5.793
	C61.429,22.733,62.798,21.181,62.798,19.302z"/>
<path fill="#FFFFFF" d="M35.681,12.099c-0.332,0.022-0.648,0.068-0.945,0.139c-0.295,0.071-0.57,0.164-0.833,0.281
	c-0.257,0.121-0.501,0.263-0.725,0.43c-0.223,0.164-0.432,0.352-0.621,0.566c-0.189,0.213-0.357,0.439-0.498,0.684
	c-0.143,0.241-0.256,0.498-0.352,0.77c-0.095,0.269-0.164,0.557-0.21,0.856c-0.047,0.3-0.069,0.619-0.069,0.95
	c0,0.458,0.054,0.891,0.161,1.296c0.106,0.408,0.267,0.795,0.486,1.157c0.217,0.362,0.49,0.702,0.818,1.02
	c0.332,0.319,0.719,0.616,1.165,0.891c0.197,0.121,0.381,0.238,0.549,0.346c0.168,0.112,0.322,0.217,0.459,0.316
	c0.139,0.102,0.26,0.198,0.365,0.288c0.109,0.09,0.198,0.173,0.277,0.253c0.094,0.105,0.179,0.21,0.251,0.319
	c0.07,0.111,0.131,0.223,0.177,0.334c0.049,0.114,0.086,0.232,0.111,0.35c0.023,0.121,0.035,0.241,0.035,0.365
	c0,0.107-0.007,0.207-0.024,0.305c-0.014,0.097-0.038,0.187-0.073,0.275c-0.032,0.087-0.074,0.17-0.124,0.247
	c-0.049,0.081-0.102,0.151-0.168,0.224c-0.079,0.081-0.166,0.151-0.26,0.21c-0.095,0.06-0.203,0.105-0.316,0.143
	c-0.113,0.037-0.237,0.064-0.369,0.081c-0.13,0.012-0.272,0.018-0.42,0.012c-0.285-0.012-0.563-0.056-0.832-0.13
	c-0.271-0.077-0.532-0.184-0.789-0.322c-0.253-0.136-0.498-0.303-0.739-0.5c-0.238-0.199-0.469-0.427-0.696-0.688v3.31
	c0.197,0.147,0.405,0.281,0.623,0.398c0.221,0.117,0.457,0.221,0.704,0.307c0.249,0.085,0.514,0.151,0.789,0.205
	c0.277,0.054,0.569,0.088,0.875,0.11c0.41,0.024,0.792,0.018,1.154-0.02c0.364-0.04,0.704-0.11,1.014-0.211
	c0.319-0.107,0.605-0.245,0.866-0.419c0.266-0.171,0.504-0.378,0.715-0.618c0.173-0.195,0.321-0.406,0.448-0.634
	c0.133-0.229,0.24-0.474,0.326-0.737c0.087-0.262,0.154-0.54,0.194-0.835c0.046-0.297,0.066-0.605,0.066-0.934
	c0-0.278-0.019-0.547-0.056-0.807c-0.037-0.26-0.091-0.507-0.162-0.745c-0.074-0.236-0.167-0.465-0.276-0.682
	c-0.107-0.217-0.24-0.421-0.384-0.615c-0.119-0.158-0.26-0.318-0.416-0.479c-0.161-0.158-0.341-0.319-0.537-0.482
	c-0.198-0.161-0.414-0.321-0.648-0.482c-0.235-0.161-0.486-0.325-0.756-0.486c-0.184-0.108-0.348-0.21-0.499-0.309
	c-0.152-0.099-0.288-0.192-0.41-0.285c-0.119-0.089-0.228-0.176-0.317-0.256c-0.092-0.083-0.17-0.164-0.232-0.238
	c-0.064-0.081-0.124-0.164-0.173-0.254c-0.05-0.089-0.088-0.188-0.124-0.287c-0.03-0.102-0.057-0.208-0.074-0.319
	c-0.014-0.108-0.025-0.226-0.025-0.35c0-0.112,0.011-0.223,0.03-0.325c0.019-0.105,0.044-0.204,0.081-0.296
	c0.041-0.096,0.087-0.183,0.146-0.266c0.053-0.087,0.119-0.165,0.194-0.238c0.079-0.075,0.156-0.139,0.247-0.195
	c0.088-0.059,0.181-0.104,0.284-0.145c0.104-0.041,0.212-0.072,0.329-0.097c0.112-0.021,0.236-0.037,0.366-0.04
	c0.263-0.012,0.517,0,0.766,0.035c0.251,0.033,0.494,0.092,0.731,0.172c0.24,0.081,0.473,0.186,0.698,0.313
	c0.224,0.126,0.445,0.278,0.657,0.455v-3.282c-0.201-0.086-0.42-0.16-0.646-0.219c-0.231-0.062-0.47-0.108-0.722-0.143
	c-0.251-0.033-0.511-0.055-0.785-0.062C36.258,12.072,35.975,12.077,35.681,12.099 M47.162,38.995L24.995,33.85V6.141l22.167-5.146
	V38.995z"/>
</svg>
