<?xml version="1.0" encoding="utf-8"?>
<!-- Generator: Adobe Illustrator 16.2.0, SVG Export Plug-In . SVG Version: 6.00 Build 0)  -->
<!DOCTYPE svg PUBLIC "-//W3C//DTD SVG 1.0//EN" "http://www.w3.org/TR/2001/REC-SVG-20010904/DTD/svg10.dtd">
<svg version="1.0" id="Layer_1" xmlns="http://www.w3.org/2000/svg" xmlns:xlink="http://www.w3.org/1999/xlink" x="0px" y="0px"
	 width="80px" height="40px" viewBox="0 0 80 40" enable-background="new 0 0 80 40" xml:space="preserve">
<g>
	<defs>
		<rect id="SVGID_1_" x="18.126" y="0.5" width="17" height="17"/>
	</defs>
	<clipPath id="SVGID_2_">
		<use xlink:href="#SVGID_1_"  overflow="visible"/>
	</clipPath>
	<path clip-path="url(#SVGID_2_)" fill-rule="evenodd" clip-rule="evenodd" fill="#FFFFFF" d="M33.14,7.679h-1.478
		c0.108,0.418,0.171,0.854,0.171,1.306c0,2.884-2.337,5.222-5.221,5.222s-5.221-2.337-5.221-5.222c0-0.452,0.063-0.888,0.171-1.306
		h-1.477v7.18c0,0.36,0.292,0.652,0.653,0.652h11.748c0.362,0,0.654-0.292,0.654-0.652V7.679z M33.14,3.11
		c0-0.36-0.292-0.653-0.654-0.653h-1.957c-0.361,0-0.653,0.293-0.653,0.653v1.958c0,0.36,0.292,0.653,0.653,0.653h1.957
		c0.362,0,0.654-0.293,0.654-0.653V3.11z M26.612,5.722c-1.802,0-3.264,1.461-3.264,3.264c0,1.802,1.461,3.264,3.264,3.264
		s3.264-1.462,3.264-3.264C29.876,7.183,28.414,5.722,26.612,5.722 M33.14,17.471H20.084c-1.082,0-1.958-0.877-1.958-1.959V2.458
		c0-1.081,0.876-1.958,1.958-1.958H33.14c1.081,0,1.958,0.876,1.958,1.958v13.054C35.098,16.594,34.221,17.471,33.14,17.471"/>
</g>
<g>
	<path fill="#FFFFFF" d="M61.18,4.403c0.403-0.323,0.506-0.904,0.222-1.348c-0.251-0.391-0.721-0.552-1.146-0.429
		c-0.036,0.019-0.075,0.039-0.116,0.062c-0.675,0.372-5.238,3.569-4.723,3.93C55.928,6.976,59.047,5.571,61.18,4.403z M61.18,14.018
		c-2.132-1.168-5.252-2.572-5.764-2.214c-0.515,0.36,4.048,3.558,4.723,3.93c0.042,0.021,0.08,0.042,0.116,0.062
		c0.425,0.124,0.895-0.039,1.146-0.429C61.686,14.922,61.583,14.34,61.18,14.018z M63.058,8.159
		c-0.042-0.002-0.086-0.002-0.133-0.002c-0.771,0.001-6.309,0.608-6.03,1.173c0.276,0.56,3.687,0.83,6.119,0.831
		c0.509-0.088,0.878-0.549,0.842-1.075C63.823,8.624,63.489,8.254,63.058,8.159z"/>
	<path fill="#FFFFFF" d="M48.393,12.963c-0.633,1.791-1.221,2.63-2.569,2.63c-0.13,0-0.585-0.026-0.614-0.03
		c-0.436-0.021-0.841,0.261-0.959,0.699c-0.134,0.497,0.158,1.009,0.652,1.151c0.357,0.063,0.725,0.086,1.054,0.086
		c2.486,0,3.308-1.432,4.129-3.522l4.853-12.103c0.175-0.548-0.13-1.135-0.675-1.31c-0.535-0.17-1.103,0.113-1.295,0.634
		l-3.409,9.01h-0.054L45.92,1.131c-0.243-0.513-0.842-0.763-1.385-0.561c-0.555,0.208-0.841,0.816-0.658,1.375L48.393,12.963z"/>
</g>
<path fill="#FFFFFF" d="M36.47,25.894c-0.724,0.321-1.503,0.539-2.319,0.637c0.833-0.501,1.474-1.293,1.776-2.236
	c-0.781,0.464-1.646,0.8-2.565,0.981C32.625,24.49,31.576,24,30.413,24c-2.23,0-4.039,1.809-4.039,4.04
	c0,0.316,0.036,0.624,0.104,0.919c-3.356-0.167-6.333-1.776-8.325-4.22c-0.348,0.598-0.547,1.292-0.547,2.031
	c0,1.401,0.712,2.638,1.797,3.363c-0.663-0.021-1.286-0.203-1.83-0.505c0,0.016,0,0.033,0,0.05c0,1.958,1.392,3.59,3.239,3.96
	c-0.339,0.093-0.696,0.142-1.064,0.142c-0.259,0-0.513-0.025-0.759-0.072c0.514,1.604,2.005,2.773,3.773,2.805
	c-1.382,1.084-3.125,1.729-5.016,1.729c-0.327,0-0.648-0.018-0.964-0.056C18.571,39.331,20.693,40,22.974,40
	c7.43,0,11.492-6.155,11.492-11.493c0-0.175-0.004-0.349-0.011-0.521C35.244,27.415,35.929,26.704,36.47,25.894z"/>
<g>
	<path fill="#FFFFFF" d="M61,24.423C61,23.314,60.423,23,59.528,23H45.766C44.872,23,44,23.314,44,24.423v12.984
		C44,38.516,44.872,40,45.766,40h13.763C60.423,40,61,38.516,61,37.407V24.423z M58.196,31H57v7h-3v-7h-2v-3h2v-1.215
		C54,24.742,54.031,24,56.443,24H59v3h-1.806c-0.938,0-1-0.278-1,0.376L56.189,28h2.272L58.196,31z"/>
</g>
</svg>