<?xml version="1.0" encoding="utf-8"?>
<!-- Generator: Adobe Illustrator 16.2.0, SVG Export Plug-In . SVG Version: 6.00 Build 0)  -->
<!DOCTYPE svg PUBLIC "-//W3C//DTD SVG 1.0//EN" "http://www.w3.org/TR/2001/REC-SVG-20010904/DTD/svg10.dtd">
<svg version="1.0" id="shape_x5F_80x40" xmlns="http://www.w3.org/2000/svg" xmlns:xlink="http://www.w3.org/1999/xlink" x="0px"
	 y="0px" width="80px" height="40px" viewBox="0 0 80 40" enable-background="new 0 0 80 40" xml:space="preserve">
<g id="star12_1_">
	<path fill="#FFFFFF" d="M40,5.551l1.299,3.361l0.987,2.557l2.134-1.72l2.805-2.262l-0.556,3.56l-0.424,2.708l2.708-0.423
		l3.561-0.556l-2.262,2.805l-1.721,2.133l2.557,0.988L54.449,20l-3.361,1.299l-2.557,0.987l1.721,2.133l2.262,2.806l-3.561-0.556
		l-2.708-0.424l0.424,2.708l0.556,3.561l-2.806-2.262l-2.133-1.721l-0.987,2.557L40,34.449l-1.298-3.361l-0.987-2.557l-2.134,1.721
		l-2.805,2.262l0.556-3.561l0.423-2.708l-2.708,0.424l-3.561,0.556l2.262-2.806l1.72-2.133l-2.557-0.987L25.55,20l3.361-1.298
		l2.556-0.988l-1.72-2.133l-2.262-2.805l3.561,0.556l2.708,0.423l-0.423-2.708l-0.556-3.56l2.805,2.262l2.134,1.72l0.987-2.557
		L40,5.551 M40,0l-3.164,8.191L30,2.68l1.355,8.676L22.68,10l5.511,6.835L20,20l8.191,3.164L22.68,30l8.676-1.355L30,37.32
		l6.836-5.512L40,40l3.165-8.191L50,37.32l-1.355-8.676L57.32,30l-5.512-6.836L60,20l-8.191-3.165L57.32,10l-8.676,1.355L50,2.68
		l-6.836,5.512L40,0L40,0z"/>
</g>
</svg>
