<?xml version="1.0" encoding="utf-8"?>
<!-- Generator: Adobe Illustrator 16.2.0, SVG Export Plug-In . SVG Version: 6.00 Build 0)  -->
<!DOCTYPE svg PUBLIC "-//W3C//DTD SVG 1.0//EN" "http://www.w3.org/TR/2001/REC-SVG-20010904/DTD/svg10.dtd">
<svg version="1.0" id="shape_x5F_80x40" xmlns="http://www.w3.org/2000/svg" xmlns:xlink="http://www.w3.org/1999/xlink" x="0px"
	 y="0px" width="80px" height="40px" viewBox="0 0 80 40" enable-background="new 0 0 80 40" xml:space="preserve">
<g id="star5_3_">
	<path fill="#FFFFFF" d="M40,6.774l2.81,9.094l0.436,1.41h1.476h9.366l-7.662,5.853l-1.109,0.848l0.412,1.333l2.874,9.3
		l-7.388-5.644L40,28.04l-1.214,0.928l-7.388,5.644l2.874-9.3l0.412-1.333l-1.108-0.847l-7.662-5.854h9.366h1.475l0.436-1.41
		L40,6.774 M40,0l-4.721,15.278H20l12.36,9.442L27.64,40L40,30.557L52.36,40l-4.722-15.279L60,15.278H44.721L40,0L40,0z"/>
</g>
</svg>
