<?xml version="1.0" encoding="utf-8"?>
<!-- Generator: Adobe Illustrator 16.2.0, SVG Export Plug-In . SVG Version: 6.00 Build 0)  -->
<!DOCTYPE svg PUBLIC "-//W3C//DTD SVG 1.0//EN" "http://www.w3.org/TR/2001/REC-SVG-20010904/DTD/svg10.dtd">
<svg version="1.0" id="shape_x5F_80x40" xmlns="http://www.w3.org/2000/svg" xmlns:xlink="http://www.w3.org/1999/xlink" x="0px"
	 y="0px" width="80px" height="40px" viewBox="0 0 80 40" enable-background="new 0 0 80 40" xml:space="preserve">
<g id="star6_3_">
	<path fill="#FFFFFF" d="M40,4.015l4.01,6.981L44.587,12h1.157h8.035l-4.023,7.004L49.184,20l0.572,0.996L53.779,28h-8.035h-1.157
		l-0.577,1.004L40,35.984l-4.01-6.98L35.413,28h-1.158h-8.034l4.023-7.004L30.817,20l-0.572-0.996L26.222,12h8.034h1.158
		l0.577-1.004L40,4.015 M40,0l-5.745,10H22.766l5.745,10l-5.745,10h11.489L40,40l5.744-10h11.49L51.49,20l5.744-10h-11.49L40,0L40,0
		z"/>
</g>
</svg>
