<?xml version="1.0" encoding="utf-8"?>
<!-- Generator: Adobe Illustrator 16.2.0, SVG Export Plug-In . SVG Version: 6.00 Build 0)  -->
<!DOCTYPE svg PUBLIC "-//W3C//DTD SVG 1.0//EN" "http://www.w3.org/TR/2001/REC-SVG-20010904/DTD/svg10.dtd">
<svg version="1.0" id="shape_x5F_80x40" xmlns="http://www.w3.org/2000/svg" xmlns:xlink="http://www.w3.org/1999/xlink" x="0px"
	 y="0px" width="80px" height="40px" viewBox="0 0 80 40" enable-background="new 0 0 80 40" xml:space="preserve">
<g id="star8_3_">
	<path fill="#FFFFFF" d="M40,6.546l1.712,5.335l0.721,2.246l2.098-1.079l4.983-2.562l-2.562,4.982l-1.079,2.098l2.246,0.721
		L53.455,20l-5.336,1.712l-2.246,0.721l1.079,2.098l2.561,4.982l-4.981-2.562l-2.099-1.079l-0.721,2.246L40,33.454l-1.712-5.335
		l-0.721-2.246l-2.098,1.079l-4.982,2.562l2.562-4.982l1.079-2.098l-2.246-0.721L26.545,20l5.336-1.712l2.246-0.721l-1.079-2.098
		l-2.562-4.982l4.982,2.562l2.098,1.079l0.721-2.247L40,6.546 M40,0l-3.616,11.27L25.858,5.858l5.411,10.525L20,20l11.27,3.617
		l-5.411,10.525l10.525-5.412L40,40l3.617-11.27l10.525,5.412L48.73,23.617L60,20l-11.27-3.617l5.411-10.525L43.616,11.27L40,0L40,0
		z"/>
</g>
</svg>
