<?xml version="1.0" encoding="utf-8"?>
<!-- Generator: Adobe Illustrator 17.0.0, SVG Export Plug-In . SVG Version: 6.00 Build 0)  -->
<!DOCTYPE svg PUBLIC "-//W3C//DTD SVG 1.1//EN" "http://www.w3.org/Graphics/SVG/1.1/DTD/svg11.dtd">
<svg version="1.1" id="Layer_1" xmlns="http://www.w3.org/2000/svg" xmlns:xlink="http://www.w3.org/1999/xlink" x="0px" y="0px"
	 width="80px" height="40px" viewBox="0 0 80 40" enable-background="new 0 0 80 40" xml:space="preserve">
<path fill="#FFFFFF" d="M55,40H25V0h30V40z M26,39h28V1H26V39z"/>
<rect x="29" y="33" fill="#FFFFFF" width="22" height="3"/>
<path fill="#FFFFFF" d="M29,4v27h22V4H29z M31,7h14v3H31V7z M31,15h14v2H31V15z M31,20h15v1H31V20z M31,22h16v1H31V22z M45,27H31v-1
	h14V27z M48,25H31v-1h17V25z M48,14H31v-2h17V14z"/>
</svg>
