<?xml version="1.0" encoding="utf-8"?>
<!-- Generator: Adobe Illustrator 16.0.0, SVG Export Plug-In . SVG Version: 6.00 Build 0)  -->
<!DOCTYPE svg PUBLIC "-//W3C//DTD SVG 1.1//EN" "http://www.w3.org/Graphics/SVG/1.1/DTD/svg11.dtd" [
	<!ENTITY ns_flows "http://ns.adobe.com/Flows/1.0/">
	<!ENTITY ns_extend "http://ns.adobe.com/Extensibility/1.0/">
	<!ENTITY ns_ai "http://ns.adobe.com/AdobeIllustrator/10.0/">
	<!ENTITY ns_graphs "http://ns.adobe.com/Graphs/1.0/">
]>
<svg version="1.1" id="textboxicon" xmlns:x="&ns_extend;" xmlns:i="&ns_ai;" xmlns:graph="&ns_graphs;"
	 xmlns="http://www.w3.org/2000/svg" xmlns:xlink="http://www.w3.org/1999/xlink" xmlns:a="http://ns.adobe.com/AdobeSVGViewerExtensions/3.0/"
	 x="0px" y="0px" width="80px" height="40px" viewBox="0 0 80 40" enable-background="new 0 0 80 40" xml:space="preserve">
<rect id="rectangle_5_" x="24.5" y="10.5" fill="none" stroke="#FFFFFF" stroke-miterlimit="10" width="32" height="18"/>
<path id="acompound" fill="#FFFFFF" d="M33.949,25.559h-1.821v-1.296h-0.033c-0.572,0.993-1.411,1.49-2.518,1.49
	c-0.815,0-1.453-0.222-1.915-0.664s-0.692-1.028-0.692-1.757c0-1.564,0.901-2.477,2.704-2.736l2.461-0.348
	c0-1.182-0.561-1.773-1.684-1.773c-0.988,0-1.878,0.34-2.671,1.021v-1.644c0.874-0.518,1.883-0.777,3.027-0.777
	c2.094,0,3.141,1.031,3.141,3.092V25.559z M32.136,21.486l-1.74,0.243c-0.54,0.07-0.946,0.2-1.219,0.393s-0.408,0.527-0.408,1.008
	c0,0.351,0.125,0.638,0.376,0.862c0.251,0.224,0.587,0.336,1.008,0.336c0.572,0,1.046-0.201,1.421-0.604s0.563-0.907,0.563-1.518
	V21.486z"/>
<path id="bcompound" fill="#FFFFFF" d="M38.15,24.36h-0.032v1.198H36.24V13.286h1.878v5.439h0.032
	c0.643-1.101,1.582-1.651,2.817-1.651c1.047,0,1.866,0.371,2.457,1.113s0.887,1.736,0.887,2.983c0,1.387-0.332,2.497-0.996,3.331
	c-0.663,0.834-1.57,1.251-2.72,1.251C39.516,25.753,38.701,25.288,38.15,24.36z M38.103,21.066v1.027
	c0,0.604,0.193,1.117,0.578,1.538c0.386,0.421,0.876,0.631,1.47,0.631c0.696,0,1.243-0.271,1.639-0.813
	c0.397-0.543,0.595-1.3,0.595-2.271c0-0.814-0.185-1.453-0.555-1.915c-0.37-0.461-0.87-0.691-1.501-0.691
	c-0.669,0-1.208,0.238-1.615,0.713C38.306,19.76,38.103,20.354,38.103,21.066z"/>
<line id="linevert" fill="none" stroke="#FFFFFF" stroke-miterlimit="10" x1="45.5" y1="12" x2="45.5" y2="27"/>
</svg>
