<?xml version="1.0" encoding="utf-8"?>
<!-- Generator: Adobe Illustrator 17.0.0, SVG Export Plug-In . SVG Version: 6.00 Build 0)  -->
<!DOCTYPE svg PUBLIC "-//W3C//DTD SVG 1.1//EN" "http://www.w3.org/Graphics/SVG/1.1/DTD/svg11.dtd">
<svg version="1.1" id="Layer_1" xmlns="http://www.w3.org/2000/svg" xmlns:xlink="http://www.w3.org/1999/xlink" x="0px" y="0px"
	 width="80px" height="40px" viewBox="0 0 80 40" enable-background="new 0 0 80 40" xml:space="preserve">
<path fill="#FFFFFF" d="M80,40H0V0h80V40z M1,39h78V1H1V39z"/>
<path fill="#FFFFFF" d="M4,4v32h22V4H4z M6,7h14v3H6V7z M6,15h14v2H6V15z M6,20h15v1H6V20z M6,22h16v1H6V22z M16,31H6v-1h10V31z
	 M21,29H6v-1h15V29z M22,27H6v-1h16V27z M23,25H6v-1h17V25z M23,14H6v-2h17V14z"/>
<path fill="#FFFFFF" d="M29,4v32h22V4H29z M31,7h14v3H31V7z M31,15h14v2H31V15z M31,20h15v1H31V20z M31,22h16v1H31V22z M41,31H31v-1
	h10V31z M46,29H31v-1h15V29z M47,27H31v-1h16V27z M48,25H31v-1h17V25z M48,14H31v-2h17V14z"/>
<path fill="#FFFFFF" d="M54,4v32h22V4H54z M56,7h14v3H56V7z M56,15h14v2H56V15z M56,20h15v1H56V20z M56,22h16v1H56V22z M66,31H56v-1
	h10V31z M71,29H56v-1h15V29z M72,27H56v-1h16V27z M73,25H56v-1h17V25z M73,14H56v-2h17V14z"/>
</svg>
