<?xml version="1.0" encoding="utf-8"?>
<!-- Generator: Adobe Illustrator 16.0.0, SVG Export Plug-In . SVG Version: 6.00 Build 0)  -->
<!DOCTYPE svg PUBLIC "-//W3C//DTD SVG 1.1//EN" "http://www.w3.org/Graphics/SVG/1.1/DTD/svg11.dtd" [
	<!ENTITY ns_flows "http://ns.adobe.com/Flows/1.0/">
	<!ENTITY ns_extend "http://ns.adobe.com/Extensibility/1.0/">
	<!ENTITY ns_ai "http://ns.adobe.com/AdobeIllustrator/10.0/">
	<!ENTITY ns_graphs "http://ns.adobe.com/Graphs/1.0/">
]>
<svg version="1.1" id="duration" xmlns:x="&ns_extend;" xmlns:i="&ns_ai;" xmlns:graph="&ns_graphs;"
	 xmlns="http://www.w3.org/2000/svg" xmlns:xlink="http://www.w3.org/1999/xlink" xmlns:a="http://ns.adobe.com/AdobeSVGViewerExtensions/3.0/"
	 x="0px" y="0px" width="80px" height="40px" viewBox="0 0 80 40" enable-background="new 0 0 80 40" xml:space="preserve">
<path fill-rule="evenodd" clip-rule="evenodd" fill="#FFFFFF" d="M41.914,18.833V9.668c0-0.469-0.2-0.867-0.566-1.169
	c-0.4-0.329-0.867-0.464-1.4-0.464c-0.601,0-1.065,0.135-1.435,0.464c-0.397,0.303-0.566,0.701-0.566,1.169v10.533
	c0,0.234,0.034,0.366,0.067,0.497c0.067,0.234,0.167,0.469,0.333,0.634c0.101,0.201,0.301,0.336,0.535,0.469l9.43,4.7
	c0.234,0.101,0.468,0.164,0.702,0.164c0.298,0,0.634-0.098,0.934-0.332c0.332-0.2,0.566-0.498,0.766-0.867
	c0.165-0.334,0.267-0.699,0.267-1.066c0-0.298-0.102-0.567-0.231-0.833c-0.168-0.266-0.367-0.466-0.636-0.633L41.914,18.833z
	 M35.68,35.399c-1.367-0.368-2.633-0.899-3.8-1.599c-1.2-0.7-2.267-1.534-3.267-2.5c-0.967-0.969-1.801-2.035-2.467-3.234
	c-0.732-1.167-1.268-2.433-1.634-3.801c-0.4-1.366-0.566-2.764-0.566-4.266c0-1.467,0.166-2.866,0.566-4.233
	c0.366-1.333,0.901-2.598,1.634-3.802c0.666-1.198,1.5-2.266,2.467-3.267c1-0.967,2.066-1.799,3.267-2.498
	c1.167-0.701,2.433-1.234,3.8-1.601C37.046,4.234,38.447,4,39.947,4c2.201,0,4.266,0.434,6.2,1.268c1.934,0.832,3.634,2,5.099,3.431
	c1.469,1.467,2.602,3.167,3.433,5.103c0.868,1.934,1.267,4,1.267,6.199c0,1.467-0.196,2.9-0.563,4.233
	c-0.402,1.367-0.933,2.666-1.636,3.833c-0.699,1.199-1.532,2.266-2.5,3.234c-1,0.966-2.099,1.8-3.266,2.5
	c-1.168,0.699-2.434,1.23-3.801,1.599c-1.366,0.401-2.766,0.598-4.232,0.598C38.447,35.997,37.046,35.801,35.68,35.399z
	 M34.614,0.734c-1.699,0.467-3.3,1.166-4.766,2.034c-1.469,0.865-2.835,1.9-4.067,3.098c-1.2,1.234-2.234,2.602-3.101,4.066
	c-0.867,1.47-1.566,3.069-2.034,4.768c-0.466,1.702-0.699,3.47-0.699,5.3c0,1.866,0.233,3.633,0.699,5.332
	c0.468,1.7,1.167,3.301,2.034,4.766c0.866,1.504,1.9,2.837,3.101,4.067c1.232,1.201,2.599,2.236,4.067,3.102
	c1.466,0.834,3.066,1.534,4.766,2.031C36.28,39.734,38.081,40,39.947,40c1.832,0,3.565-0.266,5.267-0.702
	c1.733-0.497,3.332-1.197,4.8-2.031c1.5-0.865,2.833-1.9,4.067-3.102c1.198-1.23,2.233-2.563,3.101-4.067
	c0.864-1.465,1.566-3.065,2.031-4.766c0.469-1.699,0.734-3.466,0.734-5.332c0-1.831-0.266-3.598-0.734-5.3
	c-0.465-1.699-1.167-3.298-2.031-4.768c-0.867-1.465-1.902-2.832-3.101-4.066c-1.234-1.198-2.567-2.232-4.067-3.098
	c-1.468-0.868-3.066-1.567-4.8-2.034C43.512,0.268,41.779,0,39.947,0C38.081,0,36.314,0.268,34.614,0.734z"/>
</svg>
