<?xml version="1.0" encoding="utf-8"?>
<!-- Generator: Adobe Illustrator 16.2.0, SVG Export Plug-In . SVG Version: 6.00 Build 0)  -->
<!DOCTYPE svg PUBLIC "-//W3C//DTD SVG 1.0//EN" "http://www.w3.org/TR/2001/REC-SVG-20010904/DTD/svg10.dtd">
<svg version="1.0" xmlns="http://www.w3.org/2000/svg" xmlns:xlink="http://www.w3.org/1999/xlink" x="0px" y="0px" width="80px"
	 height="40px" viewBox="0 0 80 40" enable-background="new 0 0 80 40" xml:space="preserve">
<g id="Layer_2" display="none">
	<rect display="inline" fill="#8BCFF2" width="80" height="40"/>
</g>
<g id="Layer_1">
	
		<image display="none" overflow="visible" width="229" height="95" xlink:href="73E3851D.jpg"  transform="matrix(1.0002 0 0 1.0002 -19 -27)">
	</image>
	<path fill="#FFFFFF" d="M55,4.194C37.106,7.176,24.99,37,26.574,37c15.005-18.64,22.461-17.148,22.461-19.385
		c0.253-0.768-6.955,1.417-7.787,1.491c0,0,11.516-5.965,11.516-8.202c0-0.746-8.533,4.059-8.533,4.059S54.288,6.928,55,4.194z"/>
	<g>
		<path fill="#FFFFFF" d="M21,4.5C21,5.329,21.671,6,22.5,6h10C33.329,6,34,5.329,34,4.5l0,0C34,3.671,33.329,3,32.5,3h-10
			C21.671,3,21,3.671,21,4.5L21,4.5z"/>
		<path fill="#FFFFFF" d="M23,4.25C23,3.56,22.44,3,21.75,3h-0.5C20.56,3,20,3.56,20,4.25v18.5c0,0.69,0.56,1.25,1.25,1.25h0.5
			c0.69,0,1.25-0.56,1.25-1.25V4.25z"/>
	</g>
	<g>
		<path fill="#FFFFFF" d="M59,34.5c0,0.828-0.672,1.5-1.5,1.5l0,0c-0.828,0-1.5-0.672-1.5-1.5v-10c0-0.828,0.672-1.5,1.5-1.5l0,0
			c0.828,0,1.5,0.672,1.5,1.5V34.5z"/>
		<path fill="#FFFFFF" d="M59,35.75c0,0.69-0.56,1.25-1.25,1.25h-18.5C38.56,37,38,36.44,38,35.75v-0.5c0-0.69,0.56-1.25,1.25-1.25
			h18.5c0.69,0,1.25,0.56,1.25,1.25V35.75z"/>
	</g>
</g>
</svg>
