<?xml version="1.0" encoding="utf-8"?>
<!-- Generator: Adobe Illustrator 16.2.0, SVG Export Plug-In . SVG Version: 6.00 Build 0)  -->
<!DOCTYPE svg PUBLIC "-//W3C//DTD SVG 1.1 Tiny//EN" "http://www.w3.org/Graphics/SVG/1.1/DTD/svg11-tiny.dtd">
<svg version="1.1" baseProfile="tiny" xmlns="http://www.w3.org/2000/svg" xmlns:xlink="http://www.w3.org/1999/xlink" x="0px"
	 y="0px" width="80px" height="40px" viewBox="0 0 80 40" xml:space="preserve">
<g id="Layer_2" display="none">
	<rect display="inline" fill-rule="evenodd" fill="#E21414" width="80" height="40"/>
</g>
<g id="Layer_1">
	<g>
		<path fill-rule="evenodd" fill="#FFFFFF" d="M32.239,9.622c0-4.21,3.413-7.622,7.623-7.622c4.208,0,7.621,3.412,7.621,7.622
			c0,4.209-3.412,7.621-7.621,7.621C35.652,17.243,32.239,13.831,32.239,9.622L32.239,9.622z"/>
		<g>
			<g>
				<path fill="#FFFFFF" d="M48.094,33.764l-0.407-0.439c-0.047-0.06-0.07-0.123-0.07-0.19c0-0.081,0.032-0.153,0.096-0.217
					l1.17-1.101c0.056-0.047,0.121-0.069,0.198-0.069c0.038,0,0.076,0.007,0.114,0.021c0.038,0.016,0.069,0.037,0.095,0.067
					l3.226,3.479l5.554-7.15c0.063-0.072,0.14-0.108,0.229-0.108c0.067,0,0.127,0.021,0.178,0.064l1.278,0.985
					c0.025,0.021,0.05,0.052,0.073,0.093c0.023,0.04,0.035,0.077,0.035,0.111c0,0.072-0.021,0.14-0.063,0.203l-7.138,9.167
					L48.094,33.764z"/>
				<g>
					<path fill="#FFFFFF" d="M45.988,33.134c0-0.514,0.202-0.999,0.572-1.368l1.206-1.136c0.626-0.534,1.358-0.636,2.018-0.379
						c0.287,0.111,0.543,0.293,0.741,0.524l1.762,1.899C51.385,24.4,48.4,18.531,39.98,18.531C28.998,18.531,27.087,28,27.087,40
						h24.577l-5.259-5.669C46.133,33.983,45.988,33.568,45.988,33.134z"/>
				</g>
			</g>
		</g>
	</g>
</g>
</svg>
