<?xml version="1.0" encoding="utf-8"?>
<!-- Generator: Adobe Illustrator 16.2.0, SVG Export Plug-In . SVG Version: 6.00 Build 0)  -->
<!DOCTYPE svg PUBLIC "-//W3C//DTD SVG 1.0//EN" "http://www.w3.org/TR/2001/REC-SVG-20010904/DTD/svg10.dtd">
<svg version="1.0" xmlns="http://www.w3.org/2000/svg" xmlns:xlink="http://www.w3.org/1999/xlink" x="0px" y="0px" width="80px"
	 height="40px" viewBox="0 0 80 40" enable-background="new 0 0 80 40" xml:space="preserve">
<g id="Layer_2" display="none">
	<rect display="inline" fill="#20A52F" width="80" height="40"/>
</g>
<g id="Layer_1">
	<g display="none">
		<ellipse display="inline" fill="#FFFFFF" cx="37.436" cy="10.15" rx="6.814" ry="7.95"/>
		<polygon display="inline" fill="#FFFFFF" points="23.429,34 51.821,34 51.632,29.268 51.064,24.725 49.172,19.804 46.143,18.479 
			44.061,17.721 41.789,19.425 40.275,20.372 37.247,21.129 33.839,19.804 31.378,17.911 28.918,18.479 25.889,20.182 
			24.943,23.589 23.807,28.321 		"/>
	</g>
	<path id="search" fill="#FFFFFF" d="M59.297,28.346c-0.672-1.111-1.735-1.894-2.995-2.204C55.919,26.048,55.527,26,55.136,26
		c-2.238,0-4.177,1.521-4.714,3.699c-0.313,1.273-0.09,2.554,0.524,3.606c-0.003,0.003-0.007,0.006-0.01,0.009l-3.659,3.694
		c-0.464,0.469-0.461,1.226,0.008,1.69c0.233,0.23,0.537,0.346,0.842,0.346c0.307,0,0.615-0.118,0.849-0.354l3.642-3.678
		c0.412,0.251,0.868,0.444,1.36,0.566c0.382,0.094,0.772,0.142,1.163,0.142c2.24,0,4.18-1.521,4.716-3.698
		C60.168,30.763,59.969,29.457,59.297,28.346z M58.412,31.667c-0.372,1.511-1.718,2.566-3.271,2.566
		c-0.271,0-0.543-0.033-0.808-0.099c-1.803-0.445-2.909-2.276-2.467-4.08c0.373-1.511,1.718-2.566,3.27-2.566
		c0.271,0,0.544,0.033,0.81,0.099c0.874,0.215,1.612,0.758,2.078,1.528C58.489,29.887,58.628,30.792,58.412,31.667z"/>
	<g>
		<ellipse fill="#FFFFFF" cx="39.436" cy="10.15" rx="6.814" ry="7.95"/>
		<g>
			<g>
				<path fill="none" d="M46.988,36.713c-0.076,0.076-0.075,0.2,0.001,0.276c0.086,0.083,0.166,0.109,0.276-0.002L50.224,34h-0.547
					L46.988,36.713z"/>
				<path fill="#FFFFFF" d="M48.451,28.461c0.541-2.195,2.269-3.821,4.396-4.301l-1.675-4.356l-3.029-1.325l-2.082-0.757
					l-2.271,1.704l-1.514,0.947l-3.029,0.757l-3.407-1.325l-2.461-1.893l-2.46,0.568l-3.029,1.704l-0.946,3.407l-1.136,4.732
					L25.429,34h21.431l1.874-1.892C48.251,30.958,48.149,29.688,48.451,28.461z"/>
			</g>
		</g>
	</g>
</g>
</svg>
