<?xml version="1.0" encoding="utf-8"?>
<!-- Generator: Adobe Illustrator 16.2.0, SVG Export Plug-In . SVG Version: 6.00 Build 0)  -->
<!DOCTYPE svg PUBLIC "-//W3C//DTD SVG 1.1//EN" "http://www.w3.org/Graphics/SVG/1.1/DTD/svg11.dtd" [
	<!ENTITY ns_flows "http://ns.adobe.com/Flows/1.0/">
	<!ENTITY ns_extend "http://ns.adobe.com/Extensibility/1.0/">
	<!ENTITY ns_ai "http://ns.adobe.com/AdobeIllustrator/10.0/">
	<!ENTITY ns_graphs "http://ns.adobe.com/Graphs/1.0/">
]>
<svg version="1.1" xmlns:x="&ns_extend;" xmlns:i="&ns_ai;" xmlns:graph="&ns_graphs;"
	 xmlns="http://www.w3.org/2000/svg" xmlns:xlink="http://www.w3.org/1999/xlink" xmlns:a="http://ns.adobe.com/AdobeSVGViewerExtensions/3.0/"
	 x="0px" y="0px" width="80px" height="40px" viewBox="0 0 80 40" enable-background="new 0 0 80 40" xml:space="preserve">
<g id="BG_x5F_40x40_x2C__80x40" display="none">
	<rect id="_x38_0x40_1_" display="inline" fill-rule="evenodd" clip-rule="evenodd" fill="#8CC63F" width="80" height="40"/>
	<rect id="_x34_0x40" x="20" fill-rule="evenodd" clip-rule="evenodd" fill="#D9E021" width="40" height="40"/>
</g>
<g id="videoPlayback_x5F_icon">
	<path id="arrowCircle" fill="#FFFFFF" d="M38.501,24.787c-3.504-0.471-5.965-3.696-5.494-7.2c0.471-3.506,3.693-5.966,7.199-5.496
		c3.506,0.471,5.964,3.695,5.496,7.201C45.229,22.798,42.006,25.26,38.501,24.787z M37.328,14.251v8.378l5.522-4.207L37.328,14.251z
		"/>
	<path id="border" fill="#FFFFFF" d="M61,33H17V4h44V33z M59,6H19v25h40V6z"/>
	<path fill="#FFFFFF" d="M60,8c0,0.637,0,1.363,0,2h3v25H23v-3c-0.667,0-1.333,0-2,0v5h44V8H60z"/>
	<path display="none" fill="#FFFFFF" d="M63,12c0,0.667,0,1.333,0,2h3v25H26v-3c-0.667,0-1.333,0-2,0v5h44V12H63z"/>
</g>
</svg>
