<?xml version="1.0" encoding="utf-8"?>
<!-- Generator: Adobe Illustrator 16.2.0, SVG Export Plug-In . SVG Version: 6.00 Build 0)  -->
<!DOCTYPE svg PUBLIC "-//W3C//DTD SVG 1.0//EN" "http://www.w3.org/TR/2001/REC-SVG-20010904/DTD/svg10.dtd">
<svg version="1.0" id="Layer_1" xmlns="http://www.w3.org/2000/svg" xmlns:xlink="http://www.w3.org/1999/xlink" x="0px" y="0px"
	 width="80px" height="40px" viewBox="0 0 80 40" enable-background="new 0 0 80 40" xml:space="preserve">
<g>
	<g>
		<path fill="#FFFFFF" d="M24.528,15.519l1.869,4.075l2.906,1.313l-10.388,5.462l4.275,3.007l10.725-6.381v-4.587L24.528,15.519z
			 M23.191,11.912l-4.275-1.287v15.743l4.269-3.874L23.191,11.912z"/>
	</g>
	<path fill="#FFFFFF" d="M29.304,24.161c0.509-0.088,0.878-0.549,0.842-1.075c-0.032-0.462-0.366-0.831-0.798-0.926"/>
	<g>
		<path id="The_Sharpness" opacity="0.12" fill-rule="evenodd" clip-rule="evenodd" fill="#010101" d="M49.077,18.614l4.717,3.149
			l0.661-0.343L49.077,18.614z"/>
		<g id="Lozenge">
			<g>
				<path fill="#FFFFFF" d="M60.885,17.646c0,0-0.192-1.372-0.79-1.976c-0.756-0.792-1.606-0.796-1.994-0.843
					c-2.785-0.202-6.964-0.202-6.964-0.202h-0.009c0,0-4.178,0-6.962,0.202c-0.39,0.047-1.238,0.051-1.995,0.843
					c-0.597,0.604-0.791,1.976-0.791,1.976s-0.197,1.611-0.197,3.221v1.51c0,1.611,0.197,3.222,0.197,3.222s0.194,1.371,0.791,1.974
					c0.757,0.792,1.752,0.768,2.194,0.851c1.593,0.153,6.768,0.201,6.768,0.201s4.183-0.007,6.968-0.208
					c0.388-0.047,1.238-0.051,1.994-0.844c0.598-0.603,0.79-1.974,0.79-1.974s0.199-1.611,0.199-3.222v-1.51
					C61.084,19.256,60.885,17.646,60.885,17.646z M49.078,24.207l-0.001-5.593l5.378,2.806L49.078,24.207z"/>
			</g>
		</g>
	</g>
</g>
</svg>