<?xml version="1.0" encoding="utf-8"?>
<!-- Generator: Adobe Illustrator 17.1.0, SVG Export Plug-In . SVG Version: 6.00 Build 0)  -->
<!DOCTYPE svg PUBLIC "-//W3C//DTD SVG 1.1//EN" "http://www.w3.org/Graphics/SVG/1.1/DTD/svg11.dtd">
<svg version="1.1" xmlns="http://www.w3.org/2000/svg" xmlns:xlink="http://www.w3.org/1999/xlink" x="0px" y="0px" width="80px"
	 height="40px" viewBox="0 0 80 40" enable-background="new 0 0 80 40" xml:space="preserve">
<g id="Layer_1" display="none">
	
		<image display="inline" overflow="visible" width="40" height="40" xlink:href="Web.png"  transform="matrix(1.0002 0 0 1.0002 20 0)">
	</image>
</g>
<g id="BG_for_Work" display="none">
	<rect display="inline" width="80" height="40"/>
</g>
<g id="WhiteScreenVersion" display="none">
	<rect x="23" y="3" display="inline" fill="#FFFFFF" width="26" height="3"/>
	<rect x="51" y="3" display="inline" fill="#FFFFFF" width="6" height="3"/>
	<g display="inline">
		<path fill="#FFFFFF" d="M23,9v28h34V9H23z M32.582,26h-2.188l-0.996-4.046C29.332,21.69,29.294,22,29.286,21h-0.04
			c-0.031,1-0.075,0.712-0.132,0.928L28.046,26h-2.162l-1.905-7h2.123l0.929,4.826C27.075,24.033,27.108,24,27.13,25h0.04
			c0.022-1,0.062-0.989,0.119-1.2l1.16-4.8h1.984l1.042,4.819C31.5,23.93,31.531,24,31.566,25h0.046
			c0.022-1,0.057-0.926,0.105-1.181L32.594,19h1.932L32.582,26z M43.346,26h-2.188l-0.996-4.046C40.096,21.69,40.058,22,40.05,21
			h-0.04c-0.031,1-0.075,0.712-0.132,0.928L38.811,26h-2.162l-1.905-7h2.123l0.929,4.826C37.839,24.033,37.872,24,37.894,25h0.04
			c0.022-1,0.062-0.989,0.119-1.2l1.16-4.8h1.984l1.042,4.819C42.265,23.93,42.295,24,42.33,25h0.046
			c0.022-1,0.058-0.926,0.105-1.181L43.358,19h1.932L43.346,26z M54.11,26h-2.188l-0.996-4.046C50.86,21.69,50.823,22,50.814,21
			h-0.04c-0.03,1-0.074,0.712-0.132,0.928L49.575,26h-2.162l-1.905-7h2.123l0.929,4.826C48.604,24.033,48.637,24,48.658,25h0.04
			c0.021-1,0.062-0.989,0.118-1.2l1.16-4.8h1.984l1.042,4.819C53.029,23.93,53.06,24,53.095,25h0.046
			c0.022-1,0.058-0.926,0.105-1.181L54.123,19h1.932L54.11,26z"/>
	</g>
</g>
<g id="KnockOutWhiteVersion">
	<g>
		<path fill="#FFFFFF" d="M20,0v40h40V0H20z M23,3h26v3H23V3z M57,37H23V9h34V37z M57,6h-6V3h6V6z"/>
	</g>
	<g>
		<path fill="#FFFFFF" d="M34.961,18.561l-1.851,7.002h-1.748L30.2,21.07c-0.062-0.234-0.099-0.497-0.112-0.786h-0.02
			c-0.029,0.319-0.072,0.581-0.127,0.786l-1.191,4.492h-1.821l-1.841-7.002h1.724l0.986,4.663c0.042,0.198,0.073,0.466,0.093,0.801
			h0.029c0.013-0.251,0.06-0.524,0.142-0.82l1.27-4.644h1.689l1.147,4.702c0.042,0.173,0.08,0.423,0.112,0.752h0.02
			c0.013-0.257,0.047-0.518,0.103-0.781l0.967-4.673H34.961z"/>
		<path fill="#FFFFFF" d="M45.01,18.561l-1.851,7.002h-1.748l-1.162-4.492c-0.062-0.234-0.099-0.497-0.112-0.786h-0.02
			c-0.029,0.319-0.072,0.581-0.127,0.786l-1.191,4.492h-1.821l-1.841-7.002h1.724l0.986,4.663c0.042,0.198,0.073,0.466,0.093,0.801
			h0.029c0.013-0.251,0.06-0.524,0.142-0.82l1.27-4.644h1.689l1.147,4.702c0.042,0.173,0.08,0.423,0.112,0.752h0.02
			c0.013-0.257,0.047-0.518,0.103-0.781l0.967-4.673H45.01z"/>
		<path fill="#FFFFFF" d="M55.059,18.561l-1.851,7.002H51.46l-1.162-4.492c-0.062-0.234-0.1-0.497-0.112-0.786h-0.02
			c-0.029,0.319-0.071,0.581-0.127,0.786l-1.191,4.492h-1.821l-1.841-7.002h1.724l0.986,4.663c0.042,0.198,0.073,0.466,0.093,0.801
			h0.029c0.013-0.251,0.061-0.524,0.142-0.82l1.27-4.644h1.689l1.147,4.702c0.042,0.173,0.08,0.423,0.112,0.752h0.02
			c0.013-0.257,0.047-0.518,0.103-0.781l0.967-4.673H55.059z"/>
	</g>
</g>
</svg>
