<?xml version="1.0" encoding="utf-8"?>
<!-- Generator: Adobe Illustrator 16.2.0, SVG Export Plug-In . SVG Version: 6.00 Build 0)  -->
<!DOCTYPE svg PUBLIC "-//W3C//DTD SVG 1.0//EN" "http://www.w3.org/TR/2001/REC-SVG-20010904/DTD/svg10.dtd">
<svg version="1.0" xmlns="http://www.w3.org/2000/svg" xmlns:xlink="http://www.w3.org/1999/xlink" x="0px" y="0px" width="80px"
	 height="40px" viewBox="0 0 80 40" enable-background="new 0 0 80 40" xml:space="preserve">
<g id="Layer_2" display="none">
	<rect x="-15" y="-10" display="inline" fill-rule="evenodd" clip-rule="evenodd" fill="#E21414" width="111" height="60"/>
</g>
<g id="Layer_1">
	<g>
		<path fill="#FFFFFF" d="M44.901,14c0.429,0,1.551,0.042,1.806,0.342C46.961,14.641,47,15.571,47,16v14
			c0,0.429-0.06,1.354-0.353,1.647C46.354,31.94,45.43,32,45,32H20c-0.214,0-0.777,0.048-0.975-0.031s-0.373-0.187-0.525-0.321
			c-0.153-0.136-0.274-0.297-0.364-0.483S18,30.777,18,30.563V15.435c0-0.214,0.045-0.415,0.136-0.602
			c0.09-0.186,0.211-0.35,0.364-0.491c0.152-0.141,0.327-0.251,0.525-0.33S19.687,14,19.901,14h1
			c0.181-0.316,0.419-0.711,0.555-0.971c0.124-0.226,0.24-0.432,0.347-0.618s0.178-0.296,0.212-0.33h3.066
			c0.022,0.022,0.099,0.127,0.229,0.313c0.13,0.187,0.274,0.393,0.432,0.619c0.181,0.26,0.944,0.66,1.159,0.988H44.901z
			 M32.535,30.528c1.039,0,2.016-0.197,2.931-0.592c0.915-0.396,1.711-0.932,2.389-1.609c0.677-0.678,1.214-1.472,1.609-2.381
			c0.395-0.909,0.593-1.883,0.593-2.922c0-1.027-0.198-1.996-0.593-2.906c-0.396-0.909-0.932-1.702-1.609-2.38
			c-0.678-0.678-1.474-1.214-2.389-1.609c-0.915-0.396-1.892-0.593-2.931-0.593s-2.013,0.198-2.922,0.593
			c-0.909,0.395-1.702,0.932-2.38,1.609s-1.214,1.471-1.609,2.38c-0.396,0.91-0.593,1.878-0.593,2.906
			c0,1.039,0.198,2.013,0.593,2.922c0.395,0.909,0.932,1.703,1.609,2.381s1.471,1.214,2.38,1.609
			C30.522,30.331,31.496,30.528,32.535,30.528z M32.535,17.535c0.757,0,1.465,0.144,2.126,0.432
			c0.661,0.288,1.239,0.678,1.736,1.169s0.889,1.067,1.177,1.728c0.288,0.66,0.432,1.369,0.432,2.126s-0.144,1.468-0.432,2.135
			c-0.288,0.666-0.68,1.245-1.177,1.736s-1.076,0.881-1.736,1.169c-0.661,0.288-1.37,0.432-2.126,0.432
			c-0.756,0-1.465-0.144-2.126-0.432s-1.237-0.678-1.728-1.169s-0.881-1.07-1.169-1.736c-0.288-0.667-0.432-1.378-0.432-2.135
			s0.144-1.466,0.432-2.126c0.288-0.661,0.678-1.237,1.169-1.728s1.067-0.881,1.728-1.169S31.779,17.535,32.535,17.535z
			 M32.535,26.836c0.531,0,1.031-0.099,1.5-0.296c0.469-0.198,0.875-0.473,1.22-0.822c0.344-0.35,0.618-0.76,0.822-1.229
			c0.203-0.469,0.305-0.969,0.305-1.499s-0.102-1.028-0.305-1.491c-0.204-0.462-0.478-0.869-0.822-1.219
			c-0.345-0.35-0.751-0.624-1.22-0.822s-0.969-0.296-1.5-0.296s-1.027,0.099-1.491,0.296c-0.463,0.198-0.87,0.472-1.22,0.822
			s-0.624,0.757-0.822,1.219c-0.197,0.463-0.296,0.961-0.296,1.491s0.099,1.03,0.296,1.499c0.198,0.469,0.472,0.879,0.822,1.229
			s0.757,0.624,1.22,0.822C31.508,26.737,32.004,26.836,32.535,26.836z M47.24,38c-0.96,0-1.908-0.082-2.846-0.246
			c-0.938-0.163-1.858-0.409-2.762-0.736h2.625c1.323,0,2.592-0.184,3.813-0.551c1.22-0.367,2.357-0.884,3.414-1.55
			c1.056-0.667,2.013-1.457,2.872-2.372c0.857-0.915,1.595-1.925,2.209-3.032c0.617-1.107,1.091-2.284,1.424-3.532
			c0.334-1.248,0.5-2.532,0.5-3.854c0-1.13-0.13-2.262-0.391-3.397c-0.259-1.135-0.64-2.225-1.143-3.27
			c-0.503-1.044-1.115-2.021-1.838-2.931c-0.724-0.909-1.541-1.703-2.457-2.38L49,14V3h10.827l-3.761,3.744
			c1.174,0.756,2.22,1.657,3.133,2.702c0.916,1.045,1.69,2.191,2.323,3.439c0.631,1.248,1.11,2.572,1.438,3.973
			c0.329,1.4,0.491,2.829,0.491,4.286c0,1.502-0.191,2.962-0.574,4.379c-0.385,1.418-0.929,2.75-1.627,3.998
			c-0.702,1.248-1.542,2.392-2.524,3.431s-2.073,1.935-3.27,2.686c-1.197,0.751-2.491,1.333-3.88,1.745S48.743,38,47.24,38z
			 M45.274,15.723h-3.642v1.813h3.642V15.723z"/>
	</g>
</g>
</svg>
