<?xml version="1.0" encoding="utf-8"?>
<!-- Generator: Adobe Illustrator 16.2.0, SVG Export Plug-In . SVG Version: 6.00 Build 0)  -->
<!DOCTYPE svg PUBLIC "-//W3C//DTD SVG 1.1//EN" "http://www.w3.org/Graphics/SVG/1.1/DTD/svg11.dtd" [
	<!ENTITY ns_flows "http://ns.adobe.com/Flows/1.0/">
	<!ENTITY ns_extend "http://ns.adobe.com/Extensibility/1.0/">
	<!ENTITY ns_ai "http://ns.adobe.com/AdobeIllustrator/10.0/">
	<!ENTITY ns_graphs "http://ns.adobe.com/Graphs/1.0/">
]>
<svg version="1.1" xmlns:x="&ns_extend;" xmlns:i="&ns_ai;" xmlns:graph="&ns_graphs;"
	 xmlns="http://www.w3.org/2000/svg" xmlns:xlink="http://www.w3.org/1999/xlink" xmlns:a="http://ns.adobe.com/AdobeSVGViewerExtensions/3.0/"
	 x="0px" y="0px" width="80px" height="40px" viewBox="0 0 80 40" enable-background="new 0 0 80 40" xml:space="preserve">
<g id="BG_x5F_40x40_x2C__80x40" display="none">
	<rect id="_x38_0x40_1_" display="inline" fill-rule="evenodd" clip-rule="evenodd" fill="#8CC63F" width="80" height="40"/>
	<rect id="_x34_0x40" x="20" fill-rule="evenodd" clip-rule="evenodd" fill="#D9E021" width="40" height="40"/>
</g>
<g id="videoPlayback_x5F_icon">
	<g>
		<path id="arrowCircle" fill="#FFFFFF" d="M36.064,28.401c-4.619-0.621-7.863-4.872-7.242-9.491
			c0.621-4.622,4.868-7.864,9.49-7.245c4.622,0.62,7.863,4.87,7.244,9.492C44.933,25.779,40.685,29.024,36.064,28.401z
			 M34.519,14.513v11.044l7.279-5.545L34.519,14.513z"/>
		<g>
			<path fill="none" d="M58.397,30.383c-0.94-1.614-1.145-3.578-0.665-5.53C58.382,22.222,60,16.237,63,15.504V14.5V4H11v32h37.39
				h0.441l9.552-5.605C58.389,30.391,58.393,30.387,58.397,30.383z"/>
			<path fill="none" d="M57.99,36H63v-2.238c-1-0.186-1.363-0.433-1.901-0.761L57.99,36z"/>
			<path fill="none" d="M60.086,25.398C59.482,27.859,60,30.343,63,31.343v-9.416C61,22.561,60.479,23.807,60.086,25.398z"/>
			<path fill="none" d="M69.982,27.869c0.33-1.34,0.05-2.729-0.665-3.912c-0.715-1.181-1.741-2.014-3.081-2.343
				C66.123,21.586,66,21.572,66,21.552v10.173C68,31.378,69.485,29.89,69.982,27.869z"/>
			<path fill="#FFFFFF" d="M48.772,36.06L48.831,36H48.39H11V4h52v10.5v1.004c0-0.197,1.37-0.323,2.099-0.323
				c0.301,0-0.099,0.019,0.901,0.055v-0.383V1H8v38h40.298h0.998c-0.184-0.087-0.358-0.199-0.511-0.35
				C48.066,37.938,48.061,36.778,48.772,36.06z"/>
			<g>
				<g>
					<path fill="#FFFFFF" d="M60.086,25.398C60.479,23.807,61,22.561,63,21.927v-2.423c-3,0.733-4.618,2.718-5.268,5.349
						c-0.479,1.952-0.206,3.916,0.734,5.53c-0.005,0.004-0.043,0.008-0.049,0.012L52.831,36h5.159l3.108-2.999
						C61.637,33.329,62,33.576,63,33.762v-2.419C60,30.343,59.482,27.859,60.086,25.398z"/>
					<path fill="#FFFFFF" d="M71.201,22.777c-1.03-1.704-2.523-2.903-4.455-3.378C66.454,19.327,66,19.273,66,19.236v2.315
						c0,0.02,0.089,0.035,0.201,0.063c1.34,0.33,2.401,1.162,3.116,2.343c0.715,1.183,1.03,2.572,0.7,3.912
						C69.52,29.89,68,31.378,66,31.725v2.286c3-0.367,5.447-2.552,6.197-5.595C72.674,26.482,72.23,24.48,71.201,22.777z"/>
					<path fill="#FFFFFF" d="M63,19.504v2.423c0-0.29,1.354-0.464,2.099-0.464c0.301,0-0.099,0.036,0.901,0.089v-2.315
						c-1-0.037-0.601-0.055-0.901-0.055C64.37,19.181,63,19.307,63,19.504z"/>
					<path fill="#FFFFFF" d="M57.99,36h-5.159l-0.059,0.06c-0.712,0.719-0.706,1.879,0.013,2.591c0.152,0.15,0.327,0.263,0.511,0.35
						h1.559c0.188-0.089,0.367-0.205,0.522-0.361L57.99,36z"/>
					<path fill="#FFFFFF" d="M64.967,31.804c-0.414,0-0.762-0.051-1.168-0.151C63.494,31.577,63,31.467,63,31.343v2.419
						c0,0.032,0.072,0.079,0.184,0.106c0.585,0.144,1.255,0.218,1.853,0.218c0.304,0-0.036-0.04,0.964-0.075v-2.286
						C65,31.775,65.271,31.804,64.967,31.804z"/>
				</g>
			</g>
		</g>
	</g>
</g>
</svg>
