<?xml version="1.0" encoding="utf-8"?>
<!-- Generator: Adobe Illustrator 16.0.0, SVG Export Plug-In . SVG Version: 6.00 Build 0)  -->
<!DOCTYPE svg PUBLIC "-//W3C//DTD SVG 1.1//EN" "http://www.w3.org/Graphics/SVG/1.1/DTD/svg11.dtd">
<svg version="1.1" id="Layer_1" xmlns="http://www.w3.org/2000/svg" xmlns:xlink="http://www.w3.org/1999/xlink" x="0px" y="0px"
	 width="981px" height="900px" viewBox="0 0 981 900" enable-background="new 0 0 981 900" xml:space="preserve">
<g>
	<path fill="#ffffff" d="M461.779,746.756L310.35,486.294V308.158H191.487v177.998L20.463,749.315c0,0-53.576,75.685,12.652,75.685
		c66.26,0,363.118,0,427.888,0C525.791,825,461.779,746.756,461.779,746.756z M205.766,765.769H108.93l123.191-242.165
		L205.766,765.769z"/>
	<path fill="#ffffff" d="M234.901,220.241c0,21.48,17.316,38.863,38.734,38.863c21.357,0,38.673-17.382,38.673-38.863
		c0-21.435-17.316-38.817-38.673-38.817C252.217,181.424,234.901,198.806,234.901,220.241z"/>
	<path fill="#ffffff" d="M235.417,131.318c23.742,0,43.018-19.348,43.018-43.174c0-23.842-19.276-43.144-43.018-43.144
		c-23.757,0-43.018,19.302-43.018,43.144C192.399,111.97,211.66,131.318,235.417,131.318z"/>
	<path fill="#ffffff" d="M352.29,184.76c31.14,0,56.4-25.304,56.4-56.58c0-31.215-25.26-56.565-56.4-56.565s-56.417,25.35-56.417,56.565
		C295.873,159.456,321.15,184.76,352.29,184.76z"/>
</g>
</svg>
