<?xml version="1.0" encoding="utf-8"?>
<!-- Generator: Adobe Illustrator 16.0.0, SVG Export Plug-In . SVG Version: 6.00 Build 0)  -->
<!DOCTYPE svg PUBLIC "-//W3C//DTD SVG 1.1//EN" "http://www.w3.org/Graphics/SVG/1.1/DTD/svg11.dtd">
<svg version="1.1" id="Layer_1" xmlns="http://www.w3.org/2000/svg" xmlns:xlink="http://www.w3.org/1999/xlink" x="0px" y="0px"
	 width="981px" height="900px" viewBox="0 0 981 900" enable-background="new 0 0 981 900" xml:space="preserve">
<g>
	<path fill="none" d="M390.106,305c-88.558-0.061-160.646,71.914-160.707,160.425c-0.076,88.496,71.937,160.593,160.479,160.653
		c88.572,0.062,160.677-71.944,160.738-160.439C550.677,377.127,478.664,305.06,390.106,305z M389.908,594.194
		c-70.962-0.076-128.669-57.8-128.608-128.739c0.046-70.955,57.83-128.617,128.791-128.556
		c70.978,0.061,128.67,57.799,128.609,128.74C518.669,536.578,460.87,594.255,389.908,594.194z"/>
	<polygon fill="none" points="584.726,384.512 714.264,384.603 714.31,300.553 584.786,300.462 	"/>
	<path fill="#ffffff" d="M691.655,215.56l-602.977-0.396c-48.826-0.031-88.435,39.513-88.466,88.313L0,595.124
		c-0.03,48.801,39.518,88.403,88.359,88.434L691.336,684c48.811,0,88.436-39.543,88.466-88.313L780,304.01
		C780.03,255.239,740.481,215.621,691.655,215.56z M389.878,626.078c-88.542-0.061-160.555-72.157-160.479-160.653
		C229.46,376.914,301.549,304.938,390.106,305c88.558,0.061,160.57,72.127,160.51,160.639
		C550.555,554.134,478.45,626.14,389.878,626.078z M714.264,384.603l-129.538-0.091l0.061-84.05l129.523,0.091L714.264,384.603z"/>
	<path fill="#ffffff" d="M390.091,336.899C319.13,336.838,261.346,394.5,261.3,465.455c-0.061,70.939,57.646,128.663,128.608,128.739
		c70.962,0.061,128.761-57.616,128.792-128.556C518.761,394.698,461.068,336.959,390.091,336.899z"/>
	<polygon fill="#ffffff" points="240.063,108.061 117.243,108 117.213,171.905 240.018,171.966 	"/>
</g>
</svg>
