<?xml version="1.0" encoding="utf-8"?>
<!-- Generator: Adobe Illustrator 16.0.0, SVG Export Plug-In . SVG Version: 6.00 Build 0)  -->
<!DOCTYPE svg PUBLIC "-//W3C//DTD SVG 1.1//EN" "http://www.w3.org/Graphics/SVG/1.1/DTD/svg11.dtd">
<svg version="1.1" id="Layer_1" xmlns="http://www.w3.org/2000/svg" xmlns:xlink="http://www.w3.org/1999/xlink" x="0px" y="0px"
	 width="981px" height="900px" viewBox="0 0 981 900" enable-background="new 0 0 981 900" xml:space="preserve">
<g>
	<path fill="#ffffff" d="M777.581,314.563c0,0-17.337-26.105-110.326-26.167c-89.928-0.061-151.978,53.434-256.804,53.342
		c-0.671-0.123-2.85-0.245-5.744-0.367h-29.463c-2.863,0.092-5.088,0.214-5.728,0.367C264.705,341.647,202.701,288.061,112.759,288
		c-92.96-0.061-110.327,26.014-110.327,26.014s-18.799,14.16,48.141,190.346c66.924,176.172,197.481,150.051,219.343,150.082
		c46.86,0.029,82.631-54.457,118.735-53.006v0.182c0.427,0,0.762-0.061,1.158-0.061c0.396,0,0.731,0.061,1.143,0.061v-0.182
		c36.104-1.391,70.488,53.127,118.659,53.158c31.124,0.029,152.373,26.319,219.557-149.76
		C796.38,328.785,777.581,314.563,777.581,314.563z M226.954,508.24c-74.328-23.891-86.332-57.802-86.332-57.802
		s27.01-29.313,103.455-16.94c76.491,12.342,81.823,88.123,81.823,88.123S282.407,526.112,226.954,508.24z M553.348,508.484
		c-55.468,17.781-98.946,13.229-98.946,13.229s5.394-75.781,81.899-88.001c76.491-12.281,103.472,17.078,103.472,17.078
		S627.706,484.686,553.348,508.484z"/>
</g>
</svg>
