<?xml version="1.0" encoding="utf-8"?>
<!-- Generator: Adobe Illustrator 16.0.0, SVG Export Plug-In . SVG Version: 6.00 Build 0)  -->
<!DOCTYPE svg PUBLIC "-//W3C//DTD SVG 1.1//EN" "http://www.w3.org/Graphics/SVG/1.1/DTD/svg11.dtd">
<svg version="1.1" id="Layer_1" xmlns="http://www.w3.org/2000/svg" xmlns:xlink="http://www.w3.org/1999/xlink" x="0px" y="0px"
	 width="981px" height="900px" viewBox="0 0 981 900" enable-background="new 0 0 981 900" xml:space="preserve">
<g>
	<polygon fill="none" points="314.234,599.172 314.234,614.976 720.822,614.976 720.822,599.172 720.822,583.352 314.234,583.352 	
		"/>
	<polygon fill="none" points="227.957,440.322 227.957,761.324 243.75,761.324 259.56,761.324 259.56,440.322 243.75,440.322 	"/>
	<polygon fill="#ffffff" points="184.844,339.539 276.114,176.386 155.289,210.466 64.018,373.67 	"/>
	<polygon fill="#ffffff" points="586.455,226.102 677.743,63 556.9,97.081 465.664,260.25 	"/>
	<polygon fill="#ffffff" points="385.633,282.828 476.92,119.693 356.111,153.773 264.841,316.942 	"/>
	<polygon fill="#ffffff" points="0,254.321 21.26,329.646 75.309,233.063 	"/>
	<polygon fill="#ffffff" points="745.502,181.197 723.192,102.077 666.453,203.521 	"/>
	<path fill="#ffffff" d="M59.008,382.613H42.656v29.185V819H780V382.613H59.008z M259.56,761.324h-15.81h-15.793V440.322h15.793h15.81V761.324z
		 M720.822,599.172v15.804H314.234v-15.804v-15.82h406.588V599.172z"/>
</g>
</svg>
