<?xml version="1.0" encoding="utf-8"?>
<!-- Generator: Adobe Illustrator 16.0.0, SVG Export Plug-In . SVG Version: 6.00 Build 0)  -->
<!DOCTYPE svg PUBLIC "-//W3C//DTD SVG 1.1//EN" "http://www.w3.org/Graphics/SVG/1.1/DTD/svg11.dtd">
<svg version="1.1" id="Layer_1" xmlns="http://www.w3.org/2000/svg" xmlns:xlink="http://www.w3.org/1999/xlink" x="0px" y="0px"
	 width="981px" height="900px" viewBox="0 0 981 900" enable-background="new 0 0 981 900" xml:space="preserve">
<g>
	<path fill="#ffffff" d="M751.89,676.229c-19.849,5.441-34.79,1.243-46.172-6.963l-62.227-135.17c7.925-25.656,25.649-108.301-27.729-224.251
		l-83.101-180.53c-2.109-4.593-7.837-12.316-22.354-12.316c-25.825,0-93.442,30.454-120.322,55.042
		C363.135,147.454,295.518,117,269.678,117c-14.502,0-20.244,7.723-22.354,12.316l-83.086,180.53
		c-53.379,115.95-35.669,198.595-27.744,224.251l-62.227,135.17c-11.367,8.206-26.323,12.404-46.172,6.963
		C6.196,670.232,0,687.653,0,687.653l65.771,27.426l14.121,5.953L145.459,749c0,0,8.188-16.529-11.396-28.025
		c-19.395-11.396-26.484-26.622-27.598-41.791l60.688-131.835c24.155-12.111,101.968-57.704,150.776-163.665L390,227.012
		l72.085,156.672c48.794,105.96,126.577,151.553,150.747,163.665l60.718,131.835c-1.128,15.169-8.232,30.396-27.612,41.791
		C626.338,732.471,634.541,749,634.541,749l65.552-27.968l14.121-5.953L780,687.653C780,687.653,773.789,670.232,751.89,676.229z
		 M320.127,304.639l-117.29-4.388l69.976-152.065c24.229,2.662,83.76,33.057,97.471,47.421L320.127,304.639z M507.231,148.273
		l69.946,151.978l-117.29,4.388l-50.171-109.032C423.311,181.331,482.08,151.301,507.231,148.273z"/>
</g>
</svg>
