<?xml version="1.0" encoding="utf-8"?>
<!-- Generator: Adobe Illustrator 16.0.0, SVG Export Plug-In . SVG Version: 6.00 Build 0)  -->
<!DOCTYPE svg PUBLIC "-//W3C//DTD SVG 1.1//EN" "http://www.w3.org/Graphics/SVG/1.1/DTD/svg11.dtd">
<svg version="1.1" id="Layer_1" xmlns="http://www.w3.org/2000/svg" xmlns:xlink="http://www.w3.org/1999/xlink" x="0px" y="0px"
	 width="981px" height="900px" viewBox="0 0 981 900" enable-background="new 0 0 981 900" xml:space="preserve">
<g>
	<path fill="#ffffff" d="M285.192,644.898c-27.149,27.102-36.198,51.721-37.722,71.008c-31.887-118.082,0.061-218.568,2.027-224.57l-30.333-10.116
		l-30.318-10.177c-1.249,3.748-12.615,38.908-17.322,91.742c-7.999-23.918-20.08-50.092-38.316-72.074
		C85.675,433.201,4.807,421.029,4.807,421.029s-24.985,86.485,38.972,153.502c46.208,48.322,100.14,57.752,126.557,59.322
		c2.971,58.135,17.018,125.957,53.612,194.146h74.469c-15.6-23.658-27.85-47.516-37.112-71.053
		c95.797-10.756,138.578-58.592,138.578-58.592c36.321-32.404,19.104-131.822,19.104-131.822
		C392.233,606.629,336.047,594,285.192,644.898z"/>
	<path fill="#ffffff" d="M370.051,190.396c-9.673-57.769-46.557-112.917-46.557-112.917s-42.658,33.165-75.155,73.384
		C231.946,47.573,113.631,48,113.631,48s55.425,44.104,48.25,105.604c-7.191,61.578-18.404,53.092-23.523,163.876
		c-4.434,95.23,47.183,120.717,76.785,127.588c26.662,9.048,72.291,21.602,95.737,10.8c0.092-0.061,0.122-0.061,0.183-0.121
		c26.448-7.13,57.162-28.107,82.635-80.438c42.78-87.994,29.219-99.419,49.27-157.996C462.985,158.663,532,142.743,532,142.743
		S427.61,97.588,370.051,190.396z"/>
</g>
</svg>
