<?xml version="1.0" encoding="utf-8"?>
<!-- Generator: Adobe Illustrator 16.0.0, SVG Export Plug-In . SVG Version: 6.00 Build 0)  -->
<!DOCTYPE svg PUBLIC "-//W3C//DTD SVG 1.1//EN" "http://www.w3.org/Graphics/SVG/1.1/DTD/svg11.dtd">
<svg version="1.1" id="Layer_1" xmlns="http://www.w3.org/2000/svg" xmlns:xlink="http://www.w3.org/1999/xlink" x="0px" y="0px"
	 width="981px" height="900px" viewBox="0 0 981 900" enable-background="new 0 0 981 900" xml:space="preserve">
<g>
	<path fill="#ffffff" d="M174.074,695.955h280.119l150.162-350.044L780,316.793l-193.163-190.41l-20.203,185.464l-112.441,90.714V272.183H222.418
		c-5.818-6.414-48.344-69.371-113.562-72.224c-35.403-0.706-71.327,25.532-94.233,78.301C0.162,310.098-0.057,339.29,0.005,371.175
		c2.671,165.407,146.925,304.569,168.879,325.208h4.882L174.074,695.955z M44.009,374.85c0.045-24.106,4.543-47.828,15.413-71.856
		c19.897-41.935,35.341-47.091,49.435-47.736c14.799-0.491,34.896,11.186,50.263,25.287c4.238,3.805,8.015,7.58,11.393,11.186
		v332.613C122.858,574.676,42.642,470.671,44.009,374.85z"/>
</g>
</svg>
