<?xml version="1.0" encoding="utf-8"?>
<!-- Generator: Adobe Illustrator 16.0.0, SVG Export Plug-In . SVG Version: 6.00 Build 0)  -->
<!DOCTYPE svg PUBLIC "-//W3C//DTD SVG 1.1//EN" "http://www.w3.org/Graphics/SVG/1.1/DTD/svg11.dtd">
<svg version="1.1" id="Layer_1" xmlns="http://www.w3.org/2000/svg" xmlns:xlink="http://www.w3.org/1999/xlink" x="0px" y="0px"
	 width="981px" height="900px" viewBox="0 0 981 900" enable-background="new 0 0 981 900" xml:space="preserve">
<g>
	<path fill="#ffffff" d="M437.771,460.847l43.418-58.457l-65.581-65.646l-56.258,42.481c-11.97-6.754-24.701-12.346-38.086-16.412l-11.68-69.931
		h-92.748l-12.405,70.367c-13.239,4.212-25.826,9.876-37.724,16.702l-57.201-42.699L43.889,402.97l44.833,59.474
		c-5.404,10.82-9.866,22.149-13.239,33.985L0,509.065v92.879l78.166,13.798h1.307c3.337,9.366,7.182,18.517,11.86,27.158
		l-1.378,1.38l-46.029,64.63l65.616,65.574l65-45.603l3.083-3.05c8.742,4.283,17.737,8.059,27.168,11.036L216.836,819h92.748
		l11.462-81.696c9.467-2.905,18.607-6.68,27.422-10.964l2.647,2.614l64.492,46.038l65.581-65.573L435.63,644.28l-0.29-0.289
		c5.332-9.732,9.721-20.044,13.385-30.719l76.97-11.328v-92.879l-73.343-10.238C448.797,485.538,443.9,472.829,437.771,460.847z
		 M348.867,579.215c-12.188,35.655-45.559,61.362-85.276,61.362c-42.366,0-77.659-29.338-87.489-68.769
		c-1.741-6.972-2.975-14.232-2.975-21.857s1.233-14.816,2.975-21.858c0.689-2.761,1.523-5.229,2.431-7.844
		c7.146-20.405,21.219-37.397,39.646-48.219c5.006-2.978,10.301-5.446,15.887-7.335c9.286-3.268,19.116-5.373,29.526-5.373
		c9.141,0,17.846,1.743,26.152,4.284c6.855,2.033,13.275,4.865,19.333,8.424c18.571,10.894,32.754,28.03,39.791,48.654
		c0.362,1.017,0.652,2.106,0.979,3.123c2.539,8.352,4.28,16.993,4.28,26.144C354.126,560.189,352.059,569.92,348.867,579.215z"/>
	<path fill="#ffffff" d="M731.104,265.432c1.088-7.479,1.56-14.959,1.378-22.656L780,216.705l-22.381-60.055l-50.31,11.111
		c-5.44-7.552-11.534-14.451-18.281-20.623l14.146-48.799l-58.217-26.651l-26.479,41.611c-9.177-1.453-18.498-1.889-27.93-1.308
		L565.812,69l-59.994,22.294l9.067,49.235c-7.399,5.882-14.037,12.272-19.985,19.389l-47.808-14.015l-26.551,58.385l43.672,27.885
		c-0.871,8.133-0.907,16.339-0.254,24.617l-46.283,26.651l22.38,59.982l53.864-9.876l1.197-0.436
		c4.353,5.157,9.067,9.876,14.073,14.233l-0.798,1.816l-14.183,52.866l58.217,26.65l31.05-45.167l1.45-3.05
		c6.529,0.581,13.095,0.653,19.732,0.291l27.857,50.833l59.994-22.366l-12.441-56.279c5.332-4.139,10.374-8.424,14.98-13.217
		l2.647,1.235l52.776,14.233l26.624-58.312l-45.159-31.08L731.104,265.432z M616.847,297.021
		c-27.93,10.384-59.052-3.849-69.462-31.879c-10.41-27.958,3.809-59.112,31.738-69.568c27.967-10.457,59.088,3.849,69.534,31.807
		C659.031,255.338,644.849,286.491,616.847,297.021z"/>
</g>
</svg>
