<?xml version="1.0" encoding="utf-8"?>
<!-- Generator: Adobe Illustrator 16.0.0, SVG Export Plug-In . SVG Version: 6.00 Build 0)  -->
<!DOCTYPE svg PUBLIC "-//W3C//DTD SVG 1.1//EN" "http://www.w3.org/Graphics/SVG/1.1/DTD/svg11.dtd">
<svg version="1.1" id="Layer_1" xmlns="http://www.w3.org/2000/svg" xmlns:xlink="http://www.w3.org/1999/xlink" x="0px" y="0px"
	 width="981px" height="900px" viewBox="0 0 981 900" enable-background="new 0 0 981 900" xml:space="preserve">
<g>
	<polygon fill="#ffffff" points="455.111,416.419 362.669,350.605 133.483,574.585 766.532,574.585 542.222,354.049 	"/>
	<polygon fill="#ffffff" points="753.979,162 154.537,162 455.051,376.047 	"/>
	<polygon fill="#ffffff" points="130.132,184.974 130.132,531.897 335.491,331.227 	"/>
	<polygon fill="#ffffff" points="569.339,334.64 780,541.74 780,183.816 	"/>
	<polygon fill="#ffffff" points="96.981,603.501 96.981,564.317 96.981,231.897 64.106,231.897 64.106,643.325 721.835,643.325 721.835,610.448 
		96.981,610.448 	"/>
	<polygon fill="#ffffff" points="32.845,288.083 0,288.083 0,706 650.995,706 650.995,673.153 32.845,673.153 	"/>
</g>
</svg>
