<?xml version="1.0" encoding="utf-8"?>
<!-- Generator: Adobe Illustrator 16.0.0, SVG Export Plug-In . SVG Version: 6.00 Build 0)  -->
<!DOCTYPE svg PUBLIC "-//W3C//DTD SVG 1.1//EN" "http://www.w3.org/Graphics/SVG/1.1/DTD/svg11.dtd">
<svg version="1.1" id="Layer_1" xmlns="http://www.w3.org/2000/svg" xmlns:xlink="http://www.w3.org/1999/xlink" x="0px" y="0px"
	 width="981px" height="900px" viewBox="0 0 981 900" enable-background="new 0 0 981 900" xml:space="preserve">
<rect fill="transparent" y="62.656" width="780" height="780"/>
<g>
	<path fill="#FFFFFF" d="M328.393,613.877V365.972l-74.553,33.271c0,0-19.021,42.587-15.687,104.297
		c2.614,48.315,29.617,106.009,50.346,130.213L328.393,613.877 M546.73,103.465c18.384,1.623,47.275,10.638,69.029,29.744
		c23.102,22.41,28.371,56.482,20.277,87.448c-7.189,27.585-15.252,41.922-43.426,60.94c-28.412,19.2-62.828,17.624-62.828,17.624
		v119.445l58.146,47.056l-58.146,46.879v162.803c0,0,58.229-33.396,94.383-108.173c0,0,1.487-4.016,4.869-11.771
		c3.22,20.022,1.394,60.581-21.275,112.636c-17.063,39.176-48.098,76.895-87.038,98.403
		c-69.013,38.271-120.756,41.922-176.239,30.379c-64.953-13.343-123.952-49.849-164.225-113.541
		c-28.283-44.715-40.952-96.858-39.781-152.981c2.26-110.201,84.226-205.218,178.806-240.648c11.52-4.323,16.118-7.122,32.431-8.651
		c-7.504,5.181-16.228,11.767-26.928,18.789c-30.47,20.017-56.544,59.91-67.705,90.601l183.631-81.945v256.69l-148.066,74.241
		c16.856,23.393,68.152,58.822,111.991,63.827C479.252,711.459,523,678.916,523,678.916l-0.031-166.314l-57.782-46.879
		l57.835-46.921v-119.58c-31.508-3.657-69.872-14.066-92.25-19.611c-32.928-8.115-142.721-38.941-159.983-41.511
		c-17.241-2.569-38.514-1.758-51.384,9.738c-12.89,11.626-20.87,32.049-15.374,50.391c3.111,10.414,10.235,16.547,15.689,22.493
		c0,0-6.359-0.587-17.851-7.485c-20.729-12.438-36.488-36.73-38.405-66.75c-2.406-39.347,13.798-74.735,46.203-98.534
		c28.191-18.165,60.082-29.745,97.134-24.475c54.086,7.709,126.79,38.224,191.563,53.772c25.084,6.091,44.486,8.115,62.152-2.164
		c8.209-5.951,22.676-21.182,10.867-41.464c-13.791-23.798-40.205-23.257-62.604-27.45
		C528.02,102.113,532.26,102.113,546.73,103.465z"/>
</g>
</svg>
