<?xml version="1.0" encoding="utf-8"?>
<!-- Generator: Adobe Illustrator 16.0.0, SVG Export Plug-In . SVG Version: 6.00 Build 0)  -->
<!DOCTYPE svg PUBLIC "-//W3C//DTD SVG 1.1//EN" "http://www.w3.org/Graphics/SVG/1.1/DTD/svg11.dtd">
<svg version="1.1" id="Layer_1" xmlns="http://www.w3.org/2000/svg" xmlns:xlink="http://www.w3.org/1999/xlink" x="0px" y="0px"
	 width="981px" height="900px" viewBox="0 0 981 900" enable-background="new 0 0 981 900" xml:space="preserve">
<g>
	<polygon fill="#ffffff" points="282.688,730.982 387.151,837 540.729,685.629 365.625,646.719 	"/>
	<path fill="#ffffff" d="M567.435,659.318L780,449.856L488.505,153.984l-92.396,89.306c2.818,6.521,4.311,13.65,3.701,21.146
		c-2.025,25.32-25.015,44.12-51.37,42.032c-26.325-2.148-46.008-24.391-43.981-49.726c2.026-25.259,24.999-44.12,51.355-42.032
		c6.855,0.548,13.192,2.514,18.875,5.53l91.726-88.681L392.925,57L0,444.082l260.6,264.459l94.818-96.299L567.435,659.318z
		 M164.013,496.505c-26.371-2.147-46.054-24.391-44.027-49.726c2.041-25.259,25.015-44.12,51.37-42.033
		c8.136,0.67,15.508,3.443,21.953,7.435l61.563-55.561l147.438,37.493l58.256-62.995c-2.803-6.521-4.296-13.65-3.701-21.146
		c2.011-25.32,25.029-44.135,51.385-42.032c26.355,2.148,46.069,24.391,44.027,49.65c-2.041,25.396-25.015,44.196-51.4,42.108
		c-6.81-0.563-13.163-2.529-18.83-5.469l-69.347,74.985l-149.266-37.934l-50.29,45.369c1.904,5.591,2.727,11.609,2.239,17.764
		C213.357,479.793,190.338,498.592,164.013,496.505z M304.779,559.439c-2.026,25.32-25.016,44.195-51.34,42.109
		c-26.371-2.164-46.069-24.406-44.043-49.727c2.026-25.32,25.031-44.135,51.386-42.048c8.136,0.686,15.508,3.443,21.937,7.45
		l61.563-55.622l147.484,37.554l66.392-71.923c-3.169-6.81-4.859-14.381-4.235-22.303c2.042-25.32,25.015-44.135,51.355-41.972
		c26.34,2.087,46.053,24.33,44.042,49.589c-2.041,25.381-25.046,44.195-51.386,42.048c-6.383-0.503-12.34-2.225-17.718-4.86
		l-78.029,84.507l-149.328-37.979l-50.304,45.414C304.444,547.268,305.297,553.238,304.779,559.439z"/>
</g>
</svg>
