<?xml version="1.0" encoding="utf-8"?>
<!-- Generator: Adobe Illustrator 16.0.0, SVG Export Plug-In . SVG Version: 6.00 Build 0)  -->
<!DOCTYPE svg PUBLIC "-//W3C//DTD SVG 1.1//EN" "http://www.w3.org/Graphics/SVG/1.1/DTD/svg11.dtd">
<svg version="1.1" id="Layer_1" xmlns="http://www.w3.org/2000/svg" xmlns:xlink="http://www.w3.org/1999/xlink" x="0px" y="0px"
	 width="981px" height="900px" viewBox="0 0 981 900" enable-background="new 0 0 981 900" xml:space="preserve">
<g>
	<path fill="#ffffff" d="M89.51,196.025c6.338,35.555-3.687,69.406-24.497,95.46c19.835,9.319,42.565,12.943,65.797,8.832
		c22.715-3.99,42.474-14.832,57.77-29.907c-28.169-18.425-48.857-47.738-55.073-82.989c-5.759-32.998,1.63-66.253,20.872-93.678
		c0.518-0.731,1.219-1.279,1.736-2.01c-19.348-8.588-41.393-11.755-63.817-7.75c-22.532,4.005-42.23,14.664-57.48,29.496
		C62.698,131.949,83.294,161.079,89.51,196.025z"/>
	<path fill="#ffffff" d="M164.067,182.031c4.784,27.196,21.085,49.549,43.053,63.361c11.914-21.379,17.246-46.581,12.645-72.498
		c-4.691-26.221-18.646-48.27-37.507-64.197c-0.792,1.035-1.768,1.812-2.499,2.847C165.316,132.193,159.711,157.211,164.067,182.031
		z"/>
	<path fill="#ffffff" d="M58.98,201.477c-4.813-27.013-20.871-49.413-42.687-63.163c-12.157,21.439-17.642,46.869-12.98,73.045
		c4.556,25.612,17.916,47.113,36.03,62.98C55.918,254.894,63.917,229.099,58.98,201.477z"/>
	<path fill="#ffffff" d="M2.505,459.002c0,0-8.333,58.197,5.394,128.029l122.667-122.641C60.762,450.702,2.505,459.002,2.505,459.002z"/>
	<path fill="#ffffff" d="M283.202,541c-34.934-34.885-76.813-55.596-117.459-67.883L16.598,622.16c12.294,40.627,33.013,82.486,67.915,117.373
		c35.892,35.846,79.159,56.676,120.886,68.797l146.631-146.563C339.904,620.09,319.063,576.846,283.202,541z M269.871,681.09
		c-3.458,1.205-6.992,1.813-10.466,1.813c-12.736,0-24.68-7.934-29.189-20.588c-0.03,0-7.525-19.018-28.915-40.459
		c-24.527-24.529-46.069-33.742-46.282-33.803c-15.723-6.592-23.31-24.639-16.85-40.383c6.459-15.807,24.36-23.512,40.112-17.146
		c3.306,1.34,33.318,13.932,66.926,47.479c31.383,31.43,42.261,60.27,43.418,63.404C294.384,657.58,285.989,675.334,269.871,681.09z
		"/>
	<path fill="#ffffff" d="M365.208,821.533c0,0,8.577-60.256-6.17-131.672L233.507,815.365C304.925,830.076,365.208,821.533,365.208,821.533z"/>
	<path fill="#ffffff" d="M398.207,237.52c-1.478-3.274-3.336-6.061-5.24-8.787c-59.902,39.485-108.759,96.846-139.03,166.906
		c14.122,49.672,42.261,93.405,79.859,126.769c2.147-33.547,16.926-75.513,33.562-121.926
		C389.082,339.938,413.715,271.248,398.207,237.52z"/>
	<path fill="#ffffff" d="M622.307,255.138c-44.256-14.908-76.553-45.058-87.004-81.025c-3.336,0.473-6.825,0.716-10.085,1.325
		c-11.029,1.934-21.725,4.964-32.419,7.933c43.022,92.125,92.184,226.156,113.786,389.363
		c83.622-31.613,147.272-103.561,166.925-192.353C745.828,342.345,690.999,278.207,622.307,255.138z"/>
	<path fill="#ffffff" d="M567.113,171.128c9.383,23.45,33.499,44.037,65.08,54.636c63.102,21.197,114.168,71.051,147.075,111.129
		c0.243-4.72,0.73-9.38,0.73-14.161c0.092-41.845-9.688-81.284-26.69-116.581l-0.487,0.959
		C696.956,180.95,629.056,168.235,567.113,171.128z"/>
	<path fill="#ffffff" d="M419.749,213.049c2.361,3.64,4.693,7.263,6.627,11.497c20.811,45.255-4.906,117.022-29.799,186.428
		c-18.891,52.686-39.945,111.86-29.128,137c41.544,26.525,90.767,42.209,143.753,42.33c22.608,0,44.454-3.029,65.417-8.236
		c-20.841-162.552-70.963-297.313-113.894-388.708C447.918,198.934,433.628,205.542,419.749,213.049z"/>
	<path fill="#ffffff" d="M519.794,144.907c3.931-0.731,8.074-1.036,12.081-1.629c1.234-20.603,9.537-45.545,33.44-72.68
		c2.62-2.97,6.002-5.939,9.581-8.832C554.772,56.909,533.901,54,512.299,54c-28.626-0.061-56.17,4.477-82.038,12.729
		c11.35,18.167,28.809,47.967,48.797,88.105C492.433,150.907,505.9,147.344,519.794,144.907z"/>
	<path fill="#ffffff" d="M563.898,140.309c53.914-2.726,111.882,5.573,164.121,23.678c-29.312-39.971-69.195-71.522-115.768-90.358
		c-9.491,5.756-19.059,12.228-23.658,17.496C574.105,107.54,566.168,124.199,563.898,140.309z"/>
	<path fill="#ffffff" d="M397.567,189.797c16.575-9.396,33.806-17.512,51.63-24.425c-20.658-41.296-38.3-71.035-48.446-87.146
		c-45.933,20.968-84.979,54.271-112.644,96.008C321.043,168.662,365.544,167.383,397.567,189.797z"/>
	<path fill="#ffffff" d="M367.54,208.862c-32.419-13.491-77.284-4.599-99.359,1.401c-15.631,33.911-24.619,71.523-24.68,111.373
		c-0.031,7.934,0.457,15.806,1.127,23.572C275.447,289.841,317.708,243.641,367.54,208.862z"/>
</g>
</svg>
