<?xml version="1.0" encoding="utf-8"?>
<!-- Generator: Adobe Illustrator 16.0.0, SVG Export Plug-In . SVG Version: 6.00 Build 0)  -->
<!DOCTYPE svg PUBLIC "-//W3C//DTD SVG 1.1//EN" "http://www.w3.org/Graphics/SVG/1.1/DTD/svg11.dtd">
<svg version="1.1" id="Layer_1" xmlns="http://www.w3.org/2000/svg" xmlns:xlink="http://www.w3.org/1999/xlink" x="0px" y="0px"
	 width="981px" height="900px" viewBox="0 0 981 900" enable-background="new 0 0 981 900" xml:space="preserve">
<g>
	<path fill="none" d="M575.405,99.379H387.293c-5.647,22.989-16.805,70.444-26.683,123.551h241.447
		C592.194,169.824,581.053,122.368,575.405,99.379z"/>
	<g>
		<path fill="#ffffff" d="M609.576,74.882c-2.253-8.592-10.016-14.625-18.904-14.625H372.026c-8.904,0-16.637,6.033-18.89,14.625
			c-2.451,9.43-59.938,231.792-49.178,339.774c8.478,84.658,90.73,126.613,138.266,143.874v215.415
			c-55.115,7.709-95.785,31.018-97.886,59.186h273.213c-2.101-28.046-42.404-51.279-97.154-59.079V558.606
			c48.447-17.459,129.787-59.14,138.25-143.95C669.454,306.674,612.012,84.312,609.576,74.882z M387.293,99.379h188.112
			c5.647,22.989,16.789,70.444,26.652,123.551H360.61C370.488,169.824,381.646,122.368,387.293,99.379z"/>
		<path fill="#ffffff" d="M151.233,54.209v210.631c0,9.75-6.713,17.656-14.992,17.656c-8.281,0-15.008-7.906-15.008-17.656V54.057
			c-13.592-0.076-27.595-0.076-41.188,0v210.784c0,9.75-6.728,17.656-15.008,17.656c-8.28,0-14.993-7.906-14.993-17.656V54.209
			c-23.972,0.198-41.263,0.502-41.263,1.066L0,272.032c0,47.363,32.253,99.907,75.845,116.101
			c-12.938,95.475-43.82,326.444-43.82,359.594C32.025,811.65,86.226,834,95.769,834c0.122,0,0.198-0.564,0.274-0.641
			c0.076,0.076,0.152,0.641,0.229,0.641c9.589,0,63.774-22.35,63.774-86.273c0-32.769-28.965-258.924-41.644-356.303
			c49.209-10.542,86.972-68.052,86.972-119.392L192.695,55.276C192.695,54.712,175.282,54.407,151.233,54.209z"/>
	</g>
</g>
</svg>
