<?xml version="1.0" encoding="utf-8"?>
<!-- Generator: Adobe Illustrator 16.0.0, SVG Export Plug-In . SVG Version: 6.00 Build 0)  -->
<!DOCTYPE svg PUBLIC "-//W3C//DTD SVG 1.1//EN" "http://www.w3.org/Graphics/SVG/1.1/DTD/svg11.dtd">
<svg version="1.1" id="Layer_1" xmlns="http://www.w3.org/2000/svg" xmlns:xlink="http://www.w3.org/1999/xlink" x="0px" y="0px"
	 width="981px" height="900px" viewBox="0 0 981 900" enable-background="new 0 0 981 900" xml:space="preserve">
<polygon fill="#ffffff" points="725.882,837.239 767.087,750.177 758.164,734.967 762.988,612.224 780,360.456 774.251,343.54 
	762.281,353.613 759.924,341.943 766.234,324.138 755.517,272.231 769.228,238.655 760.159,117 565.612,122.408 489.35,179.579 
	466.027,229.381 413.323,269.781 420.469,315.045 423.389,368.187 393.863,371.727 336.571,412.362 261.36,413.107 242.535,398.042 
	203.923,390.964 80.198,415.176 101.236,482.964 1.796,574.727 0,619.9 525.332,624.166 540.82,631.353 543.795,645.22 
	565.286,652.352 568.551,660.301 567.082,688.179 578.181,709.34 717.304,790.922 702.74,839 "/>
</svg>
