<?xml version="1.0" encoding="utf-8"?>
<!-- Generator: Adobe Illustrator 16.0.0, SVG Export Plug-In . SVG Version: 6.00 Build 0)  -->
<!DOCTYPE svg PUBLIC "-//W3C//DTD SVG 1.1//EN" "http://www.w3.org/Graphics/SVG/1.1/DTD/svg11.dtd">
<svg version="1.1" id="Layer_1" xmlns="http://www.w3.org/2000/svg" xmlns:xlink="http://www.w3.org/1999/xlink" x="0px" y="0px"
	 width="981px" height="900px" viewBox="0 0 981 900" enable-background="new 0 0 981 900" xml:space="preserve">
<g>
	<path fill="none" d="M116.635,427.872c-28.184,0-51.035,22.764-51.035,50.897c0,28.132,22.852,50.941,51.035,50.941
		s51.02-22.81,51.02-50.941C167.654,450.636,144.818,427.872,116.635,427.872z"/>
	<path fill="none" d="M520.376,524.388H263.891c-8.669,0-15.691,6.979-15.691,15.663c0,8.622,7.022,15.662,15.691,15.662h256.485
		c8.684,0,15.691-7.04,15.691-15.662C536.067,531.367,529.06,524.388,520.376,524.388z"/>
	<polygon fill="none" points="589.692,239.432 190.309,239.432 146.434,376.93 633.537,376.93 	"/>
	<path fill="none" d="M520.376,438.638H263.891c-8.669,0-15.691,6.98-15.691,15.663c0,8.621,7.022,15.663,15.691,15.663h256.485
		c8.684,0,15.691-7.042,15.691-15.663C536.067,445.618,529.06,438.638,520.376,438.638z"/>
	<path fill="none" d="M663.366,427.872c-28.199,0-51.035,22.764-51.035,50.897c0,28.132,22.836,50.941,51.035,50.941
		c28.184,0,51.02-22.81,51.02-50.941C714.386,450.636,691.55,427.872,663.366,427.872z"/>
	<path fill="#ffffff" d="M694.779,377.294c-6.643-23.722-36.959-131.384-49.756-168.564c-14.411-41.833-55.636-46.669-55.636-46.669L195.062,162
		c0,0-47.577,4.836-60.877,49.726c-11.761,39.689-42.062,142.333-48.933,165.569C37.873,379.256,0,417.911,0,465.675v147.838h780
		V465.675C780,417.972,742.143,379.317,694.779,377.294z M190.309,239.432h399.384l43.845,137.498H146.434L190.309,239.432z
		 M116.635,529.71c-28.184,0-51.035-22.81-51.035-50.941c0-28.133,22.852-50.897,51.035-50.897s51.02,22.764,51.02,50.897
		C167.654,506.9,144.818,529.71,116.635,529.71z M520.376,555.713H263.891c-8.669,0-15.691-7.04-15.691-15.662
		c0-8.684,7.022-15.663,15.691-15.663h256.485c8.684,0,15.691,6.979,15.691,15.663C536.067,548.673,529.06,555.713,520.376,555.713z
		 M520.376,469.964H263.891c-8.669,0-15.691-7.042-15.691-15.663c0-8.683,7.022-15.663,15.691-15.663h256.485
		c8.684,0,15.691,6.98,15.691,15.663C536.067,462.922,529.06,469.964,520.376,469.964z M663.366,529.71
		c-28.199,0-51.035-22.81-51.035-50.941c0-28.133,22.836-50.897,51.035-50.897c28.184,0,51.02,22.764,51.02,50.897
		C714.386,506.9,691.55,529.71,663.366,529.71z"/>
	<path fill="#ffffff" d="M55.362,746.054c0,26.535,21.48,47.946,48.003,47.946c26.493,0,47.988-21.411,47.988-47.946v-69.92H55.362V746.054z"/>
	<path fill="#ffffff" d="M628.632,746.054c0,26.535,21.48,47.946,48.003,47.946c26.493,0,47.974-21.411,47.974-47.946v-69.92h-95.977V746.054z"/>
</g>
</svg>
