<?xml version="1.0" encoding="utf-8"?>
<!-- Generator: Adobe Illustrator 16.0.0, SVG Export Plug-In . SVG Version: 6.00 Build 0)  -->
<!DOCTYPE svg PUBLIC "-//W3C//DTD SVG 1.1//EN" "http://www.w3.org/Graphics/SVG/1.1/DTD/svg11.dtd">
<svg version="1.1" id="Layer_1" xmlns="http://www.w3.org/2000/svg" xmlns:xlink="http://www.w3.org/1999/xlink" x="0px" y="0px"
	 width="50px" height="50px" viewBox="0 0 50 50" enable-background="new 0 0 50 50" xml:space="preserve">
<rect width="50" height="50"/>
<g>
	<path fill="#FFFFFF" d="M22.221,31.778V21.151l-3.195,1.425c0,0-0.816,1.825-0.672,4.475c0.111,2.067,1.269,4.539,2.159,5.579
		L22.221,31.778 M31.58,9.9c0.787,0.072,2.026,0.455,2.956,1.278c0.991,0.958,1.216,2.418,0.87,3.749
		c-0.31,1.18-0.654,1.793-1.861,2.607c-1.216,0.824-2.693,0.757-2.693,0.757v5.12l2.494,2.016l-2.494,2.009v6.977
		c0,0,2.497-1.43,4.047-4.635c0,0,0.063-0.174,0.209-0.501c0.138,0.855,0.059,2.594-0.912,4.825
		c-0.733,1.678-2.062,3.293-3.732,4.216c-2.958,1.642-5.175,1.795-7.55,1.303c-2.786-0.574-5.314-2.138-7.04-4.87
		c-1.211-1.914-1.755-4.148-1.704-6.555c0.097-4.719,3.609-8.793,7.664-10.313c0.491-0.186,0.688-0.307,1.387-0.369
		c-0.321,0.221-0.697,0.501-1.154,0.805c-1.303,0.857-2.424,2.566-2.901,3.881l7.871-3.509v10.999l-6.347,3.183
		c0.723,1.002,2.921,2.521,4.798,2.735c3.201,0.354,5.073-1.045,5.073-1.045v-7.127l-2.477-2.009l2.477-2.012v-5.124
		c-1.348-0.157-2.99-0.603-3.951-0.842c-1.41-0.347-6.118-1.667-6.856-1.778c-0.741-0.109-1.651-0.075-2.203,0.42
		c-0.551,0.495-0.894,1.373-0.657,2.158c0.133,0.446,0.437,0.709,0.672,0.963c0,0-0.273-0.024-0.766-0.32
		c-0.888-0.534-1.564-1.575-1.646-2.863c-0.102-1.687,0.593-3.199,1.981-4.224c1.207-0.778,2.575-1.274,4.162-1.048
		c2.32,0.332,5.435,1.636,8.211,2.306c1.075,0.26,1.906,0.349,2.662-0.094c0.353-0.256,0.974-0.908,0.468-1.775
		c-0.593-1.023-1.725-0.996-2.685-1.175C30.779,9.844,30.958,9.844,31.58,9.9z"/>
</g>
</svg>
