<?xml version="1.0" encoding="utf-8"?>
<!-- Generator: Adobe Illustrator 16.0.0, SVG Export Plug-In . SVG Version: 6.00 Build 0)  -->
<!DOCTYPE svg PUBLIC "-//W3C//DTD SVG 1.1//EN" "http://www.w3.org/Graphics/SVG/1.1/DTD/svg11.dtd">
<svg version="1.1" id="Layer_1" xmlns="http://www.w3.org/2000/svg" xmlns:xlink="http://www.w3.org/1999/xlink" x="0px" y="0px"
	 width="981px" height="900px" viewBox="0 0 981 900" enable-background="new 0 0 981 900" xml:space="preserve">
<path fill="#ffffff" d="M741.127,611.108C646.096,595.804,621.6,562.053,621.6,562.053s-36.775,52.15-128.729,3.049
	C400.949,516.047,106.748,99,106.748,99s-73.55,42.912-98.077,113.461c-24.527,70.534,9.202,119.589,24.527,168.645
	c30.65,67.485,27.573,352.687,27.573,352.687H78.55h16.438h0.792c0,0,16.97-260.689,16.97-282.137
	c0-19.163,8.593-40.214,29.418-44.528c67.137-0.93,186.693,234.088,237.316,295.979c0,0,21.48,39.894,116.465,39.894
	c95,0,281.953-49.102,281.953-49.102S793.213,614.203,741.127,611.108z"/>
</svg>
