<?xml version="1.0" encoding="utf-8"?>
<!-- Generator: Adobe Illustrator 16.0.0, SVG Export Plug-In . SVG Version: 6.00 Build 0)  -->
<!DOCTYPE svg PUBLIC "-//W3C//DTD SVG 1.1//EN" "http://www.w3.org/Graphics/SVG/1.1/DTD/svg11.dtd">
<svg version="1.1" id="Layer_1" xmlns="http://www.w3.org/2000/svg" xmlns:xlink="http://www.w3.org/1999/xlink" x="0px" y="0px"
	 width="981px" height="900px" viewBox="0 0 981 900" enable-background="new 0 0 981 900" xml:space="preserve">
<g>
	<path fill="#ffffff" d="M702.754,356.252c-67.646-6.392-141.467,66.071-165.781,7.369c-28.635-69.102,152.043-101.838,185.858-160.325
		c22.097-38.219,8.161-68.025-11.106-87.333C590.318-5.465,347.787,40.188,169.988,218.05
		C-7.778,395.943-53.46,638.552,67.93,760.063c121.39,121.41,363.938,75.724,541.737-102.17
		c72.894-72.894,134.169-154.066,149.645-238.6C765.767,383.922,725.265,358.421,702.754,356.252z M152.542,397.864
		c24.215-24.159,60-27.587,79.994-7.567c20.012,20.054,16.652,55.871-7.498,80.064c-24.231,24.176-60.017,27.57-80.011,7.534
		C125.034,457.892,128.344,422.075,152.542,397.864z M268.818,702.535c-20.475,20.483-55.481,18.778-78.141-3.957
		c-22.676-22.67-24.464-57.725-3.956-78.208c20.557-20.55,55.564-18.845,78.24,3.891
		C287.621,646.914,289.425,681.969,268.818,702.535z M361.772,307.882c-20.475,20.5-55.481,18.745-78.141-3.957
		c-22.675-22.653-24.464-57.675-3.939-78.225c20.541-20.566,55.548-18.745,78.224,3.94
		C380.576,252.311,382.379,287.333,361.772,307.882z M481.392,649.1c-20.508,20.55-49.457,24.921-64.585,9.703
		c-15.161-15.135-10.841-44.096,9.667-64.598c20.558-20.549,49.456-24.888,64.617-9.753
		C506.27,599.654,501.916,628.616,481.392,649.1z M460.686,204.587c-17.512-17.553-18.174-45.29-1.474-61.948
		c16.619-16.675,44.393-16.013,61.838,1.523c17.511,17.486,18.207,45.19,1.556,61.915
		C505.938,222.752,478.18,222.04,460.686,204.587z"/>
</g>
</svg>
