<?xml version="1.0" encoding="utf-8"?>
<!-- Generator: Adobe Illustrator 16.0.0, SVG Export Plug-In . SVG Version: 6.00 Build 0)  -->
<!DOCTYPE svg PUBLIC "-//W3C//DTD SVG 1.1//EN" "http://www.w3.org/Graphics/SVG/1.1/DTD/svg11.dtd">
<svg version="1.1" id="Layer_1" xmlns="http://www.w3.org/2000/svg" xmlns:xlink="http://www.w3.org/1999/xlink" x="0px" y="0px"
	 width="228.684px" height="32.115px" viewBox="0 0 228.684 32.115" enable-background="new 0 0 228.684 32.115"
	 xml:space="preserve">
<g>
	<path d="M13.648,17.671V9.615l-2.423,1.079c0,0-0.618,1.384-0.51,3.391c0.086,1.57,0.962,3.445,1.637,4.231L13.648,17.671
		 M20.743,1.084c0.596,0.054,1.535,0.346,2.243,0.967c0.75,0.729,0.92,1.836,0.659,2.842c-0.233,0.896-0.495,1.363-1.412,1.979
		c-0.922,0.624-2.042,0.573-2.042,0.573v3.881l1.889,1.529l-1.889,1.523v5.29c0,0,1.892-1.085,3.068-3.515
		c0,0,0.048-0.131,0.158-0.381c0.104,0.649,0.045,1.966-0.691,3.661c-0.555,1.271-1.563,2.497-2.829,3.196
		c-2.243,1.243-3.925,1.362-5.727,0.988c-2.111-0.435-4.028-1.618-5.337-3.691c-0.919-1.452-1.33-3.147-1.292-4.97
		c0.074-3.581,2.737-6.668,5.811-7.82c0.374-0.14,0.524-0.232,1.053-0.28c-0.242,0.167-0.525,0.381-0.872,0.611
		c-0.991,0.647-1.837,1.946-2.2,2.941L17.3,7.747v8.341L12.488,18.5c0.548,0.76,2.215,1.912,3.639,2.075
		c2.426,0.268,3.847-0.791,3.847-0.791v-5.405l-1.878-1.523l1.878-1.524V7.446c-1.022-0.12-2.27-0.457-2.997-0.638
		c-1.071-0.263-4.64-1.264-5.2-1.348c-0.561-0.083-1.252-0.059-1.67,0.317c-0.418,0.377-0.679,1.041-0.5,1.637
		c0.1,0.338,0.332,0.537,0.511,0.731c0,0-0.207-0.02-0.582-0.244c-0.672-0.404-1.184-1.194-1.247-2.17
		c-0.078-1.278,0.45-2.426,1.502-3.203c0.916-0.59,1.952-0.966,3.155-0.794c1.758,0.251,4.121,1.241,6.226,1.747
		c0.815,0.198,1.446,0.265,2.02-0.07c0.266-0.193,0.735-0.687,0.354-1.347c-0.449-0.775-1.308-0.756-2.036-0.891
		C20.135,1.041,20.273,1.041,20.743,1.084z"/>
	<path d="M43.965,15.573l-2.712,1.983v-6.604L43.965,15.573 M43.886,9.224c0,0-1.829,1.108-3.058,1.84
		c-1.229,0.73-2.878,1.535-2.878,1.535v7.686l-1.1,0.886l0.146,0.17l1.072-0.863l3.363,3.038l5.843-4.628l-0.139-0.169l-3.23,2.534
		l-2.654-2.485V17.84l5.333-3.922L43.886,9.224z"/>
	<path d="M28.569,26.403c0.768,0.189,2.122,0.297,3.754-0.522c1.807-0.904,2.714-2.826,2.704-4.794l0.077-2.787v-6.092l1.155-0.883
		l-0.136-0.173l-1.136,0.856l-2.624-2.915l-3.365,2.889V2.163L24.79,5.412c0.188,0.118,0.784,0.229,0.802,1.069v13.758l-1.781,1.321
		l0.121,0.183l0.86-0.642l2.396,2.229l3.768-3.001l-0.136-0.173l-0.887,0.704l-0.937-0.933l0.007-7.662l1.101-0.937l1.637,2.033
		c0,0-0.002,4.964,0.001,6.612c-0.014,1.757-0.019,3.95-0.943,5.007C29.879,26.043,29.508,26.126,28.569,26.403"/>
	<path d="M54.733,25.71c-1.505-0.171-2.139-1.085-2.121-1.805c0.011-0.462,0.43-1.365,1.345-1.489
		c0.917-0.128,1.851,0.303,2.642,1.229l3.48-3.843l-0.168-0.15l-0.935,1.045c-0.949-1.081-2.297-1.761-3.637-1.959V7.028
		l9.035,16.46c0,0,0.086,0.188,0.458,0.188c0.319,0,0.243-0.257,0.243-0.257L65.072,6.852c0.734-0.032,1.855-0.436,2.4-0.992
		c1.739-1.788,1.029-3.738,0.837-3.927c-0.107,0.849-0.762,1.708-1.855,1.712c-1.435,0.003-2.31-1.054-2.31-1.054l-3.477,3.961
		l0.167,0.15l0.996-1.137c1.217,1.118,2.104,1.223,3.022,1.285l-0.001,9.612L58.149,4.288c-0.605-1.006-1.531-1.891-2.979-1.902
		c-1.666-0.011-2.858,1.458-2.999,2.723c-0.161,1.424,0.018,1.758,0.018,1.758s0.245-1.591,1.229-1.578
		c0.883,0.014,1.343,0.825,1.697,1.437v3.528c-0.911,0.06-3.284,0.165-3.43,2.633c-0.01,0.917,0.559,1.88,1.059,2.206
		c0.642,0.423,1.144,0.411,1.144,0.411s-0.771-0.407-0.54-1.215c0.206-0.726,1.713-0.843,1.767-0.54v4.977
		c-0.724-0.009-3.045,0.071-4.093,2.061c-0.63,1.203-0.595,2.548,0.08,3.495C51.653,25.054,52.784,26.043,54.733,25.71"/>
	<path d="M73.896,15.573l-2.712,1.983v-6.604L73.896,15.573 M73.818,9.224c0,0-1.829,1.108-3.057,1.84
		c-1.231,0.73-2.879,1.535-2.879,1.535v7.686l-1.101,0.886l0.147,0.17l1.072-0.863l3.363,3.038l5.845-4.628l-0.14-0.169
		l-3.229,2.534l-2.654-2.485V17.84l5.333-3.922L73.818,9.224z"/>
	<path d="M81.987,23.57l-2.867-2.381l-1.258,0.914l-0.128-0.18l1.28-0.936v-6.656c0.061-2.741-2.51-2.058-2.372-4.967
		c0.061-1.278,1.301-2.244,1.924-2.565c0.668-0.336,1.391-0.336,1.391-0.336S78.784,7.195,79.07,8.25
		c0.438,1.623,3.217,1.771,3.27,3.935v7.552l2.051,1.644l0.539-0.422v-8.175l-1.105-1.1l2.849-2.52l2.602,2.305l-0.993,1.076v7.244
		l2.436,2.013l0.434-0.277v-8.721l-1.107-1.037l2.853-2.609l2.669,2.204l1.063-0.944l0.146,0.17l-2.398,2.107v7.108l-6.139,3.786
		l-3.14-2.488L81.987,23.57"/>
	<path d="M207.629,15.573l-2.711,1.983v-6.604L207.629,15.573 M207.55,9.224c0,0-1.826,1.108-3.056,1.84
		c-1.229,0.73-2.88,1.535-2.88,1.535v7.686l-1.098,0.886l0.145,0.17l1.073-0.863l3.362,3.038l5.844-4.628l-0.138-0.169l-3.229,2.534
		l-2.656-2.485V17.84l5.334-3.922L207.55,9.224z"/>
	<polyline points="180.116,12.438 180.261,12.608 181.361,11.659 182.993,13.507 182.993,19.858 182.202,20.582 184.746,23.459 
		187.358,20.887 186.286,19.773 186.286,12.092 186.936,11.573 188.741,13.684 188.741,20.016 188.061,20.693 190.459,23.391 
		193.024,20.824 192.08,19.838 192.056,12.124 192.75,11.561 194.631,13.636 194.631,19.934 194.012,20.554 196.659,23.438 
		200.212,20.155 200.062,19.994 199.198,20.789 197.876,19.323 197.876,12.131 199.153,11.162 199.023,10.986 197.74,11.956 
		195.324,9.247 191.866,11.977 189.447,9.342 186.106,11.956 183.662,9.356 180.116,12.438 	"/>
	<polyline points="172.882,12.243 173.026,12.41 173.957,11.605 175.411,13.328 175.411,20.589 174.386,21.486 174.527,21.65 
		175.605,20.731 177.95,23.438 181.34,20.414 181.197,20.244 180.198,21.124 178.797,19.507 178.797,12.41 179.979,11.386 
		179.835,11.218 178.713,12.185 176.245,9.309 172.882,12.243 	"/>
	<polyline points="173.86,6.229 176.41,3.891 178.487,6.193 175.924,8.522 173.86,6.229 	"/>
	<path d="M163.334,17.671V9.615l-2.422,1.079c0,0-0.621,1.384-0.513,3.391c0.086,1.57,0.963,3.445,1.635,4.231L163.334,17.671
		 M170.427,1.084c0.599,0.054,1.538,0.346,2.245,0.967c0.749,0.729,0.919,1.836,0.657,2.842c-0.234,0.896-0.496,1.363-1.411,1.979
		c-0.923,0.624-2.043,0.573-2.043,0.573v3.881l1.891,1.529l-1.891,1.523v5.29c0,0,1.893-1.085,3.067-3.515
		c0,0,0.048-0.131,0.159-0.381c0.102,0.649,0.044,1.966-0.691,3.661c-0.554,1.271-1.564,2.497-2.831,3.196
		c-2.239,1.243-3.922,1.362-5.724,0.988c-2.111-0.435-4.028-1.618-5.337-3.691c-0.921-1.452-1.334-3.147-1.294-4.97
		c0.073-3.581,2.736-6.668,5.812-7.82c0.373-0.14,0.522-0.232,1.054-0.28c-0.244,0.167-0.527,0.381-0.875,0.611
		c-0.99,0.647-1.839,1.946-2.201,2.941l5.967-2.662v8.341L162.17,18.5c0.55,0.76,2.215,1.912,3.641,2.075
		c2.423,0.268,3.846-0.791,3.846-0.791v-5.405l-1.88-1.523l1.88-1.524V7.446c-1.025-0.12-2.27-0.457-2.997-0.638
		c-1.069-0.264-4.64-1.265-5.199-1.349c-0.561-0.083-1.252-0.059-1.669,0.317c-0.42,0.377-0.68,1.041-0.5,1.637
		c0.101,0.338,0.331,0.537,0.511,0.731c0,0-0.208-0.02-0.581-0.244c-0.673-0.405-1.187-1.194-1.247-2.17
		c-0.079-1.278,0.447-2.427,1.501-3.203c0.915-0.59,1.951-0.966,3.156-0.795c1.757,0.251,4.12,1.241,6.225,1.747
		c0.815,0.199,1.445,0.265,2.019-0.07c0.267-0.193,0.736-0.687,0.354-1.347c-0.449-0.775-1.307-0.756-2.034-0.891
		C169.82,1.041,169.956,1.041,170.427,1.084z"/>
	<path d="M215.157,10.71v3.815l1.271,1.107c0,0,2.759-2.209,3.761-4.257c0,0-1.24,1.684-2.91,1.169
		C215.882,12.118,215.157,10.71,215.157,10.71 M212.074,20.829c0,0,1.21-1.998,3.287-1.568c1.992,0.413,2.681,2.518,2.681,2.518
		v-4.846l-1.388-1.206C215.128,17.259,212.411,19.476,212.074,20.829z M214.054,24.508c-0.387,0.113-2.07-0.294-2.475-2.04
		c-0.393-1.699,0.789-2.852,2.569-4.66l-2.104-1.923V12.21c0,0,1.548-0.773,2.76-1.529c1.211-0.759,2.451-1.58,2.451-1.58
		s0.905,1.142,1.927,1.048c1.601-0.137,1.526-1.398,1.48-1.699c0.271,0.487,1.004,1.939-1.81,5.178l2.291,1.852v4.767
		c0,0-2.661,1.384-5.177,3.22c0,0-1.404-1.756-2.623-0.917C212.523,23.118,212.898,24.075,214.054,24.508z"/>
	<path d="M122.022,19.081l2.957,2.676v-8.189l-2.957-2.739V19.081 M128.118,12.396l1.031-0.947l0.147,0.164l-1.004,0.933v7.588
		c0,0-1.907,1.008-3.239,1.759c-1.33,0.754-2.751,1.635-2.751,1.635l-3.5-2.946l-0.926,0.807l-0.15-0.171l0.974-0.849v-8.156h0.013
		c0,0,1.652-0.746,3.045-1.534c1.243-0.702,2.637-1.514,2.637-1.514L128.118,12.396z"/>
	<path d="M135,11.626l2.222-2.271c0,0,0.306,0.268,0.591,0.409c0.164,0.08,0.837,0.424,1.452,0.088
		c0.336-0.184,0.386-0.233,0.752-0.579c0.074,1.767-0.772,3.009-1.832,3.522c-0.434,0.211-1.696,0.616-3.019-0.996v8.158
		l1.407,1.248l1.174-0.975l0.136,0.172l-3.678,3.072l-2.8-2.549l-1.005,0.949l-0.167-0.176l1.535-1.384l0.013-7.045l-1.177-1.561
		l-1.012,0.894l-0.146-0.165l3.563-3.201L135,11.626"/>
	<path d="M144.373,15.027l4.108-5.978c0,0,0.542,0.642,1.487,0.891c1.282,0.334,2.402-0.905,2.402-0.905
		c-0.214,1.6-1.025,3.412-2.699,3.691c-1.473,0.246-2.845-0.902-2.845-0.902l-0.267,0.413l5.706,8.619l1.141-1l0.146,0.166
		l-3.915,3.422L144.373,15.027"/>
	<path d="M140.976,7.046c0-1.293-0.527-2.087-1.22-2.031l4.483-3.148v17.825h0.001l1.184,1.248l0.896-0.778l0.141,0.167
		l-3.613,3.154l-2.445-2.3l-0.98,0.863l-0.157-0.168l1.711-1.49V7.046"/>
	<path d="M112.191,12.056c0,0-0.495,0.564-1.274,0.564s-1.29-0.566-1.29-0.566v2.442c0,0,0.511-0.569,1.29-0.569
		s1.274,0.539,1.274,0.539V12.056 M112.191,6.827l-1.729-1.52l-0.835,0.662v5.721c0,0,0.514,0.647,1.293,0.647
		c0.779,0,1.271-0.623,1.271-0.623L112.191,6.827L112.191,6.827z M109.626,23.039c0,0,1.046,0.276,1.808-0.348
		c0.846-0.698,0.757-1.677,0.757-1.677v-6.176c0,0-0.491-0.632-1.271-0.632c-0.78,0-1.293,0.652-1.293,0.652L109.626,23.039
		L109.626,23.039z M103.498,6.751c-0.002-1.202-0.488-1.875-1.282-1.892c-1.139-0.025-1.409,1.581-1.409,1.581
		s-0.208-1.238,0.83-2.363c0.582-0.628,1.668-1.51,3.369-1.102c1.757,0.426,2.257,1.788,2.257,2.994v16.577
		c0,0,0.663,0.081,1.118,0.184c0.528,0.108,1.028,0.25,1.028,0.25V2.984h0.218v2.697l3.601-2.899l2.636,2.345l1.23-1.064
		l0.139,0.171l-1.284,1.106v15.417c-0.063,1.005-0.227,2.029-1.176,2.618c-2.118,1.257-4.675-0.193-6.952-0.521
		c-1.689-0.252-4.343-0.571-5.008,0.977c-0.218,0.51-0.201,1.298,0.564,1.811c1.538,1.028,8.388-1.726,10.737-0.633
		c2.142,0.997,2.135,2.574,1.803,3.66c-0.556,2.032-3.123,2.391-3.123,2.391s1.256-0.73,0.896-1.938
		c-0.181-0.61-0.596-0.784-1.94-0.634c-2.936,0.333-6.445,1.758-8.804,0.768c-1.215-0.504-2.074-2.023-1.99-3.519
		c0.06-2.146,2.542-2.995,2.542-2.995l-0.002-7.946c-0.071-0.315-1.395-0.235-1.682,0.352c-0.44,0.882,0.546,1.285,0.546,1.285
		s-0.819,0.124-1.505-0.667c-0.333-0.388-1.03-1.738-0.124-2.993c0.746-1.031,1.639-1.211,2.767-1.335L103.498,6.751L103.498,6.751z
		"/>
</g>
</svg>
