<?xml version="1.0" encoding="utf-8"?>
<!-- Generator: Adobe Illustrator 16.0.0, SVG Export Plug-In . SVG Version: 6.00 Build 0)  -->
<!DOCTYPE svg PUBLIC "-//W3C//DTD SVG 1.1//EN" "http://www.w3.org/Graphics/SVG/1.1/DTD/svg11.dtd">
<svg version="1.1" id="Layer_1" xmlns="http://www.w3.org/2000/svg" xmlns:xlink="http://www.w3.org/1999/xlink" x="0px" y="0px"
	 width="15px" height="18.5px" viewBox="0 0 15 18.5" enable-background="new 0 0 15 18.5" xml:space="preserve">
<path d="M15,18.5v-12h-1.5V6c0-3.309-2.691-6-6-6s-6,2.691-6,6v0.5H0v12H15z M8.16,13.104v2.813H6.84v-2.813
	C5.951,12.823,5.301,12,5.301,11.017c0-1.213,0.985-2.198,2.199-2.198s2.199,0.985,2.199,2.198C9.699,12,9.049,12.823,8.16,13.104z
	 M11.5,6.5h-8V6c0-2.206,1.795-4,4-4s4,1.794,4,4V6.5z"/>
</svg>
