<?xml version="1.0" encoding="utf-8"?>
<!-- Generator: Adobe Illustrator 16.0.0, SVG Export Plug-In . SVG Version: 6.00 Build 0)  -->
<!DOCTYPE svg PUBLIC "-//W3C//DTD SVG 1.1//EN" "http://www.w3.org/Graphics/SVG/1.1/DTD/svg11.dtd">
<svg version="1.1" id="Layer_1" xmlns="http://www.w3.org/2000/svg" xmlns:xlink="http://www.w3.org/1999/xlink" x="0px" y="0px"
	 width="981px" height="900px" viewBox="0 0 981 900" enable-background="new 0 0 981 900" xml:space="preserve">
<path fill="#000000" d="M713.763,175.952c-5.428-5.401-12.774-8.442-20.424-8.442H403.505L339.98,91.39C334.49,84.801,326.35,81,317.779,81H86.662
	c-15.965,0-28.883,12.924-28.883,28.826v173.021H14.441c0,0-14.441,0-14.441,14.412v345.976C0,714.904,58.192,773,130,773h577.779
	c0,0,64.969-0.174,71.57-86.494H780v-14.412V253.988c0-7.634-3.047-14.967-8.474-20.369L713.763,175.952z M476.662,569.096
	L346.868,700.918L216.662,566.48v-82.994l101.276,104.6V371.035h57.796v218.318l100.928-102.508V569.096z M722.221,672.094v14.412
	c0,15.918-12.949,28.826-28.882,28.826c-15.964,0-28.897-12.908-28.897-28.826V297.259c0,0,0-14.412-14.441-14.412H115.56V138.668
	h188.668l63.571,76.136c5.507,6.557,13.616,10.358,22.201,10.358h291.373l40.848,40.768V672.094z"/>
</svg>
