<?xml version="1.0" encoding="utf-8"?>
<!-- Generator: Adobe Illustrator 16.0.0, SVG Export Plug-In . SVG Version: 6.00 Build 0)  -->
<!DOCTYPE svg PUBLIC "-//W3C//DTD SVG 1.1//EN" "http://www.w3.org/Graphics/SVG/1.1/DTD/svg11.dtd">
<svg version="1.1" id="Layer_1" xmlns="http://www.w3.org/2000/svg" xmlns:xlink="http://www.w3.org/1999/xlink" x="0px" y="0px"
	 width="981px" height="900px" viewBox="0 0 981 900" enable-background="new 0 0 981 900" xml:space="preserve">
<g>
	<polygon fill="none" points="116.824,622.82 171.015,642.93 171.106,502.973 116.915,482.832 	"/>
	<polygon fill="none" points="510.592,679.355 567.511,650.686 567.603,513.651 510.699,537.813 	"/>
	<polygon fill="none" points="624.43,621.023 679.321,594.395 679.429,457.346 624.536,479.45 	"/>
	<path fill="#000000" d="M584.909,201.651L434.156,520.568l-8.379-2.773L47.792,394.854L47.61,676.248L238.72,756l0.152-216.785l78.751,25.076
		l1.523,225.225l106.402,44.377V834l318.309-173.793l6.963-330.648l27.164,1.432l0.016-5.149L584.909,201.651z M171.015,642.93
		l-54.191-20.109l0.091-139.988l54.192,20.141L171.015,642.93z M567.511,650.686l-56.919,28.67l0.107-141.543l56.903-24.161
		L567.511,650.686z M679.321,594.395l-54.892,26.629l0.106-141.573l54.893-22.104L679.321,594.395z"/>
	<polygon fill="#000000" points="197.722,410.21 417.383,481.674 561.264,177.383 492.157,163.779 492.584,147.646 492.95,131.512 494.641,63.674 
		438.667,54 387.766,73.043 386.608,110.596 386.09,126.698 385.633,142.801 187.18,103.74 0,345.891 47.823,361.46 	"/>
</g>
</svg>
