<?xml version="1.0" encoding="utf-8"?>
<!-- Generator: Adobe Illustrator 16.0.0, SVG Export Plug-In . SVG Version: 6.00 Build 0)  -->
<!DOCTYPE svg PUBLIC "-//W3C//DTD SVG 1.1//EN" "http://www.w3.org/Graphics/SVG/1.1/DTD/svg11.dtd">
<svg version="1.1" id="Layer_1" xmlns="http://www.w3.org/2000/svg" xmlns:xlink="http://www.w3.org/1999/xlink" x="0px" y="0px"
	 width="981px" height="900px" viewBox="0 0 981 900" enable-background="new 0 0 981 900" xml:space="preserve">
<g>
	<path fill="#000000" d="M389.983,57C174.607,57,0,231.624,0,446.931C0,662.376,174.607,837,389.983,837C605.376,837,780,662.376,780,446.931
		C780,231.624,605.376,57,389.983,57z M133.094,463.585h-37.48c-11.426,0-20.653-9.228-20.653-20.653
		c0-11.408,9.228-20.653,20.653-20.653h37.48c11.426,0,20.652,9.245,20.652,20.653C153.746,454.357,144.52,463.585,133.094,463.585z
		 M406.654,741.387c0,11.408-9.244,20.636-20.653,20.636c-11.426,0-20.652-9.228-20.652-20.636V703.89
		c0-11.426,9.227-20.636,20.652-20.636c11.409,0,20.653,9.21,20.653,20.636V741.387z M410.774,464.398
		c0,8.274-4.934,15.736-12.499,18.974c-2.632,1.125-5.401,1.679-8.171,1.679c-5.177,0-10.283-1.921-14.196-5.644L192.213,305.372
		c-8.292-7.877-8.639-20.965-0.778-29.223c7.842-8.274,20.912-8.534,29.188-0.813l148.829,141.057V314.426
		c0-11.408,9.228-20.652,20.653-20.652s20.67,9.244,20.67,20.652V464.398z M414.687,190.059c0,11.408-9.244,20.652-20.67,20.652
		c-11.408,0-20.653-9.244-20.653-20.652v-37.48c0-11.408,9.245-20.653,20.653-20.653c11.426,0,20.67,9.245,20.67,20.653V190.059z
		 M684.404,471.617h-37.479c-11.408,0-20.653-9.228-20.653-20.653c0-11.408,9.245-20.652,20.653-20.652h37.479
		c11.426,0,20.671,9.244,20.671,20.652C705.075,462.39,695.83,471.617,684.404,471.617z"/>
</g>
</svg>
