<?xml version="1.0" encoding="utf-8"?>
<!-- Generator: Adobe Illustrator 16.0.0, SVG Export Plug-In . SVG Version: 6.00 Build 0)  -->
<!DOCTYPE svg PUBLIC "-//W3C//DTD SVG 1.1//EN" "http://www.w3.org/Graphics/SVG/1.1/DTD/svg11.dtd">
<svg version="1.1" id="Layer_1" xmlns="http://www.w3.org/2000/svg" xmlns:xlink="http://www.w3.org/1999/xlink" x="0px" y="0px"
	 width="963px" height="900px" viewBox="0 0 963 900" enable-background="new 0 0 963 900" xml:space="preserve">
<path fill="#000000" d="M875.526,256.984l-6.536-0.305l-12.553-30.799l-23.507-0.731l-3.26,35.296l-0.214,0.792l-12.096,15.338
	l-40.401,10.047l-14.107,19.729l-30.682,30.433l-46.404,33.422l-14.777-3.478l7.435-18.494l-11.213-33.848l-5.804-16.985
	l-51.005-15.948l-8.028-0.183l-30.104-2.013l-8.698-4.559l13.741-22.047l0,0c0,0-173.169-19.714-257.675-36.516
	C235.088,199.336,162.771,177,162.771,177l-24.542,3.034l-3.642,6.526l0.854,23.19l-2.529,9.727l-28.823,79.329L99,374.156
	l2.925,23.206l18.342,59.706l34.902,36.044l91.147,55.941l71.129,2.194l24.116,26.47l34.43,20.583l20.2,0.914l28.55,44.611
	l3.687,15.156l9.872,12.121l23.156,7.73l5.454,0.669l0.273-0.669l-1.325-1.16l-3.915-17.534l1.417-0.915l5.713-21.543l32.388-14.973
	l6.308-11.268l24.101-5.898l113.709-18.328l14.062,8.157l20.704-3.278l20.749,18.922l6.688,22.519l23.72,34.642l11.076,10.597
	l5.865,5.229l9.247-7.303l1.493-16.436l-2.164-16.559l-12.05-21.542l-10.359-19.913l-10.71-25.325l6.992-30.494l28.428-34.396
	l24.893-22.458l5.013-9.499l5.804-18.494l-4.067-29.106l9.888-36.7l9.414-22.413l32.754-48.576l-0.121-1.448l-1.28-9.621
	l0.183-17.595l5.302-2.318L879,265.081L875.526,256.984z"/>
</svg>
