<?xml version="1.0" encoding="utf-8"?>
<!-- Generator: Adobe Illustrator 16.0.0, SVG Export Plug-In . SVG Version: 6.00 Build 0)  -->
<!DOCTYPE svg PUBLIC "-//W3C//DTD SVG 1.1//EN" "http://www.w3.org/Graphics/SVG/1.1/DTD/svg11.dtd">
<svg version="1.1" id="Layer_1" xmlns="http://www.w3.org/2000/svg" xmlns:xlink="http://www.w3.org/1999/xlink" x="0px" y="0px"
	 width="981px" height="900px" viewBox="0 0 981 900" enable-background="new 0 0 981 900" xml:space="preserve">
<g>
	<path fill="none" d="M719.869,297.117H695.51c4.037,8.105,6.521,17.11,6.505,26.769l-0.259,380.994
		c-0.016,9.661-2.498,18.604-6.535,26.693h24.344c14.747,0.061,26.736-11.944,26.752-26.693l0.259-380.994
		C746.591,309.138,734.602,297.193,719.869,297.117z"/>
	<path fill="#000000" d="M719.9,263.705h-77.97l-503.496-0.396l-77.985-0.061c-33.226,0-60.16,26.891-60.19,60.12L0,704.362
		c-0.046,33.214,26.873,60.181,60.1,60.181l77.969,0.061L641.564,765h77.97c33.227,0.061,60.176-26.891,60.206-60.12L780,323.886
		C780.03,290.657,753.126,263.766,719.9,263.705z M746.316,704.88c-0.016,14.749-12.005,26.754-26.752,26.693h-24.344
		c4.037-8.09,6.52-17.032,6.535-26.693l0.259-380.994c0.016-9.659-2.468-18.664-6.505-26.769h24.359
		c14.732,0.076,26.722,12.021,26.706,26.769L746.316,704.88z"/>
	<path fill="#000000" d="M271.02,174.577c0-14.763,12.02-26.738,26.736-26.738l151.231,0.137c14.731,0,26.706,11.975,26.706,26.723l-0.031,47.397
		l66.849,0.031l0.03-47.398c0.031-51.557-41.909-93.592-93.508-93.592L297.816,81c-51.599-0.03-93.6,41.913-93.631,93.531
		l-0.03,47.397l66.833,0.03L271.02,174.577z"/>
</g>
</svg>
