<?xml version="1.0" encoding="utf-8"?>
<!-- Generator: Adobe Illustrator 16.0.0, SVG Export Plug-In . SVG Version: 6.00 Build 0)  -->
<!DOCTYPE svg PUBLIC "-//W3C//DTD SVG 1.1//EN" "http://www.w3.org/Graphics/SVG/1.1/DTD/svg11.dtd">
<svg version="1.1" id="Layer_1" xmlns="http://www.w3.org/2000/svg" xmlns:xlink="http://www.w3.org/1999/xlink" x="0px" y="0px"
	 width="981px" height="900px" viewBox="0 0 981 900" enable-background="new 0 0 981 900" xml:space="preserve">
<path fill="#000000" d="M468.813,501.732L808,579.988v-60.986L468.813,347.588V218.578c0-83.939-31.688-167.436-63.725-170.104
	c-0.189-0.063-0.441-0.474-0.615-0.474c-0.189,0-0.348,0.095-0.458,0.095c-0.157,0-0.347-0.095-0.505-0.095
	c-0.189,0-0.458,0.411-0.631,0.474c-32.036,2.668-63.708,86.165-63.708,170.104v128.773L0,518.719v60.938l339.171-78.334v37.051
	c0,55.428,6.265,106.846,14.881,150.719l-140.311,95.699v31.479l166.287-31.936C390.238,811.881,399.565,828,404.016,828
	c4.893,0,15.623-14.871,26.971-43.793l163.257,32.063v-31.479l-138.055-94.152c7.449-41.584,12.625-92.402,12.625-152.266V501.732z"
	/>
</svg>
