<?xml version="1.0" encoding="utf-8"?>
<!-- Generator: Adobe Illustrator 16.0.0, SVG Export Plug-In . SVG Version: 6.00 Build 0)  -->
<!DOCTYPE svg PUBLIC "-//W3C//DTD SVG 1.1//EN" "http://www.w3.org/Graphics/SVG/1.1/DTD/svg11.dtd">
<svg version="1.1" id="Layer_1" xmlns="http://www.w3.org/2000/svg" xmlns:xlink="http://www.w3.org/1999/xlink" x="0px" y="0px"
	 width="981px" height="900px" viewBox="0 0 981 900" enable-background="new 0 0 981 900" xml:space="preserve">
<g>
	<path fill="#000000" d="M505.627,62.399c-14.209-9.705-33.482-5.941-43.111,8.196c-9.66,14.168-6.009,33.501,8.153,43.16
		c131.16,89.563,175.108,263.817,102.226,405.392c-79.711,154.677-270.183,215.629-424.693,135.755
		c-15.212-7.861-33.938-1.873-41.803,13.393c-7.865,15.233-1.872,33.987,13.356,41.847c47.583,24.619,98.027,37.402,148.333,40.631
		v24.346c-54.018,6.215-99.821,29.51-125.362,61.883h308.138c-24.813-31.414-68.729-54.174-120.709-61.213v-26.219
		c122.762-12.447,237.188-84.185,297.902-201.948C715.28,378.227,662.647,169.605,505.627,62.399z"/>
	<path fill="#000000" d="M281.186,648.778L281.186,648.778c26.561,0,52.467-3.672,77.187-10.711c97.464-14.229,174.787-90.051,191.354-186.898
		c17.342-55.042,17.601-113.923-0.273-170.001c-22.864-71.725-72.273-130.21-139.04-164.686
		c-39.811-20.567-84.351-31.429-128.862-31.429c-105.877,0-201.775,58.44-250.271,152.635
		C-39.852,375.82,14.457,546.142,152.37,617.364C192.149,637.915,236.691,648.778,281.186,648.778z M325.241,184.108
		c-125.927,0-228,102.208-228,228.335c0,24.939,4.138,48.934,11.53,71.42c-24.126-35.055-38.425-77.666-38.425-123.796
		c0-119.104,94.468-215.599,211.054-215.599c60.377,0,114.669,26.036,153.155,67.55
		C402.093,194.239,364.853,184.108,325.241,184.108z"/>
</g>
</svg>
