<?xml version="1.0" encoding="utf-8"?>
<!-- Generator: Adobe Illustrator 16.0.0, SVG Export Plug-In . SVG Version: 6.00 Build 0)  -->
<!DOCTYPE svg PUBLIC "-//W3C//DTD SVG 1.1//EN" "http://www.w3.org/Graphics/SVG/1.1/DTD/svg11.dtd">
<svg version="1.1" id="Layer_1" xmlns="http://www.w3.org/2000/svg" xmlns:xlink="http://www.w3.org/1999/xlink" x="0px" y="0px"
	 width="981px" height="900px" viewBox="0 0 981 900" enable-background="new 0 0 981 900" xml:space="preserve">
<g>
	<path fill="#000000" d="M859.697,590.292l22.514-135.313L769.439,568.514H573.186c-73.313,0-132.717,59.444-132.717,132.797
		c0,73.281,59.404,132.689,132.717,132.689h214.115C860.576,834,920,774.592,920,701.311
		C920,654.697,895.939,613.941,859.697,590.292z"/>
	<path fill="#000000" d="M660.117,54H106.986C47.887,54,0,101.944,0,161.064v229.439c0,59.049,47.887,106.957,106.986,106.957h136.06
		L78.146,747.529l356.842-250.068h225.129c59.082,0,106.986-47.908,106.986-106.957V161.064C767.104,101.944,719.199,54,660.117,54z
		"/>
</g>
</svg>
