<?xml version="1.0" encoding="utf-8"?>
<!-- Generator: Adobe Illustrator 16.0.0, SVG Export Plug-In . SVG Version: 6.00 Build 0)  -->
<!DOCTYPE svg PUBLIC "-//W3C//DTD SVG 1.1//EN" "http://www.w3.org/Graphics/SVG/1.1/DTD/svg11.dtd">
<svg version="1.1" id="Layer_1" xmlns="http://www.w3.org/2000/svg" xmlns:xlink="http://www.w3.org/1999/xlink" x="0px" y="0px"
	 width="981px" height="900px" viewBox="0 0 981 900" enable-background="new 0 0 981 900" xml:space="preserve">
<g>
	<path fill="#000000" d="M0,140.059v533.537c0,0,213.453-20.789,353.618,163.135V332.139C318.458,265.933,222.354,140.059,0,140.059z"/>
	<path fill="#000000" d="M388.414,332.139V837C528.578,652.807,742,673.596,742,673.596V140.059C519.646,140.059,423.59,266.012,388.414,332.139z"
		/>
	<path fill="#000000" d="M735.653,93.769l-0.222-34.801c-231.684,1.286-327.105,106.577-360.521,159.58C338.228,165.958,235.206,59.317,2.046,57
		l-0.35,34.801c279.617,2.713,355.222,162.643,358.315,169.435c2.809,6.269,9.028,10.268,15.852,10.268c0.223,0,0.412,0,0.635,0
		c7.06-0.271,13.264-4.745,15.708-11.347C392.793,258.522,456.274,95.324,735.653,93.769z"/>
</g>
</svg>
