<?xml version="1.0" encoding="utf-8"?>
<!-- Generator: Adobe Illustrator 16.0.0, SVG Export Plug-In . SVG Version: 6.00 Build 0)  -->
<!DOCTYPE svg PUBLIC "-//W3C//DTD SVG 1.1//EN" "http://www.w3.org/Graphics/SVG/1.1/DTD/svg11.dtd">
<svg version="1.1" id="Layer_1" xmlns="http://www.w3.org/2000/svg" xmlns:xlink="http://www.w3.org/1999/xlink" x="0px" y="0px"
	 width="981px" height="900px" viewBox="0 0 981 900" enable-background="new 0 0 981 900" xml:space="preserve">
<path fill="#000000" d="M743.767,296.007H540.959V93.164c0-19.96-16.238-36.164-36.233-36.164H275.31c-20.064,0-36.268,16.204-36.268,36.164
	v202.843H36.217C16.204,296.007,0,312.228,0,332.274v229.45c0,20.049,16.204,36.27,36.217,36.27h202.825V800.75
	c0,20.047,16.203,36.25,36.268,36.25h229.416c19.995,0,36.233-16.203,36.233-36.25V597.994h202.808
	c20.013,0,36.233-16.221,36.233-36.27v-229.45C780,312.228,763.779,296.007,743.767,296.007z"/>
</svg>
