<?xml version="1.0" encoding="utf-8"?>
<!-- Generator: Adobe Illustrator 16.0.0, SVG Export Plug-In . SVG Version: 6.00 Build 0)  -->
<!DOCTYPE svg PUBLIC "-//W3C//DTD SVG 1.1//EN" "http://www.w3.org/Graphics/SVG/1.1/DTD/svg11.dtd">
<svg version="1.1" id="Layer_1" xmlns="http://www.w3.org/2000/svg" xmlns:xlink="http://www.w3.org/1999/xlink" x="0px" y="0px"
	 width="981px" height="900px" viewBox="0 0 981 900" enable-background="new 0 0 981 900" xml:space="preserve">
<g>
	<path fill="none" d="M538.904,605.813L213.557,718.515c-16.425,5.704-23.561,26.491-20.713,44.535
		c0.424,2.675,1.051,5.299,1.898,7.787c2.136,6.28,5.255,11.138,8.814,15.234c4.407,5.011,9.78,8.023,15.662,9.462
		c5.865,1.49,12.052,1.795,18.611-0.474l368.639-128.68l1.152-74.836l0.137-9.598l-56.157,19.449L538.904,605.813z"/>
	<path fill="none" d="M236.067,655.513c1.661,0,3.323-0.271,4.983-0.83c8.103-2.742,12.408-11.511,9.628-19.602L115.94,241.032
		c-2.746-8.091-11.578-12.306-19.612-9.598c-8.103,2.742-12.408,11.511-9.628,19.585l134.722,394.082
		C223.626,651.483,229.66,655.513,236.067,655.513z"/>
	<path fill="#000000" d="M638.709,580.778L680,566.458L507.529,69.949c-5.764-16.64-25.07-26.051-41.783-20.211L58.037,190.962
		c-24.543,8.514-43.02,26.66-52.088,51.085c-7.188,19.449-7.899,42.233-1.933,59.499l157.453,453.158
		c-0.051,9.445,1.441,18.941,4.492,27.879C175.724,810.616,198.726,828,226.049,828c7.272,0,14.68-1.286,21.951-3.792
		l389.047-135.823v-0.287l28.511-9.954l-27.24-72.702L638.709,580.778z M86.7,251.02c-2.779-8.074,1.525-16.843,9.628-19.585
		c8.034-2.708,16.866,1.507,19.612,9.598l134.739,394.049c2.78,8.091-1.525,16.859-9.628,19.602c-1.661,0.559-3.322,0.83-4.983,0.83
		c-6.407,0-12.441-4.029-14.646-10.411L86.7,251.02z M607.621,591.544l-1.152,74.836L237.83,795.06
		c-6.56,2.269-12.747,1.964-18.611,0.474c-5.882-1.438-11.255-4.451-15.662-9.462c-3.56-4.097-6.679-8.954-8.814-15.234
		c-0.847-2.488-1.475-5.112-1.898-7.787c-2.848-18.044,4.288-38.831,20.713-44.535l325.348-112.701l12.696-4.418l56.157-19.449
		L607.621,591.544z"/>
</g>
</svg>
