<?xml version="1.0" encoding="utf-8"?>
<!-- Generator: Adobe Illustrator 16.0.0, SVG Export Plug-In . SVG Version: 6.00 Build 0)  -->
<!DOCTYPE svg PUBLIC "-//W3C//DTD SVG 1.1//EN" "http://www.w3.org/Graphics/SVG/1.1/DTD/svg11.dtd">
<svg version="1.1" id="Layer_1" xmlns="http://www.w3.org/2000/svg" xmlns:xlink="http://www.w3.org/1999/xlink" x="0px" y="0px"
	 width="981px" height="900px" viewBox="0 0 981 900" enable-background="new 0 0 981 900" xml:space="preserve">
<g>
	<path fill="none" d="M146.153,276.117v408.342H695.68c-1.447-25.502-1.447-71.906-1.447-156.396l0.015-251.945H146.153z"/>
	<path fill="#000000" d="M726,260.547V69.6c0-8.592-6.959-15.6-15.548-15.6h-0.625H607.441v15.6v15.539v40.615
		c0,17.215-13.935,31.108-31.098,31.108c-17.193,0-31.127-13.894-31.127-31.108V85.139V69.6V54H295.169v15.6v15.539v40.615
		c0,17.215-13.919,31.108-31.097,31.108c-17.179,0-31.098-13.894-31.098-31.108V85.139V69.6V54h-101.73h-0.655
		C122,54,115.04,61.008,115.04,69.6v630.43c0,8.623,6.96,15.57,15.549,15.57h579.238c8.589,0,15.549-6.947,15.549-15.57
		c0-0.061,0-0.092,0-0.273c-0.062-5.18-0.062-171.693-0.062-171.693s0-139.181,0-264.072C725.604,262.833,726,261.827,726,260.547z
		 M695.68,684.459H146.153V276.117h548.094l-0.015,251.945C694.232,612.553,694.232,658.957,695.68,684.459z"/>
	<path fill="#000000" d="M656.403,743.479H87.627V124.87c0-8.684-6.944-15.6-15.563-15.6c-8.574,0-15.534,6.917-15.534,15.6v634.177
		c0,8.592,6.959,15.539,15.534,15.539h584.339c8.62,0,15.563-6.947,15.563-15.539C671.967,750.486,665.023,743.479,656.403,743.479z
		"/>
	<path fill="#000000" d="M605.34,802.893H31.098V190.256c0-8.653-6.959-15.569-15.548-15.569C6.975,174.687,0,181.603,0,190.256v628.205
		C0,827.084,6.975,834,15.549,834H605.34c8.59,0,15.564-6.916,15.564-15.539C620.904,809.9,613.93,802.893,605.34,802.893z"/>
	<g>
		<g>
			<path fill="#000000" d="M426.734,641.955c-58.998,0-101.472-17.885-133.651-60.357l50.5-43.846
				c17.452,26.418,49.615,48.75,81.353,48.75c28.158,0,52.739-10.268,52.739-34.43c0-21.48-22.342-29.037-49.617-35.313
				c-16.523-4.053-31.722-6.734-52.723-13.438c-30.839-10.268-71.532-34.855-71.532-88.512c0-34.856,21.9-63.466,48.276-79.158
				c23.697-13.833,48.276-16.971,75.978-16.971c47.393,0,84.034,18.769,107.273,50.121l-47.362,41.986
				c-10.736-13.376-29.971-36.685-63.916-36.685c-32.651,0-49.631,13.437-49.631,30.408c0,23.248,22.798,30.438,48.733,36.685
				c21.457,4.875,38.864,8.5,60.778,16.545c26.377,9.811,64.815,28.152,64.815,81.809
				C548.749,601.279,492.432,641.955,426.734,641.955z"/>
		</g>
	</g>
</g>
</svg>
