<?xml version="1.0" encoding="utf-8"?>
<!-- Generator: Adobe Illustrator 16.0.0, SVG Export Plug-In . SVG Version: 6.00 Build 0)  -->
<!DOCTYPE svg PUBLIC "-//W3C//DTD SVG 1.1//EN" "http://www.w3.org/Graphics/SVG/1.1/DTD/svg11.dtd">
<svg version="1.1" id="Layer_1" xmlns="http://www.w3.org/2000/svg" xmlns:xlink="http://www.w3.org/1999/xlink" x="0px" y="0px"
	 width="981px" height="900px" viewBox="0 0 981 900" enable-background="new 0 0 981 900" xml:space="preserve">
<g>
	<g>
		<path fill="#000000" d="M248.955,516.979c-116.854,0-211.585-35.039-211.585-78.305v104.63c0,43.235,94.731,78.243,211.585,78.243
			c116.915,0,211.677-35.008,211.677-78.243v-104.63C460.632,481.94,365.87,516.979,248.955,516.979z"/>
	</g>
	<g>
		<path fill="#000000" d="M248.955,670.938C111.499,670.938,0,629.684,0,578.771v145.091C0,774.775,111.499,816,248.955,816
			C386.502,816,498,774.775,498,723.861V578.771C498,629.684,386.502,670.938,248.955,670.938z"/>
	</g>
	<g>
		<path fill="#000000" d="M212.331,185.693C60.847,215.278,62.14,423.623,62.14,423.623s49.907,46.557,186.875,46.557
			c130.685,0,186.814-49.268,186.814-49.268s1.309-208.345-150.176-237.931v-81.504c0-7.983-8.825-20.17-21.483-26.142V51.447
			c0-8.5-6.909-15.447-15.43-15.447c-8.535,0-15.428,6.947-15.428,15.447v24.131c-12.386,6.094-20.982,18.007-20.982,25.898V185.693
			z"/>
	</g>
</g>
</svg>
