<?xml version="1.0" encoding="utf-8"?>
<!-- Generator: Adobe Illustrator 16.0.0, SVG Export Plug-In . SVG Version: 6.00 Build 0)  -->
<!DOCTYPE svg PUBLIC "-//W3C//DTD SVG 1.1//EN" "http://www.w3.org/Graphics/SVG/1.1/DTD/svg11.dtd">
<svg version="1.1" id="Layer_1" xmlns="http://www.w3.org/2000/svg" xmlns:xlink="http://www.w3.org/1999/xlink" x="0px" y="0px"
	 width="21px" height="12.854px" viewBox="0 0 21 12.854" enable-background="new 0 0 21 12.854" xml:space="preserve">
<g>
	<path fill="#000000" d="M11.188,3.592c0.066,0,8.713,0,8.778,0L21,4.594v1.837l-0.904,0.327l-0.131,0.673h-0.754l-0.854-0.574
		l-1.951-0.426l-0.789,1h-1l-0.854-0.443l-0.951,0.443h-0.771l-1.477,1.215C9.58,10.27,7.76,11.354,5.708,11.354
		C2.51,11.354,0,8.842,0,5.644C0,2.51,2.51,0,5.708,0c2.413,0,4.43,1.508,5.283,3.592H11.188z M3.56,6.987
		c0.77,0,1.361-0.622,1.361-1.41C4.921,4.79,4.33,4.15,3.56,4.15c-0.82,0-1.444,0.64-1.444,1.427
		C2.115,6.365,2.739,6.987,3.56,6.987z"/>
</g>
</svg>
