<?xml version="1.0" encoding="utf-8"?>
<!-- Generator: Adobe Illustrator 15.0.0, SVG Export Plug-In . SVG Version: 6.00 Build 0)  -->
<!DOCTYPE svg PUBLIC "-//W3C//DTD SVG 1.1//EN" "http://www.w3.org/Graphics/SVG/1.1/DTD/svg11.dtd">
<svg version="1.1" id="Layer_1" xmlns="http://www.w3.org/2000/svg" xmlns:xlink="http://www.w3.org/1999/xlink" x="0px" y="0px"
	 width="100%" height="100%" viewBox="0 0 440 440" enable-background="new 0 0 440 440" xml:space="preserve">
<rect fill="#ACDBEA" width="440" height="440"/>
<linearGradient id="SVGID_1_" gradientUnits="userSpaceOnUse" x1="3676" y1="1800.001" x2="3676" y2="2240.001" gradientTransform="matrix(-1 0 0 -1 3896 2240)">
	<stop  offset="0" style="stop-color:#FFFFFF;stop-opacity:0"/>
	<stop  offset="0.0371" style="stop-color:#EBF7FB;stop-opacity:0.0093"/>
	<stop  offset="0.1456" style="stop-color:#B4E0F0;stop-opacity:0.0364"/>
	<stop  offset="0.2581" style="stop-color:#84CCE6;stop-opacity:0.0645"/>
	<stop  offset="0.3721" style="stop-color:#5BBBDE;stop-opacity:0.093"/>
	<stop  offset="0.4881" style="stop-color:#3AADD8;stop-opacity:0.122"/>
	<stop  offset="0.6066" style="stop-color:#21A3D3;stop-opacity:0.1516"/>
	<stop  offset="0.7287" style="stop-color:#0E9BCF;stop-opacity:0.1822"/>
	<stop  offset="0.8566" style="stop-color:#0496CD;stop-opacity:0.2142"/>
	<stop  offset="1" style="stop-color:#0095CC;stop-opacity:0.25"/>
</linearGradient>
<rect fill="url(#SVGID_1_)" width="440" height="440"/>
<linearGradient id="SVGID_2_" gradientUnits="userSpaceOnUse" x1="219.9995" y1="0" x2="219.9995" y2="440.0005">
	<stop  offset="0" style="stop-color:#FFFFFF;stop-opacity:0"/>
	<stop  offset="0.0965" style="stop-color:#EFF8FC;stop-opacity:0.0193"/>
	<stop  offset="0.2846" style="stop-color:#C6E7F4;stop-opacity:0.0569"/>
	<stop  offset="0.5457" style="stop-color:#83CBE6;stop-opacity:0.1091"/>
	<stop  offset="0.8666" style="stop-color:#28A6D4;stop-opacity:0.1733"/>
	<stop  offset="1" style="stop-color:#0095CC;stop-opacity:0.2"/>
</linearGradient>
<rect fill="url(#SVGID_2_)" width="440" height="440"/>
<path fill="#FFFFFF" d="M181.576,184.244c0-8.66,1.914-16.859,5.354-24.223c5.531-12.754,18.257-21.675,33.069-21.675
	c14.812,0,27.537,8.921,33.069,21.675c3.438,7.363,5.354,15.562,5.354,24.223c0,16.716-7.162,31.749-18.575,42.254
	c-5.166,4.902-12.157,7.91-19.849,7.91s-14.684-3.008-19.852-7.91C188.735,215.993,181.576,200.959,181.576,184.244z
	 M297.922,275.426l-4.791-17.955c-1.013-3.787-3.723-6.66-7.094-8.025c-5.476-2.164-11.08-4.055-16.797-5.686
	c-14.703-3.756-30.945,0.104-42.447,11.609c-3.752,3.752-9.834,3.752-13.588,0c-11.506-11.512-27.758-15.371-42.464-11.604
	c-5.708,1.633-11.312,3.523-16.78,5.68c-3.372,1.365-6.082,4.238-7.096,8.025l-4.787,17.955c-2.06,7.688,2.504,15.592,10.187,17.65
	c21.646,5.59,44.339,8.578,67.735,8.578c23.395,0,46.089-2.988,67.735-8.578C295.417,291.018,299.981,283.113,297.922,275.426z"/>
</svg>
