<?xml version="1.0" encoding="utf-8"?>
<!-- Generator: Adobe Illustrator 16.0.0, SVG Export Plug-In . SVG Version: 6.00 Build 0)  -->
<!DOCTYPE svg PUBLIC "-//W3C//DTD SVG 1.1//EN" "http://www.w3.org/Graphics/SVG/1.1/DTD/svg11.dtd">
<svg version="1.1" id="Layer_1" xmlns="http://www.w3.org/2000/svg" xmlns:xlink="http://www.w3.org/1999/xlink" x="0px" y="0px"
	 width="100%" height="100%" viewBox="0 0 440 440" enable-background="new 0 0 440 440" xml:space="preserve">
<rect fill="#5C0C10" width="440" height="440"/>
<path fill="#E81123" d="M279.519,221.01l-50.587-87.666c-1.909-3.307-5.375-5.146-8.932-5.149c-3.562,0.004-7.023,1.843-8.934,5.149
	l-50.59,87.666c-2.846,4.932-1.157,11.238,3.773,14.086c0.561,0.325,1.148,0.587,1.75,0.795c17.146,4.976,35.248,7.647,54,7.647
	c18.753,0,36.85-2.672,53.996-7.647c0.607-0.208,1.194-0.47,1.75-0.795C280.682,232.248,282.367,225.941,279.519,221.01z
	 M220,231.312c-5.698,0-10.313-4.615-10.313-10.312c0-5.695,4.615-10.312,10.313-10.312c5.695,0,10.312,4.617,10.312,10.312
	C230.312,226.696,225.695,231.312,220,231.312z M226.381,199.488c-1.003,2.548-3.474,4.324-6.381,4.324s-5.38-1.776-6.383-4.324
	c-3.129-8.134-4.844-16.973-4.844-26.211c0-4.156,0.35-8.23,1.014-12.198c0.709-5.009,5.011-8.829,10.213-8.829
	c5.201,0,9.502,3.82,10.211,8.829c0.668,3.968,1.014,8.042,1.014,12.198C231.225,182.516,229.51,191.354,226.381,199.488z"/>
</svg>
