<?xml version="1.0" encoding="utf-8"?>
<!-- Generator: Adobe Illustrator 15.0.0, SVG Export Plug-In . SVG Version: 6.00 Build 0)  -->
<!DOCTYPE svg PUBLIC "-//W3C//DTD SVG 1.1//EN" "http://www.w3.org/Graphics/SVG/1.1/DTD/svg11.dtd">
<svg version="1.1" id="Layer_1" xmlns="http://www.w3.org/2000/svg" xmlns:xlink="http://www.w3.org/1999/xlink" x="0px" y="0px"
	 width="245px" height="245px" viewBox="0 0 245 245" enable-background="new 0 0 245 245" xml:space="preserve">
<path opacity="0.8" d="M122.5,0C54.85,0,0,54.846,0,122.502C0,190.15,54.85,245,122.5,245c67.646,0,122.5-54.85,122.5-122.498
	C245,54.846,190.152,0,122.5,0z"/>
<path d="M116.43,121.417c-0.441,2.878-2.93,5.082-5.93,5.082c-3.002,0-5.488-2.203-5.93-5.082
	c-1.172-6.961-1.793-14.123-1.793-21.416c0-7.295,0.621-14.457,1.793-21.418c0.441-2.877,2.928-5.082,5.93-5.082
	c3,0,5.488,2.205,5.93,5.082c1.172,6.961,1.793,14.123,1.793,21.418C118.223,107.293,117.602,114.456,116.43,121.417z
	 M140.43,121.417c-0.441,2.878-2.928,5.082-5.93,5.082c-3,0-5.488-2.203-5.93-5.082c-1.172-6.961-1.793-14.123-1.793-21.416
	c0-7.295,0.621-14.457,1.793-21.418c0.441-2.877,2.93-5.082,5.93-5.082c3.002,0,5.488,2.205,5.93,5.082
	c1.172,6.961,1.793,14.123,1.793,21.418C142.223,107.293,141.602,114.456,140.43,121.417z"/>
<path fill="#FFFFFF" d="M110.5,73.5c-3.002,0-5.488,2.205-5.93,5.082c-1.172,6.961-1.793,14.123-1.793,21.418
	c0,7.293,0.621,14.455,1.793,21.416c0.441,2.878,2.928,5.082,5.93,5.082c3,0,5.488-2.203,5.93-5.082
	c1.172-6.961,1.793-14.123,1.793-21.416c0-7.295-0.621-14.457-1.793-21.418C115.988,75.706,113.5,73.5,110.5,73.5z"/>
<path fill="#FFFFFF" d="M134.5,73.5c-3,0-5.488,2.205-5.93,5.082c-1.172,6.961-1.793,14.123-1.793,21.418
	c0,7.293,0.621,14.455,1.793,21.416c0.441,2.878,2.93,5.082,5.93,5.082c3.002,0,5.488-2.203,5.93-5.082
	c1.172-6.961,1.793-14.123,1.793-21.416c0-7.295-0.621-14.457-1.793-21.418C139.988,75.706,137.502,73.5,134.5,73.5z"/>
</svg>
