<?xml version="1.0" encoding="utf-8"?>
<!-- Generator: Adobe Illustrator 15.0.0, SVG Export Plug-In . SVG Version: 6.00 Build 0)  -->
<!DOCTYPE svg PUBLIC "-//W3C//DTD SVG 1.1//EN" "http://www.w3.org/Graphics/SVG/1.1/DTD/svg11.dtd">
<svg version="1.1" id="Layer_1" xmlns="http://www.w3.org/2000/svg" xmlns:xlink="http://www.w3.org/1999/xlink" x="0px" y="0px"
	 width="245px" height="245px" viewBox="0 0 245 245" enable-background="new 0 0 245 245" xml:space="preserve">
<path opacity="0.8" d="M122.5,0C54.85,0,0,54.846,0,122.502C0,190.15,54.85,245,122.5,245c67.646,0,122.5-54.85,122.5-122.498
	C245,54.846,190.152,0,122.5,0z"/>
<g>
	<path fill="#FFFFFF" d="M160.461,88.778c0-0.51-0.119-1.023-0.391-1.496c-0.801-1.387-2.541-1.881-3.953-1.162l-0.01-0.008
		l-0.094,0.055c-0.01,0.008-0.025,0.01-0.041,0.018c-0.012,0.008-0.023,0.02-0.037,0.029l-13.469,7.736v13.645l13.641,7.879
		l0.006-0.004c0.875,0.441,1.945,0.449,2.854-0.076c0.959-0.553,1.484-1.555,1.49-2.588l0.01-0.012V88.782L160.461,88.778z"/>
	<path fill="#FFFFFF" d="M136.467,89.543c0.006-0.109,0.016-0.215,0.016-0.328c0-0.111-0.01-0.219-0.016-0.328
		c-0.009-0.186-0.049-0.361-0.071-0.541l11.656-11.656c1.171-1.172,1.172-3.07,0.001-4.242c-0.815-0.816-1.98-1.051-3.011-0.73
		c-0.45,0.139-0.877,0.373-1.233,0.73l-10.754,10.754l-36.508,36.508l-8.6,8.599c-0.355,0.355-0.59,0.783-0.73,1.232
		c-0.319,1.029-0.085,2.195,0.73,3.01c1.172,1.172,3.072,1.172,4.243,0l12.059-12.058c2.513,0.172,5.042,0.289,7.599,0.293h0.506
		c6.256-0.018,12.389-0.547,18.369-1.547c0.072-0.01,0.145-0.023,0.219-0.039c3.047-0.641,5.352-3.266,5.525-6.457
		c0.006-0.131,0.021-0.258,0.021-0.387c0-0.133-0.016-0.26-0.021-0.391V89.543z"/>
	<path fill="#FFFFFF" d="M88.462,116.983l35.543-35.543c-3.832-0.406-7.714-0.643-11.651-0.654h-0.506
		c-6.453,0.012-12.775,0.576-18.93,1.631c-0.361,0.031-0.711,0.096-1.055,0.182c-2.141,0.529-3.891,2.037-4.744,4.027
		c-0.07,0.182-0.139,0.363-0.209,0.549c-1.535,4.248-2.379,8.834-2.379,13.615c0,4.689,0.809,9.188,2.293,13.367
		c0.086,0.293,0.193,0.574,0.316,0.855C87.467,115.745,87.918,116.409,88.462,116.983z"/>
</g>
</svg>
