<?xml version="1.0" encoding="utf-8"?>
<!-- Generator: Adobe Illustrator 15.0.0, SVG Export Plug-In . SVG Version: 6.00 Build 0)  -->
<!DOCTYPE svg PUBLIC "-//W3C//DTD SVG 1.1//EN" "http://www.w3.org/Graphics/SVG/1.1/DTD/svg11.dtd">
<svg version="1.1" id="Layer_1" xmlns="http://www.w3.org/2000/svg" xmlns:xlink="http://www.w3.org/1999/xlink" x="0px" y="0px"
	 width="245px" height="245px" viewBox="0 0 245 245" enable-background="new 0 0 245 245" xml:space="preserve">
<path opacity="0.8" d="M122.5,0C54.85,0,0,54.846,0,122.502C0,190.15,54.85,245,122.5,245c67.646,0,122.5-54.85,122.5-122.498
	C245,54.846,190.152,0,122.5,0z"/>
<g>
	<path fill="#FFFFFF" d="M108.734,100.995c-0.146-0.811-0.234-1.643-0.234-2.494l0.002-8.002c0-1.656-1.344-3-3-3
		c-1.658,0-3,1.344-3,3L102.5,98.5c0,2.59,0.501,5.061,1.398,7.328L108.734,100.995z"/>
	<path fill="#FFFFFF" d="M130.498,75.5c0-4.418-3.578-8-7.996-8s-8,3.582-8,8v19.727l15.996-15.996V75.5z"/>
</g>
<path fill="#FFFFFF" d="M138.585,87.655l13.966-13.965c1.172-1.172,1.172-3.07,0.001-4.242c-0.833-0.834-2.029-1.062-3.075-0.711
	c-0.426,0.143-0.828,0.371-1.168,0.711l-17.811,17.811l-15.039,15.037l-4.338,4.34l-4.276,4.275l-14.397,14.398
	c-0.34,0.338-0.568,0.742-0.711,1.168c-0.351,1.045-0.121,2.242,0.711,3.074c1.172,1.172,3.071,1.172,4.242,0l14.553-14.554
	c1.324,0.904,2.756,1.66,4.281,2.23c-4.176,2.199-7.189,6.304-7.875,11.164c-0.021,0.143-0.021,0.303-0.021,0.453
	c0,1.541,1.162,2.824,2.656,2.994c4.014,0.436,8.09,0.662,12.219,0.662h0.002c4.129,0,8.203-0.227,12.215-0.662
	c1.496-0.17,2.658-1.453,2.658-2.994c0-0.15,0-0.311-0.02-0.453c-0.688-4.859-3.701-8.964-7.879-11.164
	c7.6-2.836,13.02-10.139,13.02-18.727v-8.002c0-1.656-1.342-3-3-3C139.178,87.499,138.875,87.561,138.585,87.655l-1.93,1.93
	c-0.094,0.291-0.157,0.594-0.157,0.914c0,0,0,0.268,0,8.002c0,7.732-6.262,14.002-13.996,14.002c-2.521,0-4.879-0.676-6.923-1.842
	l4.527-4.527c0.757,0.238,1.561,0.367,2.396,0.367c4.418,0,7.996-3.582,7.996-8v-2.758l6.157-6.158"/>
</svg>
