<?xml version="1.0" encoding="utf-8"?>
<!-- Generator: Adobe Illustrator 15.0.2, SVG Export Plug-In  -->
<!DOCTYPE svg PUBLIC "-//W3C//DTD SVG 1.1//EN" "http://www.w3.org/Graphics/SVG/1.1/DTD/svg11.dtd" [
	<!ENTITY ns_flows "http://ns.adobe.com/Flows/1.0/">
]>
<svg version="1.1"
	 xmlns="http://www.w3.org/2000/svg" xmlns:xlink="http://www.w3.org/1999/xlink" xmlns:a="http://ns.adobe.com/AdobeSVGViewerExtensions/3.0/"
	 x="0px" y="0px" width="1366px" height="768px" viewBox="-847.898 -216.19 1366 768"
	 overflow="visible" enable-background="new -847.898 -216.19 1366 768" xml:space="preserve">
<defs>
</defs>
<path fill="#FFFFFF" d="M518.102,551.81V0C435.795,251.805,244.523,454.308,0,551.81H518.102z"/>
<g>
	<path fill="#8CC63F" d="M329.602,350.586c-22.056,0-40-17.944-40-40s17.944-40,40-40s40,17.944,40,40
		S351.657,350.586,329.602,350.586z"/>
	<path fill="#FFFFFF" d="M329.602,273.086c20.712,0,37.5,16.791,37.5,37.5c0,20.712-16.788,37.5-37.5,37.5
		c-20.709,0-37.5-16.788-37.5-37.5C292.102,289.877,308.893,273.086,329.602,273.086 M329.602,268.086
		c-23.435,0-42.5,19.065-42.5,42.5s19.065,42.5,42.5,42.5s42.5-19.065,42.5-42.5S353.036,268.086,329.602,268.086L329.602,268.086z"
		/>
</g>
<path fill="#FFFFFF" d="M348.548,308.695l-14.206-14.206c-0.487-0.479-1.159-0.782-1.896-0.783c-1.476,0.001-2.676,1.196-2.676,2.68
	c0,0.45,0.109,0.874,0.309,1.245l4.359,7.599l-20.908,1.343c-1.477,0-2.66,1.203-2.66,2.684c-0.031,0.432-0.047,0.863-0.047,1.303
	c0,0.437,0.016,0.934,0.047,1.365c0,1.478,1.184,2.684,2.66,2.684l20.908,1.342l-4.359,7.596c-0.199,0.377-0.309,0.801-0.309,1.251
	c0,1.478,1.2,2.679,2.676,2.679c0.737,0,1.409-0.307,1.896-0.785l14.206-14.209C349.594,311.437,349.594,309.739,348.548,308.695z"
	/>
</svg>
