<?xml version="1.0" encoding="utf-8"?>
<!DOCTYPE svg PUBLIC "-//W3C//DTD SVG 1.1//EN" "http://www.w3.org/Graphics/SVG/1.1/DTD/svg11.dtd">
<svg class="logoBlueSvg" version="1.1" id="Layer_1" xmlns="http://www.w3.org/2000/svg" xmlns:xlink="http://www.w3.org/1999/xlink" x="0px" y="0px"
	 width="113.483px" height="50px" viewBox="0 0 113.483 50" enable-background="new 0 0 113.483 50" xml:space="preserve">
	<style type="text/css" >
    <![CDATA[
    	@media screen and (-ms-high-contrast: active) {
    		svg.logoBlueSvg path.shape {
    			fill: windowText;
    		}
    		svg.logoBlueSvg path.fill {
    			fill: window;
    		}
    	}
    ]]>
    </style>
<g>
	<path class="shape" fill="#00aff0" d="M113.483,15.633c0-3.451-2.791-6.238-6.238-6.238c-1.785,0-3.385,0.744-4.52,1.939
		c-2.641-1.834-5.837-2.908-9.297-2.908c-3.497,0-6.719,1.1-9.377,2.971c-1.196-1.111-2.786-1.783-4.543-1.783
		c-1.301,0-2.518,0.377-3.548,1.021c-2.438-4.35-7.085-7.287-12.426-7.287c-4.886,0-9.186,2.447-11.763,6.178
		c-2.15-2.211-5.154-3.584-8.484-3.584c-2.203,0-4.255,0.604-6.02,1.654C37.223,3.393,33.816,0,29.605,0
		c-4.239,0-7.673,3.436-7.673,7.664l0.018,0.297C21.13,7.84,20.289,7.77,19.433,7.77c-2.5,0-4.858,0.551-6.98,1.529
		C11.255,8.66,9.899,8.293,8.45,8.293C3.792,8.293,0,12.076,0,16.742c0,2.475,1.075,4.686,2.761,6.232
		c-0.044,0.506-0.067,1.021-0.067,1.539c0,9.244,7.495,16.732,16.739,16.732c3.592,0,6.922-1.137,9.646-3.059
		c2.457,3.354,6.416,5.547,10.889,5.547c0.115,0,0.219-0.008,0.322-0.018C41.583,47.379,45.056,50,49.152,50
		c4.142,0,7.663-2.693,8.902-6.422c1.426,2.701,4.247,4.535,7.507,4.535c4.073,0,7.472-2.877,8.292-6.703
		c0.588,0.078,1.189,0.131,1.793,0.131c3.319,0,6.335-1.258,8.632-3.313c2.604,1.775,5.758,2.814,9.15,2.814
		c9.01,0,16.307-7.305,16.307-16.313c0-1.109-0.106-2.201-0.325-3.252C111.788,20.596,113.483,18.316,113.483,15.633z
		 "/>
<path class="fill" fill="#fff" d="M102.358,25.465H88.919c0,3.137,2.035,5.426,5.498,5.426c4.48,0,4.48-2.936,6.886-2.936c1.423,0,2.446,1.225,2.446,2.322
		c0,3.584-5.749,5.25-9.332,5.25c-6.764,0-10.102-3.721-11.105-7.895c-0.903,4.377-3.77,7.895-8.862,7.895
		c-2.726,0-4.763-1.1-5.862-3.014h-0.088v7.945c0,1.955-1.182,2.98-2.97,2.98c-1.793,0-2.972-1.025-2.972-2.98V18.301l-6.687,18.943
		c-1.422,4.07-3.06,6.195-6.806,6.195c-2.65,0-3.75-1.305-3.75-2.738c0-1.59,1.145-2.402,2.735-2.402h0.612
		c0.768,0,1.625-0.035,2.068-1.869l-6.185-17.643c-0.219-0.637-0.384-1.117-0.506-1.521c-0.142,0.186-0.297,0.352-0.481,0.543
		l-4.395,4.605l6.195,8.309c0.201,0.279,0.611,0.936,0.611,1.916c0,1.51-1.226,2.889-2.814,2.889c-1.469,0-2.246-0.732-2.691-1.379
		l-5.619-7.951l-2.08,1.836v4.525c0,1.949-1.18,2.969-2.97,2.969c-1.801,0-2.98-1.02-2.98-2.969v-2.193
		c-1.065,3.512-5.042,5.162-8.878,5.162c-5.373,0-9.855-2.4-9.855-5.336c0-1.303,0.733-2.482,2.402-2.482
		c2.57,0,2.814,3.67,7.21,3.67c2.114,0,3.46-0.943,3.46-2.16c0-1.51-1.303-1.754-3.416-2.285l-3.506-0.85
		c-3.459-0.855-6.15-2.289-6.15-6.285c0-4.838,4.807-6.637,8.922-6.637c4.518,0,9.085,1.799,9.085,4.523
		c0,1.391-0.942,2.605-2.488,2.605c-2.325,0-2.402-2.727-6.151-2.727c-2.081,0-3.426,0.568-3.426,1.834
		c0,1.381,1.345,1.713,3.18,2.117l2.481,0.574c2.858,0.648,6.171,1.775,7.131,4.605V8.109c0-1.949,1.18-2.971,2.98-2.971
		c1.79,0,2.97,1.021,2.97,2.971v13.527l6.598-7.33c0.613-0.656,1.393-1.145,2.28-1.145c0.97,0,2,0.627,2.5,1.537
		c0.482-0.928,1.442-1.537,2.56-1.537c1.592,0,2.691,0.896,3.05,2.246l3.837,13.891h0.079l3.626-13.48
		c0.41-1.512,1.223-2.656,2.855-2.656c1.409,0,2.22,0.697,2.65,1.414c0.355-0.918,1.152-1.414,2.438-1.414
		c1.756,0,2.692,0.984,2.692,2.811v0.938h0.085c0.98-2.527,3.383-3.748,6.268-3.748c4.246,0,8.037,2.664,9.059,8.229
		c1.156-5.033,5.026-8.229,10.873-8.229c6.842-0.002,10.756,4.848,10.756,9.74C104.972,24.939,104.36,25.465,102.358,25.465z
		 M106.386,14.277h-1.117v3.059h-0.83v-3.059h-1.117v-0.689h3.064V14.277z M110.851,17.336h-0.768c0,0-0.011,0-0.011-2.656
		l-0.915,2.656h-0.64c0,0-0.008,0-0.927-2.629v2.629h-0.776v-3.748h1.163c0,0,0.008,0,0.891,2.578l0.832-2.578h1.15V17.336z"/>

	<path class="shape" fill="#00aff0" d="M72.947,17.809c-3.47-0.043-4.772,3.092-4.772,6.477c0,3.057,1.145,6.605,4.772,6.605
		c3.782-0.043,4.717-3.836,4.717-6.605C77.664,20.779,76.116,17.854,72.947,17.809z"/>
	<path class="shape" fill="#00aff0" d="M94.337,17.32c-2.98,0-4.771,1.834-5.418,4.729h10.424C99.021,19.322,96.983,17.32,94.337,17.32z"/>
</g>
</svg>
