<?xml version="1.0" encoding="utf-8"?>
<!-- Generator: Adobe Illustrator 15.1.0, SVG Export Plug-In  -->
<!DOCTYPE svg PUBLIC "-//W3C//DTD SVG 1.1//EN" "http://www.w3.org/Graphics/SVG/1.1/DTD/svg11.dtd" [
	<!ENTITY ns_flows "http://ns.adobe.com/Flows/1.0/">
]>
<svg class="logoWhiteSvg" version="1.1"
	 xmlns="http://www.w3.org/2000/svg" xmlns:xlink="http://www.w3.org/1999/xlink" xmlns:a="http://ns.adobe.com/AdobeSVGViewerExtensions/3.0/"
	 x="0px" y="0px" width="310px" height="136px" viewBox="0 0 310 136" overflow="visible" enable-background="new 0 0 310 136"
	 xml:space="preserve">
  <style type="text/css" >
	<![CDATA[
		@media screen and (-ms-high-contrast: active) {
			svg.logoWhiteSvg path{
				fill: windowText;
			}
		}
	]]>
	</style>
<defs>
</defs>
<path fill="#FFFFFF" d="M198.97,48.587c-9.445-0.117-13,8.445-13,17.668c0,8.336,3.111,18.001,13,18.001
	c10.335-0.11,12.894-10.445,12.894-18.001C211.864,56.697,207.64,48.695,198.97,48.587z"/>
<path fill="#FFFFFF" d="M257.326,47.25c-8.114,0-13.003,5.002-14.779,12.895H271C270.106,52.698,264.552,47.25,257.326,47.25z"/>
<path fill="#FFFFFF" d="M309.568,42.644c0-9.403-7.621-17.026-17.026-17.026c-4.856,0-9.226,2.042-12.325,5.302
	c-7.195-5.005-15.935-7.946-25.365-7.946c-9.525,0-18.336,3.014-25.566,8.109c-3.264-3.011-7.607-4.862-12.395-4.862
	c-3.553,0-6.871,1.031-9.678,2.79c-6.666-11.857-19.346-19.878-33.916-19.878c-13.307,0-25.038,6.675-32.064,16.855
	c-5.875-6.031-14.074-9.787-23.155-9.787c-6.007,0-11.606,1.668-16.425,4.517C101.545,9.258,92.229,0,80.744,0
	C69.19,0,59.828,9.362,59.828,20.913c0,0.271,0.026,0.533,0.035,0.799c-2.237-0.337-4.534-0.515-6.87-0.515
	c-6.804,0-13.248,1.505-19.047,4.174c-3.249-1.746-6.957-2.738-10.9-2.738C10.322,22.633,0,32.951,0,45.674
	c0,6.744,2.917,12.79,7.528,17.005c-0.128,1.377-0.198,2.77-0.198,4.184c0,25.217,20.443,45.662,45.663,45.662
	c9.807,0,18.88-3.1,26.319-8.354c6.697,9.163,17.494,15.147,29.714,15.147c0.298,0,0.587-0.037,0.882-0.047
	c3.511,9.973,12.985,17.133,24.16,17.133c11.31,0,20.898-7.344,24.298-17.52c3.877,7.35,11.584,12.371,20.465,12.371
	c11.12,0,20.395-7.848,22.624-18.299c1.608,0.223,3.235,0.377,4.9,0.377c9.056,0,17.282-3.432,23.536-9.035
	c7.117,4.835,15.713,7.662,24.959,7.662c24.57,0,44.492-19.925,44.492-44.494c0-3.039-0.307-6.007-0.887-8.874
	C304.937,56.187,309.568,49.964,309.568,42.644z M279.222,69.473h-36.676c0,8.561,5.557,14.783,15,14.783
	c12.229,0,12.229-8.001,18.787-8.001c3.889,0,6.669,3.336,6.669,6.336c0,9.779-15.679,14.336-25.456,14.336
	c-18.449,0-27.554-10.164-30.296-21.559c-2.446,11.948-10.264,21.559-24.17,21.559c-7.446,0-12.999-3.004-15.997-8.228h-0.23v21.677
	c0,5.333-3.219,8.11-8.109,8.11c-4.889,0-8.111-2.777-8.111-8.11V49.909L152.4,101.596c-3.889,11.108-8.334,16.891-18.562,16.891
	c-7.221,0-10.223-3.552-10.223-7.444c0-4.334,3.11-6.555,7.447-6.555h1.665c2.111,0,4.446-0.112,5.67-5.117l-16.893-48.118
	c-0.594-1.736-1.052-3.041-1.38-4.138c-0.37,0.485-0.801,0.934-1.297,1.472l-12.002,12.554l16.891,22.671
	c0.556,0.777,1.669,2.556,1.669,5.223c0,4.113-3.334,7.893-7.67,7.893c-4.002,0-6.111-2-7.335-3.779L95.043,71.476l-5.669,5v12.336
	c0,5.335-3.221,8.115-8.112,8.115c-4.888,0-8.112-2.78-8.112-8.115v-5.969c-2.912,9.586-13.762,14.084-24.225,14.084
	c-14.671,0-26.893-6.557-26.893-14.557c0-3.56,2-6.779,6.556-6.779c7.004,0,7.67,10.004,19.667,10.004
	c5.782,0,9.449-2.562,9.449-5.893c0-4.111-3.554-4.781-9.332-6.227l-9.558-2.328c-9.447-2.338-16.782-6.225-16.782-17.119
	c0-13.222,13.113-18.115,24.336-18.115c12.339,0,24.785,4.893,24.785,12.338c0,3.777-2.555,7.112-6.78,7.112
	c-6.334,0-6.557-7.446-16.781-7.446c-5.668,0-9.337,1.555-9.337,4.998c0,3.78,3.669,4.672,8.674,5.782l6.774,1.554
	c7.787,1.78,16.81,4.851,19.447,12.571V22.133c0-5.333,3.224-8.111,8.112-8.111c4.891,0,8.112,2.778,8.112,8.111v36.896
	l18.004-20.003c1.668-1.778,3.78-3.112,6.221-3.112c2.648,0,5.446,1.694,6.81,4.175c1.319-2.517,3.944-4.175,6.983-4.175
	c4.334,0,7.337,2.444,8.334,6.113l10.45,37.896h0.221l9.893-36.785c1.111-4.112,3.332-7.224,7.78-7.224
	c3.839,0,6.054,1.897,7.224,3.853c0.996-2.511,3.166-3.853,6.666-3.853c4.786,0,7.342,2.67,7.342,7.667v2.558h0.225
	c2.667-6.889,9.223-10.225,17.109-10.225c11.583,0,21.924,7.246,24.701,22.445c3.163-13.732,13.727-22.445,29.658-22.445
	c18.67,0,29.338,13.224,29.338,26.559C286.333,68.033,284.669,69.473,279.222,69.473z M290.216,38.958h-3.061v8.331h-2.259v-8.331
	h-3.062v-1.881h8.381V38.958z M302.396,47.289h-2.107V40.05h-0.027l-2.506,7.238h-1.731l-2.509-7.166h-0.028v7.166h-2.104V37.077
	h3.166l2.393,7.022h0.025l2.266-7.022h3.164V47.289z"/>
</svg>
