<?xml version="1.0" encoding="utf-8"?>
<!-- Generator: Adobe Illustrator 17.0.2, SVG Export Plug-In . SVG Version: 6.00 Build 0)  -->
<!DOCTYPE svg PUBLIC "-//W3C//DTD SVG 1.1//EN" "http://www.w3.org/Graphics/SVG/1.1/DTD/svg11.dtd">
<svg version="1.1" id="Layer_1" xmlns="http://www.w3.org/2000/svg" xmlns:xlink="http://www.w3.org/1999/xlink" x="0px" y="0px"
	 width="12px" height="12px" viewBox="0 0 12 12" enable-background="new 0 0 12 12" xml:space="preserve">
<path fill-rule="evenodd" clip-rule="evenodd" fill="#939A9F" d="M0,6c0,3.32,2.68,6,6,6s6-2.68,6-6S9.32,0,6,0S0,2.68,0,6z M5,6
	c0-0.547,0.453-1,1-1s1,0.453,1,1S6.547,7,6,7S5,6.547,5,6z M8,6c0-0.547,0.453-1,1-1c0.56,0,1,0.453,1,1S9.56,7,9,7
	C8.453,7,8,6.547,8,6z M2,6c0-0.547,0.453-1,1-1s1,0.453,1,1S3.547,7,3,7S2,6.547,2,6z"/>
</svg>
