<?xml version="1.0" encoding="utf-8"?>
<!-- Generator: Adobe Illustrator 15.0.0, SVG Export Plug-In . SVG Version: 6.00 Build 0)  -->
<!DOCTYPE svg PUBLIC "-//W3C//DTD SVG 1.1//EN" "http://www.w3.org/Graphics/SVG/1.1/DTD/svg11.dtd">
<svg class="resumeSvg" version="1.1" id="Layer_1" xmlns="http://www.w3.org/2000/svg" xmlns:xlink="http://www.w3.org/1999/xlink" x="0px" y="0px"
	 width="285px" height="285px" viewBox="0 0 285 285" enable-background="new 0 0 285 285" xml:space="preserve">
	<style type="text/css" >
    <![CDATA[
    	@media screen and (-ms-high-contrast: active) {
    		svg.resumeSvg path.path1,
    		svg.resumeSvg g.g1 > path,
    		svg.resumeSvg g.g2 > path {
    			fill: windowText;
          opacity: 1;
    		}
    		svg.resumeSvg path.phoneIcon {
    			fill: window;
    		}
        svg.resumeSvg:hover path {
    			fill: Highlight;
    		}
        svg.resumeSvg:hover path.phoneIcon {
    			fill: HighlightText;
    		}
    	}
    ]]>
    </style>

	<path class="path1" opacity="0.8" fill="#00AFF0" d="M142.5,265C74.955,265,20,210.051,20,142.503S74.955,20,142.5,20
		C210.05,20,265,74.955,265,142.503S210.05,265,142.5,265z"/>
	<path class="phoneIcon" fill="#FFFFFF" d="M141.451,149.846c-0.753,1.204-1.806,2.248-3.122,3.008c-1.375,0.795-2.87,1.184-4.352,1.205
		c-1.208-0.039-2.367-0.529-3.239-1.406l-0.077-0.083c-7.001-6.932-11.342-16.548-11.355-27.178v-0.036
		c0.013-10.63,4.352-20.24,11.352-27.175l0.081-0.082c0.872-0.876,2.031-1.37,3.239-1.407c1.482,0.021,2.977,0.412,4.352,1.205
		c1.316,0.76,2.369,1.803,3.122,3.007c0.938,1.46,1.042,3.386,0.113,4.995l-4.063,6.998c-1.323,2.293-4.25,3.076-6.542,1.754
		l-0.564-0.311c-1.724,3.301-2.7,7.055-2.704,11.035c0.003,3.98,0.979,7.734,2.705,11.033l0.564-0.31
		c2.29-1.323,5.217-0.536,6.543,1.753l4.061,7.003C142.493,146.461,142.389,148.387,141.451,149.846z M149.68,132.535
		c0,0.982,0.795,1.779,1.775,1.779c0.35,0,0.677-0.102,0.951-0.275l12.404-7.162c0.525-0.308,0.884-0.88,0.884-1.537
		c0-0.656-0.358-1.229-0.884-1.535l-12.404-7.163c-0.274-0.173-0.602-0.272-0.951-0.272c-0.98,0-1.775,0.793-1.775,1.777V132.535z"/>
	<g class="g1" opacity="0.3">
		<path fill="#00AFF0" d="M142.5,20C210.05,20,265,74.955,265,142.503S210.05,265,142.5,265C74.955,265,20,210.051,20,142.503
			S74.955,20,142.5,20 M142.5,10C69.439,10,10,69.44,10,142.503C10,215.562,69.439,275,142.5,275S275,215.562,275,142.503
			C275,69.44,215.561,10,142.5,10L142.5,10z"/>
	</g>
	<g class="g2" opacity="0.2">
		<path fill="#00AFF0" d="M142.5,10C215.564,10,275,69.441,275,142.503C275,215.565,215.564,275,142.5,275
			C69.441,275,10,215.565,10,142.503C10,69.441,69.441,10,142.5,10 M142.5,0C63.925,0,0,63.927,0,142.503
			C0,221.076,63.925,285,142.5,285c78.574,0,142.5-63.924,142.5-142.497C285,63.927,221.074,0,142.5,0L142.5,0z"/>
	</g>
</svg>
