<?xml version="1.0" encoding="utf-8"?>
<!-- Generator: Adobe Illustrator 15.0.0, SVG Export Plug-In . SVG Version: 6.00 Build 0)  -->
<!DOCTYPE svg PUBLIC "-//W3C//DTD SVG 1.1//EN" "http://www.w3.org/Graphics/SVG/1.1/DTD/svg11.dtd">
<svg version="1.1" id="Layer_1" xmlns="http://www.w3.org/2000/svg" xmlns:xlink="http://www.w3.org/1999/xlink" x="0px" y="0px"
	 width="65px" height="65px" viewBox="0 0 65 65" enable-background="new 0 0 65 65" xml:space="preserve">
<path opacity="0.8" d="M32.501,0C14.551,0,0,14.552,0,32.501C0,50.449,14.551,65,32.501,65C50.447,65,65,50.447,65,32.501
	C65,14.552,50.447,0,32.501,0z"/>
<path fill="none" d="M32.501,0C14.551,0,0,14.552,0,32.501C0,50.449,14.551,65,32.501,65C50.447,65,65,50.447,65,32.501
	C65,14.552,50.447,0,32.501,0z"/>
<g>
	<path fill="#FFFFFF" d="M29.519,33.182c-0.004-0.007-0.006-0.016-0.01-0.024l-1.796,1.795c0.004,0.007,0.008,0.016,0.013,0.022
		L29.519,33.182z"/>
	<path fill="#FFFFFF" d="M39.993,27.494l16.7-16.796c-0.727-0.804-1.415-1.571-2.218-2.298L36,26.952v-0.034l-6.365,6.24
		c0.003,0.008-0.057,0.017-0.054,0.024l-1.824,1.793c-0.004-0.006-0.023-0.015-0.028-0.022l-1.756,1.749
		c0.005,0.007,0.005,0.015,0.01,0.021L8.402,54.303c0.727,0.803,1.494,1.57,2.297,2.298l17.706-17.707
		c0.401,0.235,0.821,0.44,1.262,0.605c-1.696,0.893-2.922,2.561-3.2,4.534c-0.008,0.059-0.008,0.124-0.008,0.185
		c0,0.626,0.472,1.147,1.079,1.216c1.63,0.177,3.286,0.27,4.964,0.27h0.001c1.678,0,3.333-0.093,4.962-0.27
		c0.608-0.068,1.08-0.59,1.08-1.216c0-0.061,0-0.126-0.008-0.185c-0.279-1.974-1.316-3.642-3.013-4.534
		C38.611,38.346,41,35.379,41,31.891V28.64C41,28.107,40.468,27.66,39.993,27.494z M38,31.891c0,3.141-2.451,5.688-5.593,5.688
		c-0.817,0-1.546-0.175-2.249-0.487l1.992-1.967c0.108,0.01,0.354,0.016,0.464,0.016c1.794,0,3.385-1.456,3.385-3.25v-0.342l2-2.438
		C38,29.538,38,30.346,38,31.891z"/>
	<path fill="#FFFFFF" d="M31.875,19.297c-1.795,0-3.875,1.456-3.875,3.25v6.273l6.801-6.487
		C34.689,20.638,33.598,19.297,31.875,19.297z"/>
	<path fill="#FFFFFF" d="M27,31.259v-2.62c0-0.673-0.828-1.219-1.5-1.219c-0.673,0-1.5,0.546-1.5,1.219v3.251
		c0,0.561,0.345,1.105,0.454,1.633L27,31.259z"/>
</g>
</svg>
