<?xml version="1.0" encoding="utf-8"?>
<!-- Generator: Adobe Illustrator 17.0.2, SVG Export Plug-In . SVG Version: 6.00 Build 0)  -->
<!DOCTYPE svg PUBLIC "-//W3C//DTD SVG 1.1//EN" "http://www.w3.org/Graphics/SVG/1.1/DTD/svg11.dtd">
<svg version="1.1" id="Layer_1" xmlns="http://www.w3.org/2000/svg" xmlns:xlink="http://www.w3.org/1999/xlink" x="0px" y="0px"
	 width="500px" height="60px" viewBox="0 0 500 60" enable-background="new 0 0 500 60" xml:space="preserve">
<g>
	<defs>
		<rect id="SVGID_1_" width="500" height="60"/>
	</defs>
	<clipPath id="SVGID_2_">
		<use xlink:href="#SVGID_1_"  overflow="visible"/>
	</clipPath>
	<g id="XMLID_16_" clip-path="url(#SVGID_2_)">
		<rect fill="#FFFFFF" width="500" height="65"/>
		
			<rect x="20" y="1.18" transform="matrix(-1 0.0026 -0.0026 -1 520.1077 81.6732)" fill="#FFFFFF" width="480.001" height="79.999"/>
		<rect x="180" fill="#FFFFFF" width="320" height="80"/>
		<g>
			<defs>
				<rect id="SVGID_3_" x="213" width="287" height="71"/>
			</defs>
			<clipPath id="SVGID_4_">
				<use xlink:href="#SVGID_3_"  overflow="visible"/>
			</clipPath>
			<rect x="214" opacity="0.3" clip-path="url(#SVGID_4_)" fill="#82D4F3" width="461" height="71"/>
			<g clip-path="url(#SVGID_4_)">
				<defs>
					<polyline id="SVGID_5_" points="677,483 133,483 133,0 677,0 					"/>
				</defs>
				<clipPath id="SVGID_6_">
					<use xlink:href="#SVGID_5_"  overflow="visible"/>
				</clipPath>
				<g clip-path="url(#SVGID_6_)">
					<path opacity="0.1" fill="#2CADE3" d="M339.815,95.183c0,52.465,42.531,94.997,94.999,94.997
						c52.469,0,95.002-42.532,95.002-94.997c0-52.471-42.533-95.003-95.002-95.003C382.346,0.18,339.815,42.712,339.815,95.183z"/>
					<path opacity="0.2" fill="#2CADE3" d="M348.862,95.183c0,47.469,38.48,85.951,85.952,85.951
						c47.473,0,85.954-38.482,85.954-85.951c0-47.476-38.482-85.955-85.954-85.955C387.343,9.227,348.862,47.707,348.862,95.183z"/>
					<path opacity="0.3" fill="#2CADE3" d="M358.016,94.971c0,42.475,34.431,76.904,76.906,76.904
						c42.475,0,76.904-34.43,76.904-76.904c0-42.477-34.429-76.904-76.904-76.904C392.446,18.066,358.016,52.494,358.016,94.971z"/>
					<path opacity="0.7" fill="#2CADE3" d="M366.957,95.183c0,37.475,30.38,67.856,67.857,67.856
						c37.479,0,67.859-30.381,67.859-67.856c0-37.48-30.38-67.86-67.859-67.86C397.338,27.322,366.957,57.702,366.957,95.183z"/>
					<circle fill="#68C9F0" cx="432.816" cy="116.516" r="70.986"/>
					<circle fill="#FFFFFF" cx="432.816" cy="116.516" r="70.986"/>
				</g>
				<path clip-path="url(#SVGID_6_)" fill="#FFFFFF" d="M102.699,148.377c0,84.982,68.895,153.874,153.881,153.874
					s153.879-68.892,153.879-153.874c0-84.988-68.893-153.883-153.879-153.883S102.699,63.389,102.699,148.377z"/>
				<path clip-path="url(#SVGID_6_)" fill="#FFFFFF" d="M121.699,148.377c0,84.982,68.895,153.874,153.881,153.874
					s153.879-68.892,153.879-153.874c0-84.988-68.893-153.883-153.879-153.883S121.699,63.389,121.699,148.377z"/>
				<path clip-path="url(#SVGID_6_)" fill="#FFFFFF" d="M460.072,88.146c0,53.646,43.489,97.137,97.141,97.137
					c53.652,0,97.143-43.491,97.143-97.137C654.355,34.492,610.865-9,557.213-9C503.561-9,460.072,34.492,460.072,88.146z"/>
				<rect x="133" y="5" clip-path="url(#SVGID_6_)" fill="none" width="542" height="478"/>
				<path clip-path="url(#SVGID_6_)" fill="#FFFFFF" d="M376.006,95.182c0,32.479,26.33,58.807,58.808,58.807
					c32.481,0,58.812-26.328,58.812-58.807c0-32.482-26.331-58.811-58.812-58.811C402.336,36.37,376.006,62.699,376.006,95.182z"/>
			</g>
		</g>
		<g>
			<g>
				<circle fill="none" cx="465" cy="35.18" r="15"/>
			</g>
		</g>
	</g>
</g>
</svg>
