<?xml version="1.0" encoding="utf-8"?>
<!-- Generator: Adobe Illustrator 16.0.0, SVG Export Plug-In . SVG Version: 6.00 Build 0)  -->
<!DOCTYPE svg PUBLIC "-//W3C//DTD SVG 1.1//EN" "http://www.w3.org/Graphics/SVG/1.1/DTD/svg11.dtd">
<svg version="1.1" id="Layer_1" xmlns="http://www.w3.org/2000/svg" xmlns:xlink="http://www.w3.org/1999/xlink" x="0px" y="0px"
	 width="21px" height="21px" viewBox="0 0 21 21" enable-background="new 0 0 21 21" xml:space="preserve">
<g>
	<g>
		<path opacity="0.2" fill="#000000" d="M13.154,6.75c0.775,0,1.403,0.631,1.403,1.407s-0.628,1.405-1.403,1.405c-0.776,0-1.405-0.629-1.405-1.405
			S12.378,6.75,13.154,6.75z M7.843,6.75c0.773,0,1.407,0.631,1.407,1.407S8.616,9.562,7.843,9.562
			c-0.777,0-1.406-0.629-1.406-1.405S7.066,6.75,7.843,6.75z M15.744,12.653c-0.999,1.865-2.979,3.144-5.245,3.144
			c-2.227,0-4.253-1.294-5.267-3.191c-0.102-0.255-0.027-0.554,0.2-0.728c0.273-0.21,0.669-0.16,0.875,0.115
			c1.002,1.204,2.503,1.942,4.191,1.942c1.69,0,3.206-0.758,4.209-1.963c0.113-0.136,0.284-0.222,0.477-0.222
			c0.348,0,0.628,0.278,0.628,0.622C15.812,12.475,15.786,12.568,15.744,12.653z"/>
	</g>
	<g>
		<path opacity="0.2" fill="#000000" d="M10.499,21C4.71,21,0,16.29,0,10.5S4.71,0,10.499,0C16.289,0,21,4.71,21,10.5S16.289,21,10.499,21z
			 M10.499,1.004c-5.236,0-9.495,4.26-9.495,9.496c0,5.235,4.259,9.496,9.495,9.496c5.236,0,9.497-4.261,9.497-9.496
			C19.996,5.264,15.735,1.004,10.499,1.004z"/>
	</g>
</g>
</svg>
