<?xml version="1.0" encoding="utf-8"?>
<!-- Generator: Adobe Illustrator 15.1.0, SVG Export Plug-In . SVG Version: 6.00 Build 0)  -->
<!DOCTYPE svg PUBLIC "-//W3C//DTD SVG 1.1//EN" "http://www.w3.org/Graphics/SVG/1.1/DTD/svg11.dtd">
<svg version="1.1" id="Layer_1" xmlns="http://www.w3.org/2000/svg" xmlns:xlink="http://www.w3.org/1999/xlink" x="0px" y="0px"
	 width="12px" height="18.105px" viewBox="0 0 12 18.105" enable-background="new 0 0 12 18.105" xml:space="preserve">
<g>
	<g>
		<g>
			<path fill="windowText" d="M9.579,2.971c-0.061-0.01-0.121-0.018-0.184-0.028l0.004-1.135c0-0.423-0.342-0.764-0.764-0.766
				C8.215,1.04,7.87,1.381,7.868,1.805L7.864,2.744c-0.629-0.056-1.268-0.088-1.91-0.091C4.719,2.649,3.506,2.75,2.329,2.947
				c-0.548,0.086-0.97,0.558-0.972,1.129l-0.025,8.362c-0.009,2.533,2.04,4.596,4.576,4.604c2.534,0.008,4.597-2.04,4.604-4.574
				l0.027-8.361C10.54,3.535,10.126,3.059,9.579,2.971z M5.913,14.937c-0.423-0.002-0.765-0.344-0.763-0.766
				c0.002-0.424,0.346-0.766,0.771-0.764c0.421,0.002,0.763,0.344,0.76,0.768C6.681,14.597,6.335,14.938,5.913,14.937z
				 M8.985,11.847c-0.999,0.147-2.021,0.225-3.063,0.221c-1.041-0.003-2.063-0.084-3.059-0.24l0.022-7.419
				C3.9,4.255,4.93,4.18,5.95,4.184c1.017,0.002,2.043,0.084,3.06,0.244L8.985,11.847z"/>
		</g>
	</g>
</g>
</svg>
