<?xml version="1.0" encoding="utf-8"?>
<!-- Generator: Adobe Illustrator 15.1.0, SVG Export Plug-In . SVG Version: 6.00 Build 0)  -->
<!DOCTYPE svg PUBLIC "-//W3C//DTD SVG 1.1//EN" "http://www.w3.org/Graphics/SVG/1.1/DTD/svg11.dtd">
<svg version="1.1" id="Layer_1" xmlns="http://www.w3.org/2000/svg" xmlns:xlink="http://www.w3.org/1999/xlink" x="0px" y="0px"
	 width="18px" height="22px" viewBox="-0.5 0.469 18 22" enable-background="new -0.5 0.469 18 22" xml:space="preserve">
<path fill="windowText" d="M15.962,14.623l-5.519-9.564c-0.209-0.361-0.587-0.561-0.975-0.562C9.08,4.498,8.702,4.698,8.494,5.059
	l-5.519,9.564c-0.311,0.537-0.127,1.227,0.411,1.535c0.062,0.037,0.125,0.064,0.191,0.088c1.871,0.543,3.845,0.834,5.891,0.834
	c2.045,0,4.02-0.291,5.89-0.834c0.067-0.023,0.131-0.051,0.192-0.088C16.089,15.85,16.271,15.16,15.962,14.623z M9.469,15.746
	c-0.622,0-1.125-0.504-1.125-1.125s0.503-1.125,1.125-1.125c0.621,0,1.125,0.504,1.125,1.125S10.09,15.746,9.469,15.746z
	 M10.164,12.275c-0.109,0.277-0.379,0.471-0.695,0.471c-0.317,0-0.587-0.193-0.696-0.471c-0.342-0.888-0.528-1.852-0.528-2.86
	c0-0.454,0.038-0.898,0.11-1.331c0.077-0.546,0.547-0.963,1.114-0.963s1.036,0.417,1.113,0.963c0.073,0.433,0.111,0.877,0.111,1.331
	C10.693,10.424,10.506,11.388,10.164,12.275z"/>
</svg>
