<?xml version="1.0" encoding="utf-8"?>
<!-- Generator: Adobe Illustrator 15.1.0, SVG Export Plug-In . SVG Version: 6.00 Build 0)  -->
<!DOCTYPE svg PUBLIC "-//W3C//DTD SVG 1.1//EN" "http://www.w3.org/Graphics/SVG/1.1/DTD/svg11.dtd">
<svg version="1.1" id="Layer_1" xmlns="http://www.w3.org/2000/svg" xmlns:xlink="http://www.w3.org/1999/xlink" x="0px" y="0px"
	 width="18px" height="22px" viewBox="0 0 18 22" enable-background="new 0 0 18 22" xml:space="preserve">
<g>
	<g>
		<circle fill="none" cx="9.011" cy="10.991" r="13.313"/>
		<path fill="windowText" d="M6.288,12.504V6.258C7.187,6.188,8.095,6.15,9.011,6.15c0.917,0,1.824,0.037,2.724,0.107v6.246H6.288z
			 M9.947,14.632c0,0.517-0.42,0.935-0.937,0.936c-0.518-0.001-0.936-0.419-0.936-0.936c0-0.518,0.418-0.937,0.936-0.937
			C9.527,13.695,9.947,14.114,9.947,14.632z M12.944,6.118c0-0.591-0.376-1.097-0.901-1.282c-0.41-0.146-0.85-0.262-1.312-0.347
			c-0.546-0.1-1.123-0.155-1.721-0.155S7.836,4.39,7.29,4.489c-0.463,0.085-0.902,0.2-1.311,0.347
			C5.452,5.021,5.077,5.527,5.077,6.118v8.705c0,1.287,1.199,2.37,2.84,2.712c0.348,0.071,0.713,0.112,1.094,0.112
			c0.38,0,0.747-0.041,1.095-0.112c1.64-0.342,2.839-1.425,2.839-2.712V6.118z"/>
	</g>
	<g>
		<path fill="windowText" d="M11.296,12.244c-0.339,0-0.657-0.132-0.896-0.371c-0.587-0.61-1.095-1.206-1.654-1.937
			C8.387,9.417,8.45,8.741,8.882,8.31c0.236-0.236,0.552-0.367,0.889-0.367c0.341,0,0.66,0.132,0.9,0.373l0.593,0.593l1.145-1.135
			c0.765-0.766,1.59-1.482,2.449-2.128c0.219-0.163,0.478-0.25,0.75-0.25c0.338,0,0.656,0.132,0.896,0.373
			c0.437,0.438,0.491,1.141,0.128,1.637c-0.649,0.867-1.366,1.693-2.134,2.461c-0.762,0.762-1.583,1.476-2.44,2.122
			C11.843,12.153,11.571,12.244,11.296,12.244z"/>
		<path fill="#FFFFFF" d="M15.608,5.896c0.196,0,0.394,0.076,0.544,0.227c0.268,0.269,0.294,0.691,0.077,0.988
			c-0.628,0.838-1.322,1.641-2.084,2.402c-0.758,0.758-1.556,1.449-2.388,2.076c-0.136,0.103-0.299,0.154-0.462,0.154
			c-0.196,0-0.393-0.075-0.541-0.224c-0.586-0.609-1.088-1.203-1.611-1.888C8.939,9.337,8.971,8.928,9.235,8.664
			c0.147-0.148,0.342-0.221,0.536-0.221c0.198,0,0.396,0.076,0.547,0.226l0.944,0.945l1.498-1.485
			c0.76-0.76,1.562-1.455,2.398-2.083C15.293,5.946,15.45,5.896,15.608,5.896 M15.608,4.896L15.608,4.896
			c-0.381,0-0.744,0.121-1.049,0.349c-0.88,0.661-1.723,1.393-2.506,2.177l-0.788,0.781l-0.24-0.24
			c-0.335-0.335-0.78-0.52-1.254-0.52c-0.471,0-0.913,0.183-1.245,0.515C7.926,8.557,7.838,9.501,8.32,10.201
			c0.6,0.786,1.12,1.395,1.714,2.013c0.345,0.347,0.789,0.53,1.262,0.53c0.384,0,0.762-0.127,1.066-0.357
			c0.873-0.658,1.712-1.387,2.49-2.166c0.784-0.784,1.517-1.629,2.177-2.51c0.514-0.703,0.438-1.685-0.169-2.294
			C16.522,5.081,16.079,4.896,15.608,4.896L15.608,4.896z"/>
	</g>
</g>
</svg>
