<?xml version="1.0" encoding="utf-8"?>
<!-- Generator: Adobe Illustrator 15.1.0, SVG Export Plug-In . SVG Version: 6.00 Build 0)  -->
<!DOCTYPE svg PUBLIC "-//W3C//DTD SVG 1.1//EN" "http://www.w3.org/Graphics/SVG/1.1/DTD/svg11.dtd">
<svg version="1.1" id="Layer_1" xmlns="http://www.w3.org/2000/svg" xmlns:xlink="http://www.w3.org/1999/xlink" x="0px" y="0px"
	 width="18px" height="22px" viewBox="0 0 18 22" enable-background="new 0 0 18 22" xml:space="preserve">
<g>
	<g>
		<circle fill="none" cx="9.011" cy="10.991" r="13.313"/>
		<path fill="#93999D" d="M6.288,12.504V6.258C7.187,6.188,8.095,6.15,9.011,6.15c0.917,0,1.824,0.037,2.724,0.107v6.246H6.288z
			 M9.947,14.632c0,0.517-0.42,0.935-0.937,0.936c-0.518-0.001-0.936-0.419-0.936-0.936c0-0.518,0.418-0.937,0.936-0.937
			C9.527,13.695,9.947,14.114,9.947,14.632z M12.944,6.118c0-0.591-0.376-1.097-0.901-1.282c-0.41-0.146-0.85-0.262-1.312-0.347
			c-0.546-0.1-1.123-0.155-1.721-0.155S7.836,4.39,7.29,4.489c-0.463,0.085-0.902,0.2-1.311,0.347
			C5.452,5.021,5.077,5.527,5.077,6.118v8.705c0,1.287,1.199,2.37,2.84,2.712c0.348,0.071,0.713,0.112,1.094,0.112
			c0.38,0,0.747-0.041,1.095-0.112c1.64-0.342,2.839-1.425,2.839-2.712V6.118z"/>
	</g>
</g>
</svg>
