<?xml version="1.0" encoding="utf-8"?>
<!-- Generator: Adobe Illustrator 16.0.0, SVG Export Plug-In . SVG Version: 6.00 Build 0)  -->
<!DOCTYPE svg PUBLIC "-//W3C//DTD SVG 1.1//EN" "http://www.w3.org/Graphics/SVG/1.1/DTD/svg11.dtd">
<svg version="1.1" id="Layer_1" xmlns="http://www.w3.org/2000/svg" xmlns:xlink="http://www.w3.org/1999/xlink" x="0px" y="0px"
	 width="250px" height="280px" viewBox="0 0 250 280" enable-background="new 0 0 250 280" xml:space="preserve">
<g>
	<g>
		<defs>
			<rect id="SVGID_1_" x="-3292" y="-120.944" width="250" height="540"/>
		</defs>
		<use xlink:href="#SVGID_1_"  overflow="visible" opacity="0.9" fill="#D7F2FB"/>
		<clipPath id="SVGID_2_">
			<use xlink:href="#SVGID_1_"  overflow="visible" opacity="0.9"/>
		</clipPath>
	</g>
	<g>
		<rect x="-3271.885" y="-87.61" fill="none" width="215.77" height="360.193"/>
		<text transform="matrix(1 0 0 1 -3271.8848 -71.8213)"><tspan x="0" y="0" fill="#0095CC" font-family="'SegoeUI'" font-size="21.33">Hi Christopher Clare</tspan><tspan x="0" y="60" fill="#0095CC" font-family="'SegoeUI'" font-size="21.33">Share more of your </tspan><tspan x="0" y="90" fill="#0095CC" font-family="'SegoeUI'" font-size="21.33">moments every day.</tspan><tspan x="0" y="150" fill="#0095CC" font-family="'SegoeUI'" font-size="21.33">Send files and photos </tspan><tspan x="0" y="180" fill="#0095CC" font-family="'SegoeUI'" font-size="21.33">of any size over Skype.</tspan></text>
	</g>
	<g>
		<defs>
			<rect id="SVGID_3_" x="-3292" y="139" width="250" height="280"/>
		</defs>
		<clipPath id="SVGID_4_">
			<use xlink:href="#SVGID_3_"  overflow="visible"/>
		</clipPath>
		<g clip-path="url(#SVGID_4_)">
			<g>
				<path fill="#FFFFFF" d="M-3081.887,168.773c-44.564,0-89.129,0-133.693,0c-0.508,0-1.018-0.023-1.523,0.015
					c-1.894,0.135-3.37,1.011-4.121,2.76c-0.361,0.841-0.488,1.84-0.488,2.768c-0.033,34.375-0.04,68.751-0.048,103.126
					c-0.003,20.631,0.003,41.263,0.003,61.894c0,2.899,1.718,4.789,4.605,5.014c0.979,0.076,1.965,0.063,2.949,0.063
					c70.72,0.004,141.438,0.004,212.156,0.004c18.22,0,36.438,0.003,54.658-0.011c3.212-0.002,5.092-1.906,5.095-5.093
					c0.009-6.443,0.004-12.887,0.005-19.331c0.023-47.77,0.045-95.537,0.064-143.306c0.001-1.017-0.052-2.03-0.069-3.045
					c-0.053-3.141-1.787-4.856-4.949-4.856c-17.934-0.004-35.867-0.002-53.799-0.001
					C-3027.992,168.773-3054.939,168.773-3081.887,168.773z"/>
				<path fill-rule="evenodd" clip-rule="evenodd" d="M-3081.887,168.773c26.947,0,53.895,0,80.845,0
					c17.932-0.001,35.865-0.003,53.799,0.001c3.162,0,4.896,1.716,4.949,4.856c0.018,1.015,0.07,2.028,0.069,3.045
					c-0.02,47.769-0.041,95.536-0.064,143.306c-0.001,6.444,0.004,12.888-0.005,19.331c-0.003,3.187-1.883,5.091-5.095,5.093
					c-18.22,0.014-36.438,0.011-54.658,0.011c-70.719,0-141.437,0-212.156-0.004c-0.984,0-1.971,0.013-2.949-0.063
					c-2.888-0.225-4.605-2.114-4.605-5.014c0-20.631-0.006-41.263-0.003-61.894c0.008-34.375,0.015-68.751,0.048-103.126
					c0-0.928,0.127-1.927,0.488-2.768c0.751-1.749,2.228-2.625,4.121-2.76c0.506-0.038,1.016-0.015,1.523-0.015
					C-3171.016,168.773-3126.451,168.773-3081.887,168.773z M-3084.296,332.446c0.707,0.061,1.341,0.113,2.042,0.175
					c0.062-0.2,0.163-0.49,0.245-0.786c0.083-0.299,0.144-0.601,0.212-0.887C-3083.303,330.016-3083.961,330.438-3084.296,332.446z
					 M-3082.09,333.227c0.76,0,1.532,0.229,1.912-0.059c0.453-0.344,0.57-1.13,0.826-1.711c-0.825-0.051-1.438-0.09-2.154-0.134
					C-3081.656,331.812-3081.828,332.374-3082.09,333.227z M-3080.141,333.731c-0.66-0.06-1.316-0.123-2.023-0.189
					c-0.08,0.285-0.178,0.617-0.268,0.951c-0.231,0.87,0.043,1.201,0.959,1.158
					C-3080.569,335.609-3080.303,335.217-3080.141,333.731z M-3082.394,333.199c-1.577-0.919-2.3-0.436-2.511,1.513
					c0.635,0.048,1.271,0.095,1.985,0.146C-3082.764,334.375-3082.586,333.809-3082.394,333.199z"/>
				<path fill-rule="evenodd" clip-rule="evenodd" fill="#FFFFFF" d="M-3084.296,332.446c0.335-2.008,0.993-2.431,2.499-1.498
					c-0.068,0.286-0.129,0.588-0.212,0.887c-0.082,0.296-0.183,0.586-0.245,0.786
					C-3082.955,332.56-3083.589,332.507-3084.296,332.446z"/>
				<path fill-rule="evenodd" clip-rule="evenodd" fill="#FFFFFF" d="M-3082.09,333.227c0.262-0.853,0.434-1.415,0.584-1.903
					c0.717,0.044,1.329,0.083,2.154,0.134c-0.256,0.581-0.373,1.367-0.826,1.711C-3080.558,333.456-3081.33,333.227-3082.09,333.227
					z"/>
				<path fill-rule="evenodd" clip-rule="evenodd" fill="#FFFFFF" d="M-3080.141,333.731c-0.162,1.485-0.429,1.878-1.332,1.92
					c-0.916,0.043-1.19-0.288-0.959-1.158c0.09-0.334,0.188-0.666,0.268-0.951C-3081.457,333.608-3080.801,333.672-3080.141,333.731
					z"/>
				<path fill-rule="evenodd" clip-rule="evenodd" fill="#FFFFFF" d="M-3082.394,333.199c-0.192,0.609-0.37,1.176-0.525,1.659
					c-0.714-0.052-1.351-0.099-1.985-0.146C-3084.693,332.764-3083.971,332.28-3082.394,333.199z"/>
			</g>
		</g>
		<rect x="-3127" y="177" clip-path="url(#SVGID_4_)" fill="#FFFFFF" width="112" height="148"/>
		<rect x="-3212" y="177" clip-path="url(#SVGID_4_)" fill="#6E6E73" width="85" height="148"/>
		<rect x="-3212" y="177" clip-path="url(#SVGID_4_)" fill="#33353A" width="85" height="85"/>
		<rect x="-3117" y="237" clip-path="url(#SVGID_4_)" fill="#E7F1F5" width="112" height="5"/>
		<rect x="-3117" y="247" clip-path="url(#SVGID_4_)" fill="#E7F1F5" width="112" height="5"/>
		<rect x="-3117" y="212" clip-path="url(#SVGID_4_)" fill="#E7F1F5" width="112" height="5"/>
		<rect x="-3117" y="222" clip-path="url(#SVGID_4_)" fill="#E7F1F5" width="112" height="5"/>
		<rect x="-3117" y="187" clip-path="url(#SVGID_4_)" fill="#E7F1F5" width="112" height="5"/>
		<g clip-path="url(#SVGID_4_)">
			<path fill="#929497" d="M-3515-17.088c-44.182,0-80,35.818-80,80s35.818,80,80,80c44.178,0,80-35.82,80-80
				C-3435,18.73-3470.818-17.088-3515-17.088z"/>
			<path fill="#FFFFFF" d="M-3493.769,49.512c-3.339-0.973-6.855-1.527-10.497-1.594c-2.209,0-4.016-1.797-4.016-4.006
				c0-0.117,0.002-0.215,0.013-0.328c0.177-1.199,0.271-2.424,0.271-3.672c0-2.846-0.48-5.578-1.354-8.125h-0.008
				c-0.541-1.57-2.031-2.697-3.783-2.697l0,0c-0.619-0.01-1.236-0.021-1.857-0.021c-7.09,0-14.035,0.664-20.762,1.916
				c-1.844,0.357-3.238,1.98-3.238,3.928v56c0,1.947,1.395,3.57,3.238,3.926c6.725,1.254,13.672,1.918,20.762,1.918
				s14.037-0.664,20.764-1.918c1.843-0.355,3.236-1.979,3.236-3.926V53.305C-3491.004,51.531-3492.165,50.031-3493.769,49.512z"/>
		</g>
		<rect x="-3117" y="197" clip-path="url(#SVGID_4_)" fill="#E7F1F5" width="112" height="5"/>
		<rect x="-3117" y="262" clip-path="url(#SVGID_4_)" fill="#E7F1F5" width="112" height="5"/>
		<rect x="-3117" y="272" clip-path="url(#SVGID_4_)" fill="#E7F1F5" width="112" height="5"/>
		<rect x="-3097" y="287" clip-path="url(#SVGID_4_)" fill="#E7F1F5" width="112" height="5"/>
		<rect x="-3097" y="297" clip-path="url(#SVGID_4_)" fill="#E7F1F5" width="112" height="5"/>
		<rect x="-3097" y="297" clip-path="url(#SVGID_4_)" fill="#00AFF0" width="22" height="5"/>
		<g clip-path="url(#SVGID_4_)">
			<path fill="#E7F1F5" d="M-3007,314v6h-108v-6H-3007 M-3005,312h-112v10h112V312L-3005,312z"/>
		</g>
		<rect x="-3292" y="-120.942" clip-path="url(#SVGID_4_)" fill="none" width="250" height="540"/>
		<circle clip-path="url(#SVGID_4_)" fill="#6E6E73" cx="-3194.5" cy="244.499" r="7.5"/>
		<circle clip-path="url(#SVGID_4_)" fill="#6E6E73" cx="-3169.5" cy="244.499" r="7.5"/>
		<g clip-path="url(#SVGID_4_)">
			<g>
				<g>
					<path fill="#00AAEB" d="M-3144.5,237.001c-4.143,0-7.5,3.359-7.5,7.5c0,4.142,3.357,7.499,7.5,7.499
						c4.14,0,7.5-3.357,7.5-7.499C-3137,240.36-3140.358,237.001-3144.5,237.001z"/>
				</g>
			</g>
			<path fill="#FFFFFF" d="M-3141.64,245.22c-0.641,0.117-1.295,0.193-1.959,0.231c-0.038,0.664-0.111,1.317-0.229,1.957
				c-0.058,0.32-0.336,0.565-0.672,0.565c-0.338,0-0.614-0.246-0.673-0.565c-0.117-0.64-0.192-1.293-0.23-1.957
				c-0.663-0.038-1.316-0.114-1.956-0.231c-0.321-0.056-0.565-0.334-0.565-0.672c0-0.337,0.244-0.614,0.565-0.671
				c0.64-0.117,1.293-0.193,1.956-0.231c0.038-0.662,0.113-1.316,0.23-1.957c0.059-0.32,0.335-0.565,0.673-0.563
				c0.336-0.002,0.614,0.243,0.672,0.563c0.118,0.641,0.191,1.295,0.229,1.957c0.664,0.038,1.318,0.114,1.959,0.231
				c0.318,0.057,0.563,0.334,0.563,0.671C-3141.076,244.886-3141.321,245.164-3141.64,245.22z"/>
		</g>
		<g clip-path="url(#SVGID_4_)">
			<rect x="-3117" y="287" fill="#00AFF0" width="15" height="15"/>
			<g>
				<path fill="none" d="M-3109.5,284.5c-5.519,0-10,4.48-10,10s4.481,10,10,10c5.522,0,10-4.48,10-10S-3103.978,284.5-3109.5,284.5
					z"/>
				<path fill="#FFFFFF" d="M-3106.846,292.826c-0.418-0.123-0.857-0.191-1.313-0.199c-0.276,0-0.5-0.227-0.5-0.5
					c0-0.02,0-0.029,0.002-0.043c0.022-0.152,0.032-0.304,0.032-0.46c0-0.356-0.061-0.697-0.167-1.016l0,0
					c-0.07-0.198-0.256-0.338-0.476-0.338l0,0c-0.078,0-0.154,0-0.232,0c-0.889,0-1.751,0.079-2.595,0.235
					c-0.229,0.047-0.402,0.254-0.402,0.493v7.002c0,0.239,0.174,0.446,0.402,0.493c0.841,0.156,1.706,0.234,2.595,0.234
					c0.888,0,1.756-0.078,2.595-0.234c0.23-0.047,0.404-0.254,0.404-0.493v-4.702
					C-3106.501,293.077-3106.645,292.888-3106.846,292.826z"/>
			</g>
		</g>
		<rect x="-3043" y="177" clip-path="url(#SVGID_4_)" fill="#E6F7FE" width="1" height="148"/>
	</g>
</g>
<g>
	<g>
		<defs>
			<rect id="SVGID_5_" x="-3291" y="-119.944" width="250" height="540"/>
		</defs>
		<use xlink:href="#SVGID_5_"  overflow="visible" opacity="0.9" fill="#D7F2FB"/>
		<clipPath id="SVGID_6_">
			<use xlink:href="#SVGID_5_"  overflow="visible" opacity="0.9"/>
		</clipPath>
	</g>
	<g>
		<rect x="-3270.885" y="-86.61" fill="none" width="215.77" height="360.193"/>
		<text transform="matrix(1 0 0 1 -3270.8848 -70.8213)"><tspan x="0" y="0" fill="#0095CC" font-family="'SegoeUI'" font-size="21.33">Hi Christopher Clare</tspan><tspan x="0" y="60" fill="#0095CC" font-family="'SegoeUI'" font-size="21.33">Share more of your </tspan><tspan x="0" y="90" fill="#0095CC" font-family="'SegoeUI'" font-size="21.33">moments every day.</tspan><tspan x="0" y="150" fill="#0095CC" font-family="'SegoeUI'" font-size="21.33">Send files and photos </tspan><tspan x="0" y="180" fill="#0095CC" font-family="'SegoeUI'" font-size="21.33">of any size over Skype.</tspan></text>
	</g>
	<g>
		<defs>
			<rect id="SVGID_7_" x="-3291" y="140" width="250" height="280"/>
		</defs>
		<clipPath id="SVGID_8_">
			<use xlink:href="#SVGID_7_"  overflow="visible"/>
		</clipPath>
		<g clip-path="url(#SVGID_8_)">
			<g>
				<path fill="#FFFFFF" d="M-3080.887,169.773c-44.564,0-89.129,0-133.693,0c-0.508,0-1.018-0.023-1.523,0.015
					c-1.894,0.135-3.37,1.011-4.121,2.76c-0.361,0.841-0.488,1.84-0.488,2.768c-0.033,34.375-0.04,68.751-0.048,103.126
					c-0.003,20.631,0.003,41.263,0.003,61.894c0,2.899,1.718,4.789,4.605,5.014c0.979,0.076,1.965,0.063,2.949,0.063
					c70.72,0.004,141.438,0.004,212.156,0.004c18.22,0,36.438,0.003,54.658-0.011c3.212-0.002,5.092-1.906,5.095-5.093
					c0.009-6.443,0.004-12.887,0.005-19.331c0.023-47.77,0.045-95.537,0.064-143.306c0.001-1.017-0.052-2.03-0.069-3.045
					c-0.053-3.141-1.787-4.856-4.949-4.856c-17.934-0.004-35.867-0.002-53.799-0.001
					C-3026.992,169.773-3053.939,169.773-3080.887,169.773z"/>
				<path fill-rule="evenodd" clip-rule="evenodd" d="M-3080.887,169.773c26.947,0,53.895,0,80.845,0
					c17.932-0.001,35.865-0.003,53.799,0.001c3.162,0,4.896,1.716,4.949,4.856c0.018,1.015,0.07,2.028,0.069,3.045
					c-0.02,47.769-0.041,95.536-0.064,143.306c-0.001,6.444,0.004,12.888-0.005,19.331c-0.003,3.187-1.883,5.091-5.095,5.093
					c-18.22,0.014-36.438,0.011-54.658,0.011c-70.719,0-141.437,0-212.156-0.004c-0.984,0-1.971,0.013-2.949-0.063
					c-2.888-0.225-4.605-2.114-4.605-5.014c0-20.631-0.006-41.263-0.003-61.894c0.008-34.375,0.015-68.751,0.048-103.126
					c0-0.928,0.127-1.927,0.488-2.768c0.751-1.749,2.228-2.625,4.121-2.76c0.506-0.038,1.016-0.015,1.523-0.015
					C-3170.016,169.773-3125.451,169.773-3080.887,169.773z M-3083.296,333.446c0.707,0.061,1.341,0.113,2.042,0.175
					c0.062-0.2,0.163-0.49,0.245-0.786c0.083-0.299,0.144-0.601,0.212-0.887C-3082.303,331.016-3082.961,331.438-3083.296,333.446z
					 M-3081.09,334.227c0.76,0,1.532,0.229,1.912-0.059c0.453-0.344,0.57-1.13,0.826-1.711c-0.825-0.051-1.438-0.09-2.154-0.134
					C-3080.656,332.812-3080.828,333.374-3081.09,334.227z M-3079.141,334.731c-0.66-0.06-1.316-0.123-2.023-0.189
					c-0.08,0.285-0.178,0.617-0.268,0.951c-0.231,0.87,0.043,1.201,0.959,1.158
					C-3079.569,336.609-3079.303,336.217-3079.141,334.731z M-3081.394,334.199c-1.577-0.919-2.3-0.436-2.511,1.513
					c0.635,0.048,1.271,0.095,1.985,0.146C-3081.764,335.375-3081.586,334.809-3081.394,334.199z"/>
				<path fill-rule="evenodd" clip-rule="evenodd" fill="#FFFFFF" d="M-3083.296,333.446c0.335-2.008,0.993-2.431,2.499-1.498
					c-0.068,0.286-0.129,0.588-0.212,0.887c-0.082,0.296-0.183,0.586-0.245,0.786
					C-3081.955,333.56-3082.589,333.507-3083.296,333.446z"/>
				<path fill-rule="evenodd" clip-rule="evenodd" fill="#FFFFFF" d="M-3081.09,334.227c0.262-0.853,0.434-1.415,0.584-1.903
					c0.717,0.044,1.329,0.083,2.154,0.134c-0.256,0.581-0.373,1.367-0.826,1.711C-3079.558,334.456-3080.33,334.227-3081.09,334.227
					z"/>
				<path fill-rule="evenodd" clip-rule="evenodd" fill="#FFFFFF" d="M-3079.141,334.731c-0.162,1.485-0.429,1.878-1.332,1.92
					c-0.916,0.043-1.19-0.288-0.959-1.158c0.09-0.334,0.188-0.666,0.268-0.951C-3080.457,334.608-3079.801,334.672-3079.141,334.731
					z"/>
				<path fill-rule="evenodd" clip-rule="evenodd" fill="#FFFFFF" d="M-3081.394,334.199c-0.192,0.609-0.37,1.176-0.525,1.659
					c-0.714-0.052-1.351-0.099-1.985-0.146C-3083.693,333.764-3082.971,333.28-3081.394,334.199z"/>
			</g>
		</g>
		<rect x="-3126" y="178" clip-path="url(#SVGID_8_)" fill="#FFFFFF" width="112" height="148"/>
		<rect x="-3211" y="178" clip-path="url(#SVGID_8_)" fill="#6E6E73" width="85" height="148"/>
		<rect x="-3211" y="178" clip-path="url(#SVGID_8_)" fill="#33353A" width="85" height="85"/>
		<rect x="-3116" y="238" clip-path="url(#SVGID_8_)" fill="#E7F1F5" width="112" height="5"/>
		<rect x="-3116" y="248" clip-path="url(#SVGID_8_)" fill="#E7F1F5" width="112" height="5"/>
		<rect x="-3116" y="213" clip-path="url(#SVGID_8_)" fill="#E7F1F5" width="112" height="5"/>
		<rect x="-3116" y="223" clip-path="url(#SVGID_8_)" fill="#E7F1F5" width="112" height="5"/>
		<rect x="-3116" y="188" clip-path="url(#SVGID_8_)" fill="#E7F1F5" width="112" height="5"/>
		<g clip-path="url(#SVGID_8_)">
			<path fill="#929497" d="M-3514-16.088c-44.182,0-80,35.818-80,80s35.818,80,80,80c44.178,0,80-35.82,80-80
				C-3434,19.73-3469.818-16.088-3514-16.088z"/>
			<path fill="#FFFFFF" d="M-3492.769,50.512c-3.339-0.973-6.855-1.527-10.497-1.594c-2.209,0-4.016-1.797-4.016-4.006
				c0-0.117,0.002-0.215,0.013-0.328c0.177-1.199,0.271-2.424,0.271-3.672c0-2.846-0.48-5.578-1.354-8.125h-0.008
				c-0.541-1.57-2.031-2.697-3.783-2.697l0,0c-0.619-0.01-1.236-0.021-1.857-0.021c-7.09,0-14.035,0.664-20.762,1.916
				c-1.844,0.357-3.238,1.98-3.238,3.928v56c0,1.947,1.395,3.57,3.238,3.926c6.725,1.254,13.672,1.918,20.762,1.918
				s14.037-0.664,20.764-1.918c1.843-0.355,3.236-1.979,3.236-3.926V54.305C-3490.004,52.531-3491.165,51.031-3492.769,50.512z"/>
		</g>
		<rect x="-3116" y="198" clip-path="url(#SVGID_8_)" fill="#E7F1F5" width="112" height="5"/>
		<rect x="-3116" y="263" clip-path="url(#SVGID_8_)" fill="#E7F1F5" width="112" height="5"/>
		<rect x="-3116" y="273" clip-path="url(#SVGID_8_)" fill="#E7F1F5" width="112" height="5"/>
		<rect x="-3096" y="288" clip-path="url(#SVGID_8_)" fill="#E7F1F5" width="112" height="5"/>
		<rect x="-3096" y="298" clip-path="url(#SVGID_8_)" fill="#E7F1F5" width="112" height="5"/>
		<rect x="-3096" y="298" clip-path="url(#SVGID_8_)" fill="#00AFF0" width="22" height="5"/>
		<g clip-path="url(#SVGID_8_)">
			<path fill="#E7F1F5" d="M-3006,315v6h-108v-6H-3006 M-3004,313h-112v10h112V313L-3004,313z"/>
		</g>
		<rect x="-3291" y="-119.942" clip-path="url(#SVGID_8_)" fill="none" width="250" height="540"/>
		<circle clip-path="url(#SVGID_8_)" fill="#6E6E73" cx="-3193.5" cy="245.499" r="7.5"/>
		<circle clip-path="url(#SVGID_8_)" fill="#6E6E73" cx="-3168.5" cy="245.499" r="7.5"/>
		<g clip-path="url(#SVGID_8_)">
			<g>
				<g>
					<path fill="#00AAEB" d="M-3143.5,238.001c-4.143,0-7.5,3.359-7.5,7.5c0,4.142,3.357,7.499,7.5,7.499
						c4.14,0,7.5-3.357,7.5-7.499C-3136,241.36-3139.358,238.001-3143.5,238.001z"/>
				</g>
			</g>
			<path fill="#FFFFFF" d="M-3140.64,246.22c-0.641,0.117-1.295,0.193-1.959,0.231c-0.038,0.664-0.111,1.317-0.229,1.957
				c-0.058,0.32-0.336,0.565-0.672,0.565c-0.338,0-0.614-0.246-0.673-0.565c-0.117-0.64-0.192-1.293-0.23-1.957
				c-0.663-0.038-1.316-0.114-1.956-0.231c-0.321-0.056-0.565-0.334-0.565-0.672c0-0.337,0.244-0.614,0.565-0.671
				c0.64-0.117,1.293-0.193,1.956-0.231c0.038-0.662,0.113-1.316,0.23-1.957c0.059-0.32,0.335-0.565,0.673-0.563
				c0.336-0.002,0.614,0.243,0.672,0.563c0.118,0.641,0.191,1.295,0.229,1.957c0.664,0.038,1.318,0.114,1.959,0.231
				c0.318,0.057,0.563,0.334,0.563,0.671C-3140.076,245.886-3140.321,246.164-3140.64,246.22z"/>
		</g>
		<g clip-path="url(#SVGID_8_)">
			<rect x="-3116" y="288" fill="#00AFF0" width="15" height="15"/>
			<g>
				<path fill="none" d="M-3108.5,285.5c-5.519,0-10,4.48-10,10s4.481,10,10,10c5.522,0,10-4.48,10-10S-3102.978,285.5-3108.5,285.5
					z"/>
				<path fill="#FFFFFF" d="M-3105.846,293.826c-0.418-0.123-0.857-0.191-1.313-0.199c-0.276,0-0.5-0.227-0.5-0.5
					c0-0.02,0-0.029,0.002-0.043c0.022-0.152,0.032-0.304,0.032-0.46c0-0.356-0.061-0.697-0.167-1.016l0,0
					c-0.07-0.198-0.256-0.338-0.476-0.338l0,0c-0.078,0-0.154,0-0.232,0c-0.889,0-1.751,0.079-2.595,0.235
					c-0.229,0.047-0.402,0.254-0.402,0.493v7.002c0,0.239,0.174,0.446,0.402,0.493c0.841,0.156,1.706,0.234,2.595,0.234
					c0.888,0,1.756-0.078,2.595-0.234c0.23-0.047,0.404-0.254,0.404-0.493v-4.702
					C-3105.501,294.077-3105.645,293.888-3105.846,293.826z"/>
			</g>
		</g>
		<rect x="-3042" y="178" clip-path="url(#SVGID_8_)" fill="#E6F7FE" width="1" height="148"/>
	</g>
</g>
<g>
	<defs>
		<rect id="SVGID_9_" x="-3403" y="128" width="250" height="280"/>
	</defs>
	<clipPath id="SVGID_10_">
		<use xlink:href="#SVGID_9_"  overflow="visible"/>
	</clipPath>
	<g clip-path="url(#SVGID_10_)">
		<g>
			<path fill="#FFFFFF" d="M-3192.887,157.773c-44.564,0-89.129,0-133.693,0c-0.508,0-1.018-0.023-1.523,0.015
				c-1.894,0.135-3.37,1.011-4.121,2.76c-0.361,0.841-0.488,1.84-0.488,2.768c-0.033,34.375-0.04,68.751-0.048,103.126
				c-0.003,20.631,0.003,41.263,0.003,61.894c0,2.899,1.718,4.789,4.605,5.014c0.979,0.076,1.965,0.063,2.949,0.063
				c70.72,0.004,141.438,0.004,212.156,0.004c18.22,0,36.438,0.003,54.658-0.011c3.212-0.002,5.092-1.906,5.095-5.093
				c0.009-6.443,0.004-12.887,0.005-19.331c0.023-47.77,0.045-95.537,0.064-143.306c0.001-1.017-0.052-2.03-0.069-3.045
				c-0.053-3.141-1.787-4.856-4.949-4.856c-17.934-0.004-35.867-0.002-53.799-0.001
				C-3138.992,157.773-3165.939,157.773-3192.887,157.773z"/>
			<path fill-rule="evenodd" clip-rule="evenodd" d="M-3192.887,157.773c26.947,0,53.895,0,80.845,0
				c17.932-0.001,35.865-0.003,53.799,0.001c3.162,0,4.896,1.716,4.949,4.856c0.018,1.015,0.07,2.028,0.069,3.045
				c-0.02,47.769-0.041,95.536-0.064,143.306c-0.001,6.444,0.004,12.888-0.005,19.331c-0.003,3.187-1.883,5.091-5.095,5.093
				c-18.22,0.014-36.438,0.011-54.658,0.011c-70.719,0-141.437,0-212.156-0.004c-0.984,0-1.971,0.013-2.949-0.063
				c-2.888-0.225-4.605-2.114-4.605-5.014c0-20.631-0.006-41.263-0.003-61.894c0.008-34.375,0.015-68.751,0.048-103.126
				c0-0.928,0.127-1.927,0.488-2.768c0.751-1.749,2.228-2.625,4.121-2.76c0.506-0.038,1.016-0.015,1.523-0.015
				C-3282.016,157.773-3237.451,157.773-3192.887,157.773z M-3195.296,321.446c0.707,0.061,1.341,0.113,2.042,0.175
				c0.062-0.2,0.163-0.49,0.245-0.786c0.083-0.299,0.144-0.601,0.212-0.887C-3194.303,319.016-3194.961,319.438-3195.296,321.446z
				 M-3193.09,322.227c0.76,0,1.532,0.229,1.912-0.059c0.453-0.344,0.57-1.13,0.826-1.711c-0.825-0.051-1.438-0.09-2.154-0.134
				C-3192.656,320.812-3192.828,321.374-3193.09,322.227z M-3191.141,322.731c-0.66-0.06-1.316-0.123-2.023-0.189
				c-0.08,0.285-0.178,0.617-0.268,0.951c-0.231,0.87,0.043,1.201,0.959,1.158C-3191.569,324.609-3191.303,324.217-3191.141,322.731
				z M-3193.394,322.199c-1.577-0.919-2.3-0.436-2.511,1.513c0.635,0.048,1.271,0.095,1.985,0.146
				C-3193.764,323.375-3193.586,322.809-3193.394,322.199z"/>
			<path fill-rule="evenodd" clip-rule="evenodd" fill="#FFFFFF" d="M-3195.296,321.446c0.335-2.008,0.993-2.431,2.499-1.498
				c-0.068,0.286-0.129,0.588-0.212,0.887c-0.082,0.296-0.183,0.586-0.245,0.786
				C-3193.955,321.56-3194.589,321.507-3195.296,321.446z"/>
			<path fill-rule="evenodd" clip-rule="evenodd" fill="#FFFFFF" d="M-3193.09,322.227c0.262-0.853,0.434-1.415,0.584-1.903
				c0.717,0.044,1.329,0.083,2.154,0.134c-0.256,0.581-0.373,1.367-0.826,1.711C-3191.558,322.456-3192.33,322.227-3193.09,322.227z
				"/>
			<path fill-rule="evenodd" clip-rule="evenodd" fill="#FFFFFF" d="M-3191.141,322.731c-0.162,1.485-0.429,1.878-1.332,1.92
				c-0.916,0.043-1.19-0.288-0.959-1.158c0.09-0.334,0.188-0.666,0.268-0.951C-3192.457,322.608-3191.801,322.672-3191.141,322.731z
				"/>
			<path fill-rule="evenodd" clip-rule="evenodd" fill="#FFFFFF" d="M-3193.394,322.199c-0.192,0.609-0.37,1.176-0.525,1.659
				c-0.714-0.052-1.351-0.099-1.985-0.146C-3195.693,321.764-3194.971,321.28-3193.394,322.199z"/>
		</g>
	</g>
	<rect x="-3238" y="166" clip-path="url(#SVGID_10_)" fill="#FFFFFF" width="112" height="148"/>
	<rect x="-3323" y="166" clip-path="url(#SVGID_10_)" fill="#6E6E73" width="85" height="148"/>
	<rect x="-3323" y="166" clip-path="url(#SVGID_10_)" fill="#33353A" width="85" height="85"/>
	<rect x="-3228" y="226" clip-path="url(#SVGID_10_)" fill="#E7F1F5" width="112" height="5"/>
	<rect x="-3228" y="236" clip-path="url(#SVGID_10_)" fill="#E7F1F5" width="112" height="5"/>
	<rect x="-3228" y="201" clip-path="url(#SVGID_10_)" fill="#E7F1F5" width="112" height="5"/>
	<rect x="-3228" y="211" clip-path="url(#SVGID_10_)" fill="#E7F1F5" width="112" height="5"/>
	<rect x="-3228" y="176" clip-path="url(#SVGID_10_)" fill="#E7F1F5" width="112" height="5"/>
	<g clip-path="url(#SVGID_10_)">
		<path fill="#929497" d="M-3626-28.088c-44.182,0-80,35.818-80,80s35.818,80,80,80c44.178,0,80-35.82,80-80
			C-3546,7.73-3581.818-28.088-3626-28.088z"/>
		<path fill="#FFFFFF" d="M-3604.769,38.512c-3.339-0.973-6.855-1.527-10.497-1.594c-2.209,0-4.016-1.797-4.016-4.006
			c0-0.117,0.002-0.215,0.013-0.328c0.177-1.199,0.271-2.424,0.271-3.672c0-2.846-0.48-5.578-1.354-8.125h-0.008
			c-0.541-1.57-2.031-2.697-3.783-2.697l0,0c-0.619-0.01-1.236-0.021-1.857-0.021c-7.09,0-14.035,0.664-20.762,1.916
			c-1.844,0.357-3.238,1.98-3.238,3.928v56c0,1.947,1.395,3.57,3.238,3.926c6.725,1.254,13.672,1.918,20.762,1.918
			s14.037-0.664,20.764-1.918c1.843-0.355,3.236-1.979,3.236-3.926V42.305C-3602.004,40.531-3603.165,39.031-3604.769,38.512z"/>
	</g>
	<rect x="-3228" y="186" clip-path="url(#SVGID_10_)" fill="#E7F1F5" width="112" height="5"/>
	<rect x="-3228" y="251" clip-path="url(#SVGID_10_)" fill="#E7F1F5" width="112" height="5"/>
	<rect x="-3228" y="261" clip-path="url(#SVGID_10_)" fill="#E7F1F5" width="112" height="5"/>
	<rect x="-3208" y="276" clip-path="url(#SVGID_10_)" fill="#E7F1F5" width="112" height="5"/>
	<rect x="-3208" y="286" clip-path="url(#SVGID_10_)" fill="#E7F1F5" width="112" height="5"/>
	<rect x="-3208" y="286" clip-path="url(#SVGID_10_)" fill="#00AFF0" width="22" height="5"/>
	<g clip-path="url(#SVGID_10_)">
		<path fill="#E7F1F5" d="M-3118,303v6h-108v-6H-3118 M-3116,301h-112v10h112V301L-3116,301z"/>
	</g>
	<rect x="-3403" y="-131.942" clip-path="url(#SVGID_10_)" fill="none" width="250" height="540"/>
	<circle clip-path="url(#SVGID_10_)" fill="#6E6E73" cx="-3305.5" cy="233.499" r="7.5"/>
	<circle clip-path="url(#SVGID_10_)" fill="#6E6E73" cx="-3280.5" cy="233.499" r="7.5"/>
	<g clip-path="url(#SVGID_10_)">
		<g>
			<g>
				<path fill="#00AAEB" d="M-3255.5,226.001c-4.143,0-7.5,3.359-7.5,7.5c0,4.142,3.357,7.499,7.5,7.499c4.14,0,7.5-3.357,7.5-7.499
					C-3248,229.36-3251.358,226.001-3255.5,226.001z"/>
			</g>
		</g>
		<path fill="#FFFFFF" d="M-3252.64,234.22c-0.641,0.117-1.295,0.193-1.959,0.231c-0.038,0.664-0.111,1.317-0.229,1.957
			c-0.058,0.32-0.336,0.565-0.672,0.565c-0.338,0-0.614-0.246-0.673-0.565c-0.117-0.64-0.192-1.293-0.23-1.957
			c-0.663-0.038-1.316-0.114-1.956-0.231c-0.321-0.056-0.565-0.334-0.565-0.672c0-0.337,0.244-0.614,0.565-0.671
			c0.64-0.117,1.293-0.193,1.956-0.231c0.038-0.662,0.113-1.316,0.23-1.957c0.059-0.32,0.335-0.565,0.673-0.563
			c0.336-0.002,0.614,0.243,0.672,0.563c0.118,0.641,0.191,1.295,0.229,1.957c0.664,0.038,1.318,0.114,1.959,0.231
			c0.318,0.057,0.563,0.334,0.563,0.671C-3252.076,233.886-3252.321,234.164-3252.64,234.22z"/>
	</g>
	<g clip-path="url(#SVGID_10_)">
		<rect x="-3228" y="276" fill="#00AFF0" width="15" height="15"/>
		<g>
			<path fill="none" d="M-3220.5,273.5c-5.519,0-10,4.48-10,10s4.481,10,10,10c5.522,0,10-4.48,10-10S-3214.978,273.5-3220.5,273.5z
				"/>
			<path fill="#FFFFFF" d="M-3217.846,281.826c-0.418-0.123-0.857-0.191-1.313-0.199c-0.276,0-0.5-0.227-0.5-0.5
				c0-0.02,0-0.029,0.002-0.043c0.022-0.152,0.032-0.304,0.032-0.46c0-0.356-0.061-0.697-0.167-1.016l0,0
				c-0.07-0.198-0.256-0.338-0.476-0.338l0,0c-0.078,0-0.154,0-0.232,0c-0.889,0-1.751,0.079-2.595,0.235
				c-0.229,0.047-0.402,0.254-0.402,0.493v7.002c0,0.239,0.174,0.446,0.402,0.493c0.841,0.156,1.706,0.234,2.595,0.234
				c0.888,0,1.756-0.078,2.595-0.234c0.23-0.047,0.404-0.254,0.404-0.493v-4.702
				C-3217.501,282.077-3217.645,281.888-3217.846,281.826z"/>
		</g>
	</g>
	<rect x="-3154" y="166" clip-path="url(#SVGID_10_)" fill="#E6F7FE" width="1" height="148"/>
</g>
<g>
	<path fill="#FFFFFF" d="M226.89,118.068v47.48l-0.021,0.014c-0.011,2.053-1.054,4.031-2.949,5.121
		c-1.801,1.043-3.909,1.025-5.64,0.156l-0.011,0.008l-26.97-15.58v-26.982l26.632-15.299c0.016-0.018,0.05-0.044,0.07-0.053
		c0.026-0.024,0.059-0.024,0.079-0.038l0.188-0.104l0.021,0.014c2.792-1.42,6.232-0.449,7.812,2.303
		c0.54,0.93,0.776,1.947,0.776,2.947L226.89,118.068z M179.432,163.931c0.011,0.246,0.042,0.502,0.042,0.762
		s-0.031,0.512-0.042,0.762c-0.347,6.32-4.903,11.502-10.923,12.771c-0.144,0.035-0.299,0.062-0.438,0.086
		c-11.816,1.975-23.952,3.023-36.316,3.049h-1.004c-13.114-0.018-25.953-1.195-38.442-3.394c-0.229-0.035-0.465-0.078-0.688-0.122
		c-4.365-0.932-7.954-3.922-9.732-7.9c-0.235-0.55-0.443-1.111-0.615-1.688c-2.942-8.264-4.533-17.165-4.533-26.438
		c0-9.454,1.654-18.51,4.705-26.917c0.127-0.359,0.261-0.725,0.405-1.084c1.693-3.939,5.154-6.916,9.385-7.965
		c0.679-0.172,1.367-0.293,2.082-0.354c12.168-2.086,24.673-3.204,37.434-3.229h1.004c12.296,0.035,24.372,1.078,36.135,3.03
		c0.213,0.039,0.433,0.079,0.656,0.117c6.035,1.29,10.587,6.532,10.886,12.874c0.011,0.221,0.031,0.429,0.031,0.654
		c0,0.207-0.021,0.429-0.031,0.642V163.931z M88.586,142.19c0,7.783,5.447,14.497,12.718,16.14
		c8.604,2.015,17.584,3.462,26.799,3.462h0.011c9.207,0,18.192-1.447,26.786-3.462c7.286-1.643,12.724-8.551,12.724-16.335
		c0-9.026-7.317-16.355-16.352-16.355c-9.032,0-16.354,7.329-16.354,16.355c0,3.342,1.009,6.455,2.734,9.044
		c-3.141,0.302-6.334,0.479-9.549,0.479c-3.222,0-6.399-0.178-9.54-0.479c1.73-2.589,2.734-5.702,2.734-9.044
		c0-9.026-7.317-16.355-16.354-16.355C95.915,125.64,88.586,133.159,88.586,142.19z M151.271,148.805
		c3.762,0,6.801-3.044,6.801-6.81c0-3.767-3.039-6.818-6.801-6.818c-3.765,0-6.814,3.052-6.814,6.818
		C144.457,145.761,147.507,148.805,151.271,148.805z M104.942,148.805c3.76,0,6.819-3.044,6.819-6.81
		c0-3.767-3.06-6.818-6.819-6.818c-3.768,0-6.812,3.052-6.812,6.818C98.131,145.761,101.175,148.805,104.942,148.805z"/>
</g>
</svg>
