<?xml version="1.0" encoding="utf-8"?>
<!-- Generator: Adobe Illustrator 16.0.0, SVG Export Plug-In . SVG Version: 6.00 Build 0)  -->
<!DOCTYPE svg PUBLIC "-//W3C//DTD SVG 1.1//EN" "http://www.w3.org/Graphics/SVG/1.1/DTD/svg11.dtd">
<svg version="1.1" id="mic_x5F_icon_x5F_rest" xmlns="http://www.w3.org/2000/svg" xmlns:xlink="http://www.w3.org/1999/xlink"
	 x="0px" y="0px" width="35px" height="35px" viewBox="0 0 35 35" enable-background="new 0 0 35 35" xml:space="preserve">
<g id="mic">
	<g>
		<path fill-rule="evenodd" clip-rule="evenodd" fill="#FFFFFF" d="M13.877,8.981c0-1.501,1.538-2.957,3.131-2.957h0.866
			c1.594,0,3.132,1.456,3.132,2.957v8.731c0,1.501-1.538,2.958-3.132,2.958h-0.866c-1.593,0-3.131-1.457-3.131-2.958V8.981z"/>
	</g>
	<g>
		<rect x="16.309" y="22.051" fill-rule="evenodd" clip-rule="evenodd" fill="#FFFFFF" width="2.266" height="4.771"/>
		<rect x="12.579" y="26.822" fill-rule="evenodd" clip-rule="evenodd" fill="#FFFFFF" width="9.727" height="2.229"/>
	</g>
	<g>
		<defs>
			<rect id="SVGID_1_" x="5.551" y="15.981" width="22.15" height="10.739"/>
		</defs>
		<clipPath id="SVGID_2_">
			<use xlink:href="#SVGID_1_"  overflow="visible"/>
		</clipPath>
		
			<path clip-path="url(#SVGID_2_)" fill-rule="evenodd" clip-rule="evenodd" fill="none" stroke="#FFFFFF" stroke-width="1.8421" stroke-linecap="round" stroke-linejoin="round" stroke-miterlimit="10" d="
			M23.889,16.156c0,3.5-2.883,6.327-6.447,6.327s-6.447-2.827-6.447-6.327s2.883-6.337,6.447-6.337S23.889,12.656,23.889,16.156z"/>
	</g>
</g>
<g id="circle_1_">
	<path fill="#FFFFFF" d="M17.5,2C26.046,2,33,8.953,33,17.5S26.046,33,17.5,33C8.953,33,2,26.047,2,17.5S8.953,2,17.5,2 M17.5,0
		C7.831,0,0,7.83,0,17.5C0,27.169,7.831,35,17.5,35c9.67,0,17.5-7.831,17.5-17.5C35,7.83,27.169,0,17.5,0L17.5,0z"/>
</g>
</svg>
