<?xml version="1.0" encoding="utf-8"?>
<!-- Generator: Adobe Illustrator 16.0.0, SVG Export Plug-In . SVG Version: 6.00 Build 0)  -->
<!DOCTYPE svg PUBLIC "-//W3C//DTD SVG 1.1//EN" "http://www.w3.org/Graphics/SVG/1.1/DTD/svg11.dtd">
<svg version="1.1" id="mic_x5F_icon_x5F_disabled" xmlns="http://www.w3.org/2000/svg" xmlns:xlink="http://www.w3.org/1999/xlink"
	 x="0px" y="0px" width="35px" height="35px" viewBox="0 0 35 35" enable-background="new 0 0 35 35" xml:space="preserve">
<g id="mic_x5F_grey">
	<g>
		<path fill-rule="evenodd" clip-rule="evenodd" fill="#A6A6A6" d="M13.877,8.981c0-1.501,1.538-2.957,3.131-2.957h0.866
			c1.593,0,3.131,1.456,3.131,2.957v8.732c0,1.501-1.538,2.957-3.131,2.957h-0.866c-1.593,0-3.131-1.456-3.131-2.957V8.981z"/>
	</g>
	<g>
		<rect x="16.309" y="22.051" fill-rule="evenodd" clip-rule="evenodd" fill="#A6A6A6" width="2.266" height="4.771"/>
		<rect x="12.579" y="26.822" fill-rule="evenodd" clip-rule="evenodd" fill="#A6A6A6" width="9.726" height="2.229"/>
	</g>
	<g>
		<defs>
			<rect id="SVGID_1_" x="5.551" y="15.981" width="22.151" height="10.739"/>
		</defs>
		<clipPath id="SVGID_2_">
			<use xlink:href="#SVGID_1_"  overflow="visible"/>
		</clipPath>
		
			<path clip-path="url(#SVGID_2_)" fill-rule="evenodd" clip-rule="evenodd" fill="none" stroke="#A6A6A6" stroke-width="1.8421" stroke-linecap="round" stroke-linejoin="round" stroke-miterlimit="10" d="
			M23.889,16.156c0,3.5-2.883,6.328-6.447,6.328s-6.447-2.828-6.447-6.328s2.883-6.337,6.447-6.337S23.889,12.656,23.889,16.156z"/>
	</g>
</g>
<line id="redslash" fill="none" stroke="#CC0000" stroke-width="2.7632" stroke-miterlimit="10" x1="5.449" y1="29.551" x2="29.551" y2="5.45"/>
<g id="circle_x5F_grey">
	<g>
		<path fill="#A6A6A6" d="M17.5,1.842c8.634,0,15.658,7.024,15.658,15.658S26.134,33.158,17.5,33.158S1.842,26.134,1.842,17.5
			S8.866,1.842,17.5,1.842 M17.5,0C7.83,0,0,7.83,0,17.5S7.83,35,17.5,35S35,27.17,35,17.5S27.17,0,17.5,0L17.5,0z"/>
	</g>
</g>
</svg>
