<?xml version="1.0" encoding="utf-8"?>
<!-- Generator: Adobe Illustrator 16.2.0, SVG Export Plug-In . SVG Version: 6.00 Build 0)  -->
<!DOCTYPE svg PUBLIC "-//W3C//DTD SVG 1.0//EN" "http://www.w3.org/TR/2001/REC-SVG-20010904/DTD/svg10.dtd">
<svg version="1.0" id="bgNote_x5F_485x272" xmlns="http://www.w3.org/2000/svg" xmlns:xlink="http://www.w3.org/1999/xlink" x="0px"
	 y="0px" width="485px" height="272px" viewBox="0 0 485 272" enable-background="new 0 0 485 272" xml:space="preserve">
<path id="audio_x5F_bgNote_x5F_icon" opacity="0.3" fill="#FFFFFF" d="M259.894,103.543c-5.152-5.554-8.299-9.525-10.209-13.022
	c-1.243-2.271-2.995-5.684-6.221-5.684c-3.847,0-4.011,4.017-4.011,6.079v68.322c-2.372-1.294-5.086-2.03-7.972-2.03
	c-9.272,0-16.797,7.587-16.797,16.933c0,9.327,7.525,16.915,16.797,16.915c9.266,0,16.781-7.588,16.781-16.915h0.011v-52.929v-8.871
	c0-3.464,1.854-4.769,4.215-4.769c4.209,0,8.739,6.316,12.022,13.65c2.13,4.779,2.356,10.029,2.356,15.3
	c0,1.08,0.875,1.965,1.949,1.965s1.707-0.903,1.943-1.965c0.21-0.876,0.424-3.723,0.424-8.48
	C271.183,117.911,265.533,109.605,259.894,103.543z"/>
</svg>