<?xml version="1.0" encoding="utf-8"?>
<!-- Generator: Adobe Illustrator 16.2.0, SVG Export Plug-In . SVG Version: 6.00 Build 0)  -->
<!DOCTYPE svg PUBLIC "-//W3C//DTD SVG 1.1//EN" "http://www.w3.org/Graphics/SVG/1.1/DTD/svg11.dtd" [
	<!ENTITY ns_flows "http://ns.adobe.com/Flows/1.0/">
	<!ENTITY ns_extend "http://ns.adobe.com/Extensibility/1.0/">
	<!ENTITY ns_ai "http://ns.adobe.com/AdobeIllustrator/10.0/">
	<!ENTITY ns_graphs "http://ns.adobe.com/Graphs/1.0/">
]>
<svg version="1.1" id="audio_x5F_muted_x5F_icon" xmlns:x="&ns_extend;" xmlns:i="&ns_ai;" xmlns:graph="&ns_graphs;"
	 xmlns="http://www.w3.org/2000/svg" xmlns:xlink="http://www.w3.org/1999/xlink" xmlns:a="http://ns.adobe.com/AdobeSVGViewerExtensions/3.0/"
	 x="0px" y="0px" width="16px" height="16px" viewBox="0 0 16 16" enable-background="new 0 0 16 16" xml:space="preserve">
<g>
	<path fill-rule="evenodd" clip-rule="evenodd" fill="#333333" d="M12.253,7.634L10,10.088l0.747,0.823L13,8.457l2.213,2.423
		L16,10.088l-2.24-2.454L16,5.181l-0.76-0.823L13,6.812l-2.253-2.454L10,5.181L12.253,7.634z M4,5.105v5.79l0.013,0.016L8.667,16V0
		L4.013,5.074L4,5.105z M2.68,4.374L2.667,4.358h-2.64C0,4.358,0,4.374,0,4.374v7.253c0,0.016,0.013,0.016,0.027,0.016h2.64
		l0.013-0.016V4.374z"/>
</g>
</svg>
