<?xml version="1.0" encoding="utf-8"?>
<!-- Generator: Adobe Illustrator 16.2.0, SVG Export Plug-In . SVG Version: 6.00 Build 0)  -->
<!DOCTYPE svg PUBLIC "-//W3C//DTD SVG 1.1//EN" "http://www.w3.org/Graphics/SVG/1.1/DTD/svg11.dtd">
<svg version="1.1" id="icon_x5F_40x40" xmlns="http://www.w3.org/2000/svg" xmlns:xlink="http://www.w3.org/1999/xlink" x="0px"
	 y="0px" width="20px" height="20px" viewBox="0 0 20 20" enable-background="new 0 0 20 20" xml:space="preserve">
<g>
	<polygon id="add_1_" fill="#FFFFFF" points="14.353,9.067 10.932,9.067 10.932,5.647 9.067,5.647 9.067,9.067 5.647,9.067 
		5.647,10.938 9.067,10.938 9.067,14.353 10.932,14.353 10.932,10.938 14.353,10.938 	"/>
	<g>
		<path fill="#FFFFFF" d="M10,2c4.411,0,8,3.589,8,8s-3.589,8-8,8s-8-3.589-8-8S5.589,2,10,2 M10,0C4.477,0,0,4.477,0,10
			s4.477,10,10,10c5.522,0,10-4.477,10-10S15.522,0,10,0L10,0z"/>
	</g>
</g>
</svg>
