<?xml version="1.0" encoding="utf-8"?>
<!-- Generator: Adobe Illustrator 16.2.0, SVG Export Plug-In . SVG Version: 6.00 Build 0)  -->
<!DOCTYPE svg PUBLIC "-//W3C//DTD SVG 1.0//EN" "http://www.w3.org/TR/2001/REC-SVG-20010904/DTD/svg10.dtd">
<svg version="1.0" id="shelladdvisualicon_x5F_rest"
	 xmlns="http://www.w3.org/2000/svg" xmlns:xlink="http://www.w3.org/1999/xlink" x="0px" y="0px" width="47.65px" height="47.65px"
	 viewBox="0 0 47.65 47.65" enable-background="new 0 0 47.65 47.65" xml:space="preserve">
<path id="fill_2_" fill="#2A2A2A" fill-opacity="0.3" d="M23.931,3.246c11.35,0,20.59,9.23,20.59,20.58s-9.24,20.58-20.59,20.58
	c-11.343,0-20.58-9.229-20.58-20.58S12.591,3.246,23.931,3.246z"/>
<path id="circle" fill="#FFFFFF" d="M23.931,0.306c-12.99,0-23.521,10.527-23.521,23.52s10.53,23.521,23.521,23.521
	c12.987,0,23.527-10.53,23.527-23.521S36.921,0.306,23.931,0.306z M23.931,3.246c11.35,0,20.59,9.23,20.59,20.58
	s-9.24,20.58-20.59,20.58c-11.343,0-20.58-9.229-20.58-20.58S12.591,3.246,23.931,3.246z"/>
<polygon id="plus_1_" fill="#FFFFFF" points="33.831,21.796 26.021,21.796 26.021,13.986 21.751,13.986 21.751,21.796 
	13.931,21.796 13.931,26.066 21.751,26.066 21.751,33.885 26.021,33.885 26.021,26.066 33.831,26.066 "/>
</svg>

