<?xml version="1.0" encoding="utf-8"?>
<!-- Generator: Adobe Illustrator 16.2.0, SVG Export Plug-In . SVG Version: 6.00 Build 0)  -->
<!DOCTYPE svg PUBLIC "-//W3C//DTD SVG 1.1//EN" "http://www.w3.org/Graphics/SVG/1.1/DTD/svg11.dtd" [
	<!ENTITY ns_flows "http://ns.adobe.com/Flows/1.0/">
	<!ENTITY ns_extend "http://ns.adobe.com/Extensibility/1.0/">
	<!ENTITY ns_ai "http://ns.adobe.com/AdobeIllustrator/10.0/">
	<!ENTITY ns_graphs "http://ns.adobe.com/Graphs/1.0/">
]>
<svg version="1.1" xmlns:x="&ns_extend;" xmlns:i="&ns_ai;" xmlns:graph="&ns_graphs;"
	 xmlns="http://www.w3.org/2000/svg" xmlns:xlink="http://www.w3.org/1999/xlink" xmlns:a="http://ns.adobe.com/AdobeSVGViewerExtensions/3.0/"
	 x="0px" y="0px" width="35px" height="35px" viewBox="0 0 35 35" enable-background="new 0 0 35 35" xml:space="preserve">
<g id="Layer_2" display="none">
	
		<rect x="-1.084" y="-1.39" display="inline" fill-rule="evenodd" clip-rule="evenodd" fill="#000000" width="36.978" height="38.931"/>
</g>
<g id="Filled" display="none">
	<path display="inline" fill-rule="evenodd" clip-rule="evenodd" fill="#000000" d="M0.62,22.13c0.43,1.478,1.018,2.88,1.798,4.168
		c0.764,1.288,1.687,2.466,2.752,3.53c1.051,1.052,2.244,1.959,3.532,2.754c1.289,0.748,2.688,1.352,4.168,1.798
		C14.366,34.777,15.909,35,17.5,35s3.102-0.223,4.597-0.62c1.464-0.446,2.863-1.05,4.153-1.766c1.289-0.766,2.483-1.688,3.548-2.736
		c1.082-1.099,1.989-2.259,2.767-3.55c0.766-1.302,1.369-2.686,1.783-4.184C34.777,20.651,35,19.122,35,17.531
		c0-1.59-0.223-3.117-0.652-4.613c-0.414-1.479-1.018-2.879-1.783-4.168c-0.777-1.289-1.685-2.466-2.767-3.548
		c-1.064-1.082-2.259-1.989-3.548-2.769c-1.29-0.764-2.688-1.367-4.153-1.781C20.602,0.223,19.091,0,17.5,0s-3.134,0.223-4.63,0.652
		C11.391,1.066,9.991,1.67,8.702,2.418C7.414,3.182,6.221,4.105,5.17,5.17C4.105,6.236,3.182,7.429,2.418,8.718
		c-0.78,1.304-1.368,2.688-1.798,4.185C0.207,14.396,0,15.941,0,17.531C0,19.122,0.207,20.651,0.62,22.13z M13.971,11h4.468
		l-4.719,4.813h13.535v3.362H13.719L18.438,24h-4.468l-6.225-6.474v-0.065L13.971,11z"/>
</g>
<g id="Outline">
	<polygon fill-rule="evenodd" clip-rule="evenodd" fill="#000000" points="13.971,11 18.438,11 13.719,15.813 27.254,15.813 
		27.254,19.175 13.719,19.175 18.438,24 13.971,24 7.746,17.526 7.746,17.461 	"/>
	<path fill="#FFFFFF" d="M17.5,2C26.047,2,33,8.953,33,17.5S26.047,33,17.5,33S2,26.047,2,17.5S8.953,2,17.5,2 M17.5,0
		C7.834,0,0,7.834,0,17.5C0,27.164,7.834,35,17.5,35S35,27.164,35,17.5C35,7.834,27.166,0,17.5,0L17.5,0z"/>
</g>
</svg>
