<?xml version="1.0" encoding="utf-8"?>
<!-- Generator: Adobe Illustrator 16.0.0, SVG Export Plug-In . SVG Version: 6.00 Build 0)  -->
<!DOCTYPE svg PUBLIC "-//W3C//DTD SVG 1.1//EN" "http://www.w3.org/Graphics/SVG/1.1/DTD/svg11.dtd" [
	<!ENTITY ns_flows "http://ns.adobe.com/Flows/1.0/">
	<!ENTITY ns_extend "http://ns.adobe.com/Extensibility/1.0/">
	<!ENTITY ns_ai "http://ns.adobe.com/AdobeIllustrator/10.0/">
	<!ENTITY ns_graphs "http://ns.adobe.com/Graphs/1.0/">
]>
<svg version="1.1" xmlns:x="&ns_extend;" xmlns:i="&ns_ai;" xmlns:graph="&ns_graphs;"
	 xmlns="http://www.w3.org/2000/svg" xmlns:xlink="http://www.w3.org/1999/xlink" xmlns:a="http://ns.adobe.com/AdobeSVGViewerExtensions/3.0/"
	 x="0px" y="0px" width="47.65px" height="47.65px" viewBox="0 0 47.65 47.65" enable-background="new 0 0 47.65 47.65"
	 xml:space="preserve">
<g id="Layer_1">
	<path id="circlebgtransparent" opacity="0" d="M23.931,3.246c11.35,0,20.59,9.23,20.59,20.58s-9.24,20.58-20.59,20.58
		c-11.34,0-20.58-9.229-20.58-20.58S12.591,3.246,23.931,3.246z"/>
	<path id="circleborder" fill-rule="evenodd" clip-rule="evenodd" d="M23.931,0.306c-12.99,0-23.52,10.53-23.52,23.52
		s10.53,23.52,23.52,23.52s23.53-10.53,23.53-23.52S36.921,0.306,23.931,0.306z M23.931,3.246c11.35,0,20.59,9.23,20.59,20.58
		s-9.24,20.58-20.59,20.58c-11.34,0-20.58-9.229-20.58-20.58S12.591,3.246,23.931,3.246z"/>
</g>
<g id="Layer_3">
	<polygon id="arrow" stroke="#000000" stroke-miterlimit="10" points="19.634,21.548 26.859,14.73 20.983,14.73 11.314,23.853 
		20.941,32.933 26.815,32.933 19.634,26.157 35.931,26.157 35.931,21.548 	"/>
</g>
</svg>
