<?xml version="1.0" encoding="utf-8"?>
<!-- Generator: Adobe Illustrator 16.2.0, SVG Export Plug-In . SVG Version: 6.00 Build 0)  -->
<!DOCTYPE svg PUBLIC "-//W3C//DTD SVG 1.1//EN" "http://www.w3.org/Graphics/SVG/1.1/DTD/svg11.dtd">
<svg version="1.1" id="hidden_x5F_icon" xmlns="http://www.w3.org/2000/svg" xmlns:xlink="http://www.w3.org/1999/xlink" x="0px"
	 y="0px" width="21px" height="15px" viewBox="0 0 21 15" enable-background="new 0 0 21 15" xml:space="preserve">
<path fill="#FFFFFF" d="M10.506,0C17.186,0,21,7.506,21,7.506S17.186,15,10.506,15S0,7.506,0,7.506S3.827,0,10.506,0z M10.506,2.133
	c-2.946,0-5.333,2.4-5.333,5.373c0,2.96,2.387,5.374,5.333,5.374c2.947,0,5.32-2.414,5.32-5.374
	C15.827,4.533,13.453,2.133,10.506,2.133z M13.68,7.506c0,1.762-1.426,3.2-3.173,3.2c-1.76,0-3.173-1.438-3.173-3.2
	c0-1.773,1.413-3.2,3.173-3.2C12.253,4.307,13.68,5.733,13.68,7.506z"/>
<rect x="-2.548" y="6.015" transform="matrix(-0.8157 0.5784 -0.5784 -0.8157 23.5326 7.6314)" fill="#FFFFFF" width="26.199" height="3.097"/>
</svg>
