<?xml version="1.0" encoding="utf-8"?>
<!-- Generator: Adobe Illustrator 16.2.0, SVG Export Plug-In . SVG Version: 6.00 Build 0)  -->
<!DOCTYPE svg PUBLIC "-//W3C//DTD SVG 1.0//EN" "http://www.w3.org/TR/2001/REC-SVG-20010904/DTD/svg10.dtd">
<svg version="1.0" id="icon" xmlns="http://www.w3.org/2000/svg" xmlns:xlink="http://www.w3.org/1999/xlink" x="0px" y="0px"
	 width="17px" height="15px" viewBox="0 0 17 15" enable-background="new 0 0 17 15" xml:space="preserve">
<g id="UN_x5F_checkmark_x5F_">
	<path opacity="0.4" fill="#FFFFFF" d="M0.668,7.921L0.108,7.311c-0.151-0.164-0.143-0.417,0.02-0.568l1.634-1.515
		c0.073-0.069,0.171-0.106,0.272-0.106c0.112,0,0.218,0.044,0.293,0.125l4.482,4.828l7.714-9.92C14.601,0.056,14.715,0,14.839,0
		c0.091,0,0.175,0.031,0.248,0.085l1.758,1.367c0.088,0.064,0.139,0.161,0.153,0.267c0.012,0.106-0.017,0.212-0.081,0.295
		L7.011,14.748L0.668,7.921z"/>
</g>
</svg>
