<?xml version="1.0" encoding="utf-8"?>
<!-- Generator: Adobe Illustrator 16.0.0, SVG Export Plug-In . SVG Version: 6.00 Build 0)  -->
<!DOCTYPE svg PUBLIC "-//W3C//DTD SVG 1.1//EN" "http://www.w3.org/Graphics/SVG/1.1/DTD/svg11.dtd">
<svg version="1.1" id="pause_x5F_icon" xmlns="http://www.w3.org/2000/svg" xmlns:xlink="http://www.w3.org/1999/xlink" x="0px"
	 y="0px" width="16px" height="16px" viewBox="0 0 16 16" enable-background="new 0 0 16 16" xml:space="preserve">
<path id="right" fill="#FFFFFF" d="M13,1.027c0-0.134-0.041-0.267-0.072-0.4c-0.041-0.121-0.113-0.24-0.184-0.32
	c-0.072-0.093-0.165-0.146-0.268-0.213C12.363,0.04,12.271,0,12.169,0h-1.671c-0.124,0-0.236,0.04-0.328,0.093
	c-0.104,0.067-0.195,0.12-0.268,0.213c-0.072,0.08-0.145,0.2-0.186,0.32c-0.031,0.133-0.051,0.266-0.051,0.4V15
	c0,0.133,0.021,0.268,0.051,0.387c0.041,0.135,0.113,0.24,0.186,0.334c0.072,0.079,0.164,0.174,0.268,0.213
	C10.262,15.973,10.374,16,10.498,16h1.671c0.103,0,0.194-0.027,0.308-0.066c0.104-0.039,0.195-0.134,0.269-0.213
	c0.069-0.094,0.144-0.199,0.185-0.334C12.959,15.268,13,15.133,13,15V1.027z"/>
<path id="left" fill="#FFFFFF" d="M6.333,1.027c0-0.134-0.041-0.267-0.072-0.4c-0.041-0.121-0.113-0.24-0.185-0.32
	C6.005,0.213,5.913,0.16,5.811,0.093C5.697,0.04,5.605,0,5.502,0H3.831C3.708,0,3.595,0.04,3.503,0.093
	C3.4,0.16,3.308,0.213,3.236,0.307c-0.072,0.08-0.144,0.2-0.185,0.32C3.021,0.76,3,0.893,3,1.027V15
	c0,0.133,0.021,0.268,0.051,0.387c0.041,0.135,0.113,0.24,0.185,0.334C3.308,15.8,3.4,15.895,3.503,15.934
	C3.595,15.973,3.708,16,3.831,16h1.671c0.103,0,0.195-0.027,0.308-0.066c0.102-0.039,0.195-0.134,0.267-0.213
	c0.071-0.094,0.144-0.199,0.185-0.334c0.03-0.119,0.071-0.254,0.071-0.387V1.027z"/>
</svg>
