<?xml version="1.0" encoding="utf-8"?>
<!-- Generator: Adobe Illustrator 16.2.0, SVG Export Plug-In . SVG Version: 6.00 Build 0)  -->
<!DOCTYPE svg PUBLIC "-//W3C//DTD SVG 1.1//EN" "http://www.w3.org/Graphics/SVG/1.1/DTD/svg11.dtd">
<svg version="1.1" id="browse_x5F_icon" xmlns="http://www.w3.org/2000/svg" xmlns:xlink="http://www.w3.org/1999/xlink" x="0px"
	 y="0px" width="40px" height="40px" viewBox="0 0 40 40" enable-background="new 0 0 40 40" xml:space="preserve">
<path id="bkgfillborder_2_" fill-opacity="0" d="M21.5,4.237c-9.517,0-17.259,7.744-17.259,17.263
	c0,9.52,7.742,17.264,17.259,17.264c9.518,0,17.259-7.744,17.259-17.264C38.759,11.981,31.018,4.237,21.5,4.237z"/>
<circle cx="19.938" cy="19.563" r="19.063"/>
<path id="circle_7_" d="M19.996,0.5C9.229,0.5,0.5,9.23,0.5,20c0,10.771,8.729,19.5,19.496,19.5C30.766,39.5,39.5,30.771,39.5,20
	C39.502,9.231,30.766,0.5,19.996,0.5z M19.996,2.938c9.407,0,17.068,7.652,17.068,17.063c0,9.411-7.659,17.063-17.068,17.063
	c-9.4,0-17.059-7.651-17.059-17.062C2.938,10.591,10.597,2.938,19.996,2.938z"/>
<g>
	<g id="filecorner">
		<path fill="#FFFFFF" d="M21.105,10.214c-0.223,0-0.457,0.052-0.666,0.144c-0.652,0.262-1.083,0.9-1.083,1.606v4.985
			c0,0.964,0.782,1.749,1.749,1.749h4.977c0.716,0,1.343-0.431,1.615-1.084c0.275-0.652,0.117-1.396-0.379-1.906l-4.973-4.972
			C22.006,10.396,21.561,10.214,21.105,10.214z M21.105,11.962l4.977,4.986h-4.977V11.962z"/>
	</g>
	<g id="filepage">
		<path fill="#FFFFFF" d="M21.105,10.214h-7.188c-0.966,0-1.749,0.783-1.749,1.749v16.074c0,0.965,0.781,1.752,1.749,1.752h12.165
			c0.965,0,1.746-0.787,1.746-1.752v-11.09c0-0.47-0.184-0.915-0.51-1.24l-4.975-4.972C22.006,10.409,21.561,10.214,21.105,10.214z
			 M21.105,11.962l4.977,4.986v11.089H13.918V11.962H21.105z"/>
	</g>
</g>
</svg>
