<?xml version="1.0" encoding="utf-8"?>
<!-- Generator: Adobe Illustrator 16.2.0, SVG Export Plug-In . SVG Version: 6.00 Build 0)  -->
<!DOCTYPE svg PUBLIC "-//W3C//DTD SVG 1.1//EN" "http://www.w3.org/Graphics/SVG/1.1/DTD/svg11.dtd">
<svg version="1.1" id="browse_x5F_icon" xmlns="http://www.w3.org/2000/svg" xmlns:xlink="http://www.w3.org/1999/xlink" x="0px"
	 y="0px" width="40px" height="40px" viewBox="1.5 1.5 40 40" enable-background="new 1.5 1.5 40 40" xml:space="preserve">
<path id="bkgfillborder_2_" fill-opacity="0" d="M21.5,4.237c-9.517,0-17.259,7.744-17.259,17.263S11.983,38.763,21.5,38.763
	S38.759,31.019,38.759,21.5S31.017,4.237,21.5,4.237z"/>
<path id="circle_7_" d="M21.496,2C10.729,2,2,10.73,2,21.5C2,32.271,10.729,41,21.496,41C32.265,41,41,32.271,41,21.5
	C41.002,10.731,32.265,2,21.496,2z M21.496,4.438c9.408,0,17.068,7.652,17.068,17.063s-7.66,17.062-17.068,17.062
	c-9.4,0-17.059-7.652-17.059-17.062S12.097,4.438,21.496,4.438z"/>
<g>
	<g id="filecorner">
		<path d="M22.578,11.959c-0.216,0-0.445,0.051-0.648,0.14c-0.637,0.255-1.057,0.878-1.057,1.566v4.861
			c0,0.94,0.763,1.705,1.705,1.705h4.852c0.698,0,1.309-0.42,1.575-1.057c0.269-0.636,0.114-1.36-0.369-1.858l-4.849-4.848
			C23.456,12.136,23.022,11.959,22.578,11.959z M22.578,13.663l4.852,4.861h-4.852V13.663z"/>
	</g>
	<g id="filepage">
		<path d="M22.578,11.959h-7.009c-0.942,0-1.705,0.763-1.705,1.705v15.672c0,0.942,0.762,1.708,1.705,1.708h11.86
			c0.942,0,1.704-0.766,1.704-1.708V18.523c0-0.458-0.18-0.892-0.496-1.209l-4.851-4.848C23.456,12.149,23.022,11.959,22.578,11.959
			z M22.578,13.663l4.852,4.861v10.812h-11.86V13.663H22.578z"/>
	</g>
</g>
</svg>