<?xml version="1.0" encoding="utf-8"?>
<!-- Generator: Adobe Illustrator 16.2.0, SVG Export Plug-In . SVG Version: 6.00 Build 0)  -->
<!DOCTYPE svg PUBLIC "-//W3C//DTD SVG 1.1 Tiny//EN" "http://www.w3.org/Graphics/SVG/1.1/DTD/svg11-tiny.dtd" [
	<!ENTITY ns_flows "http://ns.adobe.com/Flows/1.0/">
	<!ENTITY ns_extend "http://ns.adobe.com/Extensibility/1.0/">
	<!ENTITY ns_ai "http://ns.adobe.com/AdobeIllustrator/10.0/">
	<!ENTITY ns_graphs "http://ns.adobe.com/Graphs/1.0/">
]>
<svg version="1.1" baseProfile="tiny" id="design" xmlns:x="&ns_extend;" xmlns:i="&ns_ai;" xmlns:graph="&ns_graphs;"
	 xmlns="http://www.w3.org/2000/svg" xmlns:xlink="http://www.w3.org/1999/xlink" xmlns:a="http://ns.adobe.com/AdobeSVGViewerExtensions/3.0/"
	 x="0px" y="0px" width="36px" height="36px" viewBox="0 0 36 36" overflow="scroll" xml:space="preserve">
<g>
	<path fill-rule="evenodd" fill="#7C017C" d="M18,33.5C9.453,33.5,2.5,26.547,2.5,18S9.453,2.5,18,2.5S33.5,9.453,33.5,18
		S26.547,33.5,18,33.5z"/>
	<path fill="#7C017C" d="M18,3.5c7.995,0,14.5,6.505,14.5,14.5S25.995,32.5,18,32.5S3.5,25.995,3.5,18S10.005,3.5,18,3.5 M18,1.5
		C8.888,1.5,1.5,8.887,1.5,18c0,9.113,7.388,16.5,16.5,16.5c9.111,0,16.5-7.387,16.5-16.5C34.5,8.887,27.111,1.5,18,1.5L18,1.5z"/>
</g>
<g>
	
		<rect id="body" x="14.747" y="12.4" transform="matrix(0.7073 0.7069 -0.7069 0.7073 18.4045 -6.4654)" fill-rule="evenodd" fill="#FFFFFF" width="4.525" height="13.182"/>
	
		<rect id="eraser" x="21.315" y="11.258" transform="matrix(0.7071 0.7071 -0.7071 0.7071 15.6895 -13.0336)" fill-rule="evenodd" fill="#FFFFFF" width="4.526" height="2.328"/>
	<polygon id="tip" fill-rule="evenodd" fill="#FFFFFF" points="12.532,26.001 10,26.001 10,23.469 	"/>
</g>
</svg>
