<?xml version="1.0" encoding="utf-8"?>
<!-- Generator: Adobe Illustrator 16.2.0, SVG Export Plug-In . SVG Version: 6.00 Build 0)  -->
<!DOCTYPE svg PUBLIC "-//W3C//DTD SVG 1.1//EN" "http://www.w3.org/Graphics/SVG/1.1/DTD/svg11.dtd" [
	<!ENTITY ns_flows "http://ns.adobe.com/Flows/1.0/">
	<!ENTITY ns_extend "http://ns.adobe.com/Extensibility/1.0/">
	<!ENTITY ns_ai "http://ns.adobe.com/AdobeIllustrator/10.0/">
	<!ENTITY ns_graphs "http://ns.adobe.com/Graphs/1.0/">
]>
<svg version="1.1" xmlns:x="&ns_extend;" xmlns:i="&ns_ai;" xmlns:graph="&ns_graphs;"
	 xmlns="http://www.w3.org/2000/svg" xmlns:xlink="http://www.w3.org/1999/xlink" xmlns:a="http://ns.adobe.com/AdobeSVGViewerExtensions/3.0/"
	 x="0px" y="0px" width="20px" height="20px" viewBox="0 0 20 20" enable-background="new 0 0 20 20" xml:space="preserve">
<g id="Layer_2" display="none">
	<rect x="-1" y="-1" display="inline" fill="#E01717" width="42" height="42"/>
</g>
<g id="Layer_1">
	<rect fill="#FFFFFF" width="1" height="19"/>
	<rect y="19" fill="#FFFFFF" width="20" height="1"/>
	<line fill="none" stroke="#FFFFFF" stroke-miterlimit="10" x1="0.5" y1="12.991" x2="6.5" y2="7.491"/>
	<line fill="none" stroke="#FFFFFF" stroke-miterlimit="10" x1="11" y1="14" x2="18" y2="6"/>
	<line fill="none" stroke="#FFFFFF" stroke-miterlimit="10" x1="0.5" y1="19.491" x2="12.5" y2="6.491"/>
	<line fill="none" stroke="#FFFFFF" stroke-miterlimit="10" x1="12.5" y1="6.491" x2="18" y2="12"/>
	<line fill="none" stroke="#FFFFFF" stroke-miterlimit="10" x1="6" y1="8" x2="11" y2="13"/>
	<path fill="#FFFFFF" d="M7,7.5C7,8.328,6.328,9,5.5,9l0,0C4.672,9,4,8.328,4,7.5l0,0C4,6.672,4.672,6,5.5,6l0,0
		C6.328,6,7,6.672,7,7.5L7,7.5z"/>
	<path fill="#FFFFFF" d="M13,13.5c0,0.828-0.672,1.5-1.5,1.5l0,0c-0.828,0-1.5-0.672-1.5-1.5l0,0c0-0.828,0.672-1.5,1.5-1.5l0,0
		C12.328,12,13,12.672,13,13.5L13,13.5z"/>
	<path fill="#FFFFFF" d="M19,12.5c0,0.828-0.672,1.5-1.5,1.5l0,0c-0.828,0-1.5-0.672-1.5-1.5l0,0c0-0.828,0.672-1.5,1.5-1.5l0,0
		C18.328,11,19,11.672,19,12.5L19,12.5z"/>
	<path fill="#FFFFFF" d="M19,5.5C19,6.328,18.328,7,17.5,7l0,0C16.672,7,16,6.328,16,5.5l0,0C16,4.672,16.672,4,17.5,4l0,0
		C18.328,4,19,4.672,19,5.5L19,5.5z"/>
	<path fill="#FFFFFF" d="M14,5.5C14,6.328,13.328,7,12.5,7l0,0C11.672,7,11,6.328,11,5.5l0,0C11,4.672,11.672,4,12.5,4l0,0
		C13.328,4,14,4.672,14,5.5L14,5.5z"/>
</g>
</svg>
