<?xml version="1.0" encoding="utf-8"?>
<!-- Generator: Adobe Illustrator 16.2.0, SVG Export Plug-In . SVG Version: 6.00 Build 0)  -->
<!DOCTYPE svg PUBLIC "-//W3C//DTD SVG 1.1//EN" "http://www.w3.org/Graphics/SVG/1.1/DTD/svg11.dtd">
<svg version="1.1" id="icon_x5F_black" xmlns="http://www.w3.org/2000/svg" xmlns:xlink="http://www.w3.org/1999/xlink" x="0px"
	 y="0px" width="20px" height="20px" viewBox="0 0 20 20" enable-background="new 0 0 20 20" xml:space="preserve">
<g id="design">
	
		<rect id="body" x="11.561" y="3.633" transform="matrix(-0.7073 -0.7069 0.7069 -0.7073 16.5714 24.0154)" fill="#FFFFFF" width="3.394" height="9.887"/>
	
		<rect id="eraser" x="16.485" y="2.777" transform="matrix(-0.7072 -0.707 0.707 -0.7072 28.4607 19.0884)" fill="#FFFFFF" width="3.396" height="1.748"/>
	<polygon id="tip" fill="#FFFFFF" points="9.898,13.834 8,13.834 8,11.936 	"/>
</g>
<g id="file">
	<path fill="#FFFFFF" d="M12.172,16.83H1.67V3.494h5.501v5.003h5L12.172,16.83L12.172,16.83z M8.841,3.494
		c0.192,0,0.375,0.027,0.532,0.079c0.158,0.053,0.28,0.104,0.394,0.167c0.122,0.078,0.228,0.156,0.315,0.244l1.679,1.591
		l0.191,0.324c0.044,0.104,0.097,0.236,0.141,0.394c0.044,0.148,0.078,0.34,0.078,0.534h-3.33V3.494z M9.873,2.183
		C9.671,2.069,9.461,1.981,9.251,1.93c-0.201-0.044-0.41-0.079-0.62-0.088l-0.62-0.009H0.84c-0.236,0-0.438,0.088-0.595,0.236
		C0.079,2.235,0,2.437,0,2.664v15.005c0,0.104,0.026,0.21,0.07,0.313c0.043,0.098,0.096,0.193,0.175,0.281
		c0.07,0.062,0.157,0.131,0.271,0.166c0.096,0.051,0.201,0.069,0.324,0.069h12.172c0.113,0,0.211-0.019,0.307-0.069
		c0.104-0.035,0.191-0.104,0.271-0.166c0.079-0.088,0.142-0.185,0.177-0.281c0.043-0.104,0.068-0.209,0.068-0.313V7.657
		l-0.009-0.612c-0.017-0.21-0.043-0.412-0.087-0.621c-0.053-0.21-0.149-0.42-0.254-0.63c-0.114-0.201-0.271-0.411-0.473-0.629
		c-0.42-0.42-0.84-0.84-1.25-1.259l-1.26-1.242C10.292,2.454,10.083,2.288,9.873,2.183z"/>
</g>
</svg>
