<?xml version="1.0" encoding="utf-8"?>
<!-- Generator: Adobe Illustrator 16.2.0, SVG Export Plug-In . SVG Version: 6.00 Build 0)  -->
<!DOCTYPE svg PUBLIC "-//W3C//DTD SVG 1.1//EN" "http://www.w3.org/Graphics/SVG/1.1/DTD/svg11.dtd" [
	<!ENTITY ns_flows "http://ns.adobe.com/Flows/1.0/">
	<!ENTITY ns_extend "http://ns.adobe.com/Extensibility/1.0/">
	<!ENTITY ns_ai "http://ns.adobe.com/AdobeIllustrator/10.0/">
	<!ENTITY ns_graphs "http://ns.adobe.com/Graphs/1.0/">
]>
<svg version="1.1" id="duration_x5F_icon" xmlns:x="&ns_extend;" xmlns:i="&ns_ai;" xmlns:graph="&ns_graphs;"
	 xmlns="http://www.w3.org/2000/svg" xmlns:xlink="http://www.w3.org/1999/xlink" xmlns:a="http://ns.adobe.com/AdobeSVGViewerExtensions/3.0/"
	 x="0px" y="0px" width="16px" height="16px" viewBox="0 0 16 16" enable-background="new 0 0 16 16" xml:space="preserve">
<g>
	<path fill-rule="evenodd" clip-rule="evenodd" fill="#FFFFFF" d="M8.787,7.533V3.867c0-0.187-0.08-0.347-0.227-0.467
		C8.4,3.267,8.213,3.213,8,3.213c-0.24,0-0.426,0.054-0.574,0.187C7.267,3.52,7.2,3.68,7.2,3.867V8.08
		c0,0.093,0.014,0.146,0.027,0.2C7.253,8.373,7.293,8.467,7.36,8.533C7.4,8.613,7.48,8.667,7.574,8.72l3.772,1.88
		c0.094,0.04,0.187,0.066,0.281,0.066c0.12,0,0.253-0.04,0.373-0.133c0.133-0.08,0.227-0.2,0.307-0.346
		c0.066-0.134,0.107-0.28,0.107-0.427c0-0.12-0.041-0.227-0.093-0.333c-0.067-0.106-0.147-0.186-0.254-0.253L8.787,7.533z
		 M6.293,14.16c-0.547-0.147-1.053-0.36-1.52-0.64c-0.48-0.28-0.907-0.613-1.307-1c-0.387-0.387-0.72-0.813-0.987-1.293
		c-0.293-0.467-0.507-0.973-0.653-1.52C1.667,9.16,1.6,8.6,1.6,8c0-0.586,0.066-1.146,0.227-1.693c0.146-0.533,0.36-1.04,0.653-1.52
		c0.267-0.48,0.6-0.906,0.987-1.307c0.4-0.387,0.827-0.72,1.307-1C5.24,2.2,5.747,1.987,6.293,1.84C6.84,1.693,7.4,1.6,8,1.6
		c0.88,0,1.707,0.173,2.48,0.507c0.773,0.333,1.454,0.8,2.04,1.373c0.587,0.586,1.04,1.267,1.373,2.04C14.24,6.293,14.4,7.12,14.4,8
		c0,0.586-0.08,1.16-0.227,1.693c-0.16,0.547-0.373,1.066-0.653,1.533c-0.28,0.48-0.613,0.907-1,1.293c-0.4,0.387-0.84,0.72-1.307,1
		c-0.467,0.28-0.973,0.493-1.52,0.64C9.146,14.32,8.586,14.4,8,14.4C7.4,14.4,6.84,14.32,6.293,14.16z M5.867,0.293
		C5.187,0.48,4.547,0.76,3.96,1.107c-0.587,0.346-1.134,0.76-1.627,1.239C1.854,2.84,1.44,3.387,1.093,3.973
		C0.747,4.56,0.467,5.2,0.28,5.88C0.093,6.56,0,7.267,0,8c0,0.747,0.093,1.453,0.28,2.133c0.187,0.68,0.467,1.32,0.813,1.906
		c0.347,0.601,0.76,1.134,1.24,1.627c0.493,0.48,1.04,0.894,1.627,1.24c0.586,0.333,1.227,0.613,1.906,0.813
		C6.533,15.893,7.253,16,8,16c0.733,0,1.426-0.107,2.107-0.28c0.693-0.2,1.333-0.48,1.92-0.813c0.6-0.347,1.133-0.76,1.627-1.24
		c0.479-0.493,0.893-1.026,1.239-1.627c0.347-0.586,0.627-1.227,0.813-1.906C15.893,9.453,16,8.747,16,8
		c0-0.733-0.107-1.44-0.293-2.12C15.52,5.2,15.24,4.56,14.893,3.973c-0.346-0.586-0.76-1.133-1.239-1.627
		c-0.494-0.479-1.027-0.893-1.627-1.239C11.44,0.76,10.8,0.48,10.107,0.293C9.426,0.107,8.733,0,8,0
		C7.253,0,6.547,0.107,5.867,0.293z"/>
</g>
</svg>
