<?xml version="1.0" encoding="utf-8"?>
<!-- Generator: Adobe Illustrator 16.2.0, SVG Export Plug-In . SVG Version: 6.00 Build 0)  -->
<!DOCTYPE svg PUBLIC "-//W3C//DTD SVG 1.1//EN" "http://www.w3.org/Graphics/SVG/1.1/DTD/svg11.dtd" [
	<!ENTITY ns_flows "http://ns.adobe.com/Flows/1.0/">
	<!ENTITY ns_extend "http://ns.adobe.com/Extensibility/1.0/">
	<!ENTITY ns_ai "http://ns.adobe.com/AdobeIllustrator/10.0/">
	<!ENTITY ns_graphs "http://ns.adobe.com/Graphs/1.0/">
]>
<svg version="1.1" id="minimumicon" xmlns:x="&ns_extend;" xmlns:i="&ns_ai;" xmlns:graph="&ns_graphs;"
	 xmlns="http://www.w3.org/2000/svg" xmlns:xlink="http://www.w3.org/1999/xlink" xmlns:a="http://ns.adobe.com/AdobeSVGViewerExtensions/3.0/"
	 x="0px" y="0px" width="20px" height="7px" viewBox="0 0 20 7" enable-background="new 0 0 20 7" xml:space="preserve">
<g>
	<path fill-rule="evenodd" clip-rule="evenodd" fill="#FFFFFF" d="M9,0H6.32l-1.44,4.146C4.787,4.426,4.693,4.76,4.613,5.16H4.586
		c-0.067-0.347-0.146-0.68-0.253-1L2.893,0H0v7h2V3.12C2,2.613,1.973,2,1.906,1.307h0.053C2.053,1.84,2.133,2.173,2.173,2.293
		L3.867,7H5.16l1.653-4.76C6.879,2.053,6.959,1.747,7.04,1.307H7.08C7.027,1.88,7,2.373,7,2.813V7h2V0z"/>
	<rect x="10" fill-rule="evenodd" clip-rule="evenodd" fill="#FFFFFF" width="1.546" height="7"/>
	<path fill-rule="evenodd" clip-rule="evenodd" fill="#FFFFFF" d="M20,0h-2v3.88c0,0.466,0.013,0.786,0.053,0.946H18.04
		c-0.093-0.187-0.213-0.374-0.319-0.573L15.213,0H13v7h2V3.16c0-0.506-0.014-0.893-0.041-1.147h0.014
		C15.04,2.16,15.146,2.346,15.307,2.6l2.6,4.4H20V0z"/>
</g>
</svg>
