<?xml version="1.0" encoding="utf-8"?>
<!-- Generator: Adobe Illustrator 16.2.0, SVG Export Plug-In . SVG Version: 6.00 Build 0)  -->
<!DOCTYPE svg PUBLIC "-//W3C//DTD SVG 1.1//EN" "http://www.w3.org/Graphics/SVG/1.1/DTD/svg11.dtd" [
	<!ENTITY ns_flows "http://ns.adobe.com/Flows/1.0/">
	<!ENTITY ns_extend "http://ns.adobe.com/Extensibility/1.0/">
	<!ENTITY ns_ai "http://ns.adobe.com/AdobeIllustrator/10.0/">
	<!ENTITY ns_graphs "http://ns.adobe.com/Graphs/1.0/">
]>
<svg version="1.1" id="video_x5F_icon" xmlns:x="&ns_extend;" xmlns:i="&ns_ai;" xmlns:graph="&ns_graphs;"
	 xmlns="http://www.w3.org/2000/svg" xmlns:xlink="http://www.w3.org/1999/xlink" xmlns:a="http://ns.adobe.com/AdobeSVGViewerExtensions/3.0/"
	 x="0px" y="0px" width="16px" height="18px" viewBox="0 0 16 18" enable-background="new 0 0 16 18" xml:space="preserve">
<g>
	<path fill-rule="evenodd" clip-rule="evenodd" fill="#FFFFFF" d="M6.213,4.506v7.187l4.453-3.6L6.213,4.506z M14.146,1.8
		c0.014,0,0.027,0.013,0.053,0.026c0.014,0.027,0.027,0.04,0.027,0.054V14.4H1.76V1.88c0-0.014,0-0.027,0.027-0.054
		C1.813,1.813,1.827,1.8,1.84,1.8H14.146z M0.747,0c-0.227,0-0.4,0.08-0.533,0.227C0.066,0.373,0,0.547,0,0.76v16.48
		c0,0.2,0.066,0.387,0.213,0.533C0.346,17.92,0.52,18,0.747,18h14.507c0.213,0,0.387-0.08,0.52-0.227
		C15.92,17.627,16,17.44,16,17.24V0.76c0-0.213-0.08-0.387-0.227-0.533C15.64,0.08,15.467,0,15.253,0H0.747z"/>
</g>
</svg>
