<?xml version="1.0" encoding="utf-8"?>
<!-- Generator: Adobe Illustrator 16.2.0, SVG Export Plug-In . SVG Version: 6.00 Build 0)  -->
<!DOCTYPE svg PUBLIC "-//W3C//DTD SVG 1.1//EN" "http://www.w3.org/Graphics/SVG/1.1/DTD/svg11.dtd">
<svg version="1.1" id="dataicon" xmlns="http://www.w3.org/2000/svg" xmlns:xlink="http://www.w3.org/1999/xlink" x="0px" y="0px"
	 width="14px" height="20px" viewBox="0 0 14 20" enable-background="new 0 0 14 20" xml:space="preserve">
<path id="cylindertop" fill-rule="evenodd" clip-rule="evenodd" fill="#FFFFFF" d="M6.987,0c3.793,0,6.854,0.968,6.854,2.158
	c0,1.177-3.061,2.146-6.854,2.146c-3.78,0-6.854-0.968-6.854-2.146C0.133,0.968,3.207,0,6.987,0z"/>
<path id="cylinderbottom" fill-rule="evenodd" clip-rule="evenodd" fill="#FFFFFF" d="M0.133,17.854C0.133,19.032,3.207,20,6.987,20
	c3.793,0,6.854-0.968,6.854-2.146l0.026-1.373l-0.026-13.46c0,1.204-3.061,2.172-6.854,2.172c-3.728,0-6.75-0.942-6.842-2.119
	v14.637"/>
</svg>
