<?xml version="1.0" encoding="utf-8"?>
<!-- Generator: Adobe Illustrator 16.2.0, SVG Export Plug-In . SVG Version: 6.00 Build 0)  -->
<!DOCTYPE svg PUBLIC "-//W3C//DTD SVG 1.1//EN" "http://www.w3.org/Graphics/SVG/1.1/DTD/svg11.dtd" [
	<!ENTITY ns_flows "http://ns.adobe.com/Flows/1.0/">
	<!ENTITY ns_extend "http://ns.adobe.com/Extensibility/1.0/">
	<!ENTITY ns_ai "http://ns.adobe.com/AdobeIllustrator/10.0/">
	<!ENTITY ns_graphs "http://ns.adobe.com/Graphs/1.0/">
]>
<svg version="1.1" id="brightnessicon" xmlns:x="&ns_extend;" xmlns:i="&ns_ai;" xmlns:graph="&ns_graphs;"
	 xmlns="http://www.w3.org/2000/svg" xmlns:xlink="http://www.w3.org/1999/xlink" xmlns:a="http://ns.adobe.com/AdobeSVGViewerExtensions/3.0/"
	 x="0px" y="0px" width="20px" height="20px" viewBox="0 0 20 20" enable-background="new 0 0 20 20" xml:space="preserve">
<g>
	<path fill="#FFFFFF" d="M18.929,9h-2.614c0.063,0,0.113,0.633,0.113,0.998c0,0.367-0.05,1.002-0.113,1.002h2.614
		C19.524,11,20,10.59,20,9.998C20,9.41,19.524,9,18.929,9z"/>
	<path fill="#FFFFFF" d="M3.682,9H1.069C0.478,9,0,9.41,0,9.998C0,10.59,0.478,11,1.069,11h2.613c-0.058,0-0.108-0.635-0.108-1.002
		C3.574,9.633,3.624,9,3.682,9z"/>
	<path fill="#FFFFFF" d="M6.285,4.776L4.442,2.931c-0.419-0.418-1.093-0.418-1.513,0c-0.418,0.417-0.418,1.096,0,1.514l1.844,1.842
		C5.19,5.704,5.704,5.192,6.285,4.776z"/>
	<path fill="#FFFFFF" d="M13.71,15.227l1.842,1.846c0.213,0.208,0.489,0.312,0.759,0.312c0.276,0,0.552-0.103,0.761-0.312
		c0.417-0.419,0.417-1.096,0-1.513l-1.846-1.846C14.805,14.299,14.299,14.81,13.71,15.227z"/>
	<path fill="#FFFFFF" d="M9,16.318v2.614c0,0.59,0.408,1.069,0.998,1.069c0.592,0,1.002-0.479,1.002-1.069v-2.614
		c0,0.058-0.633,0.112-1.002,0.112C9.63,16.43,9,16.376,9,16.318z"/>
	<path fill="#FFFFFF" d="M11,3.684V1.069C11,0.478,10.59,0,9.998,0C9.408,0,9,0.478,9,1.069v2.614c0-0.058,0.63-0.11,0.998-0.11
		C10.367,3.574,11,3.623,11,3.684z"/>
	<path fill="#FFFFFF" d="M15.227,6.286l1.846-1.842c0.417-0.417,0.417-1.096,0-1.514c-0.419-0.418-1.098-0.418-1.52,0L13.71,4.776
		C14.299,5.192,14.805,5.704,15.227,6.286z"/>
	<path fill="#FFFFFF" d="M4.773,13.714L2.929,15.56c-0.418,0.417-0.418,1.094,0,1.513c0.207,0.208,0.485,0.312,0.756,0.312
		c0.276,0,0.547-0.103,0.757-0.312l1.844-1.846C5.704,14.81,5.19,14.297,4.773,13.714z"/>
	<path id="circle" fill="#FFFFFF" d="M10.092,5.147c-2.675,0-4.854,2.177-4.854,4.852c0,2.678,2.179,4.855,4.854,4.855
		c2.677,0,4.852-2.177,4.852-4.855C14.944,7.324,12.769,5.147,10.092,5.147L10.092,5.147z"/>
</g>
</svg>
