<?xml version="1.0" encoding="utf-8"?>
<!-- Generator: Adobe Illustrator 16.2.0, SVG Export Plug-In . SVG Version: 6.00 Build 0)  -->
<!DOCTYPE svg PUBLIC "-//W3C//DTD SVG 1.0//EN" "http://www.w3.org/TR/2001/REC-SVG-20010904/DTD/svg10.dtd">
<svg version="1.0" id="icon" xmlns="http://www.w3.org/2000/svg" xmlns:xlink="http://www.w3.org/1999/xlink" x="0px" y="0px"
	 width="20px" height="20px" viewBox="0 0 20 20" enable-background="new 0 0 20 20" xml:space="preserve">
<path id="repeat" fill-rule="evenodd" clip-rule="evenodd" fill="#FFFFFF" d="M13.803,4.229c0.465,0.322,0.9,0.708,1.279,1.128
	c0.379,0.436,0.707,0.908,0.973,1.408c0.27,0.514,0.477,1.05,0.635,1.628c0.156,0.579,0.234,1.186,0.234,1.8
	c0,0.957-0.178,1.857-0.52,2.7c-0.357,0.836-0.83,1.557-1.43,2.187c-0.606,0.62-1.321,1.113-2.135,1.47
	c-0.822,0.358-1.694,0.536-2.622,0.536h-0.1c-0.958-0.007-1.85-0.214-2.679-0.593c-0.835-0.378-1.564-0.893-2.186-1.535
	c-0.628-0.65-1.122-1.407-1.479-2.264c-0.357-0.864-0.536-1.786-0.536-2.771c0-0.979,0.179-1.907,0.55-2.764
	c0.372-0.851,0.879-1.601,1.529-2.222l2.814,2.885V0h-7.6l2.701,2.779c-0.907,0.907-1.622,1.95-2.136,3.15
	c-0.521,1.2-0.778,2.5-0.778,3.893c0,0.936,0.114,1.829,0.357,2.678c0.236,0.857,0.571,1.665,0.993,2.408
	c0.429,0.764,0.929,1.442,1.529,2.057c0.607,0.6,1.264,1.136,1.986,1.586c0.714,0.442,1.5,0.792,2.336,1.05
	c0.835,0.243,1.707,0.38,2.6,0.4h0.178c0.879,0,1.729-0.122,2.543-0.344c0.814-0.235,1.577-0.563,2.292-0.984
	c0.701-0.423,1.352-0.937,1.93-1.515c0.578-0.593,1.078-1.25,1.492-1.979c0.414-0.728,0.736-1.506,0.965-2.342
	c0.221-0.836,0.328-1.708,0.328-2.614c0-0.822-0.1-1.615-0.277-2.386c-0.188-0.757-0.459-1.485-0.795-2.179
	c-0.342-0.692-0.756-1.328-1.25-1.928c-0.484-0.593-1.035-1.114-1.635-1.586L13.803,4.229z"/>
</svg>
