<?xml version="1.0" encoding="utf-8"?>
<!-- Generator: Adobe Illustrator 16.2.0, SVG Export Plug-In . SVG Version: 6.00 Build 0)  -->
<!DOCTYPE svg PUBLIC "-//W3C//DTD SVG 1.1//EN" "http://www.w3.org/Graphics/SVG/1.1/DTD/svg11.dtd" [
	<!ENTITY ns_flows "http://ns.adobe.com/Flows/1.0/">
	<!ENTITY ns_extend "http://ns.adobe.com/Extensibility/1.0/">
	<!ENTITY ns_ai "http://ns.adobe.com/AdobeIllustrator/10.0/">
	<!ENTITY ns_graphs "http://ns.adobe.com/Graphs/1.0/">
]>
<svg version="1.1" id="disabled_x5F_icon" xmlns:x="&ns_extend;" xmlns:i="&ns_ai;" xmlns:graph="&ns_graphs;"
	 xmlns="http://www.w3.org/2000/svg" xmlns:xlink="http://www.w3.org/1999/xlink" xmlns:a="http://ns.adobe.com/AdobeSVGViewerExtensions/3.0/"
	 x="0px" y="0px" width="16px" height="16px" viewBox="0 0 16 16" enable-background="new 0 0 16 16" xml:space="preserve">
<g>
	<path fill="#FFFFFF" d="M7.998,0C12.418,0,16,3.582,16,8C16,12.417,12.418,16,7.998,16C3.579,16,0,12.417,0,8
		C0,3.582,3.579,0,7.998,0 M7.998,2.572C5.006,2.572,2.572,5.007,2.572,8c0,2.992,2.434,5.427,5.425,5.427
		c2.994,0,5.43-2.435,5.43-5.427C13.428,5.007,10.992,2.572,7.998,2.572"/>
	<line fill="none" stroke="#FFFFFF" stroke-width="2" x1="3.334" y1="12.666" x2="12.665" y2="3.334"/>
</g>
</svg>
