<?xml version="1.0" encoding="utf-8"?>
<!-- Generator: Adobe Illustrator 17.1.0, SVG Export Plug-In . SVG Version: 6.00 Build 0)  -->
<!DOCTYPE svg PUBLIC "-//W3C//DTD SVG 1.1//EN" "http://www.w3.org/Graphics/SVG/1.1/DTD/svg11.dtd">
<svg version="1.1" xmlns="http://www.w3.org/2000/svg" xmlns:xlink="http://www.w3.org/1999/xlink" x="0px" y="0px" width="19px"
	 height="19px" viewBox="0 0 19 19" enable-background="new 0 0 19 19" xml:space="preserve">
<g id="Layer_2" display="none">
	<rect display="inline" fill="#00AAB5" width="19" height="19"/>
</g>
<g id="Layer_1">
	<g>
		<path fill="#FFFFFF" d="M9.066,0C4.219,0.212,0.317,4.047,0,8.861h9.066V0"/>
		<path fill="#FFFFFF" d="M8.629,10.128H0c0.164,2.486,1.283,4.71,2.995,6.309L8.629,10.128"/>
		<path fill="#FFFFFF" d="M10.334,0.029v10.077l0.008,0.008l-0.008,0.009v0.005h-0.005L3.978,17.24C5.533,18.347,7.433,19,9.488,19
			C14.741,19,19,14.745,19,9.495C19,4.53,15.191,0.457,10.334,0.029"/>
		<polygon fill="#FFFFFF" points="10.334,10.128 10.334,10.123 10.329,10.128 		"/>
		<polygon fill="#FFFFFF" points="10.342,10.114 10.334,10.106 10.334,10.123 		"/>
	</g>
</g>
</svg>
