<?xml version="1.0" encoding="utf-8"?>
<!-- Generator: Adobe Illustrator 16.2.0, SVG Export Plug-In . SVG Version: 6.00 Build 0)  -->
<!DOCTYPE svg PUBLIC "-//W3C//DTD SVG 1.1//EN" "http://www.w3.org/Graphics/SVG/1.1/DTD/svg11.dtd" [
	<!ENTITY ns_flows "http://ns.adobe.com/Flows/1.0/">
	<!ENTITY ns_extend "http://ns.adobe.com/Extensibility/1.0/">
	<!ENTITY ns_ai "http://ns.adobe.com/AdobeIllustrator/10.0/">
	<!ENTITY ns_graphs "http://ns.adobe.com/Graphs/1.0/">
]>
<svg version="1.1" id="Snap_x5F_icon" xmlns:x="&ns_extend;" xmlns:i="&ns_ai;" xmlns:graph="&ns_graphs;"
	 xmlns="http://www.w3.org/2000/svg" xmlns:xlink="http://www.w3.org/1999/xlink" xmlns:a="http://ns.adobe.com/AdobeSVGViewerExtensions/3.0/"
	 x="0px" y="0px" width="18px" height="21px" viewBox="0 0 18 21" enable-background="new 0 0 18 21" xml:space="preserve">
<path fill-rule="evenodd" clip-rule="evenodd" fill="#FFFFFF" d="M13.502,20.667v-0.984h-0.758v0.984H13.502z M13.502,18.698v-0.983
	h-0.758v0.983H13.502z M13.502,16.73v-0.984h-0.758v0.984H13.502z M18,14.762v-0.983h-0.749v0.983H18z M16.514,14.762v-0.983h-0.758
	v0.983H16.514z M15.008,14.762v-0.983h-0.757v0.983H15.008z M0,14.762h0.748v-0.983H0V14.762z M1.505,14.762h0.749v-0.983H1.505
	V14.762z M2.992,14.762H3.75v-0.983H2.992V14.762z M4.498,20.667h0.758v-0.984H4.498V20.667z M4.498,16.73h0.758v-0.984H4.498V16.73
	z M4.498,18.698h0.758v-0.983H4.498V18.698z M4.498,0v0.984h0.758V0H4.498z M4.498,1.968v0.984h0.758V1.968H4.498z M4.498,3.937
	v0.984h0.758V3.937H4.498z M0,5.905v0.984h0.748V5.905H0z M1.505,5.905v0.984h0.749V5.905H1.505z M2.992,5.905v0.984H3.75V5.905
	H2.992z M18,5.905h-0.749v0.984H18V5.905z M16.514,5.905h-0.758v0.984h0.758V5.905z M15.008,5.905h-0.757v0.984h0.757V5.905z
	 M13.502,0h-0.758v0.984h0.758V0z M13.502,1.968h-0.758v0.984h0.758V1.968z M13.502,3.937h-0.758v0.984h0.758V3.937z M4.498,5.905
	v8.857h9.004V5.905H4.498z"/>
</svg>
