<?xml version="1.0" encoding="utf-8"?>
<!-- Generator: Adobe Illustrator 16.2.0, SVG Export Plug-In . SVG Version: 6.00 Build 0)  -->
<!DOCTYPE svg PUBLIC "-//W3C//DTD SVG 1.1//EN" "http://www.w3.org/Graphics/SVG/1.1/DTD/svg11.dtd">
<svg version="1.1" id="Layer_1" xmlns="http://www.w3.org/2000/svg" xmlns:xlink="http://www.w3.org/1999/xlink" x="0px" y="0px"
	 width="20px" height="20px" viewBox="0 0 20 20" enable-background="new 0 0 20 20" xml:space="preserve">
<path fill="#FFFFFF" d="M20,9.092l-0.773-3.245L16.385,6.15c-0.288-0.483-0.619-0.924-0.993-1.318l1.05-2.548l-2.844-1.752
	l-1.773,2.204c-0.614-0.162-1.248-0.242-1.888-0.247L8.825,0.018l-3.23,0.865l0.38,2.736c-0.447,0.276-0.855,0.59-1.22,0.935
	L2.303,3.545L0.55,6.385l2.112,1.704c-0.155,0.58-0.246,1.183-0.257,1.788L0,10.874l0.774,3.25l2.682-0.287
	c0.31,0.538,0.675,1.024,1.093,1.453l-0.986,2.395l2.843,1.749l1.703-2.111c0.58,0.143,1.169,0.223,1.772,0.229l1.009,2.432
	l3.25-0.773l-0.294-2.761c0.503-0.306,0.965-0.656,1.365-1.051l2.491,1.025l1.75-2.844l-2.203-1.776
	c0.133-0.541,0.208-1.097,0.215-1.656L20,9.092z M12.133,14.135c-2.292,1.174-5.108,0.272-6.28-2.023
	C4.675,9.816,5.583,7.008,7.875,5.83c2.293-1.173,5.106-0.266,6.279,2.026C15.331,10.148,14.426,12.958,12.133,14.135"/>
</svg>
