<?xml version="1.0" encoding="utf-8"?>
<!-- Generator: Adobe Illustrator 16.2.0, SVG Export Plug-In . SVG Version: 6.00 Build 0)  -->
<!DOCTYPE svg PUBLIC "-//W3C//DTD SVG 1.1//EN" "http://www.w3.org/Graphics/SVG/1.1/DTD/svg11.dtd" [
	<!ENTITY ns_flows "http://ns.adobe.com/Flows/1.0/">
	<!ENTITY ns_extend "http://ns.adobe.com/Extensibility/1.0/">
	<!ENTITY ns_ai "http://ns.adobe.com/AdobeIllustrator/10.0/">
	<!ENTITY ns_graphs "http://ns.adobe.com/Graphs/1.0/">
]>
<svg version="1.1" xmlns:x="&ns_extend;" xmlns:i="&ns_ai;" xmlns:graph="&ns_graphs;"
	 xmlns="http://www.w3.org/2000/svg" xmlns:xlink="http://www.w3.org/1999/xlink" xmlns:a="http://ns.adobe.com/AdobeSVGViewerExtensions/3.0/"
	 x="0px" y="0px" width="36px" height="36px" viewBox="0 0 36 36" enable-background="new 0 0 36 36" xml:space="preserve">
<g id="BG_x5F_40x40_x2C__80x40" display="none">
	<rect x="-20" y="-11" display="inline" fill="#D11C1C" width="72" height="56"/>
</g>
<g id="textbox">
	<g>
		<path id="acompound" fill="#FFFFFF" d="M11.639,24.635H9.791v-1.149H9.763c-0.47,0.881-1.159,1.322-2.069,1.322
			c-0.669,0-1.208-0.197-1.588-0.589S5,23.307,5,22.66c0-1.389,1.294-2.198,2.774-2.428l2.022-0.309
			c0-1.048-0.461-1.573-1.383-1.573c-0.812,0-1.543,0.301-2.195,0.905v-1.458c0.718-0.46,1.547-0.69,2.487-0.69
			c1.721,0,2.933,0.916,2.933,2.744V24.635z M9.797,21.022l-1.43,0.216C7.924,21.3,7.59,21.416,7.366,21.585
			c-0.223,0.17-0.335,0.469-0.335,0.895c0,0.311,0.103,0.565,0.309,0.765c0.207,0.199,0.482,0.298,0.829,0.298
			c0.47,0,0.859-0.178,1.167-0.536c0.308-0.356,0.462-0.805,0.462-1.346V21.022z"/>
		<path id="bcompound" fill="#FFFFFF" d="M14.738,23.572h-0.025v1.063h-1.968v-10.89h1.968v4.827h0.025
			c0.528-0.978,1.3-1.508,2.315-1.508c0.86,0,1.844,0.372,2.33,1.03c0.485,0.658,1.106,1.542,1.106,2.648
			c0,1.23-0.56,2.215-1.106,2.956c-0.545,0.74-1.692,1.11-2.636,1.11C15.86,24.808,15.191,24.396,14.738,23.572z M14.699,20.649
			v0.911c0,0.536,0.158,0.993,0.475,1.366c0.316,0.373,0.719,0.56,1.207,0.56c0.572,0,1.021-0.241,1.347-0.722
			c0.326-0.481,0.489-1.153,0.489-2.017c0-0.721-0.151-1.289-0.456-1.698c-0.304-0.409-0.714-0.614-1.233-0.614
			c-0.549,0-0.993,0.213-1.327,0.633S14.699,20.017,14.699,20.649z"/>
		<path fill="#FFFFFF" d="M24.428,23.918c0,0.491-0.368,0.889-0.822,0.889l0,0c-0.454,0-0.821-0.397-0.821-0.889l0,0
			c0-0.49,0.368-0.887,0.821-0.887l0,0C24.06,23.031,24.428,23.428,24.428,23.918L24.428,23.918z"/>
		<path fill="#FFFFFF" d="M27.713,23.918c0,0.491-0.367,0.889-0.82,0.889l0,0c-0.455,0-0.821-0.397-0.821-0.889l0,0
			c0-0.49,0.367-0.887,0.821-0.887l0,0C27.346,23.031,27.713,23.428,27.713,23.918L27.713,23.918z"/>
		<path fill="#FFFFFF" d="M31,23.918c0,0.491-0.368,0.889-0.821,0.889l0,0c-0.455,0-0.823-0.397-0.823-0.889l0,0
			c0-0.49,0.368-0.887,0.823-0.887l0,0C30.632,23.031,31,23.428,31,23.918L31,23.918z"/>
	</g>
</g>
</svg>
