<?xml version="1.0" encoding="utf-8"?>
<!-- Generator: Adobe Illustrator 16.2.0, SVG Export Plug-In . SVG Version: 6.00 Build 0)  -->
<!DOCTYPE svg PUBLIC "-//W3C//DTD SVG 1.0//EN" "http://www.w3.org/TR/2001/REC-SVG-20010904/DTD/svg10.dtd">
<svg version="1.0" xmlns="http://www.w3.org/2000/svg" xmlns:xlink="http://www.w3.org/1999/xlink" x="0px" y="0px" width="13px"
	 height="19px" viewBox="0 0 13 19" enable-background="new 0 0 13 19" xml:space="preserve">
<g id="Layer_2" display="none">
	<rect x="6.538" y="-15.25" display="inline" fill-rule="evenodd" clip-rule="evenodd" fill="#F21641" width="16" height="23.5"/>
</g>
<g id="ORIG" display="none">
	<g display="inline">
		<rect id="rectBottom" x="6.538" y="-3" fill-rule="evenodd" clip-rule="evenodd" fill="#FFFFFF" width="16" height="11"/>
		<rect id="rectTop" x="6.538" y="-15" fill-rule="evenodd" clip-rule="evenodd" fill="#FFFFFF" width="16" height="11"/>
	</g>
	<g display="inline">
		<rect id="lineVertical" x="14.038" y="-11.5" fill-rule="evenodd" clip-rule="evenodd" width="1" height="16.371"/>
		<polygon id="arrowBottom" fill-rule="evenodd" clip-rule="evenodd" points="9.873,1.67 19.203,1.67 14.533,7 		"/>
		<polygon id="arrowTop" fill-rule="evenodd" clip-rule="evenodd" points="19.203,-8.67 9.873,-8.67 14.533,-14 		"/>
	</g>
</g>
<g id="merge" display="none">
	
		<rect id="rectBottom_1_" x="6.538" y="-2.75" display="inline" fill-rule="evenodd" clip-rule="evenodd" fill="#FFFFFF" width="16" height="11"/>
	
		<rect id="rectTop_1_" x="6.538" y="-15.25" display="inline" fill-rule="evenodd" clip-rule="evenodd" fill="#FFFFFF" width="16" height="11"/>
	<polygon display="inline" fill-rule="evenodd" clip-rule="evenodd" points="15.288,-8.67 19.203,-8.67 14.533,-14 9.873,-8.67 
		13.788,-8.67 13.788,1.67 9.873,1.67 14.533,7 19.203,1.67 15.288,1.67 	"/>
</g>
<g id="merge_x5F_divide">
	<g>
		<polygon fill="#FFFFFF" points="10.328,13.681 6.534,17.988 2.748,13.681 5.929,13.681 5.929,10.106 0.038,10.106 0.038,19 
			13.038,19 13.038,10.106 7.147,10.106 7.147,13.681 		"/>
		<polygon fill="#FFFFFF" points="2.748,5.319 6.534,1.01 10.328,5.319 7.147,5.319 7.147,8.894 13.038,8.894 13.038,0 0.038,0 
			0.038,8.894 5.929,8.894 5.929,5.319 		"/>
	</g>
</g>
</svg>