<?xml version="1.0" encoding="utf-8"?>
<!-- Generator: Adobe Illustrator 16.2.0, SVG Export Plug-In . SVG Version: 6.00 Build 0)  -->
<!DOCTYPE svg PUBLIC "-//W3C//DTD SVG 1.1 Tiny//EN" "http://www.w3.org/Graphics/SVG/1.1/DTD/svg11-tiny.dtd">
<svg version="1.1" baseProfile="tiny" xmlns="http://www.w3.org/2000/svg" xmlns:xlink="http://www.w3.org/1999/xlink" x="0px"
	 y="0px" width="36px" height="36px" viewBox="0 0 36 36" xml:space="preserve">
<g id="Layer_2" display="none">
	<rect x="-10" y="-9" display="inline" fill="#DB1B1B" width="58" height="59"/>
</g>
<g id="ip_x5F_icon_1_">
	<rect id="bg_1_" display="none" fill="#0071BC" width="100" height="100"/>
	<g id="edit">
		<path fill="#FFFFFF" d="M24,16.809V25H11V14h5.88l1.712-1H9v14h17V14.984c0,0.163-0.344,0.313-0.478,0.447L24,16.809z"/>
		<path fill="#FFFFFF" d="M17.457,21.545c-0.186,0.188-0.491,0.188-0.677,0l-2.233-2.232c-0.187-0.187-0.187-0.489,0-0.678
			l7.139-7.135c0.186-0.187,0.491-0.187,0.676,0l2.229,2.232c0.188,0.188,0.188,0.493,0,0.678L17.457,21.545z M26.345,9.748
			c-1.273-1.273-2.53-0.29-2.53-0.29c-0.209,0.161-0.528,0.442-0.712,0.625s-0.18,0.485,0.004,0.671l2.233,2.23
			c0.187,0.19,0.488,0.191,0.673,0.008c0.183-0.185,0.465-0.504,0.627-0.713C26.64,12.279,27.622,11.026,26.345,9.748z
			 M14.817,22.731c0.256-0.063,0.312-0.269,0.126-0.454l-1.147-1.143c-0.187-0.185-0.393-0.127-0.454,0.126l-0.372,1.495
			c-0.063,0.255,0.094,0.412,0.35,0.351L14.817,22.731z"/>
	</g>
	<rect x="9" y="12" fill="#FFFFFF" width="9" height="1"/>
</g>
</svg>