<?xml version="1.0" encoding="utf-8"?>
<!-- Generator: Adobe Illustrator 17.1.0, SVG Export Plug-In . SVG Version: 6.00 Build 0)  -->
<!DOCTYPE svg PUBLIC "-//W3C//DTD SVG 1.1//EN" "http://www.w3.org/Graphics/SVG/1.1/DTD/svg11.dtd">
<svg version="1.1" xmlns="http://www.w3.org/2000/svg" xmlns:xlink="http://www.w3.org/1999/xlink" x="0px" y="0px" width="20px"
	 height="20px" viewBox="0 0 20 20" enable-background="new 0 0 20 20" xml:space="preserve">
<g id="Layer_2" display="none">
	<rect display="inline" fill="#8BCFF2" width="20" height="20"/>
</g>
<g id="Layer_1" display="none">
	<path display="inline" fill="#FFFFFF" d="M13.921,16.451c-0.653,0.468-1.366,0.832-2.139,1.093s-1.593,0.39-2.458,0.39
		c-0.728,0-1.43-0.095-2.104-0.284c-0.674-0.189-1.303-0.455-1.887-0.798c-0.584-0.343-1.117-0.754-1.6-1.235
		s-0.895-1.013-1.238-1.6s-0.609-1.217-0.798-1.891s-0.284-1.375-0.284-2.104s0.095-1.428,0.284-2.1s0.455-1.301,0.798-1.887
		s0.756-1.12,1.238-1.6s1.016-0.892,1.6-1.235S6.546,2.592,7.22,2.403c0.674-0.189,1.375-0.284,2.104-0.284
		c0.662,0,1.303,0.078,1.923,0.234s1.204,0.378,1.752,0.667c0.549,0.289,1.056,0.637,1.522,1.047
		c0.466,0.409,0.877,0.864,1.235,1.366s0.655,1.043,0.894,1.625c0.239,0.582,0.403,1.192,0.493,1.831h-1.156
		c-0.137-0.799-0.406-1.541-0.805-2.224s-0.894-1.277-1.483-1.781s-1.256-0.899-2.001-1.185s-1.536-0.429-2.373-0.429
		c-0.624,0-1.224,0.08-1.799,0.241S6.414,3.898,5.915,4.191S4.961,4.837,4.552,5.248C4.143,5.66,3.792,6.115,3.499,6.614
		s-0.52,1.037-0.681,1.614s-0.241,1.175-0.241,1.795c0,0.624,0.08,1.224,0.241,1.799c0.161,0.575,0.387,1.113,0.678,1.614
		s0.642,0.957,1.054,1.366c0.412,0.409,0.867,0.76,1.366,1.054s1.037,0.52,1.614,0.681s1.175,0.241,1.795,0.241
		c0.691,0,1.349-0.097,1.976-0.291c0.627-0.194,1.21-0.468,1.749-0.823L13.921,16.451z"/>
	<path display="inline" fill="#FFFFFF" d="M11.584,10.682l7.142,0.59c-0.083,1.004-0.333,1.934-0.75,2.789
		c-0.417,0.855-0.956,1.609-1.618,2.262L11.584,10.682z"/>
</g>
<g id="Layer_3">
	<path fill="#FFFFFF" d="M0.036,8.572C0.036,13.289,4,17.113,9,17.113V9h7.695c0-5-3.612-8.755-8.33-8.755S0.036,3.855,0.036,8.572z
		"/>
	<path fill="#FFFFFF" d="M11,11L11,11L11,11v7.803c4.43,0,7.778-3.803,7.778-7.803H11z"/>
</g>
</svg>
