<?xml version="1.0" encoding="utf-8"?>
<!-- Generator: Adobe Illustrator 17.1.0, SVG Export Plug-In . SVG Version: 6.00 Build 0)  -->
<!DOCTYPE svg PUBLIC "-//W3C//DTD SVG 1.1//EN" "http://www.w3.org/Graphics/SVG/1.1/DTD/svg11.dtd">
<svg version="1.1" id="Layer_1" xmlns="http://www.w3.org/2000/svg" xmlns:xlink="http://www.w3.org/1999/xlink" x="0px" y="0px"
	 width="26px" height="32px" viewBox="0 0 26 32" enable-background="new 0 0 26 32" xml:space="preserve">
<g id="filepage">
	<path fill="#FFFFFF" d="M14.543,0.046H2.845C1.274,0.046,0,1.319,0,2.891v26.152c0,1.571,1.273,2.848,2.845,2.848h19.798
		c1.571,0,2.843-1.278,2.843-2.848V11.002c0-0.764-0.298-1.488-0.829-2.018l-8.096-8.091C16.011,0.366,15.287,0.046,14.543,0.046z
		 M14.543,2.891l8.098,8.113v18.042H2.845V2.891H14.543z"/>
</g>
<g id="filecorner_2_">
	<path fill="#FFFFFF" d="M11.733,2.148v8.854c0,1.569,1.274,2.845,2.845,2.845h8.797V11c0,0-7.992-8.025-8.797-8.854L11.733,2.148z
		 M14.578,2.146L23.375,11h-8.797V2.146z"/>
</g>
</svg>
