<?xml version="1.0" encoding="utf-8"?>
<!-- Generator: Adobe Illustrator 16.0.0, SVG Export Plug-In . SVG Version: 6.00 Build 0)  -->
<!DOCTYPE svg PUBLIC "-//W3C//DTD SVG 1.1//EN" "http://www.w3.org/Graphics/SVG/1.1/DTD/svg11.dtd">
<svg version="1.1" id="fill" xmlns="http://www.w3.org/2000/svg" xmlns:xlink="http://www.w3.org/1999/xlink" x="0px" y="0px"
	 width="18px" height="18px" viewBox="0 0 18 18" enable-background="new 0 0 18 18" xml:space="preserve">
<path fill-rule="evenodd" clip-rule="evenodd" fill="#FFFFFF" d="M12.453,4.987l-2.168-2.16v-2.858h-0.02h-0.78H6.641H6.547H6.283
	H5.531H5.483v4.641h0.009v0.648L0.5,10.155l7.384,7.192l7.177-7.01v4.816c0,0,0.239-1.817,1.196-2.799
	c1.196-1.229,1.196-2.981,1.196-2.981C18.012,5.282,13.418,5.003,12.453,4.987z M9.485,0.769v1.183L9.203,1.656l-2.914,2.82V1.01
	H6.283V0.769H9.485z M7.884,16.351L1.505,10.17L9.08,2.595l0.383,0.383L9.471,6.43c-0.741,0-1.348,0.606-1.348,1.355
	c0,0.75,0.607,1.357,1.356,1.357s1.356-0.606,1.356-1.357c0-0.446-0.231-0.821-0.559-1.068V3.791l5.184,5.183L7.884,16.351z"/>
</svg>