<?xml version="1.0" encoding="utf-8"?>
<!-- Generator: Adobe Illustrator 16.2.0, SVG Export Plug-In . SVG Version: 6.00 Build 0)  -->
<!DOCTYPE svg PUBLIC "-//W3C//DTD SVG 1.1//EN" "http://www.w3.org/Graphics/SVG/1.1/DTD/svg11.dtd">
<svg version="1.1" id="find_x5F_40x40" xmlns="http://www.w3.org/2000/svg" xmlns:xlink="http://www.w3.org/1999/xlink" x="0px"
	 y="0px" width="40px" height="40px" viewBox="0 0 40 40" enable-background="new 0 0 40 40" xml:space="preserve">
<path id="bkgfillborder_x5F_transparent_1_" fill-opacity="0" d="M20.107,2.768c9.504,0,17.243,7.729,17.243,17.234
	s-7.738,17.232-17.243,17.232c-9.497,0-17.234-7.729-17.234-17.232S10.611,2.768,20.107,2.768z"/>
<circle cx="19.688" cy="19.563" r="17.813"/>
<path id="circle_7_" d="M20.107,0.306c-10.878,0-19.696,8.818-19.696,19.696c0,10.879,8.818,19.696,19.696,19.696
	c10.879,0,19.704-8.817,19.704-19.696C39.813,9.125,30.986,0.306,20.107,0.306z M20.107,2.768c9.504,0,17.243,7.729,17.243,17.234
	s-7.738,17.232-17.243,17.232c-9.497,0-17.234-7.729-17.234-17.232S10.611,2.768,20.107,2.768z"/>
<line id="findhandle" fill="none" stroke="#FFFFFF" stroke-width="3.3694" stroke-linecap="round" x1="12.607" y1="27.439" x2="17.843" y2="22.154"/>
<path id="findcircleinterior" fill="#FFFFFF" fill-opacity="0" d="M27.691,19.098c-0.737,2.998-3.77,4.83-6.769,4.093
	c-2.998-0.74-4.827-3.771-4.092-6.77c0.743-2.998,3.769-4.833,6.771-4.094C26.598,13.067,28.434,16.099,27.691,19.098"/>
<path id="findcircle" fill="none" stroke="#FFFFFF" stroke-width="2.0224" stroke-linecap="round" d="M27.691,19.098
	c-0.737,2.998-3.77,4.83-6.769,4.093c-2.998-0.74-4.827-3.771-4.092-6.77c0.743-2.998,3.769-4.833,6.771-4.094
	C26.598,13.067,28.434,16.099,27.691,19.098z"/>
</svg>
