<?xml version="1.0" encoding="utf-8"?>
<!-- Generator: Adobe Illustrator 16.0.0, SVG Export Plug-In . SVG Version: 6.00 Build 0)  -->
<!DOCTYPE svg PUBLIC "-//W3C//DTD SVG 1.1//EN" "http://www.w3.org/Graphics/SVG/1.1/DTD/svg11.dtd">
<svg version="1.1" id="ddbdefault" xmlns="http://www.w3.org/2000/svg" xmlns:xlink="http://www.w3.org/1999/xlink"
	 x="0px" y="0px" width="20px" height="20px" viewBox="0 0 20 20" enable-background="new 0 0 20 20" xml:space="preserve">
<g>
	<g>
		<rect fill-rule="evenodd" clip-rule="evenodd" fill="#FFFFFF" width="1" height="5"/>
		<rect y="7" fill-rule="evenodd" clip-rule="evenodd" fill="#FFFFFF" width="1" height="6"/>
		<rect y="15" fill-rule="evenodd" clip-rule="evenodd" fill="#FFFFFF" width="1" height="5"/>
		<rect x="19" fill-rule="evenodd" clip-rule="evenodd" fill="#FFFFFF" width="1" height="5"/>
		<rect x="19" y="7" fill-rule="evenodd" clip-rule="evenodd" fill="#FFFFFF" width="1" height="6"/>
		<rect x="19" y="15" fill-rule="evenodd" clip-rule="evenodd" fill="#FFFFFF" width="1" height="5"/>
		<rect y="19" fill-rule="evenodd" clip-rule="evenodd" fill="#FFFFFF" width="5" height="1"/>
		<rect x="7" y="19" fill-rule="evenodd" clip-rule="evenodd" fill="#FFFFFF" width="6" height="1"/>
		<rect x="15" y="19" fill-rule="evenodd" clip-rule="evenodd" fill="#FFFFFF" width="5" height="1"/>
		<rect fill-rule="evenodd" clip-rule="evenodd" fill="#FFFFFF" width="5" height="1"/>
		<rect x="7" fill-rule="evenodd" clip-rule="evenodd" fill="#FFFFFF" width="6" height="1"/>
		<rect x="15" fill-rule="evenodd" clip-rule="evenodd" fill="#FFFFFF" width="5" height="1"/>
	</g>
	<polygon fill-rule="evenodd" clip-rule="evenodd" fill="#FFFFFF" points="12,3 17,3 17,8 	"/>
	<polygon fill-rule="evenodd" clip-rule="evenodd" fill="#FFFFFF" points="17,12 17,17 12,17 	"/>
	<polygon fill-rule="evenodd" clip-rule="evenodd" fill="#FFFFFF" points="3,3 8,3 3,8 	"/>
	<polygon fill-rule="evenodd" clip-rule="evenodd" fill="#FFFFFF" points="3,12 8,17 3,17 	"/>
</g>
</svg>
