<?xml version="1.0" encoding="utf-8"?>
<!-- Generator: Adobe Illustrator 16.2.0, SVG Export Plug-In . SVG Version: 6.00 Build 0)  -->
<!DOCTYPE svg PUBLIC "-//W3C//DTD SVG 1.1//EN" "http://www.w3.org/Graphics/SVG/1.1/DTD/svg11.dtd">
<svg version="1.1" id="Layer_1" xmlns="http://www.w3.org/2000/svg" xmlns:xlink="http://www.w3.org/1999/xlink" x="0px" y="0px"
	 width="20px" height="20px" viewBox="0 0 20 20" enable-background="new 0 0 20 20" xml:space="preserve">
<g id="formula">
	<path fill="#FFFFFF" d="M18.785,6.89c-0.005,0.272-0.104,0.473-0.299,0.601c-0.194,0.129-0.406,0.194-0.636,0.194
		c-0.142,0-0.301-0.025-0.479-0.074c-0.179-0.049-0.318-0.09-0.422-0.123c-0.21,0.188-0.455,0.463-0.734,0.829
		s-0.543,0.769-0.79,1.208c0.112,0.446,0.213,0.826,0.302,1.143s0.185,0.635,0.288,0.953c0.089,0.284,0.228,0.514,0.418,0.686
		c0.189,0.17,0.439,0.255,0.748,0.255c0.113,0,0.268-0.016,0.465-0.047c0.196-0.033,0.349-0.068,0.455-0.107l-0.125,0.468
		c-0.45,0.188-0.788,0.312-1.016,0.368s-0.473,0.085-0.735,0.085c-0.327,0-0.598-0.074-0.812-0.225
		c-0.212-0.15-0.385-0.459-0.517-0.928c-0.094-0.343-0.17-0.629-0.229-0.861c-0.059-0.231-0.115-0.463-0.172-0.692
		c-0.216,0.323-0.394,0.599-0.535,0.826c-0.14,0.228-0.374,0.54-0.702,0.938c-0.285,0.348-0.548,0.593-0.786,0.738
		c-0.239,0.146-0.483,0.218-0.731,0.218c-0.219,0-0.401-0.063-0.544-0.193c-0.144-0.129-0.215-0.308-0.215-0.537
		c0-0.221,0.085-0.409,0.253-0.565c0.168-0.158,0.4-0.236,0.696-0.236c0.149,0,0.296,0.027,0.438,0.081s0.291,0.104,0.445,0.151
		c0.178-0.168,0.414-0.432,0.706-0.788c0.292-0.355,0.565-0.761,0.818-1.215c-0.089-0.333-0.186-0.698-0.29-1.097
		c-0.106-0.398-0.204-0.747-0.298-1.047c-0.122-0.377-0.263-0.618-0.422-0.726c-0.159-0.106-0.363-0.161-0.612-0.161
		c-0.136,0-0.279,0.019-0.432,0.057c-0.152,0.038-0.294,0.075-0.425,0.112l0.133-0.467c0.36-0.151,0.686-0.274,0.975-0.372
		c0.287-0.096,0.482-0.146,0.585-0.146c0.325,0,0.592,0.08,0.807,0.236c0.212,0.157,0.382,0.459,0.509,0.91
		c0.145,0.52,0.23,0.837,0.256,0.952c0.025,0.116,0.077,0.341,0.151,0.679c0.224-0.347,0.407-0.639,0.548-0.878
		s0.37-0.555,0.689-0.949c0.295-0.37,0.567-0.625,0.819-0.762c0.25-0.139,0.49-0.208,0.721-0.208c0.205,0,0.379,0.067,0.522,0.201
		C18.72,6.507,18.788,6.679,18.785,6.89z"/>
	<path fill="#FFFFFF" d="M9.373,6.814l-1.68,7.879c-0.298,1.411-0.927,2.565-1.887,3.461C4.848,19.052,3.86,19.5,2.844,19.5
		c-0.559,0-0.97-0.107-1.234-0.319c-0.263-0.213-0.395-0.482-0.395-0.806c0-0.274,0.083-0.517,0.249-0.726
		c0.165-0.21,0.403-0.314,0.715-0.314c0.197,0,0.371,0.044,0.52,0.134c0.15,0.088,0.282,0.2,0.396,0.334
		c0.089,0.107,0.189,0.254,0.3,0.438c0.112,0.185,0.209,0.344,0.291,0.478c0.49-0.038,0.909-0.369,1.254-0.991
		c0.347-0.625,0.647-1.515,0.901-2.671l1.758-8.242H5.735l0.2-0.867h1.837L7.91,5.299c0.153-0.736,0.395-1.399,0.725-1.99
		c0.331-0.59,0.706-1.091,1.126-1.504c0.413-0.406,0.882-0.725,1.405-0.957C11.692,0.616,12.195,0.5,12.68,0.5
		c0.559,0,0.97,0.107,1.234,0.32c0.264,0.213,0.396,0.481,0.396,0.807c0,0.273-0.078,0.514-0.235,0.724
		c-0.156,0.21-0.4,0.314-0.731,0.314c-0.199,0-0.371-0.043-0.518-0.129c-0.146-0.085-0.277-0.198-0.393-0.338
		c-0.127-0.159-0.229-0.309-0.308-0.449c-0.075-0.14-0.171-0.295-0.285-0.467c-0.441,0.019-0.831,0.308-1.168,0.866
		c-0.338,0.559-0.642,1.488-0.911,2.79L9.548,5.947h2.406l-0.201,0.867H9.373z"/>
</g>
</svg>
