<?xml version="1.0" encoding="utf-8"?>
<!-- Generator: Adobe Illustrator 17.1.0, SVG Export Plug-In . SVG Version: 6.00 Build 0)  -->
<!DOCTYPE svg PUBLIC "-//W3C//DTD SVG 1.1//EN" "http://www.w3.org/Graphics/SVG/1.1/DTD/svg11.dtd">
<svg version="1.1" id="Layer_1" xmlns="http://www.w3.org/2000/svg" xmlns:xlink="http://www.w3.org/1999/xlink" x="0px" y="0px"
	 viewBox="0 0 18 32" enable-background="new 0 0 18 32" xml:space="preserve">
<g>
	<path fill="#FFFFFF" d="M4.466,22.532c-0.143-0.373-0.255-0.792-0.333-1.257c-0.08-0.465-0.118-0.906-0.118-1.322
		c0-0.659,0.064-1.261,0.193-1.806c0.129-0.544,0.322-1.056,0.58-1.537c0.258-0.48,0.58-0.938,0.967-1.376
		c0.387-0.437,0.838-0.871,1.354-1.3c0.545-0.458,1.021-0.884,1.429-1.279c0.408-0.394,0.756-0.788,1.042-1.182
		c0.287-0.394,0.502-0.802,0.645-1.225c0.143-0.422,0.215-0.892,0.215-1.408c0-0.444-0.078-0.856-0.236-1.236
		c-0.158-0.379-0.384-0.706-0.677-0.978C9.235,6.354,8.876,6.139,8.453,5.981C8.031,5.824,7.561,5.745,7.046,5.745
		c-1.118,0-2.278,0.233-3.482,0.699C2.36,6.909,1.221,7.615,0.146,8.561v-6.47c1.103-0.659,2.307-1.153,3.611-1.483
		c1.304-0.329,2.651-0.494,4.041-0.494c1.333,0,2.572,0.147,3.719,0.441c1.147,0.294,2.146,0.756,2.998,1.386
		c0.852,0.631,1.519,1.437,1.999,2.418c0.48,0.982,0.72,2.16,0.72,3.536c0,0.874-0.1,1.666-0.301,2.375
		c-0.201,0.709-0.494,1.379-0.881,2.01c-0.387,0.631-0.867,1.236-1.44,1.816c-0.573,0.58-1.233,1.179-1.977,1.795
		c-0.502,0.416-0.943,0.803-1.322,1.161c-0.379,0.358-0.695,0.713-0.946,1.064c-0.25,0.351-0.441,0.723-0.57,1.118
		c-0.129,0.394-0.193,0.842-0.193,1.343c0,0.344,0.046,0.695,0.14,1.053s0.218,0.659,0.376,0.903H4.466z M7.604,31.947
		c-1.147,0-2.099-0.344-2.859-1.032c-0.76-0.717-1.139-1.562-1.139-2.536c0-1.003,0.379-1.841,1.139-2.515
		c0.76-0.674,1.712-1.01,2.859-1.01c1.132,0,2.071,0.336,2.816,1.01c0.745,0.659,1.118,1.497,1.118,2.515
		c0,1.032-0.365,1.884-1.096,2.558C9.697,31.609,8.751,31.947,7.604,31.947z"/>
</g>
</svg>
