<?xml version="1.0" encoding="utf-8"?>
<!-- Generator: Adobe Illustrator 16.2.0, SVG Export Plug-In . SVG Version: 6.00 Build 0)  -->
<!DOCTYPE svg PUBLIC "-//W3C//DTD SVG 1.1//EN" "http://www.w3.org/Graphics/SVG/1.1/DTD/svg11.dtd">
<svg version="1.1" id="changeicon" xmlns="http://www.w3.org/2000/svg" xmlns:xlink="http://www.w3.org/1999/xlink" x="0px" y="0px"
	 width="30px" height="30px" viewBox="-8 -6.5 30 30" enable-background="new -8 -6.5 30 30" xml:space="preserve">
<g>
	<path fill="#FFFFFF" d="M8.146,3.867C9,4.041,9.773,4.427,10.4,5L6.987,5.173l1.8,1.76l5.146-0.12L14,1.747L12.2,0l-0.146,3.147
		C11.107,2.28,9.92,1.693,8.613,1.44C4.773,0.707,0.88,2.947,0,7.427l2.747,0.04C3.227,5.014,5.654,3.4,8.146,3.867z"/>
	<path fill="#FFFFFF" d="M5.773,13.2C4.88,13.027,4.08,12.613,3.44,12l3.613-0.186l-1.8-1.762l-5.146,0.12L0.04,15.24L1.84,17
		l0.133-2.973c0.934,0.8,2.066,1.373,3.32,1.613c3.854,0.732,7.854-1.693,8.707-6l-2.827-0.027
		C10.693,12.066,8.268,13.68,5.773,13.2z"/>
</g>
</svg>
