<?xml version="1.0" encoding="utf-8"?>
<!-- Generator: Adobe Illustrator 16.2.0, SVG Export Plug-In . SVG Version: 6.00 Build 0)  -->
<!DOCTYPE svg PUBLIC "-//W3C//DTD SVG 1.1//EN" "http://www.w3.org/Graphics/SVG/1.1/DTD/svg11.dtd">
<svg version="1.1" id="Layer_1" xmlns="http://www.w3.org/2000/svg" xmlns:xlink="http://www.w3.org/1999/xlink" x="0px" y="0px"
	 width="30px" height="10px" viewBox="0 0 30 10" enable-background="new 0 0 30 10" xml:space="preserve">
<g>
	<g>
		<path fill="#F2F2F2" d="M9.142,6.268c-0.729,0-1.319-0.59-1.319-1.318l0,0c0-0.729,0.591-1.32,1.319-1.32l0,0h11.717
			c0.729,0,1.32,0.592,1.32,1.32l0,0c0,0.729-0.591,1.318-1.32,1.318l0,0H9.142L9.142,6.268z"/>
	</g>
	<g>
		<path fill="#F2F2F2" d="M24.367,0.867h-5.27c-1.53,0-2.863,0.832-3.577,2.068h2.962c0.422-0.203,0.904-0.33,1.426-0.33h3.647
			c1.58,0,2.86,1.072,2.86,2.395s-1.28,2.395-2.86,2.395h-3.647c-0.522,0-1.006-0.127-1.427-0.332H15.52
			c0.714,1.236,2.048,2.07,3.578,2.07h5.27C26.65,9.133,28.5,7.283,28.5,5S26.65,0.867,24.367,0.867z"/>
		<path fill="#F2F2F2" d="M11.519,7.063c-0.421,0.205-0.904,0.332-1.427,0.332H6.444c-1.58,0-2.86-1.072-2.86-2.395
			s1.28-2.395,2.86-2.395h3.647c0.521,0,1.004,0.127,1.426,0.33h2.963c-0.714-1.236-2.047-2.068-3.577-2.068H5.633
			C3.35,0.867,1.5,2.717,1.5,5s1.85,4.133,4.133,4.133h5.271c1.53,0,2.863-0.834,3.577-2.07H11.519z"/>
	</g>
</g>
</svg>
