<?xml version="1.0" encoding="utf-8"?>
<!-- Generator: Adobe Illustrator 16.2.0, SVG Export Plug-In . SVG Version: 6.00 Build 0)  -->
<!DOCTYPE svg PUBLIC "-//W3C//DTD SVG 1.1//EN" "http://www.w3.org/Graphics/SVG/1.1/DTD/svg11.dtd" [
	<!ENTITY ns_flows "http://ns.adobe.com/Flows/1.0/">
	<!ENTITY ns_extend "http://ns.adobe.com/Extensibility/1.0/">
	<!ENTITY ns_ai "http://ns.adobe.com/AdobeIllustrator/10.0/">
	<!ENTITY ns_graphs "http://ns.adobe.com/Graphs/1.0/">
]>
<svg version="1.1" id="maximumicon" xmlns:x="&ns_extend;" xmlns:i="&ns_ai;" xmlns:graph="&ns_graphs;"
	 xmlns="http://www.w3.org/2000/svg" xmlns:xlink="http://www.w3.org/1999/xlink" xmlns:a="http://ns.adobe.com/AdobeSVGViewerExtensions/3.0/"
	 x="0px" y="0px" width="23px" height="7px" viewBox="0 0 23 7" enable-background="new 0 0 23 7" xml:space="preserve">
<g>
	<path fill-rule="evenodd" clip-rule="evenodd" fill="#FFFFFF" d="M9,0H6.32l-1.44,4.146C4.787,4.426,4.693,4.76,4.613,5.16H4.586
		c-0.067-0.347-0.146-0.68-0.253-1L2.893,0H0v7h2V3.12C2,2.613,1.973,2,1.906,1.307h0.053C2.053,1.84,2.133,2.173,2.173,2.293
		L3.867,7H5.16l1.653-4.76C6.879,2.053,6.959,1.747,7.04,1.307H7.08C7.027,1.88,7,2.373,7,2.813V7h2V0z"/>
	<path fill-rule="evenodd" clip-rule="evenodd" fill="#FFFFFF" d="M11.64,4l0.72-2.133c0.066-0.2,0.093-0.4,0.12-0.613h0.026
		c0.027,0.253,0.066,0.453,0.12,0.627L13.346,4H11.64z M13.494,0h-1.907L9,7h1.72l0.626-2h2.294l0.64,2H16L13.494,0z"/>
	<path fill-rule="evenodd" clip-rule="evenodd" fill="#FFFFFF" d="M20.68,3.467L23,0h-1.92l-1.227,2.08
		c-0.133,0.28-0.213,0.48-0.24,0.613H19.6c-0.08-0.227-0.16-0.426-0.253-0.6L18.213,0H16l2.414,3.506L16,7h2.04l1.307-2.267
		c0.08-0.213,0.147-0.373,0.173-0.479h0.014c0.053,0.227,0.093,0.387,0.16,0.467L20.986,7H23L20.68,3.467z"/>
</g>
</svg>
