<?xml version="1.0" encoding="utf-8"?>
<!-- Generator: Adobe Illustrator 16.2.0, SVG Export Plug-In . SVG Version: 6.00 Build 0)  -->
<!DOCTYPE svg PUBLIC "-//W3C//DTD SVG 1.1//EN" "http://www.w3.org/Graphics/SVG/1.1/DTD/svg11.dtd">
<svg version="1.1" id="Layer_1" xmlns="http://www.w3.org/2000/svg" xmlns:xlink="http://www.w3.org/1999/xlink" x="0px" y="0px"
	 width="20px" height="20px" viewBox="0 0 20 20" enable-background="new 0 0 20 20" xml:space="preserve">
<path fill="#FFFFFF" d="M6,4.5"/>
<path fill="#FFFFFF" d="M14,4.5"/>
<g>
	<g>
		<path fill="#FFFFFF" d="M5.928,16.849v0.004l3.767-0.011l-2.436,2.308l2.75-0.038l3.491-3.308l-3.574-3.315l-2.665,0.004
			l2.428,2.284l-3.664,0.007c-1.354,0-2.456-1.103-2.456-2.457c0-1.352,1.099-2.453,2.473-2.453h0.004h0.119l3-0.002v-2.07h-3
			l0.007,0.004L6.025,7.803c-2.496,0-4.525,2.028-4.525,4.523C1.5,14.782,3.467,16.787,5.928,16.849"/>
	</g>
	<rect x="5.5" y="0.851" fill="#FFFFFF" width="8" height="2"/>
	<rect x="5.5" y="3.851" fill="#FFFFFF" width="8" height="1"/>
	<rect x="5.5" y="5.851" fill="#FFFFFF" width="8" height="1"/>
	<rect x="10.5" y="7.851" fill="#FFFFFF" width="3" height="1"/>
	<rect x="14.5" y="0.851" fill="#FFFFFF" width="4" height="2"/>
	<rect x="14.5" y="3.851" fill="#FFFFFF" width="4" height="1"/>
	<rect x="14.5" y="5.851" fill="#FFFFFF" width="4" height="1"/>
	<rect x="14.5" y="7.851" fill="#FFFFFF" width="4" height="1"/>
</g>
</svg>
