<?xml version="1.0" encoding="utf-8"?>
<!-- Generator: Adobe Illustrator 17.1.0, SVG Export Plug-In . SVG Version: 6.00 Build 0)  -->
<!DOCTYPE svg PUBLIC "-//W3C//DTD SVG 1.1//EN" "http://www.w3.org/Graphics/SVG/1.1/DTD/svg11.dtd">
<svg version="1.1" id="Layer_1" xmlns="http://www.w3.org/2000/svg" xmlns:xlink="http://www.w3.org/1999/xlink" x="0px" y="0px"
	 width="20px" height="20px" viewBox="0 0 20 20" enable-background="new 0 0 20 20" xml:space="preserve">
<g>
	<rect x="1.5" y="4.4" fill="#FFFFFF" width="2.1" height="11"/>
	<polygon fill="#FFFFFF" points="19.1,16.9 0.3,16.9 0.3,3.1 19.1,3.1 19.1,7.7 19.4,8 19.4,2.6 0,2.6 0,17.4 19.4,17.4 19.4,11.6 
		19.1,11.9 	"/>
	<polygon fill="#FFFFFF" points="13.8,11.6 9.3,11.6 9.3,7.9 13.8,7.9 13.8,7.3 11.6,5.2 13.8,5.2 13.8,4.4 5.4,4.4 5.4,15.4 
		13.8,15.4 13.8,14.4 11.6,14.4 13.8,12.3 	"/>
	<polygon fill="#FFFFFF" points="15.7,15.4 17.7,15.4 17.7,13.2 16.5,14.4 15.7,14.4 	"/>
	<polygon fill="#FFFFFF" points="17.7,6.3 17.7,4.4 15.7,4.4 15.7,5.2 16.6,5.2 	"/>
	<polygon fill="#FFFFFF" points="16.2,6.1 13.9,6.1 16.7,8.8 10.2,8.8 10.2,10.7 16.7,10.7 13.8,13.5 16.2,13.5 20,9.8 	"/>
</g>
</svg>
