<?xml version="1.0" encoding="utf-8"?>
<!-- Generator: Adobe Illustrator 16.2.0, SVG Export Plug-In . SVG Version: 6.00 Build 0)  -->
<!DOCTYPE svg PUBLIC "-//W3C//DTD SVG 1.1//EN" "http://www.w3.org/Graphics/SVG/1.1/DTD/svg11.dtd" [
	<!ENTITY ns_flows "http://ns.adobe.com/Flows/1.0/">
	<!ENTITY ns_extend "http://ns.adobe.com/Extensibility/1.0/">
	<!ENTITY ns_ai "http://ns.adobe.com/AdobeIllustrator/10.0/">
	<!ENTITY ns_graphs "http://ns.adobe.com/Graphs/1.0/">
]>
<svg version="1.1" id="Layer_1" xmlns:x="&ns_extend;" xmlns:i="&ns_ai;" xmlns:graph="&ns_graphs;"
	 xmlns="http://www.w3.org/2000/svg" xmlns:xlink="http://www.w3.org/1999/xlink" xmlns:a="http://ns.adobe.com/AdobeSVGViewerExtensions/3.0/"
	 x="0px" y="0px" width="110px" height="110px" viewBox="0 0 110 110" enable-background="new 0 0 110 110" xml:space="preserve">
<g>
	<path fill="#6E6E6E" d="M0,0v110h110V0H0z M68.3,54.333c-0.134,0.506-0.427,0.934-0.947,0.934c-0.494,0-0.92-0.427-0.92-0.934
		c0-2.467-0.107-4.96-1.146-7.2c-1.534-3.467-3.734-6.427-5.734-6.427c-1.146,0-2.026,0.627-2.026,2.267v4.16v24.894
		c0,4.413-3.56,7.973-8.013,7.973C45.1,80,41.5,76.44,41.5,72.027c0-4.4,3.6-7.96,8.014-7.96c1.389,0,2.691,0.347,3.826,0.958
		V32.867c0-0.974,0.067-2.867,1.894-2.867c1.546,0,2.399,1.6,2.986,2.667c0.92,1.667,2.413,3.533,4.866,6.134
		c2.693,2.866,5.414,6.773,5.414,11.533C68.5,52.574,68.393,53.934,68.3,54.333z"/>
</g>
</svg>
