<?xml version="1.0" encoding="utf-8"?>
<!-- Generator: Adobe Illustrator 16.2.0, SVG Export Plug-In . SVG Version: 6.00 Build 0)  -->
<!DOCTYPE svg PUBLIC "-//W3C//DTD SVG 1.0//EN" "http://www.w3.org/TR/2001/REC-SVG-20010904/DTD/svg10.dtd">
<svg version="1.0" id="Layer_1" xmlns="http://www.w3.org/2000/svg" xmlns:xlink="http://www.w3.org/1999/xlink" x="0px" y="0px"
	 width="18px" height="18px" viewBox="0 0 18 18" enable-background="new 0 0 18 18" xml:space="preserve">
<g>
	<path fill="#653964" d="M9,1.5c4.136,0,7.5,3.364,7.5,7.5s-3.364,7.5-7.5,7.5S1.5,13.136,1.5,9S4.864,1.5,9,1.5 M9,0.5
		C4.305,0.5,0.5,4.305,0.5,9c0,4.693,3.805,8.5,8.5,8.5c4.693,0,8.5-3.807,8.5-8.5C17.5,4.305,13.693,0.5,9,0.5L9,0.5z"/>
</g>
<rect x="5.404" y="4.246" fill="none" width="7.191" height="10.508"/>
<text transform="matrix(1 0 0 1 6.3105 13.1289)" fill="#653964" font-family="'SegoeUI'" font-size="12">?</text>
</svg>
