<?xml version="1.0" encoding="utf-8"?>
<!-- Generator: Adobe Illustrator 16.2.0, SVG Export Plug-In . SVG Version: 6.00 Build 0)  -->
<!DOCTYPE svg PUBLIC "-//W3C//DTD SVG 1.1//EN" "http://www.w3.org/Graphics/SVG/1.1/DTD/svg11.dtd" [
	<!ENTITY ns_flows "http://ns.adobe.com/Flows/1.0/">
	<!ENTITY ns_extend "http://ns.adobe.com/Extensibility/1.0/">
	<!ENTITY ns_ai "http://ns.adobe.com/AdobeIllustrator/10.0/">
	<!ENTITY ns_graphs "http://ns.adobe.com/Graphs/1.0/">
]>
<svg version="1.1" id="Layer_1" xmlns:x="&ns_extend;" xmlns:i="&ns_ai;" xmlns:graph="&ns_graphs;"
	 xmlns="http://www.w3.org/2000/svg" xmlns:xlink="http://www.w3.org/1999/xlink" xmlns:a="http://ns.adobe.com/AdobeSVGViewerExtensions/3.0/"
	 x="0px" y="0px" width="20px" height="20px" viewBox="0 0 20 20" enable-background="new 0 0 20 20" xml:space="preserve">
<g>
	<circle fill-rule="evenodd" clip-rule="evenodd" fill="#824A82" cx="10" cy="10" r="9"/>
	<g>
		<path fill-rule="evenodd" clip-rule="evenodd" fill="#FFFFFF" d="M11.04,15.06c0.26-0.22,0.4-0.5,0.4-0.84
			c0-0.34-0.14-0.61-0.4-0.83c-0.28-0.22-0.62-0.34-1.02-0.34c-0.42,0-0.78,0.12-1.05,0.34c-0.27,0.22-0.41,0.5-0.41,0.83
			c0,0.32,0.14,0.6,0.41,0.84c0.27,0.23,0.63,0.34,1.05,0.34C10.43,15.4,10.77,15.29,11.04,15.06z M10.66,12.11
			c-0.06-0.08-0.1-0.18-0.14-0.3c-0.02-0.12-0.04-0.23-0.04-0.35c0-0.17,0.02-0.32,0.06-0.45c0.04-0.14,0.1-0.26,0.18-0.38
			c0.07-0.12,0.18-0.23,0.3-0.35c0.12-0.12,0.26-0.25,0.41-0.39c0.23-0.21,0.45-0.41,0.62-0.6c0.18-0.19,0.34-0.4,0.46-0.61
			c0.12-0.21,0.21-0.44,0.27-0.68c0.06-0.23,0.1-0.5,0.1-0.8c0-0.45-0.08-0.85-0.25-1.18c-0.16-0.32-0.39-0.59-0.67-0.8
			C11.67,5,11.34,4.85,10.95,4.75c-0.39-0.1-0.8-0.15-1.25-0.15c-0.47,0-0.93,0.06-1.36,0.17C7.89,4.88,7.49,5.04,7.12,5.26v2.16
			c0.34-0.31,0.72-0.55,1.11-0.71C8.62,6.56,9,6.48,9.37,6.48c0.17,0,0.32,0.03,0.46,0.08c0.13,0.06,0.25,0.13,0.35,0.22
			c0.09,0.09,0.16,0.2,0.22,0.32c0.05,0.13,0.08,0.27,0.08,0.42c0,0.18-0.02,0.33-0.07,0.47c-0.04,0.15-0.1,0.28-0.19,0.41
			c-0.08,0.13-0.19,0.26-0.31,0.4C9.79,8.93,9.65,9.08,9.48,9.23c-0.15,0.15-0.29,0.29-0.4,0.43c-0.12,0.15-0.22,0.3-0.29,0.46
			c-0.08,0.17-0.14,0.34-0.18,0.53c-0.03,0.18-0.05,0.38-0.05,0.6c0,0.14,0.01,0.29,0.04,0.44c0.03,0.16,0.06,0.3,0.12,0.42H10.66z"
			/>
	</g>
</g>
</svg>
