<?xml version="1.0" encoding="utf-8"?>
<!-- Generator: Adobe Illustrator 17.1.0, SVG Export Plug-In . SVG Version: 6.00 Build 0)  -->
<!DOCTYPE svg PUBLIC "-//W3C//DTD SVG 1.1//EN" "http://www.w3.org/Graphics/SVG/1.1/DTD/svg11.dtd">
<svg version="1.1" id="Layer_1" xmlns="http://www.w3.org/2000/svg" xmlns:xlink="http://www.w3.org/1999/xlink" x="0px" y="0px"
	 viewBox="0 0 18 18" enable-background="new 0 0 18 18" xml:space="preserve">
<path id="redo_x5F_icon" fill="#FFFFFF" d="M0.8,8.1c0.3-0.5,0.6-1,0.9-1.4c0.3-0.4,0.7-0.8,1.2-1.1C3.3,5.3,3.8,5,4.2,4.9
	c0.5-0.2,0.9-0.3,1.4-0.3h7.5h1l-0.6-0.7l-3.2-3.5h2.6L18,5.9l-5.1,5.4h-2.6l3.2-3.5l0.6-0.7h-1H6.9c-0.6,0-1.2,0.1-1.8,0.4
	C4.5,7.7,4,8.1,3.6,8.4c-0.4,0.4-0.7,0.8-1,1.4c-0.3,0.6-0.4,1.1-0.4,1.7c0,0.6,0.1,1.1,0.3,1.6c0.2,0.5,0.5,0.9,0.9,1.3
	c0.4,0.4,0.9,0.6,1.4,0.8c0.4,0.1,0.8,0.2,1.3,0.3V18c-0.8,0-1.5-0.2-2.2-0.5c-0.8-0.3-1.5-0.8-2.1-1.4c-0.6-0.6-1-1.2-1.4-2.1
	C0.2,13.3,0,12.5,0,11.6c0-0.6,0.1-1.2,0.2-1.8C0.4,9.2,0.6,8.6,0.8,8.1z"/>
</svg>
