<?xml version="1.0" encoding="utf-8"?>
<!-- Generator: Adobe Illustrator 16.2.0, SVG Export Plug-In . SVG Version: 6.00 Build 0)  -->
<!DOCTYPE svg PUBLIC "-//W3C//DTD SVG 1.1//EN" "http://www.w3.org/Graphics/SVG/1.1/DTD/svg11.dtd" [
	<!ENTITY ns_flows "http://ns.adobe.com/Flows/1.0/">
	<!ENTITY ns_extend "http://ns.adobe.com/Extensibility/1.0/">
	<!ENTITY ns_ai "http://ns.adobe.com/AdobeIllustrator/10.0/">
	<!ENTITY ns_graphs "http://ns.adobe.com/Graphs/1.0/">
]>
<svg version="1.1" xmlns:x="&ns_extend;" xmlns:i="&ns_ai;" xmlns:graph="&ns_graphs;"
	 xmlns="http://www.w3.org/2000/svg" xmlns:xlink="http://www.w3.org/1999/xlink" xmlns:a="http://ns.adobe.com/AdobeSVGViewerExtensions/3.0/"
	 x="0px" y="0px" width="25px" height="25px" viewBox="0 0 25 25" enable-background="new 0 0 25 25" xml:space="preserve">
<g id="Layer_2" display="none">
	<rect display="inline" fill="#C62828" width="25" height="25"/>
</g>
<g id="Layer_1">
	<g>
		<path fill="#FFFFFF" d="M20.5,10.74h-5.857l-2.048-1.875l3.852-0.183c-0.524-0.366-1.102-0.66-1.732-0.885
			c-0.629-0.224-1.286-0.336-1.973-0.336c-0.608,0-1.194,0.094-1.759,0.284C10.42,7.935,9.913,8.204,9.466,8.553
			c-0.447,0.35-0.822,0.769-1.123,1.26c-0.301,0.49-0.494,1.037-0.577,1.64L4.5,11.278c0.224-1.063,0.602-1.997,1.133-2.802
			c0.532-0.805,1.172-1.478,1.918-2.019c0.744-0.542,1.569-0.95,2.477-1.226s1.85-0.414,2.829-0.414c1.022,0,1.997,0.167,2.923,0.5
			c0.928,0.334,1.751,0.843,2.473,1.529L18.493,3.5L20.5,5.337V10.74z M12.595,15.924l-4.043,0.173
			c0.218,0.243,0.471,0.456,0.763,0.634c0.29,0.18,0.599,0.326,0.929,0.443c0.329,0.114,0.67,0.199,1.022,0.254
			c0.354,0.055,0.7,0.082,1.035,0.082c0.608,0,1.192-0.094,1.748-0.284c0.558-0.188,1.057-0.451,1.505-0.788
			c0.449-0.337,0.823-0.738,1.124-1.207c0.301-0.467,0.5-0.979,0.597-1.538H20.5c-0.11,0.667-0.304,1.29-0.571,1.87
			c-0.272,0.581-0.599,1.11-0.982,1.592c-0.386,0.48-0.825,0.908-1.317,1.283c-0.494,0.375-1.021,0.692-1.58,0.951
			c-0.561,0.261-1.149,0.457-1.767,0.592c-0.613,0.135-1.24,0.202-1.877,0.202c-0.498,0-1.003-0.034-1.518-0.105
			c-0.514-0.07-1.02-0.18-1.516-0.327c-0.497-0.147-0.972-0.338-1.424-0.572c-0.451-0.233-0.855-0.514-1.212-0.841V21.5L4.5,19.625
			l0.199-5.538h5.889L12.595,15.924z"/>
	</g>
</g>
</svg>
