<?xml version="1.0" encoding="utf-8"?>
<!-- Generator: Adobe Illustrator 16.2.0, SVG Export Plug-In . SVG Version: 6.00 Build 0)  -->
<!DOCTYPE svg PUBLIC "-//W3C//DTD SVG 1.1//EN" "http://www.w3.org/Graphics/SVG/1.1/DTD/svg11.dtd">
<svg version="1.1" id="Layer_1" xmlns="http://www.w3.org/2000/svg" xmlns:xlink="http://www.w3.org/1999/xlink" x="0px" y="0px"
	 width="25px" height="25px" viewBox="0 0 25 25" enable-background="new 0 0 25 25" xml:space="preserve">
<g>
	<polygon fill-rule="evenodd" clip-rule="evenodd" fill="#966596" points="7.575,19.51 12.496,14.59 17.425,19.51 19.5,17.435 
		14.589,12.505 19.5,7.575 17.425,5.49 12.496,10.411 7.575,5.49 5.5,7.584 10.42,12.505 5.5,17.416 	"/>
</g>
<g>
	<path fill="#966596" d="M12.5,1.5c6.075,0,11,4.925,11,11s-4.925,11-11,11s-11-4.925-11-11S6.425,1.5,12.5,1.5 M12.5,0.5
		c-6.617,0-12,5.383-12,12s5.383,12,12,12s12-5.383,12-12S19.117,0.5,12.5,0.5L12.5,0.5z"/>
</g>
</svg>