<?xml version="1.0" encoding="utf-8"?>
<!-- Generator: Adobe Illustrator 17.1.0, SVG Export Plug-In . SVG Version: 6.00 Build 0)  -->
<!DOCTYPE svg PUBLIC "-//W3C//DTD SVG 1.1//EN" "http://www.w3.org/Graphics/SVG/1.1/DTD/svg11.dtd">
<svg version="1.1" id="Layer_1" xmlns="http://www.w3.org/2000/svg" xmlns:xlink="http://www.w3.org/1999/xlink" x="0px" y="0px"
	 width="20px" height="20px" viewBox="0 0 20 20" enable-background="new 0 0 20 20" xml:space="preserve">
<g>
	<g>
		<g>
			<circle fill="#FFFFFF" cx="12.6" cy="14.8" r="2"/>
			<path fill="#FFFFFF" d="M3.3,14.8L3.7,14c0.1-0.2,2.5-4.8,7-5.9L0,0v19.4l4.1-3.1c-0.2-0.4-0.4-0.6-0.4-0.7L3.3,14.8z"/>
			<path fill="#FFFFFF" d="M12.6,16.8c-1.1,0-2-0.9-2-2s0.9-2,2-2s2,0.9,2,2S13.7,16.8,12.6,16.8z"/>
		</g>
		<path fill="#FFFFFF" d="M12.6,9.6c-4.7,0-7.4,5.2-7.4,5.2S7.9,20,12.6,20s7.4-5.2,7.4-5.2S17.3,9.6,12.6,9.6z M12.6,18.5
			c-2.1,0-3.7-1.7-3.7-3.7c0-2.1,1.7-3.7,3.7-3.7s3.7,1.7,3.7,3.7C16.3,16.8,14.7,18.5,12.6,18.5z"/>
	</g>
	<g>
		<circle fill="#FFFFFF" cx="12.6" cy="14.8" r="2"/>
	</g>
</g>
</svg>
