<?xml version="1.0" encoding="utf-8"?>
<!-- Generator: Adobe Illustrator 17.1.0, SVG Export Plug-In . SVG Version: 6.00 Build 0)  -->
<!DOCTYPE svg PUBLIC "-//W3C//DTD SVG 1.1//EN" "http://www.w3.org/Graphics/SVG/1.1/DTD/svg11.dtd">
<svg version="1.1" id="Layer_1" xmlns="http://www.w3.org/2000/svg" xmlns:xlink="http://www.w3.org/1999/xlink" x="0px" y="0px"
	 viewBox="0 0 18 18" enable-background="new 0 0 18 18" xml:space="preserve">
<path id="redo_x5F_icon" fill="#FFFFFF" d="M17.2,8.1c-0.3-0.5-0.6-1-0.9-1.4c-0.3-0.4-0.7-0.8-1.2-1.1c-0.4-0.3-0.9-0.5-1.3-0.7
	c-0.5-0.2-0.9-0.3-1.4-0.3H4.8h-1l0.6-0.7l3.2-3.5H5.1L0,5.9l5.1,5.4h2.6L4.5,7.8L3.9,7.1h1h6.3c0.6,0,1.2,0.1,1.8,0.4
	c0.6,0.3,1.1,0.6,1.5,1c0.4,0.4,0.7,0.8,1,1.4c0.3,0.6,0.4,1.1,0.4,1.7c0,0.6-0.1,1.1-0.3,1.6c-0.2,0.5-0.5,0.9-0.9,1.3
	c-0.4,0.4-0.9,0.6-1.4,0.8c-0.4,0.1-0.8,0.2-1.3,0.3V18c0.8,0,1.5-0.2,2.2-0.5c0.8-0.3,1.5-0.8,2.1-1.4c0.6-0.6,1-1.2,1.4-2.1
	c0.3-0.8,0.5-1.6,0.5-2.6c0-0.6-0.1-1.2-0.2-1.8C17.6,9.2,17.4,8.6,17.2,8.1z"/>
</svg>
