<?xml version="1.0" encoding="utf-8"?>
<!-- Generator: Adobe Illustrator 15.1.0, SVG Export Plug-In . SVG Version: 6.00 Build 0)  -->
<!DOCTYPE svg PUBLIC "-//W3C//DTD SVG 1.1//EN" "http://www.w3.org/Graphics/SVG/1.1/DTD/svg11.dtd">
<svg version="1.1" id="Layer_1" xmlns="http://www.w3.org/2000/svg" xmlns:xlink="http://www.w3.org/1999/xlink" x="0px" y="0px"
	 width="90px" height="100px" viewBox="0 0 90 100" enable-background="new 0 0 90 100" xml:space="preserve">
<g opacity="0.2">
	<path d="M85.739,0H68.848H58.742H4.206C1.868,0-0.027,1.908-0.027,4.27v53.616v21.438V95.73c0,2.355,1.895,4.271,4.233,4.271
		h81.533c2.336,0,4.233-1.915,4.233-4.271V4.27C89.973,1.908,88.075,0,85.739,0z M79.416,9.963c0.237,0,0.451,0.219,0.451,0.441
		v68.151H9.958V10.404c0-0.223,0.214-0.441,0.444-0.441H79.416z"/>
	<g>
		<path d="M37.086,56.898c-0.212-0.551-0.377-1.171-0.493-1.859c-0.117-0.688-0.175-1.341-0.175-1.956
			c0-0.975,0.095-1.865,0.286-2.67s0.477-1.563,0.858-2.273c0.382-0.71,0.858-1.388,1.431-2.035c0.572-0.646,1.24-1.288,2.003-1.924
			c0.805-0.678,1.51-1.309,2.114-1.892s1.118-1.166,1.542-1.749c0.424-0.583,0.742-1.187,0.954-1.812
			c0.211-0.625,0.318-1.32,0.318-2.083c0-0.657-0.117-1.267-0.35-1.829c-0.234-0.561-0.567-1.043-1.002-1.446
			c-0.435-0.402-0.964-0.721-1.589-0.954c-0.625-0.233-1.32-0.35-2.083-0.35c-1.654,0-3.371,0.345-5.151,1.033
			c-1.781,0.689-3.466,1.733-5.056,3.132v-9.57c1.632-0.975,3.413-1.706,5.342-2.194c1.928-0.487,3.921-0.731,5.978-0.731
			c1.971,0,3.804,0.218,5.5,0.652c1.695,0.435,3.174,1.119,4.435,2.051c1.262,0.933,2.247,2.125,2.957,3.577
			c0.711,1.452,1.066,3.195,1.066,5.23c0,1.293-0.149,2.464-0.445,3.513c-0.297,1.049-0.732,2.041-1.305,2.973
			c-0.572,0.933-1.282,1.828-2.13,2.687c-0.848,0.858-1.823,1.744-2.925,2.655c-0.742,0.615-1.395,1.188-1.955,1.717
			c-0.562,0.53-1.029,1.055-1.399,1.574c-0.371,0.52-0.652,1.071-0.843,1.654c-0.19,0.583-0.286,1.245-0.286,1.987
			c0,0.509,0.069,1.028,0.207,1.558c0.137,0.53,0.323,0.976,0.556,1.335H37.086z M41.728,70.825c-1.696,0-3.105-0.509-4.229-1.526
			c-1.124-1.06-1.685-2.311-1.685-3.752c0-1.483,0.562-2.724,1.685-3.72s2.533-1.494,4.229-1.494c1.674,0,3.062,0.498,4.165,1.494
			c1.101,0.976,1.654,2.215,1.654,3.72c0,1.526-0.541,2.788-1.622,3.784C44.822,70.327,43.423,70.825,41.728,70.825z"/>
	</g>
</g>
</svg>
