<?xml version="1.0" encoding="utf-8"?>
<!-- Generator: Adobe Illustrator 15.1.0, SVG Export Plug-In . SVG Version: 6.00 Build 0)  -->
<!DOCTYPE svg PUBLIC "-//W3C//DTD SVG 1.1//EN" "http://www.w3.org/Graphics/SVG/1.1/DTD/svg11.dtd">
<svg version="1.1" id="Layer_1" xmlns="http://www.w3.org/2000/svg" xmlns:xlink="http://www.w3.org/1999/xlink" x="0px" y="0px"
	 width="70px" height="70px" viewBox="0 0 70 70" enable-background="new 0 0 70 70" xml:space="preserve">
<g opacity="0.2">
	<g>
		<path d="M30.998,40.775c-0.13-0.342-0.232-0.725-0.304-1.15c-0.072-0.424-0.107-0.828-0.107-1.207c0-0.604,0.06-1.152,0.176-1.65
			c0.119-0.5,0.296-0.969,0.531-1.408c0.235-0.438,0.531-0.855,0.884-1.258c0.355-0.396,0.768-0.793,1.238-1.187
			c0.498-0.421,0.934-0.81,1.308-1.171c0.372-0.36,0.69-0.719,0.954-1.08c0.262-0.36,0.457-0.732,0.588-1.121
			c0.131-0.385,0.197-0.814,0.197-1.287c0-0.406-0.072-0.782-0.217-1.129c-0.143-0.348-0.35-0.646-0.619-0.895
			c-0.268-0.249-0.596-0.445-0.982-0.591c-0.386-0.144-0.816-0.216-1.288-0.216c-1.022,0-2.081,0.213-3.182,0.64
			S28.031,27.135,27.049,28v-5.916c1.009-0.602,2.109-1.053,3.302-1.354c1.192-0.303,2.423-0.453,3.694-0.453
			c1.219,0,2.352,0.135,3.399,0.404c1.05,0.268,1.964,0.689,2.743,1.266c0.778,0.577,1.387,1.312,1.826,2.211
			s0.659,1.976,0.659,3.233c0,0.8-0.092,1.522-0.276,2.171c-0.183,0.648-0.451,1.261-0.805,1.838
			c-0.354,0.578-0.793,1.129-1.317,1.662c-0.522,0.529-1.126,1.076-1.808,1.641c-0.459,0.379-0.861,0.734-1.209,1.061
			c-0.347,0.326-0.635,0.65-0.865,0.973c-0.229,0.32-0.4,0.662-0.521,1.021c-0.116,0.361-0.177,0.77-0.177,1.23
			c0,0.314,0.043,0.635,0.129,0.961c0.086,0.328,0.199,0.604,0.344,0.826H30.998z M33.869,49.383c-1.049,0-1.921-0.314-2.614-0.943
			c-0.694-0.654-1.043-1.426-1.043-2.318c0-0.918,0.349-1.684,1.043-2.299c0.693-0.615,1.565-0.924,2.614-0.924
			c1.033,0,1.893,0.309,2.574,0.924c0.682,0.602,1.021,1.367,1.021,2.299c0,0.943-0.335,1.723-1.002,2.338
			C35.781,49.074,34.916,49.383,33.869,49.383z"/>
	</g>
	<g>
		<path d="M35,5c16.542,0,30,13.458,30,30S51.542,65,35,65S5,51.542,5,35S18.458,5,35,5 M35,0C15.672,0,0,15.672,0,35
			c0,19.332,15.672,35,35,35c19.332,0,35-15.668,35-35C70,15.672,54.332,0,35,0L35,0z"/>
	</g>
</g>
</svg>
