<?xml version="1.0" encoding="utf-8"?>
<!-- Generator: Adobe Illustrator 16.0.0, SVG Export Plug-In . SVG Version: 6.00 Build 0)  -->
<!DOCTYPE svg PUBLIC "-//W3C//DTD SVG 1.1//EN" "http://www.w3.org/Graphics/SVG/1.1/DTD/svg11.dtd">
<svg version="1.1" xmlns="http://www.w3.org/2000/svg" xmlns:xlink="http://www.w3.org/1999/xlink" x="0px" y="0px" width="512.5px"
	 height="200px" viewBox="0 0 512.5 200" enable-background="new 0 0 512.5 200" xml:space="preserve">
<g id="Layer_1">
	<path fill="#000000" d="M115.167,0C51.548,0,0,38.662,0,86.363c0,36.824,30.797,68.176,74.068,80.592c1.02,3.059,1.875,6.709,1.875,11.35
		c0,12.212-5.502,21.695-5.502,21.695s13.494-4.445,26.224-14.521c4.243-3.366,7.812-8.329,10.615-13.06
		c2.594,0.127,5.217,0.293,7.887,0.293c63.558,0,115.121-38.662,115.121-86.35C230.288,38.662,178.725,0,115.167,0z"/>
</g>
<g id="Layer_2" display="none">
	<g display="inline">
		<rect x="249.968" y="24.367" width="262.532" height="25.32"/>
		<rect x="249.968" y="149.367" width="212.657" height="25.32"/>
		<rect x="249.968" y="87.344" width="149.657" height="25.32"/>
		<path d="M0,200h31.968c0-37.516,19.055-69.359,45.633-81.281c-16.016-8.336-26.977-25.047-26.977-44.352
			c0-27.617,22.391-50,50.008-50s50.008,22.383,50.008,50c0,19.305-10.961,36.016-26.977,44.352
			c26.57,11.922,45.633,43.766,45.633,81.281H200V0H0V200z"/>
	</g>
</g>
<g id="Layer_3" display="none">
	<path fill="#000000" display="inline" d="M336.092,50.074l-39.526,16.189l24.76,19.18l-40.906,52.594L235.984,7.676
		c-1.491-4.371-5.485-7.405-10.1-7.664c-4.621-0.206-8.918,2.312-10.889,6.497l-52.764,112.098L139.508,64.58
		c-1.706-4.045-5.596-6.74-9.981-6.932c-4.386-0.147-8.476,2.178-10.513,6.061L67.97,160.968L21.962,38.247
		c-2.2-5.869-8.734-8.845-14.604-6.638c-5.861,2.2-8.829,8.734-6.637,14.596L55.626,192.64c1.565,4.186,5.449,7.058,9.908,7.338
		c0.236,0.015,0.473,0.022,0.708,0.022c4.193,0,8.077-2.326,10.041-6.068l51.634-98.396l23.285,55.333
		c1.735,4.126,5.736,6.843,10.217,6.939c4.444-0.022,8.586-2.459,10.491-6.512l51.656-109.75l42.169,123.703
		c1.344,3.942,4.739,6.829,8.852,7.522c4.112,0.665,8.269-0.93,10.831-4.223l53.849-69.227l24.85,19.217l5.742-42.324l5.773-42.31
		L336.092,50.074z"/>
</g>
<g id="Layer_4" display="none">
	<g display="inline">
		<path fill="#000000" d="M0,129.241h46.279c1.184,4.747,2.522,8.259,4.219,10.714c2.277,3.274,6.012,6.176,11.221,8.705v-39.434
			c-15.03-4.175-25.685-7.783-31.979-10.841c-6.28-3.051-11.733-7.946-16.347-14.688c-4.613-6.733-6.92-14.948-6.92-24.628
			c0-13.252,4.628-24.323,13.892-33.223c9.271-8.898,23.051-13.831,41.354-14.799V0h16.295v11.049
			c16.666,1.042,29.404,4.985,38.229,11.83c8.81,6.846,14.561,16.221,17.24,28.125H89.055c-0.967-1.912-1.86-3.355-2.723-4.412
			c-1.682-2.038-4.45-4.106-8.318-6.189v32.283c22.618,6.035,37.723,12.404,45.313,19.107c10.044,9.011,15.066,20.439,15.066,34.286
			c0,8.117-1.809,15.558-5.409,22.336c-3.616,6.778-8.229,12.44-13.839,16.979c-5.625,4.539-11.593,7.835-17.917,9.881
			s-14.063,3.259-23.214,3.631V200H61.719v-21.094c-10.938-0.967-19.814-2.73-26.622-5.305c-6.801-2.56-12.679-6.116-17.634-10.655
			c-4.941-4.538-8.758-9.435-11.437-14.673C3.348,143.021,1.339,136.682,0,129.241z M61.719,39.844
			c-4.762,1.57-8.073,3.52-9.934,5.833c-1.86,2.314-2.79,5.045-2.79,8.185c0,3.289,0.945,6.153,2.828,8.579
			c1.89,2.433,5.186,4.464,9.896,6.102V39.844z M78.014,149.777c6.324-1.422,10.952-3.75,13.898-7.002
			c2.932-3.244,4.404-6.883,4.404-10.915c0-3.505-1.25-6.733-3.734-9.681c-2.485-2.953-7.337-5.691-14.568-8.222V149.777z"/>
	</g>
</g>
</svg>
