<?xml version="1.0" encoding="utf-8"?>
<!-- Generator: Adobe Illustrator 16.0.0, SVG Export Plug-In . SVG Version: 6.00 Build 0)  -->
<!DOCTYPE svg PUBLIC "-//W3C//DTD SVG 1.1//EN" "http://www.w3.org/Graphics/SVG/1.1/DTD/svg11.dtd">
<svg version="1.1" id="Layer_1" xmlns="http://www.w3.org/2000/svg" xmlns:xlink="http://www.w3.org/1999/xlink" x="0px" y="0px"
	 width="183.514px" height="148.213px" viewBox="0 0 183.514 148.213" enable-background="new 0 0 183.514 148.213"
	 xml:space="preserve">
<g>
	<g>
		<g>
			<path fill="#494949" d="M35.783,3.583V0.601h27.086v2.982c-9.939,1.118-8.821,2.236-6.213,13.046l10.811,44.977l11.182-48.083
				c1.615-6.833,2.237-8.821-5.094-9.691l-2.236-0.248V0.601h20.501v2.982c-7.083,1.118-7.331,2.236-9.442,10.81L64.609,88.196
				h-1.74l-16.4-66.971L30.316,88.196h-1.74L9.566,10.789C8.076,4.825,7.951,4.452,0,3.583V0.601h27.583v2.982
				c-7.579,0.869-7.206,2.609-4.597,13.046l10.685,42.617l10.935-45.6C42.244,4.825,41.25,4.204,35.783,3.583z"/>
			<path fill="#494949" d="M101.137,80.762c-2.608,0-5.59,4.597-6.461,6.461h-2.236V59.267h2.236
				c6.711,15.158,16.277,26.465,24.229,26.465c6.461,0,9.318-5.839,9.318-12.424c0-11.059-8.697-17.519-17.519-24.477
				c-8.946-7.207-18.017-14.785-18.017-28.08C92.688,10.065,99.646,0,110.457,0c9.318,0,12.548,6.337,15.405,6.337
				c1.616,0,3.106-1.492,4.97-5.219h1.74v25.347h-2.236c-4.474-12.176-10.934-23.358-20.128-23.358
				c-5.592,0-9.195,4.97-9.195,11.555c0,10.313,8.821,16.898,17.644,23.98c8.822,7.208,17.768,14.91,17.768,27.584
				c0,12.797-6.585,22.488-17.27,22.488C109.338,88.714,103.747,80.762,101.137,80.762z"/>
			<path fill="#494949" d="M141.643,74.031c0-8.45,5.839-11.68,8.697-11.68c3.23,0,6.336,2.112,6.336,6.709
				c0,6.088-7.951,6.585-7.951,10.313c0,3.728,2.111,6.336,6.336,6.336c8.326,0,8.449-6.956,8.449-20.128V9.173
				c0-4.473-1.367-5.591-7.331-5.591h-2.112V0.601h29.447v2.982h-2.609c-4.721,0-5.964,1.118-5.964,5.715v59.516
				c0,12.549-9.07,20.128-18.886,20.128C148.6,88.942,141.643,83.722,141.643,74.031z"/>
		</g>
	</g>
	<polygon fill="#119A48" points="70.594,148.213 174.967,148.213 174.967,97.265 19.621,97.265 	"/>
	<polygon fill="#1F5A2D" points="19.621,97.265 19.621,97.265 70.594,97.265 70.594,148.213 	"/>
	<g>
		<g>
			<path fill="#FFFFFF" d="M102.984,137.539c0,1.146-0.684,1.511-1.578,1.511H81.424c-1.104,0-1.684-0.261-1.684-1.667v-29.953
				c0-0.939,0.473-1.459,1.473-1.459h5.313c1.156,0,1.576,0.365,1.576,1.563v24.53h13.411c0.999,0,1.472,0.574,1.472,1.512V137.539z
				"/>
			<path fill="#FFFFFF" d="M114.019,137.539c0,1.042-0.473,1.511-1.524,1.511h-4.733c-1.104,0-1.63-0.364-1.63-1.511v-22.525
				c0-1.042,0.684-1.355,1.63-1.355h4.733c0.999,0,1.524,0.26,1.524,1.355V137.539z"/>
			<path fill="#FFFFFF" d="M142.645,115.17l-9.519,22.784c-0.368,0.937-0.789,1.095-1.788,1.095h-3.102
				c-0.895,0-1.473-0.158-1.842-1.042l-9.413-23.098c-0.052-0.206-0.105-0.365-0.105-0.521c0-0.416,0.315-0.729,1.104-0.729h6.047
				c1,0,1.473,0.469,1.736,1.304l3.392,10.392c0.368,1.096,0.789,2.66,1.052,3.754h0.053c0.264-0.938,0.605-2.311,0.973-3.458
				l3.523-10.687c0.369-1.044,0.79-1.304,1.946-1.304h4.838c0.788,0,1.263,0.313,1.263,0.886
				C142.803,114.703,142.75,114.962,142.645,115.17z"/>
			<path fill="#FFFFFF" d="M167.338,126.901c0,1.251-0.579,1.512-1.893,1.512h-14.935c0.459,3.304,3.188,5.111,6.471,5.111
				c2.368,0,5.045-0.522,7.148-1.356c0.21-0.104,0.421-0.157,0.631-0.157c0.474,0,0.737,0.313,0.842,0.731
				c0.21,0.885,0.999,3.285,0.999,4.065c0,0.677-0.473,0.888-0.999,1.147c-2.787,1.252-6.876,1.773-9.925,1.773
				c-8.361,0-13.266-5.109-13.266-13.451c0-8.083,5.521-13.401,13.619-13.401c3.365,0,6.205,1.252,8.151,3.338
				c2.63,2.764,3.155,6.361,3.155,10.011V126.901z M159.607,123.46c0-2.243-1.346-4.535-4.145-4.535
				c-2.691,0-4.468,2.083-4.844,4.535H159.607z"/>
		</g>
		<path fill="#FFFFFF" d="M110.021,111.762c-1.919,0-4.089-1.352-4.089-3.754c0-2.452,2.019-3.854,4.089-3.854
			c2.02,0,4.038,1.402,4.038,3.805C114.06,110.359,111.939,111.762,110.021,111.762z"/>
	</g>
</g>
</svg>
