<?xml version="1.0" encoding="utf-8"?>
<!-- Generator: Adobe Illustrator 16.0.0, SVG Export Plug-In . SVG Version: 6.00 Build 0)  -->
<!DOCTYPE svg PUBLIC "-//W3C//DTD SVG 1.1//EN" "http://www.w3.org/Graphics/SVG/1.1/DTD/svg11.dtd">
<svg version="1.1" id="Layer_1" xmlns="http://www.w3.org/2000/svg" xmlns:xlink="http://www.w3.org/1999/xlink" x="0px" y="0px"
	 width="77.429px" height="40px" viewBox="0 0 77.429 40" enable-background="new 0 0 77.429 40" xml:space="preserve">
<path d="M35.079,1.771h-0.396c-1.901,0-2.88,0.349-3.556,3.597L23.915,40H21.69l-4.494-22.661h-0.049L12.552,40h-2.224L3.265,4.482
	C2.812,2.217,2.157,1.771,0.149,1.771H0V0.294h10.724v1.478h-0.195c-1.545,0-1.93,0.542-1.93,1.576c0,0.237-0.006,0.599,0.051,0.886
	l4.494,24.039h0.102l2.912-15.81l-1.529-7.98c-0.383-1.974-0.83-2.711-2.421-2.711H11.96V0.294h10.57v1.478h-0.195
	c-1.973,0-2.369,0.662-2.374,2.019c0,0.364,0.063,0.782,0.149,1.233l4.494,22.958h0.102l4.248-23.007
	c0.062-0.331,0.098-0.647,0.098-0.938c0-1.576-0.525-2.266-2.619-2.266H26.14V0.294h8.939V1.771z M45.413,40
	c-3.594,0-5.236-1.18-6.963-2.362l-0.939,2.071h-1.037V26.161h1.334v0.392c0,9.511,4.799,11.675,7.21,11.675
	c3.667,0,5.288-2.101,5.288-6.254c0-4.534-2.854-7.836-6.967-10.938c-3.725-2.815-7.161-6.261-7.161-12.02
	C36.178,3.082,39.845,0,44.229,0c3.65,0,5.348,1.478,6.322,2.313l0.988-1.922h0.99V13.99h-1.334v-0.395
	c0-7.391-2.225-11.824-6.621-11.824c-2.784,0-4.248,1.958-4.248,5.076c0,3.706,2.193,5.812,6.273,8.968
	c4.521,3.494,8.004,7.174,8.004,14.333C54.604,37.123,50.368,40,45.413,40z M77.429,1.771h-0.99c-1.338,0-2.175,0.64-2.175,2.266
	v27.491c0,6.17-3.882,8.472-8.843,8.472c-3.551,0-7.113-2.894-7.113-8.472c0-2.996,1.869-4.285,3.357-4.285
	c1.549,0,2.67,1.093,2.67,2.956c0,2.378-1.396,3.378-3.21,3.646c0,2.022,1.563,4.382,4.247,4.382c2.574,0,3.457-1.416,3.457-5.664
	V4.037c0-1.626-0.785-2.266-2.123-2.266h-1.038V0.294h11.761V1.771z"/>
</svg>
