<?xml version="1.0" encoding="UTF-8" standalone="no"?>
<!-- Created with Inkscape (http://www.inkscape.org/) -->
<svg
   xmlns:dc="http://purl.org/dc/elements/1.1/"
   xmlns:cc="http://creativecommons.org/ns#"
   xmlns:rdf="http://www.w3.org/1999/02/22-rdf-syntax-ns#"
   xmlns:svg="http://www.w3.org/2000/svg"
   xmlns="http://www.w3.org/2000/svg"
   xmlns:sodipodi="http://sodipodi.sourceforge.net/DTD/sodipodi-0.dtd"
   xmlns:inkscape="http://www.inkscape.org/namespaces/inkscape"
   width="301"
   height="28"
   id="svg6895"
   sodipodi:version="0.32"
   inkscape:version="0.46"
   version="1.0"
   sodipodi:docname="The Wall Street Journal Logo.svg"
   inkscape:output_extension="org.inkscape.output.svg.inkscape">
  <defs
     id="defs6897">
    <inkscape:perspective
       sodipodi:type="inkscape:persp3d"
       inkscape:vp_x="0 : 526.18109 : 1"
       inkscape:vp_y="0 : 1000 : 0"
       inkscape:vp_z="744.09448 : 526.18109 : 1"
       inkscape:persp3d-origin="372.04724 : 350.78739 : 1"
       id="perspective6903" />
  </defs>
  <sodipodi:namedview
     id="base"
     pagecolor="#ffffff"
     bordercolor="#666666"
     borderopacity="1.0"
     gridtolerance="10000"
     guidetolerance="10"
     objecttolerance="10"
     inkscape:pageopacity="0.0"
     inkscape:pageshadow="2"
     inkscape:zoom="3.959798"
     inkscape:cx="156.09352"
     inkscape:cy="10.749328"
     inkscape:document-units="px"
     inkscape:current-layer="layer1"
     showgrid="false"
     inkscape:window-width="1280"
     inkscape:window-height="750"
     inkscape:window-x="-8"
     inkscape:window-y="-8" />
  <metadata
     id="metadata6900">
    <rdf:RDF>
      <cc:Work
         rdf:about="">
        <dc:format>image/svg+xml</dc:format>
        <dc:type
           rdf:resource="http://purl.org/dc/dcmitype/StillImage" />
      </cc:Work>
    </rdf:RDF>
  </metadata>
  <g
     inkscape:label="Layer 1"
     inkscape:groupmode="layer"
     id="layer1"
     transform="translate(-126.06765,-509.01785)">
    <g
       id="g7067"
       transform="matrix(5.0981975,0,0,5.0981975,-1735.5538,-2188.2447)">
      <path
         id="path11107"
         style="fill:#1e1917;fill-opacity:1;fill-rule:evenodd;stroke:none"
         d="M 374.0251,534.2862 L 371.5296,534.2862 L 371.5296,534.10333 L 371.65823,534.10333 C 371.82373,534.10333 371.92148,534.02433 371.92148,533.8227 L 371.92148,529.87095 C 371.92148,529.6697 371.82373,529.59058 371.65823,529.59058 L 371.52398,529.59058 L 371.52398,529.40783 L 374.0251,529.40783 L 374.0251,531.0852 L 373.86035,531.0852 L 373.86035,531.06608 C 373.86035,530.07258 373.55748,529.62045 373.00398,529.62045 L 372.5936,529.62045 L 372.5936,531.6457 L 372.69823,531.6457 C 373.0096,531.6457 373.15635,531.34633 373.15635,530.71845 L 373.15635,530.70045 L 373.32185,530.70045 L 373.32185,532.81045 L 373.15635,532.81045 L 373.15635,532.79833 C 373.15635,532.1822 373.0156,531.8647 372.69823,531.8647 L 372.5936,531.8647 L 372.5936,534.07358 L 372.97948,534.07358 C 373.52623,534.07358 373.86035,533.54283 373.86035,532.63295 L 373.86035,532.6152 L 374.0251,532.6152 L 374.0251,534.2862 z" />
      <path
         id="path11109"
         style="fill:#1e1917;fill-opacity:1;fill-rule:evenodd;stroke:none"
         d="M 371.36485,534.2862 L 369.90323,534.2862 L 369.90323,534.10333 L 370.02548,534.10333 C 370.19023,534.10333 370.29435,534.02433 370.29435,533.8227 L 370.29435,531.90795 L 369.22398,531.90795 L 369.22398,533.8227 C 369.22398,534.02433 369.32773,534.10333 369.49323,534.10333 L 369.62185,534.10333 L 369.62185,534.2862 L 368.15385,534.2862 L 368.15385,534.10333 L 368.2821,534.10333 C 368.44798,534.10333 368.55148,534.02433 368.55148,533.8227 L 368.55148,529.87095 C 368.55148,529.6697 368.44798,529.59058 368.2821,529.59058 L 368.15385,529.59058 L 368.15385,529.40783 L 369.62185,529.40783 L 369.62185,529.59058 L 369.49323,529.59058 C 369.32773,529.59058 369.22398,529.6697 369.22398,529.87095 L 369.22398,531.6457 L 370.29435,531.6457 L 370.29435,529.87095 C 370.29435,529.6697 370.19023,529.59058 370.02548,529.59058 L 369.90323,529.59058 L 369.90323,529.40783 L 371.36485,529.40783 L 371.36485,529.59058 L 371.23623,529.59058 C 371.0711,529.59058 370.96685,529.6697 370.96685,529.87095 L 370.96685,533.8227 C 370.96685,534.02433 371.0711,534.10333 371.23623,534.10333 L 371.36485,534.10333 L 371.36485,534.2862 z" />
      <path
         id="path11111"
         style="fill:#1e1917;fill-opacity:1;fill-rule:evenodd;stroke:none"
         d="M 368.07448,531.09658 L 367.90935,531.09658 L 367.90935,531.07845 C 367.90935,530.29145 367.61035,529.62045 367.26098,529.62045 L 367.1146,529.62045 L 367.1146,533.8227 C 367.1146,534.02433 367.21773,534.10333 367.3836,534.10333 L 367.53623,534.10333 L 367.53623,534.2862 L 366.03185,534.2862 L 366.03185,534.10333 L 366.17285,534.10333 C 366.3376,534.10333 366.44173,534.02433 366.44173,533.8227 L 366.44173,529.62045 L 366.3131,529.62045 C 365.96373,529.62045 365.66473,530.24933 365.66473,531.07845 L 365.66473,531.09658 L 365.4996,531.09658 L 365.4996,529.40783 L 368.07448,529.40783 L 368.07448,531.09658 z" />
      <path
         id="path11113"
         style="fill:#1e1917;fill-opacity:1;fill-rule:evenodd;stroke:none"
         d="M 386.47348,534.2862 L 384.00873,534.2862 L 384.00873,534.10333 L 384.18023,534.10333 C 384.34535,534.10333 384.4496,534.03008 384.4496,533.82808 L 384.4496,529.86483 C 384.4496,529.6622 384.34535,529.59058 384.18023,529.59058 L 384.0456,529.59058 L 384.0456,529.40783 L 385.5016,529.40783 L 385.5016,529.59058 L 385.38498,529.59058 C 385.21948,529.59058 385.1161,529.6622 385.1161,529.86483 L 385.1161,534.07358 L 385.47635,534.07358 C 386.13585,534.07358 386.30798,533.32245 386.30798,532.62758 L 386.30798,532.6092 L 386.47348,532.6092 L 386.47348,534.2862 z" />
      <path
         id="path11115"
         style="fill:#1e1917;fill-opacity:1;fill-rule:evenodd;stroke:none"
         d="M 383.92373,534.2862 L 381.4586,534.2862 L 381.5561,534.10333 L 381.6301,534.10333 C 381.7956,534.10333 381.8991,534.03008 381.8991,533.82808 L 381.8991,529.86483 C 381.8991,529.6622 381.7956,529.59058 381.6301,529.59058 L 381.49623,529.59058 L 381.49623,529.40783 L 382.95148,529.40783 L 382.95148,529.59058 L 382.83485,529.59058 C 382.66973,529.59058 382.5656,529.6622 382.5656,529.86483 L 382.5656,534.07358 L 382.92698,534.07358 C 383.58573,534.07358 383.75823,533.3292 383.75823,532.62083 L 383.75823,532.60245 L 383.92373,532.60245 L 383.92373,534.2862 z" />
      <path
         id="path11117"
         style="fill:#1e1917;fill-opacity:1;fill-rule:evenodd;stroke:none"
         d="M 379.50173,529.59058 L 379.45248,529.59058 C 379.21748,529.59058 379.09635,529.63383 379.01235,530.03533 L 378.11948,534.3227 L 377.8441,534.3227 L 377.28785,531.51783 L 377.28185,531.51783 L 376.7131,534.3227 L 376.4381,534.3227 L 375.56323,529.92583 C 375.50735,529.6452 375.4261,529.59058 375.17773,529.59058 L 375.15935,529.59058 L 375.15935,529.40783 L 376.48673,529.40783 L 376.48673,529.59058 L 376.46223,529.59058 C 376.2716,529.59058 376.22373,529.6572 376.22373,529.7852 C 376.22373,529.81495 376.2231,529.85995 376.2301,529.89495 L 376.78648,532.8707 L 376.79848,532.8707 L 377.15885,530.91445 L 376.9696,529.92583 C 376.92185,529.68208 376.8661,529.59058 376.6706,529.59058 L 376.63935,529.59058 L 376.63935,529.40783 L 377.94798,529.40783 L 377.94798,529.59058 L 377.92385,529.59058 C 377.67973,529.59058 377.6301,529.67245 377.6301,529.84008 C 377.6301,529.88545 377.63785,529.93608 377.64885,529.99245 L 378.20485,532.83458 L 378.2176,532.83458 L 378.74373,529.98708 C 378.75085,529.9457 378.75548,529.90708 378.75548,529.87095 C 378.75548,529.67608 378.6906,529.59058 378.43123,529.59058 L 378.39473,529.59058 L 378.39473,529.40783 L 379.50173,529.40783 L 379.50173,529.59058 z" />
      <path
         id="path11119"
         style="fill:#1e1917;fill-opacity:1;fill-rule:evenodd;stroke:none"
         d="M 381.57485,534.2862 L 380.1866,534.2862 L 380.1866,534.10333 L 380.2231,534.10333 C 380.47648,534.10333 380.55335,534.03645 380.55335,533.8957 C 380.55335,533.85645 380.54548,533.8032 380.53523,533.74946 L 380.41898,533.10308 L 379.58748,533.10308 L 379.47085,533.74946 C 379.4606,533.80858 379.45248,533.85283 379.45248,533.8957 C 379.45248,534.04745 379.5116,534.10333 379.76498,534.10333 L 379.78898,534.10333 L 379.78898,534.2862 L 378.74373,534.2862 L 378.74373,534.10333 L 378.7976,534.10333 C 379.01235,534.10333 379.13498,534.05345 379.18948,533.76783 L 380.03985,529.3592 L 380.35098,529.3592 L 381.22685,533.74946 C 381.2786,534.01445 381.41573,534.10333 381.53235,534.10333 L 381.57485,534.10333 L 381.57485,534.2862 z M 380.3701,532.87745 L 380.00273,530.71845 L 379.99098,530.71845 L 379.62423,532.87745 L 380.3701,532.87745 z" />
      <path
         id="path11121"
         style="fill:#1e1917;fill-opacity:1;fill-rule:evenodd;stroke:none"
         d="M 403.77473,531.09658 L 403.6096,531.09658 L 403.6096,531.07845 C 403.6096,530.29145 403.3116,529.62045 402.9616,529.62045 L 402.81523,529.62045 L 402.81523,533.8227 C 402.81523,534.02433 402.91835,534.10333 403.08448,534.10333 L 403.2361,534.10333 L 403.2361,534.2862 L 401.73235,534.2862 L 401.73235,534.10333 L 401.8731,534.10333 C 402.03848,534.10333 402.14235,534.02433 402.14235,533.8227 L 402.14235,529.62045 L 402.01373,529.62045 C 401.66398,529.62045 401.3656,530.24933 401.3656,531.07845 L 401.3656,531.09658 L 401.20023,531.09658 L 401.20023,529.40783 L 403.77473,529.40783 L 403.77473,531.09658 z" />
      <path
         id="path11123"
         style="fill:#1e1917;fill-opacity:1;fill-rule:evenodd;stroke:none"
         d="M 400.98648,534.2862 L 398.49098,534.2862 L 398.49098,534.10333 L 398.6196,534.10333 C 398.78473,534.10333 398.88248,534.02433 398.88248,533.8227 L 398.88248,529.87095 C 398.88248,529.6697 398.78473,529.59058 398.6196,529.59058 L 398.48498,529.59058 L 398.48498,529.40783 L 400.98648,529.40783 L 400.98648,531.0852 L 400.8211,531.0852 L 400.8211,531.06608 C 400.8211,530.07258 400.5181,529.62045 399.96498,529.62045 L 399.55535,529.62045 L 399.55535,531.6457 L 399.65923,531.6457 C 399.97098,531.6457 400.1181,531.34633 400.1181,530.71845 L 400.1181,530.70045 L 400.28385,530.70045 L 400.28385,532.81045 L 400.1181,532.81045 L 400.1181,532.79833 C 400.1181,532.1822 399.97735,531.8647 399.65923,531.8647 L 399.55535,531.8647 L 399.55535,534.07358 L 399.94048,534.07358 C 400.48723,534.07358 400.8211,533.54283 400.8211,532.63295 L 400.8211,532.6152 L 400.98648,532.6152 L 400.98648,534.2862 z" />
      <path
         id="path11125"
         style="fill:#1e1917;fill-opacity:1;fill-rule:evenodd;stroke:none"
         d="M 398.31985,534.2862 L 395.82498,534.2862 L 395.82498,534.10333 L 395.9536,534.10333 C 396.11798,534.10333 396.21548,534.02433 396.21548,533.8227 L 396.21548,529.87095 C 396.21548,529.6697 396.11798,529.59058 395.9536,529.59058 L 395.81898,529.59058 L 395.81898,529.40783 L 398.31985,529.40783 L 398.31985,531.0852 L 398.15473,531.0852 L 398.15473,531.06608 C 398.15473,530.07258 397.85173,529.62045 397.29823,529.62045 L 396.88898,529.62045 L 396.88898,531.6457 L 396.99323,531.6457 C 397.30398,531.6457 397.45135,531.34633 397.45135,530.71845 L 397.45135,530.70045 L 397.6161,530.70045 L 397.6161,532.81045 L 397.45135,532.81045 L 397.45135,532.79833 C 397.45135,532.1822 397.31135,531.8647 396.99285,531.8647 L 396.88898,531.8647 L 396.88898,534.07358 L 397.27385,534.07358 C 397.82098,534.07358 398.15473,533.54283 398.15473,532.63295 L 398.15473,532.6152 L 398.31985,532.6152 L 398.31985,534.2862 z" />
      <path
         id="path11127"
         style="fill:#1e1917;fill-opacity:1;fill-rule:evenodd;stroke:none"
         d="M 392.6881,531.09658 L 392.52185,531.09658 L 392.52185,531.07845 C 392.52185,530.29145 392.22398,529.62045 391.87385,529.62045 L 391.7271,529.62045 L 391.7271,533.8227 C 391.7271,534.02433 391.83098,534.10333 391.99648,534.10333 L 392.14885,534.10333 L 392.14885,534.2862 L 390.64498,534.2862 L 390.64498,534.10333 L 390.78573,534.10333 C 390.95048,534.10333 391.05423,534.02433 391.05423,533.8227 L 391.05423,529.62045 L 390.92598,529.62045 C 390.57623,529.62045 390.2776,530.24933 390.2776,531.07845 L 390.2776,531.09658 L 390.11285,531.09658 L 390.11285,529.40783 L 392.6881,529.40783 L 392.6881,531.09658 z" />
      <path
         id="path11129"
         style="fill:#1e1917;fill-opacity:1;fill-rule:evenodd;stroke:none"
         d="M 390.10648,533.10308 C 390.10648,533.9662 389.58198,534.3227 388.96898,534.3227 C 388.52398,534.3227 388.32023,534.1767 388.10698,534.03008 L 387.99035,534.2862 L 387.8621,534.2862 L 387.8621,532.6092 L 388.02685,532.6092 L 388.02685,532.65808 C 388.02685,533.8352 388.6211,534.10333 388.9201,534.10333 C 389.37373,534.10333 389.57423,533.84295 389.57423,533.3292 C 389.57423,532.76758 389.22098,532.3587 388.71148,531.97458 C 388.25085,531.62733 387.82485,531.20033 387.82485,530.48745 C 387.82523,529.7532 388.27948,529.37095 388.8216,529.37095 C 389.27448,529.37095 389.48348,529.55445 389.60473,529.6572 L 389.72698,529.41908 L 389.8496,529.41908 L 389.8496,531.10295 L 389.68448,531.10295 L 389.68448,531.05395 C 389.68448,530.13945 389.4091,529.59058 388.86485,529.59058 C 388.51973,529.59058 388.33898,529.83258 388.33898,530.21883 C 388.33898,530.67733 388.61048,530.9382 389.1161,531.32895 C 389.67523,531.7612 390.10648,532.21658 390.10648,533.10308" />
      <path
         id="path11131"
         style="fill:#1e1917;fill-opacity:1;fill-rule:evenodd;stroke:none"
         d="M 395.78173,533.62108 C 395.78173,534.03045 395.62685,534.3227 395.22548,534.3227 C 394.82473,534.3227 394.6546,534.02545 394.62598,533.41983 L 394.58335,532.51133 C 394.56035,532.0312 394.37685,531.90195 394.09973,531.90195 L 393.92298,531.90195 L 393.92298,533.8227 C 393.92298,534.02433 394.0016,534.10333 394.1671,534.10333 L 394.33823,534.10333 L 394.33823,534.2862 L 392.8461,534.2862 L 392.8461,534.10333 L 392.9871,534.10333 C 393.15185,534.10333 393.2561,534.02433 393.2561,533.8227 L 393.2561,529.87095 C 393.2561,529.6697 393.15185,529.59058 392.9871,529.59058 L 392.8461,529.59058 L 392.8461,529.40783 L 394.18548,529.40783 C 394.9941,529.40783 395.5001,529.82133 395.5001,530.59058 C 395.5001,531.39558 394.93848,531.70033 394.44235,531.79808 L 394.44235,531.80983 C 394.8491,531.85308 395.2201,532.15458 395.24348,532.6152 L 395.29885,533.68208 C 395.3091,533.89433 395.3356,533.95745 395.43348,533.95745 C 395.55498,533.95745 395.57973,533.86558 395.57973,533.54883 L 395.57973,533.37171 L 395.78173,533.37171 L 395.78173,533.62108 z M 394.7971,530.60295 C 394.7971,529.84008 394.49523,529.62045 394.08173,529.62045 L 393.92298,529.62045 L 393.92298,531.67583 L 394.10573,531.67583 C 394.53773,531.67583 394.7971,531.38395 394.7971,530.60295" />
      <path
         id="path11133"
         style="fill:#1e1917;fill-opacity:1;fill-rule:evenodd;stroke:none"
         d="M 423.07235,534.2862 L 420.60798,534.2862 L 420.70535,534.10333 L 420.77948,534.10333 C 420.94423,534.10333 421.04835,534.03008 421.04835,533.82808 L 421.04835,529.8652 C 421.04835,529.6632 420.94423,529.59058 420.77948,529.59058 L 420.64447,529.59058 L 420.64447,529.40783 L 422.09973,529.40783 L 422.09973,529.59058 L 421.98348,529.59058 C 421.81898,529.59058 421.71485,529.6632 421.71485,529.8652 L 421.71485,534.07358 L 422.0756,534.07358 C 422.73535,534.07358 422.90723,533.3292 422.90723,532.62758 L 422.90723,532.6092 L 423.07235,532.6092 L 423.07235,534.2862 z" />
      <path
         id="path11135"
         style="fill:#1e1917;fill-opacity:1;fill-rule:evenodd;stroke:none"
         d="M 423.92335,533.98758 C 423.92335,534.17108 423.7866,534.3227 423.6406,534.3227 C 423.49498,534.3227 423.35972,534.17108 423.35972,533.98758 C 423.35972,533.80433 423.49498,533.65833 423.6406,533.65833 C 423.7866,533.65833 423.92335,533.80433 423.92335,533.98758" />
      <path
         id="path11137"
         style="fill:#1e1917;fill-opacity:1;fill-rule:evenodd;stroke:none"
         d="M 418.1436,529.59058 L 418.01423,529.59058 C 417.8626,529.59058 417.7396,529.70583 417.7396,529.9442 L 417.7396,534.30471 L 417.50085,534.30471 L 415.97223,530.46233 L 415.95985,530.46233 L 415.95985,533.74946 C 415.95985,533.98783 416.08135,534.10333 416.2351,534.10333 L 416.35735,534.10333 L 416.35735,534.2862 L 415.32385,534.2862 L 415.32385,534.10333 L 415.46485,534.10333 C 415.61785,534.10333 415.73972,533.98783 415.73972,533.74946 L 415.73972,529.89495 C 415.73972,529.72383 415.67348,529.59058 415.50135,529.59058 L 415.32385,529.59058 L 415.32385,529.40783 L 416.26598,529.40783 L 417.50748,532.54858 L 417.5196,532.54858 L 417.5196,529.9442 C 417.5196,529.7047 417.39735,529.59058 417.2436,529.59058 L 417.11535,529.59058 L 417.11535,529.40783 L 418.1436,529.40783 L 418.1436,529.59058 z" />
      <path
         id="path11139"
         style="fill:#1e1917;fill-opacity:1;fill-rule:evenodd;stroke:none"
         d="M 412.52348,529.59058 L 412.2656,529.59058 C 412.11285,529.59058 412.02148,529.7182 412.02148,529.9442 L 412.02148,533.19483 C 412.02148,533.84258 411.80423,534.3227 411.10373,534.3227 C 410.35898,534.3227 409.9231,533.8667 409.9231,533.19483 L 409.9231,529.87095 C 409.9231,529.6697 409.82598,529.59058 409.6616,529.59058 L 409.52623,529.59058 L 409.52623,529.40783 L 410.9581,529.40783 L 410.9581,529.59058 L 410.86523,529.59058 C 410.69973,529.59058 410.60273,529.6697 410.60273,529.87095 L 410.6031,533.23745 C 410.6031,533.78808 410.8196,534.10333 411.18985,534.10333 C 411.56535,534.10333 411.79473,533.83545 411.79473,533.23745 L 411.79473,529.9442 C 411.79473,529.7182 411.70923,529.59058 411.55685,529.59058 L 411.41623,529.59058 L 411.41623,529.40783 L 412.52348,529.40783 L 412.52348,529.59058 z" />
      <path
         id="path11141"
         style="fill:#1e1917;fill-opacity:1;fill-rule:evenodd;stroke:none"
         d="M 406.99423,529.59058 L 406.87198,529.59058 C 406.70648,529.59058 406.60198,529.6697 406.60198,529.87095 L 406.60198,533.2742 C 406.60198,534.03745 406.12223,534.3227 405.50848,534.3227 C 405.06835,534.3227 404.62798,533.96383 404.62798,533.2742 C 404.62798,532.9032 404.85935,532.74345 405.04223,532.74345 C 405.23498,532.74345 405.37348,532.87883 405.37348,533.10945 C 405.37348,533.40358 405.20098,533.52758 404.97598,533.56058 C 404.97598,533.81145 405.1701,534.10333 405.5021,534.10333 C 405.8206,534.10333 405.92973,533.92758 405.92973,533.40145 L 405.92973,529.87095 C 405.92973,529.6697 405.83273,529.59058 405.66723,529.59058 L 405.53823,529.59058 L 405.53823,529.40783 L 406.99423,529.40783 L 406.99423,529.59058 z" />
      <path
         id="path11143"
         style="fill:#1e1917;fill-opacity:1;fill-rule:evenodd;stroke:none"
         d="M 420.72348,534.2862 L 419.33547,534.2862 L 419.33547,534.10333 L 419.37235,534.10333 C 419.62573,534.10333 419.7026,534.03645 419.7026,533.8957 C 419.7026,533.85645 419.6941,533.8032 419.6846,533.74946 L 419.56835,533.10308 L 418.73635,533.10308 L 418.6201,533.74946 C 418.60948,533.80858 418.60172,533.85283 418.60172,533.8957 C 418.60172,534.04745 418.66123,534.10333 418.91385,534.10333 L 418.93873,534.10333 L 418.93873,534.2862 L 417.89273,534.2862 L 417.89273,534.10333 L 417.94685,534.10333 C 418.1606,534.10333 418.28423,534.05345 418.33885,533.76783 L 419.18923,529.3592 L 419.5006,529.3592 L 420.37548,533.74946 C 420.4286,534.01445 420.5651,534.10333 420.68123,534.10333 L 420.72348,534.10333 L 420.72348,534.2862 z M 419.51948,532.87745 L 419.15273,530.71845 L 419.1406,530.71845 L 418.77323,532.87745 L 419.51948,532.87745 z" />
      <path
         id="path11145"
         style="fill:#1e1917;fill-opacity:1;fill-rule:evenodd;stroke:none"
         d="M 415.31135,533.62108 C 415.31135,534.03045 415.15623,534.3227 414.75585,534.3227 C 414.35473,534.3227 414.18423,534.02545 414.15623,533.41983 L 414.1131,532.51133 C 414.09073,532.02883 413.9061,531.90195 413.63048,531.90195 L 413.45223,531.90195 L 413.45223,533.8227 C 413.45223,534.02433 413.53235,534.10333 413.6971,534.10333 L 413.86898,534.10333 L 413.86898,534.2862 L 412.3761,534.2862 L 412.3761,534.10333 L 412.51685,534.10333 C 412.68223,534.10333 412.7861,534.02433 412.7861,533.8227 L 412.7861,529.87095 C 412.7861,529.6697 412.68223,529.59058 412.51685,529.59058 L 412.3761,529.59058 L 412.3761,529.40783 L 413.7151,529.40783 C 414.52448,529.40783 415.0301,529.82133 415.0301,530.59058 C 415.0301,531.39558 414.4691,531.70033 413.97173,531.79808 L 413.97173,531.80983 C 414.37985,531.85308 414.74948,532.15208 414.77323,532.6152 L 414.8291,533.68208 C 414.8391,533.89545 414.8656,533.95745 414.9631,533.95745 C 415.08535,533.95745 415.10948,533.86558 415.10948,533.54883 L 415.10948,533.37171 L 415.31135,533.37171 L 415.31135,533.62108 z M 414.32635,530.60295 C 414.32635,529.84008 414.02485,529.62045 413.61098,529.62045 L 413.45223,529.62045 L 413.45223,531.67583 L 413.63573,531.67583 C 414.06773,531.67583 414.32635,531.38395 414.32635,530.60295" />
      <path
         id="path11147"
         style="fill:#1e1917;fill-opacity:1;fill-rule:evenodd;stroke:none"
         d="M 409.53798,531.83495 C 409.53798,533.2207 409.08298,534.3227 408.24785,534.3227 C 407.43248,534.3227 406.97573,533.2207 406.97573,531.83495 C 406.9761,530.44808 407.41373,529.37095 408.24785,529.37095 C 409.07273,529.37095 409.53798,530.44808 409.53798,531.83495 z M 408.77973,532.99358 L 408.77973,530.68795 C 408.77973,529.84546 408.59223,529.59058 408.24785,529.59058 C 407.90373,529.59058 407.72835,529.83258 407.72835,530.70045 L 407.72835,532.98658 C 407.72835,533.80083 407.88498,534.10333 408.24785,534.10333 C 408.6046,534.10333 408.77973,533.78133 408.77973,532.99358" />
    </g>
  </g>
</svg>
