<?xml version="1.0" encoding="utf-8"?>
<!-- Generator: Adobe Illustrator 16.0.0, SVG Export Plug-In . SVG Version: 6.00 Build 0)  -->
<!DOCTYPE svg PUBLIC "-//W3C//DTD SVG 1.1//EN" "http://www.w3.org/Graphics/SVG/1.1/DTD/svg11.dtd">
<svg version="1.1" id="Layer_1" xmlns="http://www.w3.org/2000/svg" xmlns:xlink="http://www.w3.org/1999/xlink" x="0px" y="0px"
	 width="183.514px" height="148.214px" viewBox="0 0 183.514 148.214" enable-background="new 0 0 183.514 148.214"
	 xml:space="preserve">
<g>
	<path fill="#FFFFFF" d="M30.316,88.195l16.152-66.968l16.4,66.968h1.74l17.768-73.803c2.111-8.573,2.36-9.691,9.442-10.809V0.602
		H71.318v2.981l2.236,0.247c7.331,0.87,6.709,2.858,5.094,9.691L67.467,61.607l-10.81-44.979C54.048,5.818,52.93,4.7,62.869,3.583
		V0.602H35.783v2.981c5.467,0.62,6.461,1.241,8.821,10.063L33.671,59.246L22.985,16.628C20.377,6.191,20.004,4.452,27.583,3.583
		V0.602H0v2.981c7.951,0.869,8.076,1.241,9.566,7.205l19.011,77.407H30.316z"/>
	<path fill="#FFFFFF" d="M101.138,80.761c2.609,0,8.2,7.953,18.017,7.953c10.685,0,17.27-9.691,17.27-22.49
		c0-12.672-8.945-20.377-17.768-27.583c-8.821-7.081-17.644-13.667-17.644-23.98c0-6.585,3.604-11.555,9.195-11.555
		c9.193,0,15.654,11.183,20.128,23.358h2.236V1.119h-1.74c-1.862,3.727-3.354,5.218-4.97,5.218c-2.856,0-6.087-6.337-15.406-6.337
		c-10.81,0-17.767,10.064-17.767,20.75c0,13.295,9.068,20.873,18.015,28.08c8.822,6.959,17.52,13.42,17.52,24.479
		c0,6.584-2.857,12.424-9.318,12.424c-7.952,0-17.519-11.307-24.229-26.465H92.44v27.955h2.235
		C95.546,85.359,98.528,80.761,101.138,80.761z"/>
	<path fill="#FFFFFF" d="M154.066,0.602v2.981h2.112c5.964,0,7.331,1.117,7.331,5.591v56.408c0,13.17-0.124,20.129-8.45,20.129
		c-4.224,0-6.335-2.609-6.335-6.336c0-3.729,7.951-4.225,7.951-10.314c0-4.598-3.106-6.709-6.336-6.709
		c-2.858,0-8.698,3.23-8.698,11.68c0,9.691,6.957,14.91,14.413,14.91c9.815,0,18.885-7.578,18.885-20.129V9.297
		c0-4.597,1.243-5.714,5.965-5.714h2.609V0.602H154.066z"/>
	<path fill="#FFFFFF" d="M71.632,148.214h103.336V97.265H71.632V148.214z M114.166,137.539c0,1.041-0.474,1.51-1.526,1.51h-4.732
		c-1.104,0-1.63-0.363-1.63-1.51v-22.525c0-1.043,0.684-1.355,1.63-1.355h4.732c1,0,1.526,0.262,1.526,1.355V137.539z
		 M156.178,112.876c3.366,0,6.206,1.252,8.151,3.336c2.629,2.764,3.155,6.361,3.155,10.01v0.678c0,1.252-0.579,1.512-1.893,1.512
		h-14.934c0.457,3.305,3.187,5.111,6.47,5.111c2.368,0,5.045-0.521,7.148-1.355c0.211-0.105,0.421-0.158,0.632-0.158
		c0.473,0,0.736,0.314,0.84,0.732c0.211,0.885,1,3.285,1,4.066c0,0.676-0.474,0.885-1,1.146c-2.787,1.25-6.874,1.773-9.924,1.773
		c-8.361,0-13.267-5.109-13.267-13.453C142.558,118.193,148.08,112.876,156.178,112.876z M118.127,113.658h6.048
		c0.999,0,1.473,0.471,1.736,1.305l3.391,10.393c0.369,1.094,0.789,2.658,1.053,3.752h0.052c0.263-0.938,0.605-2.311,0.974-3.457
		l3.523-10.688c0.367-1.043,0.788-1.305,1.945-1.305h4.839c0.788,0,1.261,0.313,1.261,0.887c0,0.158-0.052,0.418-0.157,0.625
		l-9.518,22.785c-0.369,0.938-0.79,1.094-1.789,1.094h-3.103c-0.894,0-1.472-0.156-1.841-1.041l-9.413-23.1
		c-0.053-0.205-0.105-0.363-0.105-0.521C117.022,113.97,117.338,113.658,118.127,113.658z M110.168,104.152
		c2.02,0,4.038,1.402,4.038,3.807c0,2.4-2.12,3.803-4.038,3.803c-1.919,0-4.089-1.352-4.089-3.754
		C106.079,105.554,108.098,104.152,110.168,104.152z M79.887,107.427c0-0.938,0.473-1.457,1.473-1.457h5.312
		c1.157,0,1.578,0.363,1.578,1.563v24.529h13.409c1,0,1.473,0.574,1.473,1.514v3.963c0,1.146-0.684,1.51-1.577,1.51H81.57
		c-1.104,0-1.684-0.26-1.684-1.666V107.427z"/>
	<path fill="#FFFFFF" d="M155.609,118.925c-2.691,0-4.467,2.082-4.844,4.535h8.989C159.755,121.218,158.409,118.925,155.609,118.925
		z"/>
	<polygon fill="#FFFFFF" points="70.394,148.214 70.394,97.265 19.419,97.265 	"/>
</g>
</svg>
