<?xml version="1.0" encoding="utf-8"?>
<!-- Generator: Adobe Illustrator 16.0.0, SVG Export Plug-In . SVG Version: 6.00 Build 0)  -->
<!DOCTYPE svg PUBLIC "-//W3C//DTD SVG 1.1//EN" "http://www.w3.org/Graphics/SVG/1.1/DTD/svg11.dtd">
<svg version="1.1" id="Layer_1" xmlns="http://www.w3.org/2000/svg" xmlns:xlink="http://www.w3.org/1999/xlink" x="0px" y="0px"
	 width="183.514px" height="148.214px" viewBox="0 0 183.514 148.214" enable-background="new 0 0 183.514 148.214"
	 xml:space="preserve">
<g>
	<g>
		<g>
			<path fill="#010101" d="M35.783,3.583V0.602h27.086v2.981C52.93,4.7,54.048,5.818,56.657,16.628l10.81,44.979l11.182-48.085
				c1.615-6.833,2.237-8.821-5.094-9.691l-2.236-0.247V0.602h20.501v2.981c-7.082,1.117-7.331,2.235-9.442,10.809L64.609,88.195
				h-1.74l-16.4-66.968L30.316,88.195h-1.739L9.566,10.788C8.076,4.824,7.951,4.452,0,3.583V0.602h27.583v2.981
				c-7.579,0.869-7.206,2.608-4.598,13.045l10.686,42.618l10.934-45.599C42.244,4.824,41.25,4.203,35.783,3.583z"/>
			<path fill="#010101" d="M101.138,80.761c-2.609,0-5.592,4.598-6.462,6.461H92.44V59.267h2.235
				c6.711,15.158,16.277,26.465,24.229,26.465c6.461,0,9.318-5.84,9.318-12.424c0-11.059-8.697-17.52-17.52-24.479
				c-8.946-7.207-18.015-14.785-18.015-28.08C92.689,10.064,99.646,0,110.456,0c9.319,0,12.55,6.337,15.406,6.337
				c1.616,0,3.107-1.491,4.97-5.218h1.74v25.346h-2.236c-4.474-12.176-10.935-23.358-20.128-23.358
				c-5.591,0-9.195,4.97-9.195,11.555c0,10.313,8.822,16.899,17.644,23.98c8.822,7.206,17.768,14.911,17.768,27.583
				c0,12.799-6.585,22.49-17.27,22.49C109.338,88.714,103.747,80.761,101.138,80.761z"/>
			<path fill="#010101" d="M141.642,74.031c0-8.449,5.84-11.68,8.698-11.68c3.229,0,6.336,2.111,6.336,6.709
				c0,6.09-7.951,6.586-7.951,10.314c0,3.727,2.111,6.336,6.335,6.336c8.326,0,8.45-6.959,8.45-20.129V9.174
				c0-4.474-1.367-5.591-7.331-5.591h-2.112V0.602h29.447v2.981h-2.609c-4.722,0-5.965,1.117-5.965,5.714v59.515
				c0,12.551-9.069,20.129-18.885,20.129C148.599,88.941,141.642,83.722,141.642,74.031z"/>
		</g>
	</g>
	<g>
		<rect x="71.632" y="97.265" fill="#010101" width="103.336" height="50.949"/>
		<polygon fill="#010101" points="70.394,97.265 19.419,97.265 70.394,148.214 		"/>
	</g>
	<g>
		<g>
			<path fill="#FFFFFF" d="M103.131,137.539c0,1.146-0.684,1.51-1.577,1.51H81.57c-1.104,0-1.684-0.26-1.684-1.666v-29.955
				c0-0.938,0.473-1.457,1.473-1.457h5.312c1.157,0,1.578,0.363,1.578,1.563v24.529h13.409c1,0,1.473,0.574,1.473,1.514V137.539z"/>
			<path fill="#FFFFFF" d="M114.166,137.539c0,1.041-0.474,1.51-1.526,1.51h-4.732c-1.104,0-1.63-0.363-1.63-1.51v-22.525
				c0-1.043,0.684-1.355,1.63-1.355h4.732c1,0,1.526,0.262,1.526,1.355V137.539z"/>
			<path fill="#FFFFFF" d="M142.791,115.169l-9.518,22.785c-0.369,0.938-0.79,1.094-1.789,1.094h-3.103
				c-0.894,0-1.472-0.156-1.841-1.041l-9.413-23.1c-0.053-0.205-0.105-0.363-0.105-0.521c0-0.416,0.315-0.729,1.104-0.729h6.048
				c0.999,0,1.473,0.471,1.736,1.305l3.391,10.393c0.369,1.094,0.789,2.658,1.053,3.752h0.052c0.263-0.938,0.605-2.311,0.974-3.457
				l3.523-10.688c0.367-1.043,0.788-1.305,1.945-1.305h4.839c0.788,0,1.261,0.313,1.261,0.887
				C142.948,114.703,142.896,114.962,142.791,115.169z"/>
			<path fill="#FFFFFF" d="M167.484,126.9c0,1.252-0.579,1.512-1.893,1.512h-14.934c0.457,3.305,3.187,5.111,6.47,5.111
				c2.368,0,5.045-0.521,7.148-1.355c0.211-0.105,0.421-0.158,0.632-0.158c0.473,0,0.736,0.314,0.84,0.732
				c0.211,0.885,1,3.285,1,4.066c0,0.676-0.474,0.885-1,1.146c-2.787,1.25-6.874,1.773-9.924,1.773
				c-8.361,0-13.267-5.109-13.267-13.453c0-8.082,5.522-13.398,13.62-13.398c3.366,0,6.206,1.252,8.151,3.336
				c2.629,2.764,3.155,6.361,3.155,10.01V126.9z M159.755,123.46c0-2.242-1.346-4.535-4.146-4.535c-2.691,0-4.467,2.082-4.844,4.535
				H159.755z"/>
		</g>
		<path fill="#FFFFFF" d="M110.168,111.761c-1.919,0-4.089-1.352-4.089-3.754c0-2.453,2.019-3.855,4.089-3.855
			c2.02,0,4.038,1.402,4.038,3.807C114.206,110.359,112.086,111.761,110.168,111.761z"/>
	</g>
</g>
</svg>
