<?xml version="1.0" encoding="utf-8"?>
<!-- Generator: Adobe Illustrator 15.0.0, SVG Export Plug-In . SVG Version: 6.00 Build 0)  -->
<!DOCTYPE svg PUBLIC "-//W3C//DTD SVG 1.1//EN" "http://www.w3.org/Graphics/SVG/1.1/DTD/svg11.dtd">
<svg version="1.1" id="Layer_1" xmlns="http://www.w3.org/2000/svg" xmlns:xlink="http://www.w3.org/1999/xlink" x="0px" y="0px"
	 width="40px" height="40px" viewBox="0 0 40 40" enable-background="new 0 0 40 40" xml:space="preserve">
<g opacity="0.3">
	<circle cx="20" cy="20" r="19"/>
</g>
<g>
	<path fill="#FFFFFF" d="M20,2c9.925,0,18,8.076,18,18s-8.075,18-18,18S2,29.925,2,20S10.075,2,20,2 M20,0C8.955,0,0,8.953,0,20
		c0,11.044,8.955,20,20,20c11.044,0,20-8.956,20-20C40,8.953,31.044,0,20,0L20,0z"/>
</g>
<polygon fill="#FFFFFF" points="36.293,9.363 30.637,3.707 37,3 "/>
</svg>
