<?xml version="1.0" encoding="utf-8"?>
<!-- Generator: Adobe Illustrator 16.0.0, SVG Export Plug-In . SVG Version: 6.00 Build 0)  -->
<!DOCTYPE svg PUBLIC "-//W3C//DTD SVG 1.1//EN" "http://www.w3.org/Graphics/SVG/1.1/DTD/svg11.dtd">
<svg version="1.1" xmlns="http://www.w3.org/2000/svg" xmlns:xlink="http://www.w3.org/1999/xlink" x="0px" y="0px" width="311px"
	 height="360px" viewBox="0 0 311 360" enable-background="new 0 0 311 360" xml:space="preserve">
<g>
	<g>
		<rect x="0.003" fill="#FFFFFF" width="310.997" height="322.428"/>
		<rect y="322.428" fill="#FF322E" width="311" height="37.586"/>
	</g>
	<g>
		<polygon points="71.585,84.846 19.308,241.655 57.158,241.655 92.666,130.817 110.463,186.23 87.441,186.23 78.247,217.861 
			120.622,217.861 128.263,241.655 167.195,241.655 114.924,84.846 		"/>
		<path d="M226.674,84.846H172.33v156.809h37.58V116.479h15.144c17.571,0,27.575,8.379,27.575,23.52
			c0,14.87-10.004,23.521-27.575,23.521h-2.433v31.633h4.053c40.553,0,64.345-20.414,64.345-55.154
			C291.019,104.582,267.227,84.846,226.674,84.846z"/>
	</g>
</g>
</svg>
